G04 #@! TF.GenerationSoftware,KiCad,Pcbnew,6.0.0-rc1-unknown-4a641ec~66~ubuntu18.04.1*
G04 #@! TF.CreationDate,2019-02-05T16:16:11-05:00
G04 #@! TF.ProjectId,ethoscope_stepper_controller_3x3,6574686f-7363-46f7-9065-5f7374657070,1.1*
G04 #@! TF.SameCoordinates,Original*
G04 #@! TF.FileFunction,Soldermask,Bot*
G04 #@! TF.FilePolarity,Negative*
%FSLAX46Y46*%
G04 Gerber Fmt 4.6, Leading zero omitted, Abs format (unit mm)*
G04 Created by KiCad (PCBNEW 6.0.0-rc1-unknown-4a641ec~66~ubuntu18.04.1) date 2019-02-05 16:16:11*
%MOMM*%
%LPD*%
G04 APERTURE LIST*
%ADD10C,0.228600*%
%ADD11C,0.100000*%
G04 APERTURE END LIST*
D10*
X189865000Y-132715000D02*
X189865000Y-70485000D01*
X121285000Y-139065000D02*
X183515000Y-139065000D01*
X114935000Y-70485000D02*
X114935000Y-132715000D01*
X121285000Y-64135000D02*
X183515000Y-64135000D01*
X189865000Y-132715000D02*
G75*
G02X183515000Y-139065000I-6350000J0D01*
G01*
X121285000Y-139065000D02*
G75*
G02X114935000Y-132715000I0J6350000D01*
G01*
X183515000Y-64135000D02*
G75*
G02X189865000Y-70485000I0J-6350000D01*
G01*
X114935000Y-70485000D02*
G75*
G02X121285000Y-64135000I6350000J0D01*
G01*
D11*
G36*
X151279574Y-135519040D02*
G01*
X151423401Y-135562670D01*
X151555948Y-135633518D01*
X151555949Y-135633519D01*
X151555951Y-135633520D01*
X151672132Y-135728868D01*
X151767480Y-135845049D01*
X151767481Y-135845051D01*
X151767482Y-135845052D01*
X151838330Y-135977599D01*
X151881960Y-136121426D01*
X151893000Y-136233521D01*
X151893000Y-136816479D01*
X151881960Y-136928574D01*
X151838330Y-137072401D01*
X151767482Y-137204948D01*
X151767481Y-137204950D01*
X151672132Y-137321132D01*
X151555948Y-137416482D01*
X151423400Y-137487330D01*
X151279573Y-137530960D01*
X151130000Y-137545691D01*
X150980426Y-137530960D01*
X150836599Y-137487330D01*
X150704052Y-137416482D01*
X150704051Y-137416481D01*
X150704049Y-137416480D01*
X150587868Y-137321132D01*
X150492518Y-137204948D01*
X150421670Y-137072400D01*
X150378040Y-136928573D01*
X150367000Y-136816478D01*
X150367000Y-136233521D01*
X150378040Y-136121426D01*
X150421669Y-135977601D01*
X150438159Y-135946751D01*
X150492520Y-135845049D01*
X150587869Y-135728868D01*
X150704050Y-135633520D01*
X150704052Y-135633519D01*
X150704053Y-135633518D01*
X150836600Y-135562670D01*
X150980427Y-135519040D01*
X151130000Y-135504309D01*
X151279574Y-135519040D01*
X151279574Y-135519040D01*
G37*
G36*
X153819574Y-135519040D02*
G01*
X153963401Y-135562670D01*
X154095948Y-135633518D01*
X154095949Y-135633519D01*
X154095951Y-135633520D01*
X154212132Y-135728868D01*
X154307480Y-135845049D01*
X154307481Y-135845051D01*
X154307482Y-135845052D01*
X154378330Y-135977599D01*
X154421960Y-136121426D01*
X154433000Y-136233521D01*
X154433000Y-136816479D01*
X154421960Y-136928574D01*
X154378330Y-137072401D01*
X154307482Y-137204948D01*
X154307481Y-137204950D01*
X154212132Y-137321132D01*
X154095948Y-137416482D01*
X153963400Y-137487330D01*
X153819573Y-137530960D01*
X153670000Y-137545691D01*
X153520426Y-137530960D01*
X153376599Y-137487330D01*
X153244052Y-137416482D01*
X153244051Y-137416481D01*
X153244049Y-137416480D01*
X153127868Y-137321132D01*
X153032518Y-137204948D01*
X152961670Y-137072400D01*
X152918040Y-136928573D01*
X152907000Y-136816478D01*
X152907000Y-136233521D01*
X152918040Y-136121426D01*
X152961669Y-135977601D01*
X152978159Y-135946751D01*
X153032520Y-135845049D01*
X153127869Y-135728868D01*
X153244050Y-135633520D01*
X153244052Y-135633519D01*
X153244053Y-135633518D01*
X153376600Y-135562670D01*
X153520427Y-135519040D01*
X153670000Y-135504309D01*
X153819574Y-135519040D01*
X153819574Y-135519040D01*
G37*
G36*
X151279574Y-130439040D02*
G01*
X151423401Y-130482670D01*
X151555948Y-130553518D01*
X151555949Y-130553519D01*
X151555951Y-130553520D01*
X151672132Y-130648868D01*
X151767480Y-130765049D01*
X151767481Y-130765051D01*
X151767482Y-130765052D01*
X151838330Y-130897599D01*
X151881960Y-131041426D01*
X151893000Y-131153521D01*
X151893000Y-131736479D01*
X151881960Y-131848574D01*
X151838330Y-131992401D01*
X151767482Y-132124948D01*
X151767481Y-132124950D01*
X151672132Y-132241132D01*
X151555948Y-132336482D01*
X151423400Y-132407330D01*
X151279573Y-132450960D01*
X151130000Y-132465691D01*
X150980426Y-132450960D01*
X150836599Y-132407330D01*
X150704052Y-132336482D01*
X150704051Y-132336481D01*
X150704049Y-132336480D01*
X150587868Y-132241132D01*
X150492518Y-132124948D01*
X150421670Y-131992400D01*
X150378040Y-131848573D01*
X150367000Y-131736478D01*
X150367000Y-131153521D01*
X150378040Y-131041426D01*
X150421669Y-130897601D01*
X150438159Y-130866751D01*
X150492520Y-130765049D01*
X150587869Y-130648868D01*
X150704050Y-130553520D01*
X150704052Y-130553519D01*
X150704053Y-130553518D01*
X150836600Y-130482670D01*
X150980427Y-130439040D01*
X151130000Y-130424309D01*
X151279574Y-130439040D01*
X151279574Y-130439040D01*
G37*
G36*
X153819574Y-130439040D02*
G01*
X153963401Y-130482670D01*
X154095948Y-130553518D01*
X154095949Y-130553519D01*
X154095951Y-130553520D01*
X154212132Y-130648868D01*
X154307480Y-130765049D01*
X154307481Y-130765051D01*
X154307482Y-130765052D01*
X154378330Y-130897599D01*
X154421960Y-131041426D01*
X154433000Y-131153521D01*
X154433000Y-131736479D01*
X154421960Y-131848574D01*
X154378330Y-131992401D01*
X154307482Y-132124948D01*
X154307481Y-132124950D01*
X154212132Y-132241132D01*
X154095948Y-132336482D01*
X153963400Y-132407330D01*
X153819573Y-132450960D01*
X153670000Y-132465691D01*
X153520426Y-132450960D01*
X153376599Y-132407330D01*
X153244052Y-132336482D01*
X153244051Y-132336481D01*
X153244049Y-132336480D01*
X153127868Y-132241132D01*
X153032518Y-132124948D01*
X152961670Y-131992400D01*
X152918040Y-131848573D01*
X152907000Y-131736478D01*
X152907000Y-131153521D01*
X152918040Y-131041426D01*
X152961669Y-130897601D01*
X152978159Y-130866751D01*
X153032520Y-130765049D01*
X153127869Y-130648868D01*
X153244050Y-130553520D01*
X153244052Y-130553519D01*
X153244053Y-130553518D01*
X153376600Y-130482670D01*
X153520427Y-130439040D01*
X153670000Y-130424309D01*
X153819574Y-130439040D01*
X153819574Y-130439040D01*
G37*
G36*
X165539149Y-126062252D02*
G01*
X165756593Y-126105504D01*
X166166249Y-126275189D01*
X166534929Y-126521534D01*
X166848466Y-126835071D01*
X167094811Y-127203751D01*
X167264496Y-127613407D01*
X167351000Y-128048296D01*
X167351000Y-128491704D01*
X167264496Y-128926593D01*
X167094811Y-129336249D01*
X166848466Y-129704929D01*
X166534929Y-130018466D01*
X166166249Y-130264811D01*
X165756593Y-130434496D01*
X165539149Y-130477748D01*
X165321706Y-130521000D01*
X164878294Y-130521000D01*
X164660851Y-130477748D01*
X164443407Y-130434496D01*
X164033751Y-130264811D01*
X163665071Y-130018466D01*
X163351534Y-129704929D01*
X163105189Y-129336249D01*
X162935504Y-128926593D01*
X162849000Y-128491704D01*
X162849000Y-128048296D01*
X162935504Y-127613407D01*
X163105189Y-127203751D01*
X163351534Y-126835071D01*
X163665071Y-126521534D01*
X164033751Y-126275189D01*
X164443407Y-126105504D01*
X164660851Y-126062252D01*
X164878294Y-126019000D01*
X165321706Y-126019000D01*
X165539149Y-126062252D01*
X165539149Y-126062252D01*
G37*
G36*
X179906913Y-126877365D02*
G01*
X179906916Y-126877366D01*
X179906915Y-126877366D01*
X180230673Y-127011470D01*
X180522047Y-127206160D01*
X180769840Y-127453953D01*
X180964530Y-127745327D01*
X181035418Y-127916468D01*
X181098635Y-128069087D01*
X181167000Y-128412782D01*
X181167000Y-128763218D01*
X181098635Y-129106913D01*
X181098634Y-129106915D01*
X180964530Y-129430673D01*
X180769840Y-129722047D01*
X180522047Y-129969840D01*
X180230673Y-130164530D01*
X179962463Y-130275625D01*
X179906913Y-130298635D01*
X179563218Y-130367000D01*
X179212782Y-130367000D01*
X178869087Y-130298635D01*
X178813537Y-130275625D01*
X178545327Y-130164530D01*
X178253953Y-129969840D01*
X178006160Y-129722047D01*
X177811470Y-129430673D01*
X177677366Y-129106915D01*
X177677365Y-129106913D01*
X177609000Y-128763218D01*
X177609000Y-128412782D01*
X177677365Y-128069087D01*
X177740582Y-127916468D01*
X177811470Y-127745327D01*
X178006160Y-127453953D01*
X178253953Y-127206160D01*
X178545327Y-127011470D01*
X178869085Y-126877366D01*
X178869084Y-126877366D01*
X178869087Y-126877365D01*
X179212782Y-126809000D01*
X179563218Y-126809000D01*
X179906913Y-126877365D01*
X179906913Y-126877365D01*
G37*
G36*
X125930913Y-126877365D02*
G01*
X125930916Y-126877366D01*
X125930915Y-126877366D01*
X126254673Y-127011470D01*
X126546047Y-127206160D01*
X126793840Y-127453953D01*
X126988530Y-127745327D01*
X127059418Y-127916468D01*
X127122635Y-128069087D01*
X127191000Y-128412782D01*
X127191000Y-128763218D01*
X127122635Y-129106913D01*
X127122634Y-129106915D01*
X126988530Y-129430673D01*
X126793840Y-129722047D01*
X126546047Y-129969840D01*
X126254673Y-130164530D01*
X125986463Y-130275625D01*
X125930913Y-130298635D01*
X125587218Y-130367000D01*
X125236782Y-130367000D01*
X124893087Y-130298635D01*
X124837537Y-130275625D01*
X124569327Y-130164530D01*
X124277953Y-129969840D01*
X124030160Y-129722047D01*
X123835470Y-129430673D01*
X123701366Y-129106915D01*
X123701365Y-129106913D01*
X123633000Y-128763218D01*
X123633000Y-128412782D01*
X123701365Y-128069087D01*
X123764582Y-127916468D01*
X123835470Y-127745327D01*
X124030160Y-127453953D01*
X124277953Y-127206160D01*
X124569327Y-127011470D01*
X124893085Y-126877366D01*
X124893084Y-126877366D01*
X124893087Y-126877365D01*
X125236782Y-126809000D01*
X125587218Y-126809000D01*
X125930913Y-126877365D01*
X125930913Y-126877365D01*
G37*
G36*
X156551566Y-126044000D02*
G01*
X156551569Y-126044001D01*
X156551568Y-126044001D01*
X156764677Y-126132273D01*
X156956469Y-126260425D01*
X157119575Y-126423531D01*
X157247727Y-126615323D01*
X157320854Y-126791869D01*
X157336000Y-126828434D01*
X157381000Y-127054665D01*
X157381000Y-127285335D01*
X157336000Y-127511566D01*
X157335999Y-127511568D01*
X157247727Y-127724677D01*
X157119575Y-127916469D01*
X156956469Y-128079575D01*
X156764677Y-128207727D01*
X156588131Y-128280854D01*
X156551566Y-128296000D01*
X156325335Y-128341000D01*
X156094665Y-128341000D01*
X155868434Y-128296000D01*
X155831869Y-128280854D01*
X155655323Y-128207727D01*
X155463531Y-128079575D01*
X155300425Y-127916469D01*
X155172273Y-127724677D01*
X155084001Y-127511568D01*
X155084000Y-127511566D01*
X155039000Y-127285335D01*
X155039000Y-127054665D01*
X155084000Y-126828434D01*
X155099146Y-126791869D01*
X155172273Y-126615323D01*
X155300425Y-126423531D01*
X155463531Y-126260425D01*
X155655323Y-126132273D01*
X155868432Y-126044001D01*
X155868431Y-126044001D01*
X155868434Y-126044000D01*
X156094665Y-125999000D01*
X156325335Y-125999000D01*
X156551566Y-126044000D01*
X156551566Y-126044000D01*
G37*
G36*
X169477395Y-125355546D02*
G01*
X169578778Y-125397541D01*
X169650467Y-125427235D01*
X169806227Y-125531310D01*
X169938690Y-125663773D01*
X170042765Y-125819533D01*
X170042765Y-125819534D01*
X170114454Y-125992605D01*
X170151000Y-126176333D01*
X170151000Y-126363667D01*
X170114454Y-126547395D01*
X170086317Y-126615323D01*
X170042765Y-126720467D01*
X169938690Y-126876227D01*
X169806227Y-127008690D01*
X169650467Y-127112765D01*
X169578778Y-127142459D01*
X169477395Y-127184454D01*
X169293667Y-127221000D01*
X169106333Y-127221000D01*
X168922605Y-127184454D01*
X168821222Y-127142459D01*
X168749533Y-127112765D01*
X168593773Y-127008690D01*
X168461310Y-126876227D01*
X168357235Y-126720467D01*
X168313683Y-126615323D01*
X168285546Y-126547395D01*
X168249000Y-126363667D01*
X168249000Y-126176333D01*
X168285546Y-125992605D01*
X168357235Y-125819534D01*
X168357235Y-125819533D01*
X168461310Y-125663773D01*
X168593773Y-125531310D01*
X168749533Y-125427235D01*
X168821222Y-125397541D01*
X168922605Y-125355546D01*
X169106333Y-125319000D01*
X169293667Y-125319000D01*
X169477395Y-125355546D01*
X169477395Y-125355546D01*
G37*
G36*
X161277395Y-125355546D02*
G01*
X161378778Y-125397541D01*
X161450467Y-125427235D01*
X161606227Y-125531310D01*
X161738690Y-125663773D01*
X161842765Y-125819533D01*
X161842765Y-125819534D01*
X161914454Y-125992605D01*
X161951000Y-126176333D01*
X161951000Y-126363667D01*
X161914454Y-126547395D01*
X161886317Y-126615323D01*
X161842765Y-126720467D01*
X161738690Y-126876227D01*
X161606227Y-127008690D01*
X161450467Y-127112765D01*
X161378778Y-127142459D01*
X161277395Y-127184454D01*
X161093667Y-127221000D01*
X160906333Y-127221000D01*
X160722605Y-127184454D01*
X160621222Y-127142459D01*
X160549533Y-127112765D01*
X160393773Y-127008690D01*
X160261310Y-126876227D01*
X160157235Y-126720467D01*
X160113683Y-126615323D01*
X160085546Y-126547395D01*
X160049000Y-126363667D01*
X160049000Y-126176333D01*
X160085546Y-125992605D01*
X160157235Y-125819534D01*
X160157235Y-125819533D01*
X160261310Y-125663773D01*
X160393773Y-125531310D01*
X160549533Y-125427235D01*
X160621222Y-125397541D01*
X160722605Y-125355546D01*
X160906333Y-125319000D01*
X161093667Y-125319000D01*
X161277395Y-125355546D01*
X161277395Y-125355546D01*
G37*
G36*
X132737574Y-123708040D02*
G01*
X132881401Y-123751670D01*
X133013948Y-123822518D01*
X133013949Y-123822519D01*
X133013951Y-123822520D01*
X133130132Y-123917868D01*
X133207029Y-124011566D01*
X133225482Y-124034052D01*
X133296330Y-124166599D01*
X133339960Y-124310426D01*
X133354691Y-124460000D01*
X133339960Y-124609574D01*
X133296330Y-124753401D01*
X133273560Y-124796000D01*
X133225480Y-124885951D01*
X133130132Y-125002132D01*
X133013951Y-125097480D01*
X133013949Y-125097481D01*
X133013948Y-125097482D01*
X132881401Y-125168330D01*
X132737574Y-125211960D01*
X132625479Y-125223000D01*
X131534521Y-125223000D01*
X131422426Y-125211960D01*
X131278599Y-125168330D01*
X131146052Y-125097482D01*
X131146051Y-125097481D01*
X131146049Y-125097480D01*
X131029868Y-125002132D01*
X130934520Y-124885951D01*
X130886440Y-124796000D01*
X130863670Y-124753401D01*
X130820040Y-124609574D01*
X130805309Y-124460000D01*
X130820040Y-124310426D01*
X130863670Y-124166599D01*
X130934518Y-124034052D01*
X130952972Y-124011566D01*
X131029868Y-123917868D01*
X131146049Y-123822520D01*
X131146051Y-123822519D01*
X131146052Y-123822518D01*
X131278599Y-123751670D01*
X131422426Y-123708040D01*
X131534521Y-123697000D01*
X132625479Y-123697000D01*
X132737574Y-123708040D01*
X132737574Y-123708040D01*
G37*
G36*
X148591000Y-125223000D02*
G01*
X146049000Y-125223000D01*
X146049000Y-123697000D01*
X148591000Y-123697000D01*
X148591000Y-125223000D01*
X148591000Y-125223000D01*
G37*
G36*
X156551566Y-122544000D02*
G01*
X156551569Y-122544001D01*
X156551568Y-122544001D01*
X156764677Y-122632273D01*
X156956469Y-122760425D01*
X157119575Y-122923531D01*
X157247727Y-123115323D01*
X157320854Y-123291869D01*
X157336000Y-123328434D01*
X157381000Y-123554665D01*
X157381000Y-123785335D01*
X157336000Y-124011566D01*
X157335999Y-124011568D01*
X157247727Y-124224677D01*
X157119575Y-124416469D01*
X156956469Y-124579575D01*
X156764677Y-124707727D01*
X156654409Y-124753401D01*
X156551566Y-124796000D01*
X156325335Y-124841000D01*
X156094665Y-124841000D01*
X155868434Y-124796000D01*
X155765591Y-124753401D01*
X155655323Y-124707727D01*
X155463531Y-124579575D01*
X155300425Y-124416469D01*
X155172273Y-124224677D01*
X155084001Y-124011568D01*
X155084000Y-124011566D01*
X155039000Y-123785335D01*
X155039000Y-123554665D01*
X155084000Y-123328434D01*
X155099146Y-123291869D01*
X155172273Y-123115323D01*
X155300425Y-122923531D01*
X155463531Y-122760425D01*
X155655323Y-122632273D01*
X155868432Y-122544001D01*
X155868431Y-122544001D01*
X155868434Y-122544000D01*
X156094665Y-122499000D01*
X156325335Y-122499000D01*
X156551566Y-122544000D01*
X156551566Y-122544000D01*
G37*
G36*
X132737574Y-121168040D02*
G01*
X132881401Y-121211670D01*
X133013948Y-121282518D01*
X133013949Y-121282519D01*
X133013951Y-121282520D01*
X133130132Y-121377868D01*
X133225482Y-121494052D01*
X133296330Y-121626599D01*
X133339960Y-121770426D01*
X133354691Y-121920000D01*
X133339960Y-122069574D01*
X133296330Y-122213401D01*
X133225482Y-122345948D01*
X133225480Y-122345951D01*
X133130132Y-122462132D01*
X133013951Y-122557480D01*
X133013949Y-122557481D01*
X133013948Y-122557482D01*
X132881401Y-122628330D01*
X132737574Y-122671960D01*
X132625479Y-122683000D01*
X131534521Y-122683000D01*
X131422426Y-122671960D01*
X131278599Y-122628330D01*
X131146052Y-122557482D01*
X131146051Y-122557481D01*
X131146049Y-122557480D01*
X131029868Y-122462132D01*
X130934520Y-122345951D01*
X130934518Y-122345948D01*
X130863670Y-122213401D01*
X130820040Y-122069574D01*
X130805309Y-121920000D01*
X130820040Y-121770426D01*
X130863670Y-121626599D01*
X130934518Y-121494052D01*
X131029868Y-121377868D01*
X131146049Y-121282520D01*
X131146051Y-121282519D01*
X131146052Y-121282518D01*
X131278599Y-121211670D01*
X131422426Y-121168040D01*
X131534521Y-121157000D01*
X132625479Y-121157000D01*
X132737574Y-121168040D01*
X132737574Y-121168040D01*
G37*
G36*
X147977574Y-121168040D02*
G01*
X148121401Y-121211670D01*
X148253948Y-121282518D01*
X148253949Y-121282519D01*
X148253951Y-121282520D01*
X148370132Y-121377868D01*
X148465482Y-121494052D01*
X148536330Y-121626599D01*
X148579960Y-121770426D01*
X148594691Y-121920000D01*
X148579960Y-122069574D01*
X148536330Y-122213401D01*
X148465482Y-122345948D01*
X148465480Y-122345951D01*
X148370132Y-122462132D01*
X148253951Y-122557480D01*
X148253949Y-122557481D01*
X148253948Y-122557482D01*
X148121401Y-122628330D01*
X147977574Y-122671960D01*
X147865479Y-122683000D01*
X146774521Y-122683000D01*
X146662426Y-122671960D01*
X146518599Y-122628330D01*
X146386052Y-122557482D01*
X146386051Y-122557481D01*
X146386049Y-122557480D01*
X146269868Y-122462132D01*
X146174520Y-122345951D01*
X146174518Y-122345948D01*
X146103670Y-122213401D01*
X146060040Y-122069574D01*
X146045309Y-121920000D01*
X146060040Y-121770426D01*
X146103670Y-121626599D01*
X146174518Y-121494052D01*
X146269868Y-121377868D01*
X146386049Y-121282520D01*
X146386051Y-121282519D01*
X146386052Y-121282518D01*
X146518599Y-121211670D01*
X146662426Y-121168040D01*
X146774521Y-121157000D01*
X147865479Y-121157000D01*
X147977574Y-121168040D01*
X147977574Y-121168040D01*
G37*
G36*
X156551566Y-119044000D02*
G01*
X156551569Y-119044001D01*
X156551568Y-119044001D01*
X156764677Y-119132273D01*
X156956469Y-119260425D01*
X157119575Y-119423531D01*
X157247727Y-119615323D01*
X157320854Y-119791869D01*
X157336000Y-119828434D01*
X157381000Y-120054665D01*
X157381000Y-120285335D01*
X157336000Y-120511566D01*
X157335999Y-120511568D01*
X157247727Y-120724677D01*
X157119575Y-120916469D01*
X156956469Y-121079575D01*
X156764677Y-121207727D01*
X156588131Y-121280854D01*
X156551566Y-121296000D01*
X156325335Y-121341000D01*
X156094665Y-121341000D01*
X155868434Y-121296000D01*
X155831869Y-121280854D01*
X155655323Y-121207727D01*
X155463531Y-121079575D01*
X155300425Y-120916469D01*
X155172273Y-120724677D01*
X155084001Y-120511568D01*
X155084000Y-120511566D01*
X155039000Y-120285335D01*
X155039000Y-120054665D01*
X155084000Y-119828434D01*
X155099146Y-119791869D01*
X155172273Y-119615323D01*
X155300425Y-119423531D01*
X155463531Y-119260425D01*
X155655323Y-119132273D01*
X155868432Y-119044001D01*
X155868431Y-119044001D01*
X155868434Y-119044000D01*
X156094665Y-118999000D01*
X156325335Y-118999000D01*
X156551566Y-119044000D01*
X156551566Y-119044000D01*
G37*
G36*
X147977574Y-118628040D02*
G01*
X148121401Y-118671670D01*
X148253948Y-118742518D01*
X148253949Y-118742519D01*
X148253951Y-118742520D01*
X148370132Y-118837868D01*
X148465482Y-118954052D01*
X148536330Y-119086599D01*
X148579960Y-119230426D01*
X148594691Y-119380000D01*
X148579960Y-119529574D01*
X148536330Y-119673401D01*
X148465482Y-119805948D01*
X148465480Y-119805951D01*
X148370132Y-119922132D01*
X148253951Y-120017480D01*
X148253949Y-120017481D01*
X148253948Y-120017482D01*
X148121401Y-120088330D01*
X147977574Y-120131960D01*
X147865479Y-120143000D01*
X146774521Y-120143000D01*
X146662426Y-120131960D01*
X146518599Y-120088330D01*
X146386052Y-120017482D01*
X146386051Y-120017481D01*
X146386049Y-120017480D01*
X146269868Y-119922132D01*
X146174520Y-119805951D01*
X146174518Y-119805948D01*
X146103670Y-119673401D01*
X146060040Y-119529574D01*
X146045309Y-119380000D01*
X146060040Y-119230426D01*
X146103670Y-119086599D01*
X146174518Y-118954052D01*
X146269868Y-118837868D01*
X146386049Y-118742520D01*
X146386051Y-118742519D01*
X146386052Y-118742518D01*
X146518599Y-118671670D01*
X146662426Y-118628040D01*
X146774521Y-118617000D01*
X147865479Y-118617000D01*
X147977574Y-118628040D01*
X147977574Y-118628040D01*
G37*
G36*
X132737574Y-118628040D02*
G01*
X132881401Y-118671670D01*
X133013948Y-118742518D01*
X133013949Y-118742519D01*
X133013951Y-118742520D01*
X133130132Y-118837868D01*
X133225482Y-118954052D01*
X133296330Y-119086599D01*
X133339960Y-119230426D01*
X133354691Y-119380000D01*
X133339960Y-119529574D01*
X133296330Y-119673401D01*
X133225482Y-119805948D01*
X133225480Y-119805951D01*
X133130132Y-119922132D01*
X133013951Y-120017480D01*
X133013949Y-120017481D01*
X133013948Y-120017482D01*
X132881401Y-120088330D01*
X132737574Y-120131960D01*
X132625479Y-120143000D01*
X131534521Y-120143000D01*
X131422426Y-120131960D01*
X131278599Y-120088330D01*
X131146052Y-120017482D01*
X131146051Y-120017481D01*
X131146049Y-120017480D01*
X131029868Y-119922132D01*
X130934520Y-119805951D01*
X130934518Y-119805948D01*
X130863670Y-119673401D01*
X130820040Y-119529574D01*
X130805309Y-119380000D01*
X130820040Y-119230426D01*
X130863670Y-119086599D01*
X130934518Y-118954052D01*
X131029868Y-118837868D01*
X131146049Y-118742520D01*
X131146051Y-118742519D01*
X131146052Y-118742518D01*
X131278599Y-118671670D01*
X131422426Y-118628040D01*
X131534521Y-118617000D01*
X132625479Y-118617000D01*
X132737574Y-118628040D01*
X132737574Y-118628040D01*
G37*
G36*
X156551566Y-115544000D02*
G01*
X156551569Y-115544001D01*
X156551568Y-115544001D01*
X156764677Y-115632273D01*
X156956469Y-115760425D01*
X157119575Y-115923531D01*
X157247727Y-116115323D01*
X157320854Y-116291869D01*
X157336000Y-116328434D01*
X157381000Y-116554665D01*
X157381000Y-116785335D01*
X157336000Y-117011566D01*
X157335999Y-117011568D01*
X157247727Y-117224677D01*
X157119575Y-117416469D01*
X156956469Y-117579575D01*
X156764677Y-117707727D01*
X156588131Y-117780854D01*
X156551566Y-117796000D01*
X156325335Y-117841000D01*
X156094665Y-117841000D01*
X155868434Y-117796000D01*
X155831869Y-117780854D01*
X155655323Y-117707727D01*
X155463531Y-117579575D01*
X155300425Y-117416469D01*
X155172273Y-117224677D01*
X155084001Y-117011568D01*
X155084000Y-117011566D01*
X155039000Y-116785335D01*
X155039000Y-116554665D01*
X155084000Y-116328434D01*
X155099146Y-116291869D01*
X155172273Y-116115323D01*
X155300425Y-115923531D01*
X155463531Y-115760425D01*
X155655323Y-115632273D01*
X155868432Y-115544001D01*
X155868431Y-115544001D01*
X155868434Y-115544000D01*
X156094665Y-115499000D01*
X156325335Y-115499000D01*
X156551566Y-115544000D01*
X156551566Y-115544000D01*
G37*
G36*
X132737574Y-116088040D02*
G01*
X132881401Y-116131670D01*
X133013948Y-116202518D01*
X133013949Y-116202519D01*
X133013951Y-116202520D01*
X133130132Y-116297868D01*
X133225482Y-116414052D01*
X133296330Y-116546599D01*
X133339960Y-116690426D01*
X133354691Y-116840000D01*
X133339960Y-116989574D01*
X133296330Y-117133401D01*
X133225482Y-117265948D01*
X133225480Y-117265951D01*
X133130132Y-117382132D01*
X133013951Y-117477480D01*
X133013949Y-117477481D01*
X133013948Y-117477482D01*
X132881401Y-117548330D01*
X132737574Y-117591960D01*
X132625479Y-117603000D01*
X131534521Y-117603000D01*
X131422426Y-117591960D01*
X131278599Y-117548330D01*
X131146052Y-117477482D01*
X131146051Y-117477481D01*
X131146049Y-117477480D01*
X131029868Y-117382132D01*
X130934520Y-117265951D01*
X130934518Y-117265948D01*
X130863670Y-117133401D01*
X130820040Y-116989574D01*
X130805309Y-116840000D01*
X130820040Y-116690426D01*
X130863670Y-116546599D01*
X130934518Y-116414052D01*
X131029868Y-116297868D01*
X131146049Y-116202520D01*
X131146051Y-116202519D01*
X131146052Y-116202518D01*
X131278599Y-116131670D01*
X131422426Y-116088040D01*
X131534521Y-116077000D01*
X132625479Y-116077000D01*
X132737574Y-116088040D01*
X132737574Y-116088040D01*
G37*
G36*
X147977574Y-116088040D02*
G01*
X148121401Y-116131670D01*
X148253948Y-116202518D01*
X148253949Y-116202519D01*
X148253951Y-116202520D01*
X148370132Y-116297868D01*
X148465482Y-116414052D01*
X148536330Y-116546599D01*
X148579960Y-116690426D01*
X148594691Y-116840000D01*
X148579960Y-116989574D01*
X148536330Y-117133401D01*
X148465482Y-117265948D01*
X148465480Y-117265951D01*
X148370132Y-117382132D01*
X148253951Y-117477480D01*
X148253949Y-117477481D01*
X148253948Y-117477482D01*
X148121401Y-117548330D01*
X147977574Y-117591960D01*
X147865479Y-117603000D01*
X146774521Y-117603000D01*
X146662426Y-117591960D01*
X146518599Y-117548330D01*
X146386052Y-117477482D01*
X146386051Y-117477481D01*
X146386049Y-117477480D01*
X146269868Y-117382132D01*
X146174520Y-117265951D01*
X146174518Y-117265948D01*
X146103670Y-117133401D01*
X146060040Y-116989574D01*
X146045309Y-116840000D01*
X146060040Y-116690426D01*
X146103670Y-116546599D01*
X146174518Y-116414052D01*
X146269868Y-116297868D01*
X146386049Y-116202520D01*
X146386051Y-116202519D01*
X146386052Y-116202518D01*
X146518599Y-116131670D01*
X146662426Y-116088040D01*
X146774521Y-116077000D01*
X147865479Y-116077000D01*
X147977574Y-116088040D01*
X147977574Y-116088040D01*
G37*
G36*
X132737574Y-113548040D02*
G01*
X132881401Y-113591670D01*
X133013948Y-113662518D01*
X133013949Y-113662519D01*
X133013951Y-113662520D01*
X133130132Y-113757868D01*
X133225482Y-113874052D01*
X133296330Y-114006599D01*
X133339960Y-114150426D01*
X133354691Y-114300000D01*
X133339960Y-114449574D01*
X133296330Y-114593401D01*
X133225482Y-114725948D01*
X133225480Y-114725951D01*
X133130132Y-114842132D01*
X133013951Y-114937480D01*
X133013949Y-114937481D01*
X133013948Y-114937482D01*
X132881401Y-115008330D01*
X132737574Y-115051960D01*
X132625479Y-115063000D01*
X131534521Y-115063000D01*
X131422426Y-115051960D01*
X131278599Y-115008330D01*
X131146052Y-114937482D01*
X131146051Y-114937481D01*
X131146049Y-114937480D01*
X131029868Y-114842132D01*
X130934520Y-114725951D01*
X130934518Y-114725948D01*
X130863670Y-114593401D01*
X130820040Y-114449574D01*
X130805309Y-114300000D01*
X130820040Y-114150426D01*
X130863670Y-114006599D01*
X130934518Y-113874052D01*
X131029868Y-113757868D01*
X131146049Y-113662520D01*
X131146051Y-113662519D01*
X131146052Y-113662518D01*
X131278599Y-113591670D01*
X131422426Y-113548040D01*
X131534521Y-113537000D01*
X132625479Y-113537000D01*
X132737574Y-113548040D01*
X132737574Y-113548040D01*
G37*
G36*
X147977574Y-113548040D02*
G01*
X148121401Y-113591670D01*
X148253948Y-113662518D01*
X148253949Y-113662519D01*
X148253951Y-113662520D01*
X148370132Y-113757868D01*
X148465482Y-113874052D01*
X148536330Y-114006599D01*
X148579960Y-114150426D01*
X148594691Y-114300000D01*
X148579960Y-114449574D01*
X148536330Y-114593401D01*
X148465482Y-114725948D01*
X148465480Y-114725951D01*
X148370132Y-114842132D01*
X148253951Y-114937480D01*
X148253949Y-114937481D01*
X148253948Y-114937482D01*
X148121401Y-115008330D01*
X147977574Y-115051960D01*
X147865479Y-115063000D01*
X146774521Y-115063000D01*
X146662426Y-115051960D01*
X146518599Y-115008330D01*
X146386052Y-114937482D01*
X146386051Y-114937481D01*
X146386049Y-114937480D01*
X146269868Y-114842132D01*
X146174520Y-114725951D01*
X146174518Y-114725948D01*
X146103670Y-114593401D01*
X146060040Y-114449574D01*
X146045309Y-114300000D01*
X146060040Y-114150426D01*
X146103670Y-114006599D01*
X146174518Y-113874052D01*
X146269868Y-113757868D01*
X146386049Y-113662520D01*
X146386051Y-113662519D01*
X146386052Y-113662518D01*
X146518599Y-113591670D01*
X146662426Y-113548040D01*
X146774521Y-113537000D01*
X147865479Y-113537000D01*
X147977574Y-113548040D01*
X147977574Y-113548040D01*
G37*
G36*
X132737574Y-111008040D02*
G01*
X132881401Y-111051670D01*
X133013948Y-111122518D01*
X133013949Y-111122519D01*
X133013951Y-111122520D01*
X133126241Y-111214675D01*
X133130132Y-111217868D01*
X133225482Y-111334052D01*
X133296330Y-111466599D01*
X133339960Y-111610426D01*
X133354691Y-111760000D01*
X133339960Y-111909574D01*
X133296330Y-112053401D01*
X133225482Y-112185948D01*
X133225480Y-112185951D01*
X133130132Y-112302132D01*
X133013951Y-112397480D01*
X133013949Y-112397481D01*
X133013948Y-112397482D01*
X132881401Y-112468330D01*
X132737574Y-112511960D01*
X132625479Y-112523000D01*
X131534521Y-112523000D01*
X131422426Y-112511960D01*
X131278599Y-112468330D01*
X131146052Y-112397482D01*
X131146051Y-112397481D01*
X131146049Y-112397480D01*
X131029868Y-112302132D01*
X130934520Y-112185951D01*
X130934518Y-112185948D01*
X130863670Y-112053401D01*
X130820040Y-111909574D01*
X130805309Y-111760000D01*
X130820040Y-111610426D01*
X130863670Y-111466599D01*
X130934518Y-111334052D01*
X131029868Y-111217868D01*
X131033759Y-111214675D01*
X131146049Y-111122520D01*
X131146051Y-111122519D01*
X131146052Y-111122518D01*
X131278599Y-111051670D01*
X131422426Y-111008040D01*
X131534521Y-110997000D01*
X132625479Y-110997000D01*
X132737574Y-111008040D01*
X132737574Y-111008040D01*
G37*
G36*
X147977574Y-111008040D02*
G01*
X148121401Y-111051670D01*
X148253948Y-111122518D01*
X148253949Y-111122519D01*
X148253951Y-111122520D01*
X148366241Y-111214675D01*
X148370132Y-111217868D01*
X148465482Y-111334052D01*
X148536330Y-111466599D01*
X148579960Y-111610426D01*
X148594691Y-111760000D01*
X148579960Y-111909574D01*
X148536330Y-112053401D01*
X148465482Y-112185948D01*
X148465480Y-112185951D01*
X148370132Y-112302132D01*
X148253951Y-112397480D01*
X148253949Y-112397481D01*
X148253948Y-112397482D01*
X148121401Y-112468330D01*
X147977574Y-112511960D01*
X147865479Y-112523000D01*
X146774521Y-112523000D01*
X146662426Y-112511960D01*
X146518599Y-112468330D01*
X146386052Y-112397482D01*
X146386051Y-112397481D01*
X146386049Y-112397480D01*
X146269868Y-112302132D01*
X146174520Y-112185951D01*
X146174518Y-112185948D01*
X146103670Y-112053401D01*
X146060040Y-111909574D01*
X146045309Y-111760000D01*
X146060040Y-111610426D01*
X146103670Y-111466599D01*
X146174518Y-111334052D01*
X146269868Y-111217868D01*
X146273759Y-111214675D01*
X146386049Y-111122520D01*
X146386051Y-111122519D01*
X146386052Y-111122518D01*
X146518599Y-111051670D01*
X146662426Y-111008040D01*
X146774521Y-110997000D01*
X147865479Y-110997000D01*
X147977574Y-111008040D01*
X147977574Y-111008040D01*
G37*
G36*
X169251566Y-109534000D02*
G01*
X169251569Y-109534001D01*
X169251568Y-109534001D01*
X169464677Y-109622273D01*
X169618318Y-109724934D01*
X169656468Y-109750424D01*
X169819576Y-109913532D01*
X169845066Y-109951682D01*
X169947727Y-110105323D01*
X170020854Y-110281869D01*
X170036000Y-110318434D01*
X170081000Y-110544665D01*
X170081000Y-110775335D01*
X170036000Y-111001566D01*
X170035999Y-111001568D01*
X169947727Y-111214677D01*
X169819575Y-111406469D01*
X169656469Y-111569575D01*
X169464677Y-111697727D01*
X169288131Y-111770854D01*
X169251566Y-111786000D01*
X169025335Y-111831000D01*
X168794665Y-111831000D01*
X168568434Y-111786000D01*
X168531869Y-111770854D01*
X168355323Y-111697727D01*
X168163531Y-111569575D01*
X168000425Y-111406469D01*
X167872273Y-111214677D01*
X167784001Y-111001568D01*
X167784000Y-111001566D01*
X167739000Y-110775335D01*
X167739000Y-110544665D01*
X167784000Y-110318434D01*
X167799146Y-110281869D01*
X167872273Y-110105323D01*
X167974934Y-109951682D01*
X168000424Y-109913532D01*
X168163532Y-109750424D01*
X168201682Y-109724934D01*
X168355323Y-109622273D01*
X168568432Y-109534001D01*
X168568431Y-109534001D01*
X168568434Y-109534000D01*
X168794665Y-109489000D01*
X169025335Y-109489000D01*
X169251566Y-109534000D01*
X169251566Y-109534000D01*
G37*
G36*
X156551566Y-109534000D02*
G01*
X156551569Y-109534001D01*
X156551568Y-109534001D01*
X156764677Y-109622273D01*
X156918318Y-109724934D01*
X156956468Y-109750424D01*
X157119576Y-109913532D01*
X157145066Y-109951682D01*
X157247727Y-110105323D01*
X157320854Y-110281869D01*
X157336000Y-110318434D01*
X157381000Y-110544665D01*
X157381000Y-110775335D01*
X157336000Y-111001566D01*
X157335999Y-111001568D01*
X157247727Y-111214677D01*
X157119575Y-111406469D01*
X156956469Y-111569575D01*
X156764677Y-111697727D01*
X156588131Y-111770854D01*
X156551566Y-111786000D01*
X156325335Y-111831000D01*
X156094665Y-111831000D01*
X155868434Y-111786000D01*
X155831869Y-111770854D01*
X155655323Y-111697727D01*
X155463531Y-111569575D01*
X155300425Y-111406469D01*
X155172273Y-111214677D01*
X155084001Y-111001568D01*
X155084000Y-111001566D01*
X155039000Y-110775335D01*
X155039000Y-110544665D01*
X155084000Y-110318434D01*
X155099146Y-110281869D01*
X155172273Y-110105323D01*
X155274934Y-109951682D01*
X155300424Y-109913532D01*
X155463532Y-109750424D01*
X155501682Y-109724934D01*
X155655323Y-109622273D01*
X155868432Y-109534001D01*
X155868431Y-109534001D01*
X155868434Y-109534000D01*
X156094665Y-109489000D01*
X156325335Y-109489000D01*
X156551566Y-109534000D01*
X156551566Y-109534000D01*
G37*
G36*
X147977574Y-108468040D02*
G01*
X148121401Y-108511670D01*
X148253948Y-108582518D01*
X148253949Y-108582519D01*
X148253951Y-108582520D01*
X148370132Y-108677868D01*
X148465482Y-108794052D01*
X148536330Y-108926599D01*
X148579960Y-109070426D01*
X148594691Y-109220000D01*
X148579960Y-109369574D01*
X148536330Y-109513401D01*
X148465482Y-109645948D01*
X148465480Y-109645951D01*
X148370132Y-109762132D01*
X148253951Y-109857480D01*
X148253949Y-109857481D01*
X148253948Y-109857482D01*
X148121401Y-109928330D01*
X147977574Y-109971960D01*
X147865479Y-109983000D01*
X146774521Y-109983000D01*
X146662426Y-109971960D01*
X146518599Y-109928330D01*
X146386052Y-109857482D01*
X146386051Y-109857481D01*
X146386049Y-109857480D01*
X146269868Y-109762132D01*
X146174520Y-109645951D01*
X146174518Y-109645948D01*
X146103670Y-109513401D01*
X146060040Y-109369574D01*
X146045309Y-109220000D01*
X146060040Y-109070426D01*
X146103670Y-108926599D01*
X146174518Y-108794052D01*
X146269868Y-108677868D01*
X146386049Y-108582520D01*
X146386051Y-108582519D01*
X146386052Y-108582518D01*
X146518599Y-108511670D01*
X146662426Y-108468040D01*
X146774521Y-108457000D01*
X147865479Y-108457000D01*
X147977574Y-108468040D01*
X147977574Y-108468040D01*
G37*
G36*
X132737574Y-108468040D02*
G01*
X132881401Y-108511670D01*
X133013948Y-108582518D01*
X133013949Y-108582519D01*
X133013951Y-108582520D01*
X133130132Y-108677868D01*
X133225482Y-108794052D01*
X133296330Y-108926599D01*
X133339960Y-109070426D01*
X133354691Y-109220000D01*
X133339960Y-109369574D01*
X133296330Y-109513401D01*
X133225482Y-109645948D01*
X133225480Y-109645951D01*
X133130132Y-109762132D01*
X133013951Y-109857480D01*
X133013949Y-109857481D01*
X133013948Y-109857482D01*
X132881401Y-109928330D01*
X132737574Y-109971960D01*
X132625479Y-109983000D01*
X131534521Y-109983000D01*
X131422426Y-109971960D01*
X131278599Y-109928330D01*
X131146052Y-109857482D01*
X131146051Y-109857481D01*
X131146049Y-109857480D01*
X131029868Y-109762132D01*
X130934520Y-109645951D01*
X130934518Y-109645948D01*
X130863670Y-109513401D01*
X130820040Y-109369574D01*
X130805309Y-109220000D01*
X130820040Y-109070426D01*
X130863670Y-108926599D01*
X130934518Y-108794052D01*
X131029868Y-108677868D01*
X131146049Y-108582520D01*
X131146051Y-108582519D01*
X131146052Y-108582518D01*
X131278599Y-108511670D01*
X131422426Y-108468040D01*
X131534521Y-108457000D01*
X132625479Y-108457000D01*
X132737574Y-108468040D01*
X132737574Y-108468040D01*
G37*
G36*
X169251566Y-106034000D02*
G01*
X169251569Y-106034001D01*
X169251568Y-106034001D01*
X169464677Y-106122273D01*
X169656469Y-106250425D01*
X169819575Y-106413531D01*
X169947727Y-106605323D01*
X169978659Y-106680000D01*
X170036000Y-106818434D01*
X170081000Y-107044665D01*
X170081000Y-107275335D01*
X170036000Y-107501566D01*
X170035999Y-107501568D01*
X169947727Y-107714677D01*
X169819575Y-107906469D01*
X169656469Y-108069575D01*
X169464677Y-108197727D01*
X169288131Y-108270854D01*
X169251566Y-108286000D01*
X169025335Y-108331000D01*
X168794665Y-108331000D01*
X168568434Y-108286000D01*
X168531869Y-108270854D01*
X168355323Y-108197727D01*
X168163531Y-108069575D01*
X168000425Y-107906469D01*
X167872273Y-107714677D01*
X167784001Y-107501568D01*
X167784000Y-107501566D01*
X167739000Y-107275335D01*
X167739000Y-107044665D01*
X167784000Y-106818434D01*
X167841341Y-106680000D01*
X167872273Y-106605323D01*
X168000425Y-106413531D01*
X168163531Y-106250425D01*
X168355323Y-106122273D01*
X168568432Y-106034001D01*
X168568431Y-106034001D01*
X168568434Y-106034000D01*
X168794665Y-105989000D01*
X169025335Y-105989000D01*
X169251566Y-106034000D01*
X169251566Y-106034000D01*
G37*
G36*
X156551566Y-106034000D02*
G01*
X156551569Y-106034001D01*
X156551568Y-106034001D01*
X156764677Y-106122273D01*
X156956469Y-106250425D01*
X157119575Y-106413531D01*
X157247727Y-106605323D01*
X157278659Y-106680000D01*
X157336000Y-106818434D01*
X157381000Y-107044665D01*
X157381000Y-107275335D01*
X157336000Y-107501566D01*
X157335999Y-107501568D01*
X157247727Y-107714677D01*
X157119575Y-107906469D01*
X156956469Y-108069575D01*
X156764677Y-108197727D01*
X156588131Y-108270854D01*
X156551566Y-108286000D01*
X156325335Y-108331000D01*
X156094665Y-108331000D01*
X155868434Y-108286000D01*
X155831869Y-108270854D01*
X155655323Y-108197727D01*
X155463531Y-108069575D01*
X155300425Y-107906469D01*
X155172273Y-107714677D01*
X155084001Y-107501568D01*
X155084000Y-107501566D01*
X155039000Y-107275335D01*
X155039000Y-107044665D01*
X155084000Y-106818434D01*
X155141341Y-106680000D01*
X155172273Y-106605323D01*
X155300425Y-106413531D01*
X155463531Y-106250425D01*
X155655323Y-106122273D01*
X155868432Y-106034001D01*
X155868431Y-106034001D01*
X155868434Y-106034000D01*
X156094665Y-105989000D01*
X156325335Y-105989000D01*
X156551566Y-106034000D01*
X156551566Y-106034000D01*
G37*
G36*
X132737574Y-105928040D02*
G01*
X132881401Y-105971670D01*
X133013948Y-106042518D01*
X133013949Y-106042519D01*
X133013951Y-106042520D01*
X133130132Y-106137868D01*
X133222506Y-106250425D01*
X133225482Y-106254052D01*
X133296330Y-106386599D01*
X133339960Y-106530426D01*
X133354691Y-106680000D01*
X133339960Y-106829574D01*
X133296330Y-106973401D01*
X133258237Y-107044667D01*
X133225480Y-107105951D01*
X133130132Y-107222132D01*
X133013951Y-107317480D01*
X133013949Y-107317481D01*
X133013948Y-107317482D01*
X132881401Y-107388330D01*
X132737574Y-107431960D01*
X132625479Y-107443000D01*
X131534521Y-107443000D01*
X131422426Y-107431960D01*
X131278599Y-107388330D01*
X131146052Y-107317482D01*
X131146051Y-107317481D01*
X131146049Y-107317480D01*
X131029868Y-107222132D01*
X130934520Y-107105951D01*
X130901763Y-107044667D01*
X130863670Y-106973401D01*
X130820040Y-106829574D01*
X130805309Y-106680000D01*
X130820040Y-106530426D01*
X130863670Y-106386599D01*
X130934518Y-106254052D01*
X130937495Y-106250425D01*
X131029868Y-106137868D01*
X131146049Y-106042520D01*
X131146051Y-106042519D01*
X131146052Y-106042518D01*
X131278599Y-105971670D01*
X131422426Y-105928040D01*
X131534521Y-105917000D01*
X132625479Y-105917000D01*
X132737574Y-105928040D01*
X132737574Y-105928040D01*
G37*
G36*
X147977574Y-105928040D02*
G01*
X148121401Y-105971670D01*
X148253948Y-106042518D01*
X148253949Y-106042519D01*
X148253951Y-106042520D01*
X148370132Y-106137868D01*
X148462506Y-106250425D01*
X148465482Y-106254052D01*
X148536330Y-106386599D01*
X148579960Y-106530426D01*
X148594691Y-106680000D01*
X148579960Y-106829574D01*
X148536330Y-106973401D01*
X148498237Y-107044667D01*
X148465480Y-107105951D01*
X148370132Y-107222132D01*
X148253951Y-107317480D01*
X148253949Y-107317481D01*
X148253948Y-107317482D01*
X148121401Y-107388330D01*
X147977574Y-107431960D01*
X147865479Y-107443000D01*
X146774521Y-107443000D01*
X146662426Y-107431960D01*
X146518599Y-107388330D01*
X146386052Y-107317482D01*
X146386051Y-107317481D01*
X146386049Y-107317480D01*
X146269868Y-107222132D01*
X146174520Y-107105951D01*
X146141763Y-107044667D01*
X146103670Y-106973401D01*
X146060040Y-106829574D01*
X146045309Y-106680000D01*
X146060040Y-106530426D01*
X146103670Y-106386599D01*
X146174518Y-106254052D01*
X146177495Y-106250425D01*
X146269868Y-106137868D01*
X146386049Y-106042520D01*
X146386051Y-106042519D01*
X146386052Y-106042518D01*
X146518599Y-105971670D01*
X146662426Y-105928040D01*
X146774521Y-105917000D01*
X147865479Y-105917000D01*
X147977574Y-105928040D01*
X147977574Y-105928040D01*
G37*
G36*
X147977574Y-103388040D02*
G01*
X148121401Y-103431670D01*
X148253948Y-103502518D01*
X148253949Y-103502519D01*
X148253951Y-103502520D01*
X148305304Y-103544665D01*
X148370132Y-103597868D01*
X148465482Y-103714052D01*
X148536330Y-103846599D01*
X148579960Y-103990426D01*
X148594691Y-104140000D01*
X148579960Y-104289574D01*
X148536330Y-104433401D01*
X148465482Y-104565948D01*
X148465480Y-104565951D01*
X148370132Y-104682132D01*
X148253951Y-104777480D01*
X148253949Y-104777481D01*
X148253948Y-104777482D01*
X148121401Y-104848330D01*
X147977574Y-104891960D01*
X147865479Y-104903000D01*
X146774521Y-104903000D01*
X146662426Y-104891960D01*
X146518599Y-104848330D01*
X146386052Y-104777482D01*
X146386051Y-104777481D01*
X146386049Y-104777480D01*
X146269868Y-104682132D01*
X146174520Y-104565951D01*
X146174518Y-104565948D01*
X146103670Y-104433401D01*
X146060040Y-104289574D01*
X146045309Y-104140000D01*
X146060040Y-103990426D01*
X146103670Y-103846599D01*
X146174518Y-103714052D01*
X146269868Y-103597868D01*
X146334696Y-103544665D01*
X146386049Y-103502520D01*
X146386051Y-103502519D01*
X146386052Y-103502518D01*
X146518599Y-103431670D01*
X146662426Y-103388040D01*
X146774521Y-103377000D01*
X147865479Y-103377000D01*
X147977574Y-103388040D01*
X147977574Y-103388040D01*
G37*
G36*
X132737574Y-103388040D02*
G01*
X132881401Y-103431670D01*
X133013948Y-103502518D01*
X133013949Y-103502519D01*
X133013951Y-103502520D01*
X133065304Y-103544665D01*
X133130132Y-103597868D01*
X133225482Y-103714052D01*
X133296330Y-103846599D01*
X133339960Y-103990426D01*
X133354691Y-104140000D01*
X133339960Y-104289574D01*
X133296330Y-104433401D01*
X133225482Y-104565948D01*
X133225480Y-104565951D01*
X133130132Y-104682132D01*
X133013951Y-104777480D01*
X133013949Y-104777481D01*
X133013948Y-104777482D01*
X132881401Y-104848330D01*
X132737574Y-104891960D01*
X132625479Y-104903000D01*
X131534521Y-104903000D01*
X131422426Y-104891960D01*
X131278599Y-104848330D01*
X131146052Y-104777482D01*
X131146051Y-104777481D01*
X131146049Y-104777480D01*
X131029868Y-104682132D01*
X130934520Y-104565951D01*
X130934518Y-104565948D01*
X130863670Y-104433401D01*
X130820040Y-104289574D01*
X130805309Y-104140000D01*
X130820040Y-103990426D01*
X130863670Y-103846599D01*
X130934518Y-103714052D01*
X131029868Y-103597868D01*
X131094696Y-103544665D01*
X131146049Y-103502520D01*
X131146051Y-103502519D01*
X131146052Y-103502518D01*
X131278599Y-103431670D01*
X131422426Y-103388040D01*
X131534521Y-103377000D01*
X132625479Y-103377000D01*
X132737574Y-103388040D01*
X132737574Y-103388040D01*
G37*
G36*
X169251566Y-102534000D02*
G01*
X169251569Y-102534001D01*
X169251568Y-102534001D01*
X169464677Y-102622273D01*
X169656469Y-102750425D01*
X169819575Y-102913531D01*
X169947727Y-103105323D01*
X170020854Y-103281869D01*
X170036000Y-103318434D01*
X170081000Y-103544665D01*
X170081000Y-103775335D01*
X170036000Y-104001566D01*
X170035999Y-104001568D01*
X169947727Y-104214677D01*
X169819575Y-104406469D01*
X169656469Y-104569575D01*
X169464677Y-104697727D01*
X169288131Y-104770854D01*
X169251566Y-104786000D01*
X169025335Y-104831000D01*
X168794665Y-104831000D01*
X168568434Y-104786000D01*
X168531869Y-104770854D01*
X168355323Y-104697727D01*
X168163531Y-104569575D01*
X168000425Y-104406469D01*
X167872273Y-104214677D01*
X167784001Y-104001568D01*
X167784000Y-104001566D01*
X167739000Y-103775335D01*
X167739000Y-103544665D01*
X167784000Y-103318434D01*
X167799146Y-103281869D01*
X167872273Y-103105323D01*
X168000425Y-102913531D01*
X168163531Y-102750425D01*
X168355323Y-102622273D01*
X168568432Y-102534001D01*
X168568431Y-102534001D01*
X168568434Y-102534000D01*
X168794665Y-102489000D01*
X169025335Y-102489000D01*
X169251566Y-102534000D01*
X169251566Y-102534000D01*
G37*
G36*
X156551566Y-102534000D02*
G01*
X156551569Y-102534001D01*
X156551568Y-102534001D01*
X156764677Y-102622273D01*
X156956469Y-102750425D01*
X157119575Y-102913531D01*
X157247727Y-103105323D01*
X157320854Y-103281869D01*
X157336000Y-103318434D01*
X157381000Y-103544665D01*
X157381000Y-103775335D01*
X157336000Y-104001566D01*
X157335999Y-104001568D01*
X157247727Y-104214677D01*
X157119575Y-104406469D01*
X156956469Y-104569575D01*
X156764677Y-104697727D01*
X156588131Y-104770854D01*
X156551566Y-104786000D01*
X156325335Y-104831000D01*
X156094665Y-104831000D01*
X155868434Y-104786000D01*
X155831869Y-104770854D01*
X155655323Y-104697727D01*
X155463531Y-104569575D01*
X155300425Y-104406469D01*
X155172273Y-104214677D01*
X155084001Y-104001568D01*
X155084000Y-104001566D01*
X155039000Y-103775335D01*
X155039000Y-103544665D01*
X155084000Y-103318434D01*
X155099146Y-103281869D01*
X155172273Y-103105323D01*
X155300425Y-102913531D01*
X155463531Y-102750425D01*
X155655323Y-102622273D01*
X155868432Y-102534001D01*
X155868431Y-102534001D01*
X155868434Y-102534000D01*
X156094665Y-102489000D01*
X156325335Y-102489000D01*
X156551566Y-102534000D01*
X156551566Y-102534000D01*
G37*
G36*
X132737574Y-100848040D02*
G01*
X132881401Y-100891670D01*
X133013948Y-100962518D01*
X133013949Y-100962519D01*
X133013951Y-100962520D01*
X133130132Y-101057868D01*
X133225482Y-101174052D01*
X133296330Y-101306599D01*
X133339960Y-101450426D01*
X133354691Y-101600000D01*
X133339960Y-101749574D01*
X133296330Y-101893401D01*
X133225482Y-102025948D01*
X133225480Y-102025951D01*
X133130132Y-102142132D01*
X133013951Y-102237480D01*
X133013949Y-102237481D01*
X133013948Y-102237482D01*
X132881401Y-102308330D01*
X132737574Y-102351960D01*
X132625479Y-102363000D01*
X131534521Y-102363000D01*
X131422426Y-102351960D01*
X131278599Y-102308330D01*
X131146052Y-102237482D01*
X131146051Y-102237481D01*
X131146049Y-102237480D01*
X131029868Y-102142132D01*
X130934520Y-102025951D01*
X130934518Y-102025948D01*
X130863670Y-101893401D01*
X130820040Y-101749574D01*
X130805309Y-101600000D01*
X130820040Y-101450426D01*
X130863670Y-101306599D01*
X130934518Y-101174052D01*
X131029868Y-101057868D01*
X131146049Y-100962520D01*
X131146051Y-100962519D01*
X131146052Y-100962518D01*
X131278599Y-100891670D01*
X131422426Y-100848040D01*
X131534521Y-100837000D01*
X132625479Y-100837000D01*
X132737574Y-100848040D01*
X132737574Y-100848040D01*
G37*
G36*
X147977574Y-100848040D02*
G01*
X148121401Y-100891670D01*
X148253948Y-100962518D01*
X148253949Y-100962519D01*
X148253951Y-100962520D01*
X148370132Y-101057868D01*
X148465482Y-101174052D01*
X148536330Y-101306599D01*
X148579960Y-101450426D01*
X148594691Y-101600000D01*
X148579960Y-101749574D01*
X148536330Y-101893401D01*
X148465482Y-102025948D01*
X148465480Y-102025951D01*
X148370132Y-102142132D01*
X148253951Y-102237480D01*
X148253949Y-102237481D01*
X148253948Y-102237482D01*
X148121401Y-102308330D01*
X147977574Y-102351960D01*
X147865479Y-102363000D01*
X146774521Y-102363000D01*
X146662426Y-102351960D01*
X146518599Y-102308330D01*
X146386052Y-102237482D01*
X146386051Y-102237481D01*
X146386049Y-102237480D01*
X146269868Y-102142132D01*
X146174520Y-102025951D01*
X146174518Y-102025948D01*
X146103670Y-101893401D01*
X146060040Y-101749574D01*
X146045309Y-101600000D01*
X146060040Y-101450426D01*
X146103670Y-101306599D01*
X146174518Y-101174052D01*
X146269868Y-101057868D01*
X146386049Y-100962520D01*
X146386051Y-100962519D01*
X146386052Y-100962518D01*
X146518599Y-100891670D01*
X146662426Y-100848040D01*
X146774521Y-100837000D01*
X147865479Y-100837000D01*
X147977574Y-100848040D01*
X147977574Y-100848040D01*
G37*
G36*
X169251566Y-99034000D02*
G01*
X169251569Y-99034001D01*
X169251568Y-99034001D01*
X169464677Y-99122273D01*
X169656469Y-99250425D01*
X169819575Y-99413531D01*
X169947727Y-99605323D01*
X169985899Y-99697480D01*
X170036000Y-99818434D01*
X170081000Y-100044665D01*
X170081000Y-100275335D01*
X170036000Y-100501566D01*
X170035999Y-100501568D01*
X169947727Y-100714677D01*
X169845066Y-100868318D01*
X169829464Y-100891670D01*
X169819575Y-100906469D01*
X169656469Y-101069575D01*
X169464677Y-101197727D01*
X169288131Y-101270854D01*
X169251566Y-101286000D01*
X169025335Y-101331000D01*
X168794665Y-101331000D01*
X168568434Y-101286000D01*
X168531869Y-101270854D01*
X168355323Y-101197727D01*
X168163531Y-101069575D01*
X168000425Y-100906469D01*
X167990537Y-100891670D01*
X167974934Y-100868318D01*
X167872273Y-100714677D01*
X167784001Y-100501568D01*
X167784000Y-100501566D01*
X167739000Y-100275335D01*
X167739000Y-100044665D01*
X167784000Y-99818434D01*
X167834101Y-99697480D01*
X167872273Y-99605323D01*
X168000425Y-99413531D01*
X168163531Y-99250425D01*
X168355323Y-99122273D01*
X168568432Y-99034001D01*
X168568431Y-99034001D01*
X168568434Y-99034000D01*
X168794665Y-98989000D01*
X169025335Y-98989000D01*
X169251566Y-99034000D01*
X169251566Y-99034000D01*
G37*
G36*
X156551566Y-99034000D02*
G01*
X156551569Y-99034001D01*
X156551568Y-99034001D01*
X156764677Y-99122273D01*
X156956469Y-99250425D01*
X157119575Y-99413531D01*
X157247727Y-99605323D01*
X157285899Y-99697480D01*
X157336000Y-99818434D01*
X157381000Y-100044665D01*
X157381000Y-100275335D01*
X157336000Y-100501566D01*
X157335999Y-100501568D01*
X157247727Y-100714677D01*
X157145066Y-100868318D01*
X157129464Y-100891670D01*
X157119575Y-100906469D01*
X156956469Y-101069575D01*
X156764677Y-101197727D01*
X156588131Y-101270854D01*
X156551566Y-101286000D01*
X156325335Y-101331000D01*
X156094665Y-101331000D01*
X155868434Y-101286000D01*
X155831869Y-101270854D01*
X155655323Y-101197727D01*
X155463531Y-101069575D01*
X155300425Y-100906469D01*
X155290537Y-100891670D01*
X155274934Y-100868318D01*
X155172273Y-100714677D01*
X155084001Y-100501568D01*
X155084000Y-100501566D01*
X155039000Y-100275335D01*
X155039000Y-100044665D01*
X155084000Y-99818434D01*
X155134101Y-99697480D01*
X155172273Y-99605323D01*
X155300425Y-99413531D01*
X155463531Y-99250425D01*
X155655323Y-99122273D01*
X155868432Y-99034001D01*
X155868431Y-99034001D01*
X155868434Y-99034000D01*
X156094665Y-98989000D01*
X156325335Y-98989000D01*
X156551566Y-99034000D01*
X156551566Y-99034000D01*
G37*
G36*
X147977574Y-98308040D02*
G01*
X148121401Y-98351670D01*
X148253948Y-98422518D01*
X148253949Y-98422519D01*
X148253951Y-98422520D01*
X148370132Y-98517868D01*
X148465482Y-98634052D01*
X148536330Y-98766599D01*
X148579960Y-98910426D01*
X148594691Y-99060000D01*
X148579960Y-99209574D01*
X148536330Y-99353401D01*
X148504189Y-99413532D01*
X148465480Y-99485951D01*
X148370132Y-99602132D01*
X148253951Y-99697480D01*
X148253949Y-99697481D01*
X148253948Y-99697482D01*
X148121401Y-99768330D01*
X147977574Y-99811960D01*
X147865479Y-99823000D01*
X146774521Y-99823000D01*
X146662426Y-99811960D01*
X146518599Y-99768330D01*
X146386052Y-99697482D01*
X146386051Y-99697481D01*
X146386049Y-99697480D01*
X146269868Y-99602132D01*
X146174520Y-99485951D01*
X146135811Y-99413532D01*
X146103670Y-99353401D01*
X146060040Y-99209574D01*
X146045309Y-99060000D01*
X146060040Y-98910426D01*
X146103670Y-98766599D01*
X146174518Y-98634052D01*
X146269868Y-98517868D01*
X146386049Y-98422520D01*
X146386051Y-98422519D01*
X146386052Y-98422518D01*
X146518599Y-98351670D01*
X146662426Y-98308040D01*
X146774521Y-98297000D01*
X147865479Y-98297000D01*
X147977574Y-98308040D01*
X147977574Y-98308040D01*
G37*
G36*
X132737574Y-98308040D02*
G01*
X132881401Y-98351670D01*
X133013948Y-98422518D01*
X133013949Y-98422519D01*
X133013951Y-98422520D01*
X133130132Y-98517868D01*
X133225482Y-98634052D01*
X133296330Y-98766599D01*
X133339960Y-98910426D01*
X133354691Y-99060000D01*
X133339960Y-99209574D01*
X133296330Y-99353401D01*
X133264189Y-99413532D01*
X133225480Y-99485951D01*
X133130132Y-99602132D01*
X133013951Y-99697480D01*
X133013949Y-99697481D01*
X133013948Y-99697482D01*
X132881401Y-99768330D01*
X132737574Y-99811960D01*
X132625479Y-99823000D01*
X131534521Y-99823000D01*
X131422426Y-99811960D01*
X131278599Y-99768330D01*
X131146052Y-99697482D01*
X131146051Y-99697481D01*
X131146049Y-99697480D01*
X131029868Y-99602132D01*
X130934520Y-99485951D01*
X130895811Y-99413532D01*
X130863670Y-99353401D01*
X130820040Y-99209574D01*
X130805309Y-99060000D01*
X130820040Y-98910426D01*
X130863670Y-98766599D01*
X130934518Y-98634052D01*
X131029868Y-98517868D01*
X131146049Y-98422520D01*
X131146051Y-98422519D01*
X131146052Y-98422518D01*
X131278599Y-98351670D01*
X131422426Y-98308040D01*
X131534521Y-98297000D01*
X132625479Y-98297000D01*
X132737574Y-98308040D01*
X132737574Y-98308040D01*
G37*
G36*
X147977574Y-95768040D02*
G01*
X148121401Y-95811670D01*
X148253948Y-95882518D01*
X148253949Y-95882519D01*
X148253951Y-95882520D01*
X148370132Y-95977868D01*
X148465482Y-96094052D01*
X148536330Y-96226599D01*
X148579960Y-96370426D01*
X148594691Y-96520000D01*
X148579960Y-96669574D01*
X148536330Y-96813401D01*
X148465482Y-96945948D01*
X148465480Y-96945951D01*
X148370132Y-97062132D01*
X148253951Y-97157480D01*
X148253949Y-97157481D01*
X148253948Y-97157482D01*
X148121401Y-97228330D01*
X147977574Y-97271960D01*
X147865479Y-97283000D01*
X146774521Y-97283000D01*
X146662426Y-97271960D01*
X146518599Y-97228330D01*
X146386052Y-97157482D01*
X146386051Y-97157481D01*
X146386049Y-97157480D01*
X146269868Y-97062132D01*
X146174520Y-96945951D01*
X146174518Y-96945948D01*
X146103670Y-96813401D01*
X146060040Y-96669574D01*
X146045309Y-96520000D01*
X146060040Y-96370426D01*
X146103670Y-96226599D01*
X146174518Y-96094052D01*
X146269868Y-95977868D01*
X146386049Y-95882520D01*
X146386051Y-95882519D01*
X146386052Y-95882518D01*
X146518599Y-95811670D01*
X146662426Y-95768040D01*
X146774521Y-95757000D01*
X147865479Y-95757000D01*
X147977574Y-95768040D01*
X147977574Y-95768040D01*
G37*
G36*
X132737574Y-95768040D02*
G01*
X132881401Y-95811670D01*
X133013948Y-95882518D01*
X133013949Y-95882519D01*
X133013951Y-95882520D01*
X133130132Y-95977868D01*
X133225482Y-96094052D01*
X133296330Y-96226599D01*
X133339960Y-96370426D01*
X133354691Y-96520000D01*
X133339960Y-96669574D01*
X133296330Y-96813401D01*
X133225482Y-96945948D01*
X133225480Y-96945951D01*
X133130132Y-97062132D01*
X133013951Y-97157480D01*
X133013949Y-97157481D01*
X133013948Y-97157482D01*
X132881401Y-97228330D01*
X132737574Y-97271960D01*
X132625479Y-97283000D01*
X131534521Y-97283000D01*
X131422426Y-97271960D01*
X131278599Y-97228330D01*
X131146052Y-97157482D01*
X131146051Y-97157481D01*
X131146049Y-97157480D01*
X131029868Y-97062132D01*
X130934520Y-96945951D01*
X130934518Y-96945948D01*
X130863670Y-96813401D01*
X130820040Y-96669574D01*
X130805309Y-96520000D01*
X130820040Y-96370426D01*
X130863670Y-96226599D01*
X130934518Y-96094052D01*
X131029868Y-95977868D01*
X131146049Y-95882520D01*
X131146051Y-95882519D01*
X131146052Y-95882518D01*
X131278599Y-95811670D01*
X131422426Y-95768040D01*
X131534521Y-95757000D01*
X132625479Y-95757000D01*
X132737574Y-95768040D01*
X132737574Y-95768040D01*
G37*
G36*
X169251566Y-93024000D02*
G01*
X169251569Y-93024001D01*
X169251568Y-93024001D01*
X169464677Y-93112273D01*
X169656469Y-93240425D01*
X169819575Y-93403531D01*
X169947727Y-93595323D01*
X170020854Y-93771869D01*
X170036000Y-93808434D01*
X170081000Y-94034665D01*
X170081000Y-94265335D01*
X170036000Y-94491566D01*
X170035999Y-94491568D01*
X169947727Y-94704677D01*
X169819575Y-94896469D01*
X169656469Y-95059575D01*
X169464677Y-95187727D01*
X169288131Y-95260854D01*
X169251566Y-95276000D01*
X169025335Y-95321000D01*
X168794665Y-95321000D01*
X168568434Y-95276000D01*
X168531869Y-95260854D01*
X168355323Y-95187727D01*
X168163531Y-95059575D01*
X168000425Y-94896469D01*
X167872273Y-94704677D01*
X167784001Y-94491568D01*
X167784000Y-94491566D01*
X167739000Y-94265335D01*
X167739000Y-94034665D01*
X167784000Y-93808434D01*
X167799146Y-93771869D01*
X167872273Y-93595323D01*
X168000425Y-93403531D01*
X168163531Y-93240425D01*
X168355323Y-93112273D01*
X168568432Y-93024001D01*
X168568431Y-93024001D01*
X168568434Y-93024000D01*
X168794665Y-92979000D01*
X169025335Y-92979000D01*
X169251566Y-93024000D01*
X169251566Y-93024000D01*
G37*
G36*
X156551566Y-93024000D02*
G01*
X156551569Y-93024001D01*
X156551568Y-93024001D01*
X156764677Y-93112273D01*
X156956469Y-93240425D01*
X157119575Y-93403531D01*
X157247727Y-93595323D01*
X157320854Y-93771869D01*
X157336000Y-93808434D01*
X157381000Y-94034665D01*
X157381000Y-94265335D01*
X157336000Y-94491566D01*
X157335999Y-94491568D01*
X157247727Y-94704677D01*
X157119575Y-94896469D01*
X156956469Y-95059575D01*
X156764677Y-95187727D01*
X156588131Y-95260854D01*
X156551566Y-95276000D01*
X156325335Y-95321000D01*
X156094665Y-95321000D01*
X155868434Y-95276000D01*
X155831869Y-95260854D01*
X155655323Y-95187727D01*
X155463531Y-95059575D01*
X155300425Y-94896469D01*
X155172273Y-94704677D01*
X155084001Y-94491568D01*
X155084000Y-94491566D01*
X155039000Y-94265335D01*
X155039000Y-94034665D01*
X155084000Y-93808434D01*
X155099146Y-93771869D01*
X155172273Y-93595323D01*
X155300425Y-93403531D01*
X155463531Y-93240425D01*
X155655323Y-93112273D01*
X155868432Y-93024001D01*
X155868431Y-93024001D01*
X155868434Y-93024000D01*
X156094665Y-92979000D01*
X156325335Y-92979000D01*
X156551566Y-93024000D01*
X156551566Y-93024000D01*
G37*
G36*
X147977574Y-93228040D02*
G01*
X148121401Y-93271670D01*
X148253948Y-93342518D01*
X148253949Y-93342519D01*
X148253951Y-93342520D01*
X148328294Y-93403532D01*
X148370132Y-93437868D01*
X148465482Y-93554052D01*
X148536330Y-93686599D01*
X148579960Y-93830426D01*
X148594691Y-93980000D01*
X148579960Y-94129574D01*
X148536330Y-94273401D01*
X148465482Y-94405948D01*
X148465480Y-94405951D01*
X148370132Y-94522132D01*
X148253951Y-94617480D01*
X148253949Y-94617481D01*
X148253948Y-94617482D01*
X148121401Y-94688330D01*
X147977574Y-94731960D01*
X147865479Y-94743000D01*
X146774521Y-94743000D01*
X146662426Y-94731960D01*
X146518599Y-94688330D01*
X146386052Y-94617482D01*
X146386051Y-94617481D01*
X146386049Y-94617480D01*
X146269868Y-94522132D01*
X146174520Y-94405951D01*
X146174518Y-94405948D01*
X146103670Y-94273401D01*
X146060040Y-94129574D01*
X146045309Y-93980000D01*
X146060040Y-93830426D01*
X146103670Y-93686599D01*
X146174518Y-93554052D01*
X146269868Y-93437868D01*
X146311706Y-93403532D01*
X146386049Y-93342520D01*
X146386051Y-93342519D01*
X146386052Y-93342518D01*
X146518599Y-93271670D01*
X146662426Y-93228040D01*
X146774521Y-93217000D01*
X147865479Y-93217000D01*
X147977574Y-93228040D01*
X147977574Y-93228040D01*
G37*
G36*
X132737574Y-93228040D02*
G01*
X132881401Y-93271670D01*
X133013948Y-93342518D01*
X133013949Y-93342519D01*
X133013951Y-93342520D01*
X133088294Y-93403532D01*
X133130132Y-93437868D01*
X133225482Y-93554052D01*
X133296330Y-93686599D01*
X133339960Y-93830426D01*
X133354691Y-93980000D01*
X133339960Y-94129574D01*
X133296330Y-94273401D01*
X133225482Y-94405948D01*
X133225480Y-94405951D01*
X133130132Y-94522132D01*
X133013951Y-94617480D01*
X133013949Y-94617481D01*
X133013948Y-94617482D01*
X132881401Y-94688330D01*
X132737574Y-94731960D01*
X132625479Y-94743000D01*
X131534521Y-94743000D01*
X131422426Y-94731960D01*
X131278599Y-94688330D01*
X131146052Y-94617482D01*
X131146051Y-94617481D01*
X131146049Y-94617480D01*
X131029868Y-94522132D01*
X130934520Y-94405951D01*
X130934518Y-94405948D01*
X130863670Y-94273401D01*
X130820040Y-94129574D01*
X130805309Y-93980000D01*
X130820040Y-93830426D01*
X130863670Y-93686599D01*
X130934518Y-93554052D01*
X131029868Y-93437868D01*
X131071706Y-93403532D01*
X131146049Y-93342520D01*
X131146051Y-93342519D01*
X131146052Y-93342518D01*
X131278599Y-93271670D01*
X131422426Y-93228040D01*
X131534521Y-93217000D01*
X132625479Y-93217000D01*
X132737574Y-93228040D01*
X132737574Y-93228040D01*
G37*
G36*
X132737574Y-90688040D02*
G01*
X132881401Y-90731670D01*
X133013948Y-90802518D01*
X133013949Y-90802519D01*
X133013951Y-90802520D01*
X133130132Y-90897868D01*
X133207029Y-90991566D01*
X133225482Y-91014052D01*
X133296330Y-91146599D01*
X133339960Y-91290426D01*
X133354691Y-91440000D01*
X133339960Y-91589574D01*
X133296330Y-91733401D01*
X133273560Y-91776000D01*
X133225480Y-91865951D01*
X133130132Y-91982132D01*
X133013951Y-92077480D01*
X133013949Y-92077481D01*
X133013948Y-92077482D01*
X132881401Y-92148330D01*
X132737574Y-92191960D01*
X132625479Y-92203000D01*
X131534521Y-92203000D01*
X131422426Y-92191960D01*
X131278599Y-92148330D01*
X131146052Y-92077482D01*
X131146051Y-92077481D01*
X131146049Y-92077480D01*
X131029868Y-91982132D01*
X130934520Y-91865951D01*
X130886440Y-91776000D01*
X130863670Y-91733401D01*
X130820040Y-91589574D01*
X130805309Y-91440000D01*
X130820040Y-91290426D01*
X130863670Y-91146599D01*
X130934518Y-91014052D01*
X130952972Y-90991566D01*
X131029868Y-90897868D01*
X131146049Y-90802520D01*
X131146051Y-90802519D01*
X131146052Y-90802518D01*
X131278599Y-90731670D01*
X131422426Y-90688040D01*
X131534521Y-90677000D01*
X132625479Y-90677000D01*
X132737574Y-90688040D01*
X132737574Y-90688040D01*
G37*
G36*
X147977574Y-90688040D02*
G01*
X148121401Y-90731670D01*
X148253948Y-90802518D01*
X148253949Y-90802519D01*
X148253951Y-90802520D01*
X148370132Y-90897868D01*
X148447029Y-90991566D01*
X148465482Y-91014052D01*
X148536330Y-91146599D01*
X148579960Y-91290426D01*
X148594691Y-91440000D01*
X148579960Y-91589574D01*
X148536330Y-91733401D01*
X148513560Y-91776000D01*
X148465480Y-91865951D01*
X148370132Y-91982132D01*
X148253951Y-92077480D01*
X148253949Y-92077481D01*
X148253948Y-92077482D01*
X148121401Y-92148330D01*
X147977574Y-92191960D01*
X147865479Y-92203000D01*
X146774521Y-92203000D01*
X146662426Y-92191960D01*
X146518599Y-92148330D01*
X146386052Y-92077482D01*
X146386051Y-92077481D01*
X146386049Y-92077480D01*
X146269868Y-91982132D01*
X146174520Y-91865951D01*
X146126440Y-91776000D01*
X146103670Y-91733401D01*
X146060040Y-91589574D01*
X146045309Y-91440000D01*
X146060040Y-91290426D01*
X146103670Y-91146599D01*
X146174518Y-91014052D01*
X146192972Y-90991566D01*
X146269868Y-90897868D01*
X146386049Y-90802520D01*
X146386051Y-90802519D01*
X146386052Y-90802518D01*
X146518599Y-90731670D01*
X146662426Y-90688040D01*
X146774521Y-90677000D01*
X147865479Y-90677000D01*
X147977574Y-90688040D01*
X147977574Y-90688040D01*
G37*
G36*
X156551566Y-89524000D02*
G01*
X156551569Y-89524001D01*
X156551568Y-89524001D01*
X156764677Y-89612273D01*
X156956469Y-89740425D01*
X157119575Y-89903531D01*
X157247727Y-90095323D01*
X157320854Y-90271869D01*
X157336000Y-90308434D01*
X157381000Y-90534665D01*
X157381000Y-90765335D01*
X157336000Y-90991566D01*
X157335999Y-90991568D01*
X157247727Y-91204677D01*
X157119575Y-91396469D01*
X156956469Y-91559575D01*
X156764677Y-91687727D01*
X156654409Y-91733401D01*
X156551566Y-91776000D01*
X156325335Y-91821000D01*
X156094665Y-91821000D01*
X155868434Y-91776000D01*
X155765591Y-91733401D01*
X155655323Y-91687727D01*
X155463531Y-91559575D01*
X155300425Y-91396469D01*
X155172273Y-91204677D01*
X155084001Y-90991568D01*
X155084000Y-90991566D01*
X155039000Y-90765335D01*
X155039000Y-90534665D01*
X155084000Y-90308434D01*
X155099146Y-90271869D01*
X155172273Y-90095323D01*
X155300425Y-89903531D01*
X155463531Y-89740425D01*
X155655323Y-89612273D01*
X155868432Y-89524001D01*
X155868431Y-89524001D01*
X155868434Y-89524000D01*
X156094665Y-89479000D01*
X156325335Y-89479000D01*
X156551566Y-89524000D01*
X156551566Y-89524000D01*
G37*
G36*
X169251566Y-89524000D02*
G01*
X169251569Y-89524001D01*
X169251568Y-89524001D01*
X169464677Y-89612273D01*
X169656469Y-89740425D01*
X169819575Y-89903531D01*
X169947727Y-90095323D01*
X170020854Y-90271869D01*
X170036000Y-90308434D01*
X170081000Y-90534665D01*
X170081000Y-90765335D01*
X170036000Y-90991566D01*
X170035999Y-90991568D01*
X169947727Y-91204677D01*
X169819575Y-91396469D01*
X169656469Y-91559575D01*
X169464677Y-91687727D01*
X169354409Y-91733401D01*
X169251566Y-91776000D01*
X169025335Y-91821000D01*
X168794665Y-91821000D01*
X168568434Y-91776000D01*
X168465591Y-91733401D01*
X168355323Y-91687727D01*
X168163531Y-91559575D01*
X168000425Y-91396469D01*
X167872273Y-91204677D01*
X167784001Y-90991568D01*
X167784000Y-90991566D01*
X167739000Y-90765335D01*
X167739000Y-90534665D01*
X167784000Y-90308434D01*
X167799146Y-90271869D01*
X167872273Y-90095323D01*
X168000425Y-89903531D01*
X168163531Y-89740425D01*
X168355323Y-89612273D01*
X168568432Y-89524001D01*
X168568431Y-89524001D01*
X168568434Y-89524000D01*
X168794665Y-89479000D01*
X169025335Y-89479000D01*
X169251566Y-89524000D01*
X169251566Y-89524000D01*
G37*
G36*
X133351000Y-89663000D02*
G01*
X130809000Y-89663000D01*
X130809000Y-88137000D01*
X133351000Y-88137000D01*
X133351000Y-89663000D01*
X133351000Y-89663000D01*
G37*
G36*
X147977574Y-88148040D02*
G01*
X148121401Y-88191670D01*
X148253948Y-88262518D01*
X148253949Y-88262519D01*
X148253951Y-88262520D01*
X148370132Y-88357868D01*
X148465482Y-88474052D01*
X148536330Y-88606599D01*
X148579960Y-88750426D01*
X148594691Y-88900000D01*
X148579960Y-89049574D01*
X148536330Y-89193401D01*
X148465482Y-89325948D01*
X148465480Y-89325951D01*
X148370132Y-89442132D01*
X148253951Y-89537480D01*
X148253949Y-89537481D01*
X148253948Y-89537482D01*
X148121401Y-89608330D01*
X147977574Y-89651960D01*
X147865479Y-89663000D01*
X146774521Y-89663000D01*
X146662426Y-89651960D01*
X146518599Y-89608330D01*
X146386052Y-89537482D01*
X146386051Y-89537481D01*
X146386049Y-89537480D01*
X146269868Y-89442132D01*
X146174520Y-89325951D01*
X146174518Y-89325948D01*
X146103670Y-89193401D01*
X146060040Y-89049574D01*
X146045309Y-88900000D01*
X146060040Y-88750426D01*
X146103670Y-88606599D01*
X146174518Y-88474052D01*
X146269868Y-88357868D01*
X146386049Y-88262520D01*
X146386051Y-88262519D01*
X146386052Y-88262518D01*
X146518599Y-88191670D01*
X146662426Y-88148040D01*
X146774521Y-88137000D01*
X147865479Y-88137000D01*
X147977574Y-88148040D01*
X147977574Y-88148040D01*
G37*
G36*
X169251566Y-86024000D02*
G01*
X169251569Y-86024001D01*
X169251568Y-86024001D01*
X169464677Y-86112273D01*
X169656469Y-86240425D01*
X169819575Y-86403531D01*
X169947727Y-86595323D01*
X170020854Y-86771869D01*
X170036000Y-86808434D01*
X170081000Y-87034665D01*
X170081000Y-87265335D01*
X170036000Y-87491566D01*
X170035999Y-87491568D01*
X169947727Y-87704677D01*
X169819575Y-87896469D01*
X169656469Y-88059575D01*
X169464677Y-88187727D01*
X169288131Y-88260854D01*
X169251566Y-88276000D01*
X169025335Y-88321000D01*
X168794665Y-88321000D01*
X168568434Y-88276000D01*
X168531869Y-88260854D01*
X168355323Y-88187727D01*
X168163531Y-88059575D01*
X168000425Y-87896469D01*
X167872273Y-87704677D01*
X167784001Y-87491568D01*
X167784000Y-87491566D01*
X167739000Y-87265335D01*
X167739000Y-87034665D01*
X167784000Y-86808434D01*
X167799146Y-86771869D01*
X167872273Y-86595323D01*
X168000425Y-86403531D01*
X168163531Y-86240425D01*
X168355323Y-86112273D01*
X168568432Y-86024001D01*
X168568431Y-86024001D01*
X168568434Y-86024000D01*
X168794665Y-85979000D01*
X169025335Y-85979000D01*
X169251566Y-86024000D01*
X169251566Y-86024000D01*
G37*
G36*
X156551566Y-86024000D02*
G01*
X156551569Y-86024001D01*
X156551568Y-86024001D01*
X156764677Y-86112273D01*
X156956469Y-86240425D01*
X157119575Y-86403531D01*
X157247727Y-86595323D01*
X157320854Y-86771869D01*
X157336000Y-86808434D01*
X157381000Y-87034665D01*
X157381000Y-87265335D01*
X157336000Y-87491566D01*
X157335999Y-87491568D01*
X157247727Y-87704677D01*
X157119575Y-87896469D01*
X156956469Y-88059575D01*
X156764677Y-88187727D01*
X156588131Y-88260854D01*
X156551566Y-88276000D01*
X156325335Y-88321000D01*
X156094665Y-88321000D01*
X155868434Y-88276000D01*
X155831869Y-88260854D01*
X155655323Y-88187727D01*
X155463531Y-88059575D01*
X155300425Y-87896469D01*
X155172273Y-87704677D01*
X155084001Y-87491568D01*
X155084000Y-87491566D01*
X155039000Y-87265335D01*
X155039000Y-87034665D01*
X155084000Y-86808434D01*
X155099146Y-86771869D01*
X155172273Y-86595323D01*
X155300425Y-86403531D01*
X155463531Y-86240425D01*
X155655323Y-86112273D01*
X155868432Y-86024001D01*
X155868431Y-86024001D01*
X155868434Y-86024000D01*
X156094665Y-85979000D01*
X156325335Y-85979000D01*
X156551566Y-86024000D01*
X156551566Y-86024000D01*
G37*
G36*
X147977574Y-85608040D02*
G01*
X148121401Y-85651670D01*
X148253948Y-85722518D01*
X148253949Y-85722519D01*
X148253951Y-85722520D01*
X148370132Y-85817868D01*
X148465482Y-85934052D01*
X148536330Y-86066599D01*
X148579960Y-86210426D01*
X148594691Y-86360000D01*
X148579960Y-86509574D01*
X148536330Y-86653401D01*
X148465482Y-86785948D01*
X148465480Y-86785951D01*
X148370132Y-86902132D01*
X148253951Y-86997480D01*
X148253949Y-86997481D01*
X148253948Y-86997482D01*
X148121401Y-87068330D01*
X147977574Y-87111960D01*
X147865479Y-87123000D01*
X146774521Y-87123000D01*
X146662426Y-87111960D01*
X146518599Y-87068330D01*
X146386052Y-86997482D01*
X146386051Y-86997481D01*
X146386049Y-86997480D01*
X146269868Y-86902132D01*
X146174520Y-86785951D01*
X146174518Y-86785948D01*
X146103670Y-86653401D01*
X146060040Y-86509574D01*
X146045309Y-86360000D01*
X146060040Y-86210426D01*
X146103670Y-86066599D01*
X146174518Y-85934052D01*
X146269868Y-85817868D01*
X146386049Y-85722520D01*
X146386051Y-85722519D01*
X146386052Y-85722518D01*
X146518599Y-85651670D01*
X146662426Y-85608040D01*
X146774521Y-85597000D01*
X147865479Y-85597000D01*
X147977574Y-85608040D01*
X147977574Y-85608040D01*
G37*
G36*
X132737574Y-85608040D02*
G01*
X132881401Y-85651670D01*
X133013948Y-85722518D01*
X133013949Y-85722519D01*
X133013951Y-85722520D01*
X133130132Y-85817868D01*
X133225482Y-85934052D01*
X133296330Y-86066599D01*
X133339960Y-86210426D01*
X133354691Y-86360000D01*
X133339960Y-86509574D01*
X133296330Y-86653401D01*
X133225482Y-86785948D01*
X133225480Y-86785951D01*
X133130132Y-86902132D01*
X133013951Y-86997480D01*
X133013949Y-86997481D01*
X133013948Y-86997482D01*
X132881401Y-87068330D01*
X132737574Y-87111960D01*
X132625479Y-87123000D01*
X131534521Y-87123000D01*
X131422426Y-87111960D01*
X131278599Y-87068330D01*
X131146052Y-86997482D01*
X131146051Y-86997481D01*
X131146049Y-86997480D01*
X131029868Y-86902132D01*
X130934520Y-86785951D01*
X130934518Y-86785948D01*
X130863670Y-86653401D01*
X130820040Y-86509574D01*
X130805309Y-86360000D01*
X130820040Y-86210426D01*
X130863670Y-86066599D01*
X130934518Y-85934052D01*
X131029868Y-85817868D01*
X131146049Y-85722520D01*
X131146051Y-85722519D01*
X131146052Y-85722518D01*
X131278599Y-85651670D01*
X131422426Y-85608040D01*
X131534521Y-85597000D01*
X132625479Y-85597000D01*
X132737574Y-85608040D01*
X132737574Y-85608040D01*
G37*
G36*
X169251566Y-82524000D02*
G01*
X169251569Y-82524001D01*
X169251568Y-82524001D01*
X169464677Y-82612273D01*
X169656469Y-82740425D01*
X169819575Y-82903531D01*
X169947727Y-83095323D01*
X170020854Y-83271869D01*
X170036000Y-83308434D01*
X170081000Y-83534665D01*
X170081000Y-83765335D01*
X170036000Y-83991566D01*
X170035999Y-83991568D01*
X169947727Y-84204677D01*
X169819575Y-84396469D01*
X169656469Y-84559575D01*
X169464677Y-84687727D01*
X169288131Y-84760854D01*
X169251566Y-84776000D01*
X169025335Y-84821000D01*
X168794665Y-84821000D01*
X168568434Y-84776000D01*
X168531869Y-84760854D01*
X168355323Y-84687727D01*
X168163531Y-84559575D01*
X168000425Y-84396469D01*
X167872273Y-84204677D01*
X167784001Y-83991568D01*
X167784000Y-83991566D01*
X167739000Y-83765335D01*
X167739000Y-83534665D01*
X167784000Y-83308434D01*
X167799146Y-83271869D01*
X167872273Y-83095323D01*
X168000425Y-82903531D01*
X168163531Y-82740425D01*
X168355323Y-82612273D01*
X168568432Y-82524001D01*
X168568431Y-82524001D01*
X168568434Y-82524000D01*
X168794665Y-82479000D01*
X169025335Y-82479000D01*
X169251566Y-82524000D01*
X169251566Y-82524000D01*
G37*
G36*
X156551566Y-82524000D02*
G01*
X156551569Y-82524001D01*
X156551568Y-82524001D01*
X156764677Y-82612273D01*
X156956469Y-82740425D01*
X157119575Y-82903531D01*
X157247727Y-83095323D01*
X157320854Y-83271869D01*
X157336000Y-83308434D01*
X157381000Y-83534665D01*
X157381000Y-83765335D01*
X157336000Y-83991566D01*
X157335999Y-83991568D01*
X157247727Y-84204677D01*
X157119575Y-84396469D01*
X156956469Y-84559575D01*
X156764677Y-84687727D01*
X156588131Y-84760854D01*
X156551566Y-84776000D01*
X156325335Y-84821000D01*
X156094665Y-84821000D01*
X155868434Y-84776000D01*
X155831869Y-84760854D01*
X155655323Y-84687727D01*
X155463531Y-84559575D01*
X155300425Y-84396469D01*
X155172273Y-84204677D01*
X155084001Y-83991568D01*
X155084000Y-83991566D01*
X155039000Y-83765335D01*
X155039000Y-83534665D01*
X155084000Y-83308434D01*
X155099146Y-83271869D01*
X155172273Y-83095323D01*
X155300425Y-82903531D01*
X155463531Y-82740425D01*
X155655323Y-82612273D01*
X155868432Y-82524001D01*
X155868431Y-82524001D01*
X155868434Y-82524000D01*
X156094665Y-82479000D01*
X156325335Y-82479000D01*
X156551566Y-82524000D01*
X156551566Y-82524000D01*
G37*
G36*
X132737574Y-83068040D02*
G01*
X132881401Y-83111670D01*
X133013948Y-83182518D01*
X133013949Y-83182519D01*
X133013951Y-83182520D01*
X133130132Y-83277868D01*
X133225482Y-83394052D01*
X133296330Y-83526599D01*
X133339960Y-83670426D01*
X133354691Y-83820000D01*
X133339960Y-83969574D01*
X133296330Y-84113401D01*
X133225482Y-84245948D01*
X133225480Y-84245951D01*
X133130132Y-84362132D01*
X133013951Y-84457480D01*
X133013949Y-84457481D01*
X133013948Y-84457482D01*
X132881401Y-84528330D01*
X132737574Y-84571960D01*
X132625479Y-84583000D01*
X131534521Y-84583000D01*
X131422426Y-84571960D01*
X131278599Y-84528330D01*
X131146052Y-84457482D01*
X131146051Y-84457481D01*
X131146049Y-84457480D01*
X131029868Y-84362132D01*
X130934520Y-84245951D01*
X130934518Y-84245948D01*
X130863670Y-84113401D01*
X130820040Y-83969574D01*
X130805309Y-83820000D01*
X130820040Y-83670426D01*
X130863670Y-83526599D01*
X130934518Y-83394052D01*
X131029868Y-83277868D01*
X131146049Y-83182520D01*
X131146051Y-83182519D01*
X131146052Y-83182518D01*
X131278599Y-83111670D01*
X131422426Y-83068040D01*
X131534521Y-83057000D01*
X132625479Y-83057000D01*
X132737574Y-83068040D01*
X132737574Y-83068040D01*
G37*
G36*
X147977574Y-83068040D02*
G01*
X148121401Y-83111670D01*
X148253948Y-83182518D01*
X148253949Y-83182519D01*
X148253951Y-83182520D01*
X148370132Y-83277868D01*
X148465482Y-83394052D01*
X148536330Y-83526599D01*
X148579960Y-83670426D01*
X148594691Y-83820000D01*
X148579960Y-83969574D01*
X148536330Y-84113401D01*
X148465482Y-84245948D01*
X148465480Y-84245951D01*
X148370132Y-84362132D01*
X148253951Y-84457480D01*
X148253949Y-84457481D01*
X148253948Y-84457482D01*
X148121401Y-84528330D01*
X147977574Y-84571960D01*
X147865479Y-84583000D01*
X146774521Y-84583000D01*
X146662426Y-84571960D01*
X146518599Y-84528330D01*
X146386052Y-84457482D01*
X146386051Y-84457481D01*
X146386049Y-84457480D01*
X146269868Y-84362132D01*
X146174520Y-84245951D01*
X146174518Y-84245948D01*
X146103670Y-84113401D01*
X146060040Y-83969574D01*
X146045309Y-83820000D01*
X146060040Y-83670426D01*
X146103670Y-83526599D01*
X146174518Y-83394052D01*
X146269868Y-83277868D01*
X146386049Y-83182520D01*
X146386051Y-83182519D01*
X146386052Y-83182518D01*
X146518599Y-83111670D01*
X146662426Y-83068040D01*
X146774521Y-83057000D01*
X147865479Y-83057000D01*
X147977574Y-83068040D01*
X147977574Y-83068040D01*
G37*
G36*
X147977574Y-80528040D02*
G01*
X148121401Y-80571670D01*
X148253948Y-80642518D01*
X148253949Y-80642519D01*
X148253951Y-80642520D01*
X148370132Y-80737868D01*
X148465482Y-80854052D01*
X148536330Y-80986599D01*
X148579960Y-81130426D01*
X148594691Y-81280000D01*
X148579960Y-81429574D01*
X148536330Y-81573401D01*
X148465482Y-81705948D01*
X148465480Y-81705951D01*
X148370132Y-81822132D01*
X148253951Y-81917480D01*
X148253949Y-81917481D01*
X148253948Y-81917482D01*
X148121401Y-81988330D01*
X147977574Y-82031960D01*
X147865479Y-82043000D01*
X146774521Y-82043000D01*
X146662426Y-82031960D01*
X146518599Y-81988330D01*
X146386052Y-81917482D01*
X146386051Y-81917481D01*
X146386049Y-81917480D01*
X146269868Y-81822132D01*
X146174520Y-81705951D01*
X146174518Y-81705948D01*
X146103670Y-81573401D01*
X146060040Y-81429574D01*
X146045309Y-81280000D01*
X146060040Y-81130426D01*
X146103670Y-80986599D01*
X146174518Y-80854052D01*
X146269868Y-80737868D01*
X146386049Y-80642520D01*
X146386051Y-80642519D01*
X146386052Y-80642518D01*
X146518599Y-80571670D01*
X146662426Y-80528040D01*
X146774521Y-80517000D01*
X147865479Y-80517000D01*
X147977574Y-80528040D01*
X147977574Y-80528040D01*
G37*
G36*
X132737574Y-80528040D02*
G01*
X132881401Y-80571670D01*
X133013948Y-80642518D01*
X133013949Y-80642519D01*
X133013951Y-80642520D01*
X133130132Y-80737868D01*
X133225482Y-80854052D01*
X133296330Y-80986599D01*
X133339960Y-81130426D01*
X133354691Y-81280000D01*
X133339960Y-81429574D01*
X133296330Y-81573401D01*
X133225482Y-81705948D01*
X133225480Y-81705951D01*
X133130132Y-81822132D01*
X133013951Y-81917480D01*
X133013949Y-81917481D01*
X133013948Y-81917482D01*
X132881401Y-81988330D01*
X132737574Y-82031960D01*
X132625479Y-82043000D01*
X131534521Y-82043000D01*
X131422426Y-82031960D01*
X131278599Y-81988330D01*
X131146052Y-81917482D01*
X131146051Y-81917481D01*
X131146049Y-81917480D01*
X131029868Y-81822132D01*
X130934520Y-81705951D01*
X130934518Y-81705948D01*
X130863670Y-81573401D01*
X130820040Y-81429574D01*
X130805309Y-81280000D01*
X130820040Y-81130426D01*
X130863670Y-80986599D01*
X130934518Y-80854052D01*
X131029868Y-80737868D01*
X131146049Y-80642520D01*
X131146051Y-80642519D01*
X131146052Y-80642518D01*
X131278599Y-80571670D01*
X131422426Y-80528040D01*
X131534521Y-80517000D01*
X132625479Y-80517000D01*
X132737574Y-80528040D01*
X132737574Y-80528040D01*
G37*
G36*
X132737574Y-77988040D02*
G01*
X132881401Y-78031670D01*
X133013948Y-78102518D01*
X133013949Y-78102519D01*
X133013951Y-78102520D01*
X133126241Y-78194675D01*
X133130132Y-78197868D01*
X133225482Y-78314052D01*
X133296330Y-78446599D01*
X133339960Y-78590426D01*
X133354691Y-78740000D01*
X133339960Y-78889574D01*
X133296330Y-79033401D01*
X133225482Y-79165948D01*
X133225480Y-79165951D01*
X133130132Y-79282132D01*
X133013951Y-79377480D01*
X133013949Y-79377481D01*
X133013948Y-79377482D01*
X132881401Y-79448330D01*
X132737574Y-79491960D01*
X132625479Y-79503000D01*
X131534521Y-79503000D01*
X131422426Y-79491960D01*
X131278599Y-79448330D01*
X131146052Y-79377482D01*
X131146051Y-79377481D01*
X131146049Y-79377480D01*
X131029868Y-79282132D01*
X130934520Y-79165951D01*
X130934518Y-79165948D01*
X130863670Y-79033401D01*
X130820040Y-78889574D01*
X130805309Y-78740000D01*
X130820040Y-78590426D01*
X130863670Y-78446599D01*
X130934518Y-78314052D01*
X131029868Y-78197868D01*
X131033759Y-78194675D01*
X131146049Y-78102520D01*
X131146051Y-78102519D01*
X131146052Y-78102518D01*
X131278599Y-78031670D01*
X131422426Y-77988040D01*
X131534521Y-77977000D01*
X132625479Y-77977000D01*
X132737574Y-77988040D01*
X132737574Y-77988040D01*
G37*
G36*
X147977574Y-77988040D02*
G01*
X148121401Y-78031670D01*
X148253948Y-78102518D01*
X148253949Y-78102519D01*
X148253951Y-78102520D01*
X148366241Y-78194675D01*
X148370132Y-78197868D01*
X148465482Y-78314052D01*
X148536330Y-78446599D01*
X148579960Y-78590426D01*
X148594691Y-78740000D01*
X148579960Y-78889574D01*
X148536330Y-79033401D01*
X148465482Y-79165948D01*
X148465480Y-79165951D01*
X148370132Y-79282132D01*
X148253951Y-79377480D01*
X148253949Y-79377481D01*
X148253948Y-79377482D01*
X148121401Y-79448330D01*
X147977574Y-79491960D01*
X147865479Y-79503000D01*
X146774521Y-79503000D01*
X146662426Y-79491960D01*
X146518599Y-79448330D01*
X146386052Y-79377482D01*
X146386051Y-79377481D01*
X146386049Y-79377480D01*
X146269868Y-79282132D01*
X146174520Y-79165951D01*
X146174518Y-79165948D01*
X146103670Y-79033401D01*
X146060040Y-78889574D01*
X146045309Y-78740000D01*
X146060040Y-78590426D01*
X146103670Y-78446599D01*
X146174518Y-78314052D01*
X146269868Y-78197868D01*
X146273759Y-78194675D01*
X146386049Y-78102520D01*
X146386051Y-78102519D01*
X146386052Y-78102518D01*
X146518599Y-78031670D01*
X146662426Y-77988040D01*
X146774521Y-77977000D01*
X147865479Y-77977000D01*
X147977574Y-77988040D01*
X147977574Y-77988040D01*
G37*
G36*
X169251566Y-76514000D02*
G01*
X169251569Y-76514001D01*
X169251568Y-76514001D01*
X169464677Y-76602273D01*
X169618318Y-76704934D01*
X169656468Y-76730424D01*
X169819576Y-76893532D01*
X169845066Y-76931682D01*
X169947727Y-77085323D01*
X170020854Y-77261869D01*
X170036000Y-77298434D01*
X170081000Y-77524665D01*
X170081000Y-77755335D01*
X170036000Y-77981566D01*
X170035999Y-77981568D01*
X169947727Y-78194677D01*
X169819575Y-78386469D01*
X169656469Y-78549575D01*
X169464677Y-78677727D01*
X169288131Y-78750854D01*
X169251566Y-78766000D01*
X169025335Y-78811000D01*
X168794665Y-78811000D01*
X168568434Y-78766000D01*
X168531869Y-78750854D01*
X168355323Y-78677727D01*
X168163531Y-78549575D01*
X168000425Y-78386469D01*
X167872273Y-78194677D01*
X167784001Y-77981568D01*
X167784000Y-77981566D01*
X167739000Y-77755335D01*
X167739000Y-77524665D01*
X167784000Y-77298434D01*
X167799146Y-77261869D01*
X167872273Y-77085323D01*
X167974934Y-76931682D01*
X168000424Y-76893532D01*
X168163532Y-76730424D01*
X168201682Y-76704934D01*
X168355323Y-76602273D01*
X168568432Y-76514001D01*
X168568431Y-76514001D01*
X168568434Y-76514000D01*
X168794665Y-76469000D01*
X169025335Y-76469000D01*
X169251566Y-76514000D01*
X169251566Y-76514000D01*
G37*
G36*
X156551566Y-76514000D02*
G01*
X156551569Y-76514001D01*
X156551568Y-76514001D01*
X156764677Y-76602273D01*
X156918318Y-76704934D01*
X156956468Y-76730424D01*
X157119576Y-76893532D01*
X157145066Y-76931682D01*
X157247727Y-77085323D01*
X157320854Y-77261869D01*
X157336000Y-77298434D01*
X157381000Y-77524665D01*
X157381000Y-77755335D01*
X157336000Y-77981566D01*
X157335999Y-77981568D01*
X157247727Y-78194677D01*
X157119575Y-78386469D01*
X156956469Y-78549575D01*
X156764677Y-78677727D01*
X156588131Y-78750854D01*
X156551566Y-78766000D01*
X156325335Y-78811000D01*
X156094665Y-78811000D01*
X155868434Y-78766000D01*
X155831869Y-78750854D01*
X155655323Y-78677727D01*
X155463531Y-78549575D01*
X155300425Y-78386469D01*
X155172273Y-78194677D01*
X155084001Y-77981568D01*
X155084000Y-77981566D01*
X155039000Y-77755335D01*
X155039000Y-77524665D01*
X155084000Y-77298434D01*
X155099146Y-77261869D01*
X155172273Y-77085323D01*
X155274934Y-76931682D01*
X155300424Y-76893532D01*
X155463532Y-76730424D01*
X155501682Y-76704934D01*
X155655323Y-76602273D01*
X155868432Y-76514001D01*
X155868431Y-76514001D01*
X155868434Y-76514000D01*
X156094665Y-76469000D01*
X156325335Y-76469000D01*
X156551566Y-76514000D01*
X156551566Y-76514000D01*
G37*
G36*
X132737574Y-75448040D02*
G01*
X132881401Y-75491670D01*
X133013948Y-75562518D01*
X133013949Y-75562519D01*
X133013951Y-75562520D01*
X133130132Y-75657868D01*
X133202910Y-75746547D01*
X133225482Y-75774052D01*
X133296330Y-75906599D01*
X133339960Y-76050426D01*
X133354691Y-76200000D01*
X133339960Y-76349574D01*
X133296330Y-76493401D01*
X133225482Y-76625948D01*
X133225480Y-76625951D01*
X133130132Y-76742132D01*
X133013951Y-76837480D01*
X133013949Y-76837481D01*
X133013948Y-76837482D01*
X132881401Y-76908330D01*
X132737574Y-76951960D01*
X132625479Y-76963000D01*
X131534521Y-76963000D01*
X131422426Y-76951960D01*
X131278599Y-76908330D01*
X131146052Y-76837482D01*
X131146051Y-76837481D01*
X131146049Y-76837480D01*
X131029868Y-76742132D01*
X130934520Y-76625951D01*
X130934518Y-76625948D01*
X130863670Y-76493401D01*
X130820040Y-76349574D01*
X130805309Y-76200000D01*
X130820040Y-76050426D01*
X130863670Y-75906599D01*
X130934518Y-75774052D01*
X130957091Y-75746547D01*
X131029868Y-75657868D01*
X131146049Y-75562520D01*
X131146051Y-75562519D01*
X131146052Y-75562518D01*
X131278599Y-75491670D01*
X131422426Y-75448040D01*
X131534521Y-75437000D01*
X132625479Y-75437000D01*
X132737574Y-75448040D01*
X132737574Y-75448040D01*
G37*
G36*
X147977574Y-75448040D02*
G01*
X148121401Y-75491670D01*
X148253948Y-75562518D01*
X148253949Y-75562519D01*
X148253951Y-75562520D01*
X148370132Y-75657868D01*
X148442910Y-75746547D01*
X148465482Y-75774052D01*
X148536330Y-75906599D01*
X148579960Y-76050426D01*
X148594691Y-76200000D01*
X148579960Y-76349574D01*
X148536330Y-76493401D01*
X148465482Y-76625948D01*
X148465480Y-76625951D01*
X148370132Y-76742132D01*
X148253951Y-76837480D01*
X148253949Y-76837481D01*
X148253948Y-76837482D01*
X148121401Y-76908330D01*
X147977574Y-76951960D01*
X147865479Y-76963000D01*
X146774521Y-76963000D01*
X146662426Y-76951960D01*
X146518599Y-76908330D01*
X146386052Y-76837482D01*
X146386051Y-76837481D01*
X146386049Y-76837480D01*
X146269868Y-76742132D01*
X146174520Y-76625951D01*
X146174518Y-76625948D01*
X146103670Y-76493401D01*
X146060040Y-76349574D01*
X146045309Y-76200000D01*
X146060040Y-76050426D01*
X146103670Y-75906599D01*
X146174518Y-75774052D01*
X146197091Y-75746547D01*
X146269868Y-75657868D01*
X146386049Y-75562520D01*
X146386051Y-75562519D01*
X146386052Y-75562518D01*
X146518599Y-75491670D01*
X146662426Y-75448040D01*
X146774521Y-75437000D01*
X147865479Y-75437000D01*
X147977574Y-75448040D01*
X147977574Y-75448040D01*
G37*
G36*
X179906913Y-72901865D02*
G01*
X179921823Y-72908041D01*
X180230673Y-73035970D01*
X180522047Y-73230660D01*
X180769840Y-73478453D01*
X180964530Y-73769827D01*
X181040568Y-73953400D01*
X181098635Y-74093587D01*
X181167000Y-74437282D01*
X181167000Y-74787718D01*
X181098635Y-75131413D01*
X181098634Y-75131415D01*
X180964530Y-75455173D01*
X180769840Y-75746547D01*
X180522047Y-75994340D01*
X180230673Y-76189030D01*
X179962463Y-76300125D01*
X179906913Y-76323135D01*
X179563218Y-76391500D01*
X179212782Y-76391500D01*
X178869087Y-76323135D01*
X178813537Y-76300125D01*
X178545327Y-76189030D01*
X178253953Y-75994340D01*
X178006160Y-75746547D01*
X177811470Y-75455173D01*
X177677366Y-75131415D01*
X177677365Y-75131413D01*
X177609000Y-74787718D01*
X177609000Y-74437282D01*
X177677365Y-74093587D01*
X177735432Y-73953400D01*
X177811470Y-73769827D01*
X178006160Y-73478453D01*
X178253953Y-73230660D01*
X178545327Y-73035970D01*
X178854177Y-72908041D01*
X178869087Y-72901865D01*
X179212782Y-72833500D01*
X179563218Y-72833500D01*
X179906913Y-72901865D01*
X179906913Y-72901865D01*
G37*
G36*
X125930913Y-72901865D02*
G01*
X125945823Y-72908041D01*
X126254673Y-73035970D01*
X126546047Y-73230660D01*
X126793840Y-73478453D01*
X126988530Y-73769827D01*
X127064568Y-73953400D01*
X127122635Y-74093587D01*
X127191000Y-74437282D01*
X127191000Y-74787718D01*
X127122635Y-75131413D01*
X127122634Y-75131415D01*
X126988530Y-75455173D01*
X126793840Y-75746547D01*
X126546047Y-75994340D01*
X126254673Y-76189030D01*
X125986463Y-76300125D01*
X125930913Y-76323135D01*
X125587218Y-76391500D01*
X125236782Y-76391500D01*
X124893087Y-76323135D01*
X124837537Y-76300125D01*
X124569327Y-76189030D01*
X124277953Y-75994340D01*
X124030160Y-75746547D01*
X123835470Y-75455173D01*
X123701366Y-75131415D01*
X123701365Y-75131413D01*
X123633000Y-74787718D01*
X123633000Y-74437282D01*
X123701365Y-74093587D01*
X123759432Y-73953400D01*
X123835470Y-73769827D01*
X124030160Y-73478453D01*
X124277953Y-73230660D01*
X124569327Y-73035970D01*
X124878177Y-72908041D01*
X124893087Y-72901865D01*
X125236782Y-72833500D01*
X125587218Y-72833500D01*
X125930913Y-72901865D01*
X125930913Y-72901865D01*
G37*
G36*
X156551566Y-73014000D02*
G01*
X156551569Y-73014001D01*
X156551568Y-73014001D01*
X156764677Y-73102273D01*
X156956469Y-73230425D01*
X157119575Y-73393531D01*
X157247727Y-73585323D01*
X157278659Y-73660000D01*
X157336000Y-73798434D01*
X157381000Y-74024665D01*
X157381000Y-74255335D01*
X157336000Y-74481566D01*
X157335999Y-74481568D01*
X157247727Y-74694677D01*
X157119575Y-74886469D01*
X156956469Y-75049575D01*
X156764677Y-75177727D01*
X156588131Y-75250854D01*
X156551566Y-75266000D01*
X156325335Y-75311000D01*
X156094665Y-75311000D01*
X155868434Y-75266000D01*
X155831869Y-75250854D01*
X155655323Y-75177727D01*
X155463531Y-75049575D01*
X155300425Y-74886469D01*
X155172273Y-74694677D01*
X155084001Y-74481568D01*
X155084000Y-74481566D01*
X155039000Y-74255335D01*
X155039000Y-74024665D01*
X155084000Y-73798434D01*
X155141341Y-73660000D01*
X155172273Y-73585323D01*
X155300425Y-73393531D01*
X155463531Y-73230425D01*
X155655323Y-73102273D01*
X155868432Y-73014001D01*
X155868431Y-73014001D01*
X155868434Y-73014000D01*
X156094665Y-72969000D01*
X156325335Y-72969000D01*
X156551566Y-73014000D01*
X156551566Y-73014000D01*
G37*
G36*
X169251566Y-73014000D02*
G01*
X169251569Y-73014001D01*
X169251568Y-73014001D01*
X169464677Y-73102273D01*
X169656469Y-73230425D01*
X169819575Y-73393531D01*
X169947727Y-73585323D01*
X169978659Y-73660000D01*
X170036000Y-73798434D01*
X170081000Y-74024665D01*
X170081000Y-74255335D01*
X170036000Y-74481566D01*
X170035999Y-74481568D01*
X169947727Y-74694677D01*
X169819575Y-74886469D01*
X169656469Y-75049575D01*
X169464677Y-75177727D01*
X169288131Y-75250854D01*
X169251566Y-75266000D01*
X169025335Y-75311000D01*
X168794665Y-75311000D01*
X168568434Y-75266000D01*
X168531869Y-75250854D01*
X168355323Y-75177727D01*
X168163531Y-75049575D01*
X168000425Y-74886469D01*
X167872273Y-74694677D01*
X167784001Y-74481568D01*
X167784000Y-74481566D01*
X167739000Y-74255335D01*
X167739000Y-74024665D01*
X167784000Y-73798434D01*
X167841341Y-73660000D01*
X167872273Y-73585323D01*
X168000425Y-73393531D01*
X168163531Y-73230425D01*
X168355323Y-73102273D01*
X168568432Y-73014001D01*
X168568431Y-73014001D01*
X168568434Y-73014000D01*
X168794665Y-72969000D01*
X169025335Y-72969000D01*
X169251566Y-73014000D01*
X169251566Y-73014000D01*
G37*
G36*
X147977574Y-72908040D02*
G01*
X148121401Y-72951670D01*
X148253948Y-73022518D01*
X148253949Y-73022519D01*
X148253951Y-73022520D01*
X148370132Y-73117868D01*
X148462699Y-73230660D01*
X148465482Y-73234052D01*
X148536330Y-73366599D01*
X148579960Y-73510426D01*
X148594691Y-73660000D01*
X148579960Y-73809574D01*
X148536330Y-73953401D01*
X148498237Y-74024667D01*
X148465480Y-74085951D01*
X148370132Y-74202132D01*
X148253951Y-74297480D01*
X148253949Y-74297481D01*
X148253948Y-74297482D01*
X148121401Y-74368330D01*
X147977574Y-74411960D01*
X147865479Y-74423000D01*
X146774521Y-74423000D01*
X146662426Y-74411960D01*
X146518599Y-74368330D01*
X146386052Y-74297482D01*
X146386051Y-74297481D01*
X146386049Y-74297480D01*
X146269868Y-74202132D01*
X146174520Y-74085951D01*
X146141763Y-74024667D01*
X146103670Y-73953401D01*
X146060040Y-73809574D01*
X146045309Y-73660000D01*
X146060040Y-73510426D01*
X146103670Y-73366599D01*
X146174518Y-73234052D01*
X146177302Y-73230660D01*
X146269868Y-73117868D01*
X146386049Y-73022520D01*
X146386051Y-73022519D01*
X146386052Y-73022518D01*
X146518599Y-72951670D01*
X146662426Y-72908040D01*
X146774521Y-72897000D01*
X147865479Y-72897000D01*
X147977574Y-72908040D01*
X147977574Y-72908040D01*
G37*
G36*
X132737574Y-72908040D02*
G01*
X132881401Y-72951670D01*
X133013948Y-73022518D01*
X133013949Y-73022519D01*
X133013951Y-73022520D01*
X133130132Y-73117868D01*
X133222699Y-73230660D01*
X133225482Y-73234052D01*
X133296330Y-73366599D01*
X133339960Y-73510426D01*
X133354691Y-73660000D01*
X133339960Y-73809574D01*
X133296330Y-73953401D01*
X133258237Y-74024667D01*
X133225480Y-74085951D01*
X133130132Y-74202132D01*
X133013951Y-74297480D01*
X133013949Y-74297481D01*
X133013948Y-74297482D01*
X132881401Y-74368330D01*
X132737574Y-74411960D01*
X132625479Y-74423000D01*
X131534521Y-74423000D01*
X131422426Y-74411960D01*
X131278599Y-74368330D01*
X131146052Y-74297482D01*
X131146051Y-74297481D01*
X131146049Y-74297480D01*
X131029868Y-74202132D01*
X130934520Y-74085951D01*
X130901763Y-74024667D01*
X130863670Y-73953401D01*
X130820040Y-73809574D01*
X130805309Y-73660000D01*
X130820040Y-73510426D01*
X130863670Y-73366599D01*
X130934518Y-73234052D01*
X130937302Y-73230660D01*
X131029868Y-73117868D01*
X131146049Y-73022520D01*
X131146051Y-73022519D01*
X131146052Y-73022518D01*
X131278599Y-72951670D01*
X131422426Y-72908040D01*
X131534521Y-72897000D01*
X132625479Y-72897000D01*
X132737574Y-72908040D01*
X132737574Y-72908040D01*
G37*
G36*
X147977574Y-70368040D02*
G01*
X148121401Y-70411670D01*
X148253948Y-70482518D01*
X148253949Y-70482519D01*
X148253951Y-70482520D01*
X148305304Y-70524665D01*
X148370132Y-70577868D01*
X148465482Y-70694052D01*
X148536330Y-70826599D01*
X148579960Y-70970426D01*
X148594691Y-71120000D01*
X148579960Y-71269574D01*
X148536330Y-71413401D01*
X148465482Y-71545948D01*
X148465480Y-71545951D01*
X148370132Y-71662132D01*
X148253951Y-71757480D01*
X148253949Y-71757481D01*
X148253948Y-71757482D01*
X148121401Y-71828330D01*
X147977574Y-71871960D01*
X147865479Y-71883000D01*
X146774521Y-71883000D01*
X146662426Y-71871960D01*
X146518599Y-71828330D01*
X146386052Y-71757482D01*
X146386051Y-71757481D01*
X146386049Y-71757480D01*
X146269868Y-71662132D01*
X146174520Y-71545951D01*
X146174518Y-71545948D01*
X146103670Y-71413401D01*
X146060040Y-71269574D01*
X146045309Y-71120000D01*
X146060040Y-70970426D01*
X146103670Y-70826599D01*
X146174518Y-70694052D01*
X146269868Y-70577868D01*
X146334696Y-70524665D01*
X146386049Y-70482520D01*
X146386051Y-70482519D01*
X146386052Y-70482518D01*
X146518599Y-70411670D01*
X146662426Y-70368040D01*
X146774521Y-70357000D01*
X147865479Y-70357000D01*
X147977574Y-70368040D01*
X147977574Y-70368040D01*
G37*
G36*
X132737574Y-70368040D02*
G01*
X132881401Y-70411670D01*
X133013948Y-70482518D01*
X133013949Y-70482519D01*
X133013951Y-70482520D01*
X133065304Y-70524665D01*
X133130132Y-70577868D01*
X133225482Y-70694052D01*
X133296330Y-70826599D01*
X133339960Y-70970426D01*
X133354691Y-71120000D01*
X133339960Y-71269574D01*
X133296330Y-71413401D01*
X133225482Y-71545948D01*
X133225480Y-71545951D01*
X133130132Y-71662132D01*
X133013951Y-71757480D01*
X133013949Y-71757481D01*
X133013948Y-71757482D01*
X132881401Y-71828330D01*
X132737574Y-71871960D01*
X132625479Y-71883000D01*
X131534521Y-71883000D01*
X131422426Y-71871960D01*
X131278599Y-71828330D01*
X131146052Y-71757482D01*
X131146051Y-71757481D01*
X131146049Y-71757480D01*
X131029868Y-71662132D01*
X130934520Y-71545951D01*
X130934518Y-71545948D01*
X130863670Y-71413401D01*
X130820040Y-71269574D01*
X130805309Y-71120000D01*
X130820040Y-70970426D01*
X130863670Y-70826599D01*
X130934518Y-70694052D01*
X131029868Y-70577868D01*
X131094696Y-70524665D01*
X131146049Y-70482520D01*
X131146051Y-70482519D01*
X131146052Y-70482518D01*
X131278599Y-70411670D01*
X131422426Y-70368040D01*
X131534521Y-70357000D01*
X132625479Y-70357000D01*
X132737574Y-70368040D01*
X132737574Y-70368040D01*
G37*
G36*
X156551566Y-69514000D02*
G01*
X156551569Y-69514001D01*
X156551568Y-69514001D01*
X156764677Y-69602273D01*
X156956469Y-69730425D01*
X157119575Y-69893531D01*
X157247727Y-70085323D01*
X157320854Y-70261869D01*
X157336000Y-70298434D01*
X157381000Y-70524665D01*
X157381000Y-70755335D01*
X157336000Y-70981566D01*
X157335999Y-70981568D01*
X157247727Y-71194677D01*
X157119575Y-71386469D01*
X156956469Y-71549575D01*
X156764677Y-71677727D01*
X156588131Y-71750854D01*
X156551566Y-71766000D01*
X156325335Y-71811000D01*
X156094665Y-71811000D01*
X155868434Y-71766000D01*
X155831869Y-71750854D01*
X155655323Y-71677727D01*
X155463531Y-71549575D01*
X155300425Y-71386469D01*
X155172273Y-71194677D01*
X155084001Y-70981568D01*
X155084000Y-70981566D01*
X155039000Y-70755335D01*
X155039000Y-70524665D01*
X155084000Y-70298434D01*
X155099146Y-70261869D01*
X155172273Y-70085323D01*
X155300425Y-69893531D01*
X155463531Y-69730425D01*
X155655323Y-69602273D01*
X155868432Y-69514001D01*
X155868431Y-69514001D01*
X155868434Y-69514000D01*
X156094665Y-69469000D01*
X156325335Y-69469000D01*
X156551566Y-69514000D01*
X156551566Y-69514000D01*
G37*
G36*
X169251566Y-69514000D02*
G01*
X169251569Y-69514001D01*
X169251568Y-69514001D01*
X169464677Y-69602273D01*
X169656469Y-69730425D01*
X169819575Y-69893531D01*
X169947727Y-70085323D01*
X170020854Y-70261869D01*
X170036000Y-70298434D01*
X170081000Y-70524665D01*
X170081000Y-70755335D01*
X170036000Y-70981566D01*
X170035999Y-70981568D01*
X169947727Y-71194677D01*
X169819575Y-71386469D01*
X169656469Y-71549575D01*
X169464677Y-71677727D01*
X169288131Y-71750854D01*
X169251566Y-71766000D01*
X169025335Y-71811000D01*
X168794665Y-71811000D01*
X168568434Y-71766000D01*
X168531869Y-71750854D01*
X168355323Y-71677727D01*
X168163531Y-71549575D01*
X168000425Y-71386469D01*
X167872273Y-71194677D01*
X167784001Y-70981568D01*
X167784000Y-70981566D01*
X167739000Y-70755335D01*
X167739000Y-70524665D01*
X167784000Y-70298434D01*
X167799146Y-70261869D01*
X167872273Y-70085323D01*
X168000425Y-69893531D01*
X168163531Y-69730425D01*
X168355323Y-69602273D01*
X168568432Y-69514001D01*
X168568431Y-69514001D01*
X168568434Y-69514000D01*
X168794665Y-69469000D01*
X169025335Y-69469000D01*
X169251566Y-69514000D01*
X169251566Y-69514000D01*
G37*
G36*
X132737574Y-67828040D02*
G01*
X132881401Y-67871670D01*
X133013948Y-67942518D01*
X133013949Y-67942519D01*
X133013951Y-67942520D01*
X133130132Y-68037868D01*
X133225482Y-68154052D01*
X133296330Y-68286599D01*
X133339960Y-68430426D01*
X133354691Y-68580000D01*
X133339960Y-68729574D01*
X133296330Y-68873401D01*
X133225482Y-69005948D01*
X133225480Y-69005951D01*
X133130132Y-69122132D01*
X133013951Y-69217480D01*
X133013949Y-69217481D01*
X133013948Y-69217482D01*
X132881401Y-69288330D01*
X132737574Y-69331960D01*
X132625479Y-69343000D01*
X131534521Y-69343000D01*
X131422426Y-69331960D01*
X131278599Y-69288330D01*
X131146052Y-69217482D01*
X131146051Y-69217481D01*
X131146049Y-69217480D01*
X131029868Y-69122132D01*
X130934520Y-69005951D01*
X130934518Y-69005948D01*
X130863670Y-68873401D01*
X130820040Y-68729574D01*
X130805309Y-68580000D01*
X130820040Y-68430426D01*
X130863670Y-68286599D01*
X130934518Y-68154052D01*
X131029868Y-68037868D01*
X131146049Y-67942520D01*
X131146051Y-67942519D01*
X131146052Y-67942518D01*
X131278599Y-67871670D01*
X131422426Y-67828040D01*
X131534521Y-67817000D01*
X132625479Y-67817000D01*
X132737574Y-67828040D01*
X132737574Y-67828040D01*
G37*
G36*
X147977574Y-67828040D02*
G01*
X148121401Y-67871670D01*
X148253948Y-67942518D01*
X148253949Y-67942519D01*
X148253951Y-67942520D01*
X148370132Y-68037868D01*
X148465482Y-68154052D01*
X148536330Y-68286599D01*
X148579960Y-68430426D01*
X148594691Y-68580000D01*
X148579960Y-68729574D01*
X148536330Y-68873401D01*
X148465482Y-69005948D01*
X148465480Y-69005951D01*
X148370132Y-69122132D01*
X148253951Y-69217480D01*
X148253949Y-69217481D01*
X148253948Y-69217482D01*
X148121401Y-69288330D01*
X147977574Y-69331960D01*
X147865479Y-69343000D01*
X146774521Y-69343000D01*
X146662426Y-69331960D01*
X146518599Y-69288330D01*
X146386052Y-69217482D01*
X146386051Y-69217481D01*
X146386049Y-69217480D01*
X146269868Y-69122132D01*
X146174520Y-69005951D01*
X146174518Y-69005948D01*
X146103670Y-68873401D01*
X146060040Y-68729574D01*
X146045309Y-68580000D01*
X146060040Y-68430426D01*
X146103670Y-68286599D01*
X146174518Y-68154052D01*
X146269868Y-68037868D01*
X146386049Y-67942520D01*
X146386051Y-67942519D01*
X146386052Y-67942518D01*
X146518599Y-67871670D01*
X146662426Y-67828040D01*
X146774521Y-67817000D01*
X147865479Y-67817000D01*
X147977574Y-67828040D01*
X147977574Y-67828040D01*
G37*
G36*
X156551566Y-66014000D02*
G01*
X156551569Y-66014001D01*
X156551568Y-66014001D01*
X156764677Y-66102273D01*
X156956469Y-66230425D01*
X157119575Y-66393531D01*
X157247727Y-66585323D01*
X157285899Y-66677480D01*
X157336000Y-66798434D01*
X157381000Y-67024665D01*
X157381000Y-67255335D01*
X157336000Y-67481566D01*
X157335999Y-67481568D01*
X157247727Y-67694677D01*
X157145066Y-67848318D01*
X157129464Y-67871670D01*
X157119575Y-67886469D01*
X156956469Y-68049575D01*
X156764677Y-68177727D01*
X156588131Y-68250854D01*
X156551566Y-68266000D01*
X156325335Y-68311000D01*
X156094665Y-68311000D01*
X155868434Y-68266000D01*
X155831869Y-68250854D01*
X155655323Y-68177727D01*
X155463531Y-68049575D01*
X155300425Y-67886469D01*
X155290537Y-67871670D01*
X155274934Y-67848318D01*
X155172273Y-67694677D01*
X155084001Y-67481568D01*
X155084000Y-67481566D01*
X155039000Y-67255335D01*
X155039000Y-67024665D01*
X155084000Y-66798434D01*
X155134101Y-66677480D01*
X155172273Y-66585323D01*
X155300425Y-66393531D01*
X155463531Y-66230425D01*
X155655323Y-66102273D01*
X155868432Y-66014001D01*
X155868431Y-66014001D01*
X155868434Y-66014000D01*
X156094665Y-65969000D01*
X156325335Y-65969000D01*
X156551566Y-66014000D01*
X156551566Y-66014000D01*
G37*
G36*
X169251566Y-66014000D02*
G01*
X169251569Y-66014001D01*
X169251568Y-66014001D01*
X169464677Y-66102273D01*
X169656469Y-66230425D01*
X169819575Y-66393531D01*
X169947727Y-66585323D01*
X169985899Y-66677480D01*
X170036000Y-66798434D01*
X170081000Y-67024665D01*
X170081000Y-67255335D01*
X170036000Y-67481566D01*
X170035999Y-67481568D01*
X169947727Y-67694677D01*
X169845066Y-67848318D01*
X169829464Y-67871670D01*
X169819575Y-67886469D01*
X169656469Y-68049575D01*
X169464677Y-68177727D01*
X169288131Y-68250854D01*
X169251566Y-68266000D01*
X169025335Y-68311000D01*
X168794665Y-68311000D01*
X168568434Y-68266000D01*
X168531869Y-68250854D01*
X168355323Y-68177727D01*
X168163531Y-68049575D01*
X168000425Y-67886469D01*
X167990537Y-67871670D01*
X167974934Y-67848318D01*
X167872273Y-67694677D01*
X167784001Y-67481568D01*
X167784000Y-67481566D01*
X167739000Y-67255335D01*
X167739000Y-67024665D01*
X167784000Y-66798434D01*
X167834101Y-66677480D01*
X167872273Y-66585323D01*
X168000425Y-66393531D01*
X168163531Y-66230425D01*
X168355323Y-66102273D01*
X168568432Y-66014001D01*
X168568431Y-66014001D01*
X168568434Y-66014000D01*
X168794665Y-65969000D01*
X169025335Y-65969000D01*
X169251566Y-66014000D01*
X169251566Y-66014000D01*
G37*
G36*
X132737574Y-65288040D02*
G01*
X132881401Y-65331670D01*
X133013948Y-65402518D01*
X133013949Y-65402519D01*
X133013951Y-65402520D01*
X133130132Y-65497868D01*
X133225482Y-65614052D01*
X133296330Y-65746599D01*
X133339960Y-65890426D01*
X133354691Y-66040000D01*
X133339960Y-66189574D01*
X133296330Y-66333401D01*
X133264189Y-66393532D01*
X133225480Y-66465951D01*
X133130132Y-66582132D01*
X133013951Y-66677480D01*
X133013949Y-66677481D01*
X133013948Y-66677482D01*
X132881401Y-66748330D01*
X132737574Y-66791960D01*
X132625479Y-66803000D01*
X131534521Y-66803000D01*
X131422426Y-66791960D01*
X131278599Y-66748330D01*
X131146052Y-66677482D01*
X131146051Y-66677481D01*
X131146049Y-66677480D01*
X131029868Y-66582132D01*
X130934520Y-66465951D01*
X130895811Y-66393532D01*
X130863670Y-66333401D01*
X130820040Y-66189574D01*
X130805309Y-66040000D01*
X130820040Y-65890426D01*
X130863670Y-65746599D01*
X130934518Y-65614052D01*
X131029868Y-65497868D01*
X131146049Y-65402520D01*
X131146051Y-65402519D01*
X131146052Y-65402518D01*
X131278599Y-65331670D01*
X131422426Y-65288040D01*
X131534521Y-65277000D01*
X132625479Y-65277000D01*
X132737574Y-65288040D01*
X132737574Y-65288040D01*
G37*
G36*
X147977574Y-65288040D02*
G01*
X148121401Y-65331670D01*
X148253948Y-65402518D01*
X148253949Y-65402519D01*
X148253951Y-65402520D01*
X148370132Y-65497868D01*
X148465482Y-65614052D01*
X148536330Y-65746599D01*
X148579960Y-65890426D01*
X148594691Y-66040000D01*
X148579960Y-66189574D01*
X148536330Y-66333401D01*
X148504189Y-66393532D01*
X148465480Y-66465951D01*
X148370132Y-66582132D01*
X148253951Y-66677480D01*
X148253949Y-66677481D01*
X148253948Y-66677482D01*
X148121401Y-66748330D01*
X147977574Y-66791960D01*
X147865479Y-66803000D01*
X146774521Y-66803000D01*
X146662426Y-66791960D01*
X146518599Y-66748330D01*
X146386052Y-66677482D01*
X146386051Y-66677481D01*
X146386049Y-66677480D01*
X146269868Y-66582132D01*
X146174520Y-66465951D01*
X146135811Y-66393532D01*
X146103670Y-66333401D01*
X146060040Y-66189574D01*
X146045309Y-66040000D01*
X146060040Y-65890426D01*
X146103670Y-65746599D01*
X146174518Y-65614052D01*
X146269868Y-65497868D01*
X146386049Y-65402520D01*
X146386051Y-65402519D01*
X146386052Y-65402518D01*
X146518599Y-65331670D01*
X146662426Y-65288040D01*
X146774521Y-65277000D01*
X147865479Y-65277000D01*
X147977574Y-65288040D01*
X147977574Y-65288040D01*
G37*
M02*
