G04 #@! TF.GenerationSoftware,KiCad,Pcbnew,6.0.0-rc1-unknown-60a55d7~66~ubuntu18.04.1*
G04 #@! TF.CreationDate,2018-08-22T13:35:30-04:00*
G04 #@! TF.ProjectId,ethoscope_stepper_controller_3x3,6574686F73636F70655F737465707065,1.0*
G04 #@! TF.SameCoordinates,Original*
G04 #@! TF.FileFunction,Soldermask,Top*
G04 #@! TF.FilePolarity,Negative*
%FSLAX46Y46*%
G04 Gerber Fmt 4.6, Leading zero omitted, Abs format (unit mm)*
G04 Created by KiCad (PCBNEW 6.0.0-rc1-unknown-60a55d7~66~ubuntu18.04.1) date Wed Aug 22 13:35:30 2018*
%MOMM*%
%LPD*%
G01*
G04 APERTURE LIST*
%ADD10C,0.228600*%
%ADD11R,4.250000X5.500000*%
%ADD12R,5.500000X5.700000*%
%ADD13C,1.900000*%
%ADD14C,4.500000*%
%ADD15C,2.340000*%
%ADD16O,2.540000X1.524000*%
%ADD17R,2.540000X1.524000*%
%ADD18R,2.525000X2.525000*%
%ADD19R,2.075000X0.325000*%
%ADD20R,0.325000X2.075000*%
%ADD21R,2.000000X1.800000*%
%ADD22C,3.556000*%
%ADD23R,3.475000X3.475000*%
%ADD24R,0.787400X1.600200*%
%ADD25R,1.240000X0.740000*%
%ADD26R,0.801600X0.701600*%
%ADD27R,0.701600X0.801600*%
G04 APERTURE END LIST*
D10*
X189865000Y-64135000D02*
X189865000Y-139065000D01*
X114935000Y-64135000D02*
X114935000Y-139065000D01*
X114935000Y-64135000D02*
X189865000Y-64135000D01*
X114935000Y-139065000D02*
X189865000Y-139065000D01*
D11*
G04 #@! TO.C,P1*
X162725000Y-116970000D03*
X167475000Y-116970000D03*
D12*
X165100000Y-135870000D03*
D13*
X161000000Y-126270000D03*
X169200000Y-126270000D03*
D14*
X165100000Y-128270000D03*
G04 #@! TD*
D15*
G04 #@! TO.C,T1*
X156210000Y-67140000D03*
X156210000Y-77640000D03*
X156210000Y-74140000D03*
X156210000Y-70640000D03*
G04 #@! TD*
G04 #@! TO.C,T2*
X168910000Y-67140000D03*
X168910000Y-77640000D03*
X168910000Y-74140000D03*
X168910000Y-70640000D03*
G04 #@! TD*
G04 #@! TO.C,T3*
X156210000Y-83650000D03*
X156210000Y-94150000D03*
X156210000Y-90650000D03*
X156210000Y-87150000D03*
G04 #@! TD*
G04 #@! TO.C,T4*
X168910000Y-83650000D03*
X168910000Y-94150000D03*
X168910000Y-90650000D03*
X168910000Y-87150000D03*
G04 #@! TD*
G04 #@! TO.C,T5*
X156210000Y-100160000D03*
X156210000Y-110660000D03*
X156210000Y-107160000D03*
X156210000Y-103660000D03*
G04 #@! TD*
G04 #@! TO.C,T6*
X168910000Y-100160000D03*
X168910000Y-110660000D03*
X168910000Y-107160000D03*
X168910000Y-103660000D03*
G04 #@! TD*
G04 #@! TO.C,T7*
X156210000Y-116670000D03*
X156210000Y-127170000D03*
X156210000Y-123670000D03*
X156210000Y-120170000D03*
G04 #@! TD*
D16*
G04 #@! TO.C,TEENSY1*
X147320000Y-86360000D03*
X147320000Y-88900000D03*
D17*
X132080000Y-88900000D03*
D16*
X132080000Y-124460000D03*
X132080000Y-121920000D03*
X132080000Y-119380000D03*
X132080000Y-116840000D03*
X132080000Y-114300000D03*
X132080000Y-111760000D03*
X132080000Y-109220000D03*
X132080000Y-106680000D03*
X132080000Y-104140000D03*
X132080000Y-101600000D03*
X132080000Y-99060000D03*
X132080000Y-96520000D03*
X132080000Y-93980000D03*
X132080000Y-91440000D03*
X147320000Y-91440000D03*
X147320000Y-93980000D03*
X147320000Y-96520000D03*
X147320000Y-99060000D03*
X147320000Y-101600000D03*
X147320000Y-104140000D03*
X147320000Y-106680000D03*
X147320000Y-109220000D03*
X147320000Y-111760000D03*
X147320000Y-114300000D03*
X147320000Y-116840000D03*
X147320000Y-119380000D03*
X147320000Y-121920000D03*
D17*
X147320000Y-124460000D03*
D16*
X147320000Y-83820000D03*
X147320000Y-81280000D03*
X147320000Y-78740000D03*
X147320000Y-76200000D03*
X147320000Y-73660000D03*
X147320000Y-71120000D03*
X147320000Y-68580000D03*
X147320000Y-66040000D03*
X132080000Y-66040000D03*
X132080000Y-68580000D03*
X132080000Y-71120000D03*
X132080000Y-73660000D03*
X132080000Y-76200000D03*
X132080000Y-78740000D03*
X132080000Y-81280000D03*
X132080000Y-83820000D03*
X132080000Y-86360000D03*
G04 #@! TD*
D18*
G04 #@! TO.C,U3*
X162560000Y-72390000D03*
D19*
X165160000Y-73640000D03*
X165160000Y-73140000D03*
X165160000Y-72640000D03*
X165160000Y-72140000D03*
X165160000Y-71640000D03*
X165160000Y-71140000D03*
X159960000Y-71140000D03*
X159960000Y-71640000D03*
X159960000Y-72140000D03*
X159960000Y-72640000D03*
X159960000Y-73140000D03*
X159960000Y-73640000D03*
D20*
X163810000Y-69790000D03*
X163310000Y-69790000D03*
X162810000Y-69790000D03*
X162310000Y-69790000D03*
X161810000Y-69790000D03*
X161310000Y-69790000D03*
X161310000Y-74990000D03*
X161810000Y-74990000D03*
X162310000Y-74990000D03*
X162810000Y-74990000D03*
X163310000Y-74990000D03*
X163810000Y-74990000D03*
G04 #@! TD*
D18*
G04 #@! TO.C,U4*
X185420000Y-88900000D03*
D19*
X188020000Y-90150000D03*
X188020000Y-89650000D03*
X188020000Y-89150000D03*
X188020000Y-88650000D03*
X188020000Y-88150000D03*
X188020000Y-87650000D03*
X182820000Y-87650000D03*
X182820000Y-88150000D03*
X182820000Y-88650000D03*
X182820000Y-89150000D03*
X182820000Y-89650000D03*
X182820000Y-90150000D03*
D20*
X186670000Y-86300000D03*
X186170000Y-86300000D03*
X185670000Y-86300000D03*
X185170000Y-86300000D03*
X184670000Y-86300000D03*
X184170000Y-86300000D03*
X184170000Y-91500000D03*
X184670000Y-91500000D03*
X185170000Y-91500000D03*
X185670000Y-91500000D03*
X186170000Y-91500000D03*
X186670000Y-91500000D03*
G04 #@! TD*
D18*
G04 #@! TO.C,U8*
X175260000Y-88900000D03*
D19*
X177860000Y-90150000D03*
X177860000Y-89650000D03*
X177860000Y-89150000D03*
X177860000Y-88650000D03*
X177860000Y-88150000D03*
X177860000Y-87650000D03*
X172660000Y-87650000D03*
X172660000Y-88150000D03*
X172660000Y-88650000D03*
X172660000Y-89150000D03*
X172660000Y-89650000D03*
X172660000Y-90150000D03*
D20*
X176510000Y-86300000D03*
X176010000Y-86300000D03*
X175510000Y-86300000D03*
X175010000Y-86300000D03*
X174510000Y-86300000D03*
X174010000Y-86300000D03*
X174010000Y-91500000D03*
X174510000Y-91500000D03*
X175010000Y-91500000D03*
X175510000Y-91500000D03*
X176010000Y-91500000D03*
X176510000Y-91500000D03*
G04 #@! TD*
D18*
G04 #@! TO.C,U10*
X175260000Y-105410000D03*
D19*
X177860000Y-106660000D03*
X177860000Y-106160000D03*
X177860000Y-105660000D03*
X177860000Y-105160000D03*
X177860000Y-104660000D03*
X177860000Y-104160000D03*
X172660000Y-104160000D03*
X172660000Y-104660000D03*
X172660000Y-105160000D03*
X172660000Y-105660000D03*
X172660000Y-106160000D03*
X172660000Y-106660000D03*
D20*
X176510000Y-102810000D03*
X176010000Y-102810000D03*
X175510000Y-102810000D03*
X175010000Y-102810000D03*
X174510000Y-102810000D03*
X174010000Y-102810000D03*
X174010000Y-108010000D03*
X174510000Y-108010000D03*
X175010000Y-108010000D03*
X175510000Y-108010000D03*
X176010000Y-108010000D03*
X176510000Y-108010000D03*
G04 #@! TD*
D18*
G04 #@! TO.C,U5*
X162560000Y-88900000D03*
D19*
X165160000Y-90150000D03*
X165160000Y-89650000D03*
X165160000Y-89150000D03*
X165160000Y-88650000D03*
X165160000Y-88150000D03*
X165160000Y-87650000D03*
X159960000Y-87650000D03*
X159960000Y-88150000D03*
X159960000Y-88650000D03*
X159960000Y-89150000D03*
X159960000Y-89650000D03*
X159960000Y-90150000D03*
D20*
X163810000Y-86300000D03*
X163310000Y-86300000D03*
X162810000Y-86300000D03*
X162310000Y-86300000D03*
X161810000Y-86300000D03*
X161310000Y-86300000D03*
X161310000Y-91500000D03*
X161810000Y-91500000D03*
X162310000Y-91500000D03*
X162810000Y-91500000D03*
X163310000Y-91500000D03*
X163810000Y-91500000D03*
G04 #@! TD*
D18*
G04 #@! TO.C,U9*
X162560000Y-105410000D03*
D19*
X165160000Y-106660000D03*
X165160000Y-106160000D03*
X165160000Y-105660000D03*
X165160000Y-105160000D03*
X165160000Y-104660000D03*
X165160000Y-104160000D03*
X159960000Y-104160000D03*
X159960000Y-104660000D03*
X159960000Y-105160000D03*
X159960000Y-105660000D03*
X159960000Y-106160000D03*
X159960000Y-106660000D03*
D20*
X163810000Y-102810000D03*
X163310000Y-102810000D03*
X162810000Y-102810000D03*
X162310000Y-102810000D03*
X161810000Y-102810000D03*
X161310000Y-102810000D03*
X161310000Y-108010000D03*
X161810000Y-108010000D03*
X162310000Y-108010000D03*
X162810000Y-108010000D03*
X163310000Y-108010000D03*
X163810000Y-108010000D03*
G04 #@! TD*
D18*
G04 #@! TO.C,U13*
X185420000Y-105410000D03*
D19*
X188020000Y-106660000D03*
X188020000Y-106160000D03*
X188020000Y-105660000D03*
X188020000Y-105160000D03*
X188020000Y-104660000D03*
X188020000Y-104160000D03*
X182820000Y-104160000D03*
X182820000Y-104660000D03*
X182820000Y-105160000D03*
X182820000Y-105660000D03*
X182820000Y-106160000D03*
X182820000Y-106660000D03*
D20*
X186670000Y-102810000D03*
X186170000Y-102810000D03*
X185670000Y-102810000D03*
X185170000Y-102810000D03*
X184670000Y-102810000D03*
X184170000Y-102810000D03*
X184170000Y-108010000D03*
X184670000Y-108010000D03*
X185170000Y-108010000D03*
X185670000Y-108010000D03*
X186170000Y-108010000D03*
X186670000Y-108010000D03*
G04 #@! TD*
D21*
G04 #@! TO.C,CLK1*
X121090000Y-83820000D03*
X121090000Y-88900000D03*
X125290000Y-88900000D03*
X125290000Y-83820000D03*
G04 #@! TD*
D22*
G04 #@! TO.C,MH1*
X179388000Y-128588000D03*
G04 #@! TD*
G04 #@! TO.C,MH2*
X125412000Y-128588000D03*
G04 #@! TD*
G04 #@! TO.C,MH3*
X125412000Y-74612500D03*
G04 #@! TD*
G04 #@! TO.C,MH4*
X179388000Y-74612500D03*
G04 #@! TD*
D23*
G04 #@! TO.C,U1*
X123190000Y-96520000D03*
D20*
X124940000Y-93520000D03*
X124440000Y-93520000D03*
X123940000Y-93520000D03*
X123440000Y-93520000D03*
X122940000Y-93520000D03*
X122440000Y-93520000D03*
X121940000Y-93520000D03*
X121440000Y-93520000D03*
X121440000Y-99520000D03*
X121940000Y-99520000D03*
X122440000Y-99520000D03*
X122940000Y-99520000D03*
X123440000Y-99520000D03*
X123940000Y-99520000D03*
X124440000Y-99520000D03*
X124940000Y-99520000D03*
D19*
X120190000Y-94770000D03*
X120190000Y-95270000D03*
X120190000Y-95770000D03*
X120190000Y-96270000D03*
X120190000Y-96770000D03*
X120190000Y-97270000D03*
X120190000Y-97770000D03*
X120190000Y-98270000D03*
X126190000Y-98270000D03*
X126190000Y-97770000D03*
X126190000Y-97270000D03*
X126190000Y-96770000D03*
X126190000Y-96270000D03*
X126190000Y-95770000D03*
X126190000Y-95270000D03*
X126190000Y-94770000D03*
G04 #@! TD*
D24*
G04 #@! TO.C,C4*
X158978600Y-77470000D03*
X161061400Y-77470000D03*
G04 #@! TD*
G04 #@! TO.C,C7*
X181838600Y-93980000D03*
X183921400Y-93980000D03*
G04 #@! TD*
G04 #@! TO.C,C10*
X158978600Y-93980000D03*
X161061400Y-93980000D03*
G04 #@! TD*
G04 #@! TO.C,C14*
X171678600Y-93980000D03*
X173761400Y-93980000D03*
G04 #@! TD*
G04 #@! TO.C,C17*
X158978600Y-110490000D03*
X161061400Y-110490000D03*
G04 #@! TD*
G04 #@! TO.C,C20*
X171678600Y-110490000D03*
X173761400Y-110490000D03*
G04 #@! TD*
G04 #@! TO.C,C24*
X181838600Y-110490000D03*
X183921400Y-110490000D03*
G04 #@! TD*
D25*
G04 #@! TO.C,U2*
X129570000Y-100650000D03*
X129570000Y-102550000D03*
X126970000Y-102550000D03*
X126970000Y-101600000D03*
X126970000Y-100650000D03*
G04 #@! TD*
D23*
G04 #@! TO.C,U6*
X123190000Y-106680000D03*
D20*
X124940000Y-103680000D03*
X124440000Y-103680000D03*
X123940000Y-103680000D03*
X123440000Y-103680000D03*
X122940000Y-103680000D03*
X122440000Y-103680000D03*
X121940000Y-103680000D03*
X121440000Y-103680000D03*
X121440000Y-109680000D03*
X121940000Y-109680000D03*
X122440000Y-109680000D03*
X122940000Y-109680000D03*
X123440000Y-109680000D03*
X123940000Y-109680000D03*
X124440000Y-109680000D03*
X124940000Y-109680000D03*
D19*
X120190000Y-104930000D03*
X120190000Y-105430000D03*
X120190000Y-105930000D03*
X120190000Y-106430000D03*
X120190000Y-106930000D03*
X120190000Y-107430000D03*
X120190000Y-107930000D03*
X120190000Y-108430000D03*
X126190000Y-108430000D03*
X126190000Y-107930000D03*
X126190000Y-107430000D03*
X126190000Y-106930000D03*
X126190000Y-106430000D03*
X126190000Y-105930000D03*
X126190000Y-105430000D03*
X126190000Y-104930000D03*
G04 #@! TD*
D25*
G04 #@! TO.C,U7*
X129570000Y-110810000D03*
X129570000Y-112710000D03*
X126970000Y-112710000D03*
X126970000Y-111760000D03*
X126970000Y-110810000D03*
G04 #@! TD*
D23*
G04 #@! TO.C,U11*
X123190000Y-116840000D03*
D20*
X124940000Y-113840000D03*
X124440000Y-113840000D03*
X123940000Y-113840000D03*
X123440000Y-113840000D03*
X122940000Y-113840000D03*
X122440000Y-113840000D03*
X121940000Y-113840000D03*
X121440000Y-113840000D03*
X121440000Y-119840000D03*
X121940000Y-119840000D03*
X122440000Y-119840000D03*
X122940000Y-119840000D03*
X123440000Y-119840000D03*
X123940000Y-119840000D03*
X124440000Y-119840000D03*
X124940000Y-119840000D03*
D19*
X120190000Y-115090000D03*
X120190000Y-115590000D03*
X120190000Y-116090000D03*
X120190000Y-116590000D03*
X120190000Y-117090000D03*
X120190000Y-117590000D03*
X120190000Y-118090000D03*
X120190000Y-118590000D03*
X126190000Y-118590000D03*
X126190000Y-118090000D03*
X126190000Y-117590000D03*
X126190000Y-117090000D03*
X126190000Y-116590000D03*
X126190000Y-116090000D03*
X126190000Y-115590000D03*
X126190000Y-115090000D03*
G04 #@! TD*
D25*
G04 #@! TO.C,U12*
X129570000Y-120970000D03*
X129570000Y-122870000D03*
X126970000Y-122870000D03*
X126970000Y-121920000D03*
X126970000Y-120970000D03*
G04 #@! TD*
D26*
G04 #@! TO.C,C1*
X116840000Y-85860000D03*
X116840000Y-86860000D03*
G04 #@! TD*
G04 #@! TO.C,C2*
X116840000Y-97020000D03*
X116840000Y-96020000D03*
G04 #@! TD*
D27*
G04 #@! TO.C,C3*
X159520000Y-79502000D03*
X160520000Y-79502000D03*
G04 #@! TD*
G04 #@! TO.C,C5*
X165600000Y-77470000D03*
X164600000Y-77470000D03*
G04 #@! TD*
G04 #@! TO.C,C6*
X183380000Y-96012000D03*
X182380000Y-96012000D03*
G04 #@! TD*
G04 #@! TO.C,C8*
X187460000Y-93980000D03*
X188460000Y-93980000D03*
G04 #@! TD*
G04 #@! TO.C,C9*
X160520000Y-96012000D03*
X159520000Y-96012000D03*
G04 #@! TD*
G04 #@! TO.C,C11*
X165600000Y-93980000D03*
X164600000Y-93980000D03*
G04 #@! TD*
D26*
G04 #@! TO.C,C12*
X116840000Y-106180000D03*
X116840000Y-107180000D03*
G04 #@! TD*
D27*
G04 #@! TO.C,C13*
X172220000Y-96012000D03*
X173220000Y-96012000D03*
G04 #@! TD*
G04 #@! TO.C,C15*
X177300000Y-93980000D03*
X178300000Y-93980000D03*
G04 #@! TD*
G04 #@! TO.C,C16*
X159520000Y-112522000D03*
X160520000Y-112522000D03*
G04 #@! TD*
G04 #@! TO.C,C18*
X164600000Y-110490000D03*
X165600000Y-110490000D03*
G04 #@! TD*
G04 #@! TO.C,C19*
X172220000Y-112522000D03*
X173220000Y-112522000D03*
G04 #@! TD*
G04 #@! TO.C,C21*
X177300000Y-110490000D03*
X178300000Y-110490000D03*
G04 #@! TD*
D26*
G04 #@! TO.C,C22*
X116840000Y-117340000D03*
X116840000Y-116340000D03*
G04 #@! TD*
D27*
G04 #@! TO.C,C23*
X182380000Y-112522000D03*
X183380000Y-112522000D03*
G04 #@! TD*
G04 #@! TO.C,C25*
X188460000Y-110490000D03*
X187460000Y-110490000D03*
G04 #@! TD*
G04 #@! TO.C,R1*
X136390000Y-96520000D03*
X135390000Y-96520000D03*
G04 #@! TD*
D26*
G04 #@! TO.C,R2*
X163830000Y-67175000D03*
X163830000Y-66175000D03*
G04 #@! TD*
G04 #@! TO.C,R3*
X161290000Y-66175000D03*
X161290000Y-67175000D03*
G04 #@! TD*
G04 #@! TO.C,R4*
X186690000Y-83685000D03*
X186690000Y-82685000D03*
G04 #@! TD*
G04 #@! TO.C,R5*
X184150000Y-83685000D03*
X184150000Y-82685000D03*
G04 #@! TD*
G04 #@! TO.C,R6*
X163830000Y-82685000D03*
X163830000Y-83685000D03*
G04 #@! TD*
G04 #@! TO.C,R7*
X161290000Y-83685000D03*
X161290000Y-82685000D03*
G04 #@! TD*
D27*
G04 #@! TO.C,R8*
X135390000Y-66040000D03*
X136390000Y-66040000D03*
G04 #@! TD*
D26*
G04 #@! TO.C,R9*
X176530000Y-82685000D03*
X176530000Y-83685000D03*
G04 #@! TD*
G04 #@! TO.C,R10*
X173990000Y-83685000D03*
X173990000Y-82685000D03*
G04 #@! TD*
G04 #@! TO.C,R11*
X163830000Y-99195000D03*
X163830000Y-100195000D03*
G04 #@! TD*
G04 #@! TO.C,R12*
X161290000Y-100195000D03*
X161290000Y-99195000D03*
G04 #@! TD*
G04 #@! TO.C,R13*
X176530000Y-99195000D03*
X176530000Y-100195000D03*
G04 #@! TD*
G04 #@! TO.C,R14*
X173990000Y-100195000D03*
X173990000Y-99195000D03*
G04 #@! TD*
D27*
G04 #@! TO.C,R15*
X136390000Y-119380000D03*
X135390000Y-119380000D03*
G04 #@! TD*
D26*
G04 #@! TO.C,R16*
X186690000Y-100195000D03*
X186690000Y-99195000D03*
G04 #@! TD*
G04 #@! TO.C,R17*
X184150000Y-99195000D03*
X184150000Y-100195000D03*
G04 #@! TD*
M02*
