M48
;DRILL file {KiCad 6.0.0-rc1-unknown-d4e4359~66~ubuntu18.04.1} date Wed Sep 19 14:01:10 2018
;FORMAT={-:-/ absolute / metric / decimal}
FMAT,2
METRIC,TZ
T1C0.254
T2C0.965
T3C1.016
T4C1.200
T5C1.450
T6C1.700
T7C2.000
T8C3.302
T9C4.200
%
G90
G05
M71
T1
X118.584Y-116.573
X118.65Y-96.648
X118.652Y-106.967
X119.223Y-108.922
X119.696Y-119.084
X120.022Y-108.913
X120.72Y-99.2
X121.145Y-102.331
X121.776Y-100.9
X121.977Y-111.048
X122.197Y-121.23
X123.413Y-121.798
X124.172Y-102.309
X124.478Y-90.629
X125.691Y-99.757
X126.053Y-120.97
X126.054Y-101.067
X127.554Y-98.27
X128.168Y-108.822
X128.214Y-105.193
X128.296Y-122.989
X128.643Y-90.062
X129.367Y-96.27
X129.403Y-92.531
X133.762Y-121.86
X134.431Y-112.79
X134.553Y-119.38
X135.059Y-102.804
X141.146Y-98.074
X145.828Y-104.938
X148.89Y-110.37
X149.394Y-108.404
X153.404Y-93.449
X157.442Y-92.176
X158.535Y-113.03
X158.575Y-105.16
X158.597Y-72.312
X158.83Y-112.45
X161.843Y-93.937
X161.844Y-76.366
X161.883Y-109.553
X161.97Y-84.18
X162.164Y-68.427
X162.178Y-84.914
X162.178Y-101.424
X162.737Y-93.047
X162.801Y-68.425
X162.81Y-101.452
X162.862Y-109.646
X162.923Y-82.685
X163.195Y-81.922
X163.867Y-101.427
X163.869Y-68.423
X164.303Y-74.655
X164.31Y-109.054
X164.451Y-81.966
X165.963Y-70.043
X166.004Y-70.656
X166.521Y-94.89
X166.644Y-88.145
X166.68Y-104.712
X166.766Y-104.069
X169.152Y-92.623
X170.236Y-118.641
X170.461Y-105.457
X172.067Y-86.966
X172.894Y-109.788
X172.955Y-93.075
X173.058Y-84.534
X174.193Y-97.543
X174.662Y-110.49
X174.672Y-92.884
X174.847Y-84.936
X174.847Y-101.408
X175.258Y-100.956
X175.476Y-109.379
X175.51Y-84.907
X175.592Y-93.804
X175.776Y-94.65
X175.81Y-99.58
X177.075Y-97.109
X179.221Y-104.67
X179.443Y-88.234
X179.622Y-105.737
X179.645Y-87.376
X179.658Y-90.15
X181.304Y-107.07
X183.016Y-108.01
X183.398Y-98.59
X183.461Y-97.188
X183.628Y-103.367
X183.79Y-109.26
X184.725Y-92.874
X185.14Y-109.977
X185.17Y-101.452
X185.249Y-100.825
X185.718Y-92.937
X186.802Y-101.398
X187.194Y-87.046
X188.122Y-87.048
X188.857Y-103.514
X189.438Y-105.035
T2
X153.67Y-131.445
X153.67Y-136.525
X151.13Y-131.445
X151.13Y-136.525
T3
X132.08Y-66.04
X132.08Y-68.58
X132.08Y-71.12
X132.08Y-73.66
X132.08Y-76.2
X132.08Y-78.74
X132.08Y-81.28
X132.08Y-83.82
X132.08Y-86.36
X132.08Y-88.9
X132.08Y-91.44
X132.08Y-93.98
X132.08Y-96.52
X132.08Y-99.06
X132.08Y-101.6
X132.08Y-104.14
X132.08Y-106.68
X132.08Y-109.22
X132.08Y-111.76
X132.08Y-114.3
X132.08Y-116.84
X132.08Y-119.38
X132.08Y-121.92
X132.08Y-124.46
X147.32Y-66.04
X147.32Y-68.58
X147.32Y-71.12
X147.32Y-73.66
X147.32Y-76.2
X147.32Y-78.74
X147.32Y-81.28
X147.32Y-83.82
X147.32Y-86.36
X147.32Y-88.9
X147.32Y-91.44
X147.32Y-93.98
X147.32Y-96.52
X147.32Y-99.06
X147.32Y-101.6
X147.32Y-104.14
X147.32Y-106.68
X147.32Y-109.22
X147.32Y-111.76
X147.32Y-114.3
X147.32Y-116.84
X147.32Y-119.38
X147.32Y-121.92
X147.32Y-124.46
T4
X156.21Y-116.67
X156.21Y-120.17
X156.21Y-123.67
X156.21Y-127.17
X168.91Y-100.16
X168.91Y-103.66
X168.91Y-107.16
X168.91Y-110.66
X168.91Y-67.14
X168.91Y-70.64
X168.91Y-74.14
X168.91Y-77.64
X168.91Y-83.65
X168.91Y-87.15
X168.91Y-90.65
X168.91Y-94.15
X156.21Y-100.16
X156.21Y-103.66
X156.21Y-107.16
X156.21Y-110.66
X156.21Y-67.14
X156.21Y-70.64
X156.21Y-74.14
X156.21Y-77.64
X156.21Y-83.65
X156.21Y-87.15
X156.21Y-90.65
X156.21Y-94.15
T5
X162.56Y-72.39
X185.42Y-105.41
X185.42Y-88.9
X162.56Y-88.9
X175.26Y-105.41
X175.26Y-88.9
X162.56Y-105.41
T6
X161.Y-126.27
X169.2Y-126.27
T7
X123.19Y-116.84
X123.19Y-96.52
X123.19Y-106.68
T8
X125.412Y-74.612
X179.388Y-128.588
X125.412Y-128.588
X179.388Y-74.612
T9
X165.1Y-128.27
T0
M30
