G04 #@! TF.GenerationSoftware,KiCad,Pcbnew,6.0.0-rc1-unknown-60a55d7~66~ubuntu18.04.1*
G04 #@! TF.CreationDate,2018-08-22T13:35:30-04:00*
G04 #@! TF.ProjectId,ethoscope_stepper_controller_3x3,6574686F73636F70655F737465707065,1.0*
G04 #@! TF.SameCoordinates,Original*
G04 #@! TF.FileFunction,Soldermask,Bot*
G04 #@! TF.FilePolarity,Negative*
%FSLAX46Y46*%
G04 Gerber Fmt 4.6, Leading zero omitted, Abs format (unit mm)*
G04 Created by KiCad (PCBNEW 6.0.0-rc1-unknown-60a55d7~66~ubuntu18.04.1) date Wed Aug 22 13:35:30 2018*
%MOMM*%
%LPD*%
G01*
G04 APERTURE LIST*
%ADD10C,0.228600*%
%ADD11C,1.900000*%
%ADD12C,4.500000*%
%ADD13C,2.340000*%
%ADD14O,2.540000X1.524000*%
%ADD15R,2.540000X1.524000*%
%ADD16R,2.525000X2.525000*%
%ADD17C,3.556000*%
%ADD18R,3.475000X3.475000*%
G04 APERTURE END LIST*
D10*
X189865000Y-64135000D02*
X189865000Y-139065000D01*
X114935000Y-64135000D02*
X114935000Y-139065000D01*
X114935000Y-64135000D02*
X189865000Y-64135000D01*
X114935000Y-139065000D02*
X189865000Y-139065000D01*
D11*
G04 #@! TO.C,P1*
X161000000Y-126270000D03*
X169200000Y-126270000D03*
D12*
X165100000Y-128270000D03*
G04 #@! TD*
D13*
G04 #@! TO.C,T1*
X156210000Y-67140000D03*
X156210000Y-77640000D03*
X156210000Y-74140000D03*
X156210000Y-70640000D03*
G04 #@! TD*
G04 #@! TO.C,T2*
X168910000Y-67140000D03*
X168910000Y-77640000D03*
X168910000Y-74140000D03*
X168910000Y-70640000D03*
G04 #@! TD*
G04 #@! TO.C,T3*
X156210000Y-83650000D03*
X156210000Y-94150000D03*
X156210000Y-90650000D03*
X156210000Y-87150000D03*
G04 #@! TD*
G04 #@! TO.C,T4*
X168910000Y-83650000D03*
X168910000Y-94150000D03*
X168910000Y-90650000D03*
X168910000Y-87150000D03*
G04 #@! TD*
G04 #@! TO.C,T5*
X156210000Y-100160000D03*
X156210000Y-110660000D03*
X156210000Y-107160000D03*
X156210000Y-103660000D03*
G04 #@! TD*
G04 #@! TO.C,T6*
X168910000Y-100160000D03*
X168910000Y-110660000D03*
X168910000Y-107160000D03*
X168910000Y-103660000D03*
G04 #@! TD*
G04 #@! TO.C,T7*
X156210000Y-116670000D03*
X156210000Y-127170000D03*
X156210000Y-123670000D03*
X156210000Y-120170000D03*
G04 #@! TD*
D14*
G04 #@! TO.C,TEENSY1*
X147320000Y-86360000D03*
X147320000Y-88900000D03*
D15*
X132080000Y-88900000D03*
D14*
X132080000Y-124460000D03*
X132080000Y-121920000D03*
X132080000Y-119380000D03*
X132080000Y-116840000D03*
X132080000Y-114300000D03*
X132080000Y-111760000D03*
X132080000Y-109220000D03*
X132080000Y-106680000D03*
X132080000Y-104140000D03*
X132080000Y-101600000D03*
X132080000Y-99060000D03*
X132080000Y-96520000D03*
X132080000Y-93980000D03*
X132080000Y-91440000D03*
X147320000Y-91440000D03*
X147320000Y-93980000D03*
X147320000Y-96520000D03*
X147320000Y-99060000D03*
X147320000Y-101600000D03*
X147320000Y-104140000D03*
X147320000Y-106680000D03*
X147320000Y-109220000D03*
X147320000Y-111760000D03*
X147320000Y-114300000D03*
X147320000Y-116840000D03*
X147320000Y-119380000D03*
X147320000Y-121920000D03*
D15*
X147320000Y-124460000D03*
D14*
X147320000Y-83820000D03*
X147320000Y-81280000D03*
X147320000Y-78740000D03*
X147320000Y-76200000D03*
X147320000Y-73660000D03*
X147320000Y-71120000D03*
X147320000Y-68580000D03*
X147320000Y-66040000D03*
X132080000Y-66040000D03*
X132080000Y-68580000D03*
X132080000Y-71120000D03*
X132080000Y-73660000D03*
X132080000Y-76200000D03*
X132080000Y-78740000D03*
X132080000Y-81280000D03*
X132080000Y-83820000D03*
X132080000Y-86360000D03*
G04 #@! TD*
D16*
G04 #@! TO.C,U3*
X162560000Y-72390000D03*
G04 #@! TD*
G04 #@! TO.C,U4*
X185420000Y-88900000D03*
G04 #@! TD*
G04 #@! TO.C,U8*
X175260000Y-88900000D03*
G04 #@! TD*
G04 #@! TO.C,U10*
X175260000Y-105410000D03*
G04 #@! TD*
G04 #@! TO.C,U5*
X162560000Y-88900000D03*
G04 #@! TD*
G04 #@! TO.C,U9*
X162560000Y-105410000D03*
G04 #@! TD*
G04 #@! TO.C,U13*
X185420000Y-105410000D03*
G04 #@! TD*
D17*
G04 #@! TO.C,MH1*
X179388000Y-128588000D03*
G04 #@! TD*
G04 #@! TO.C,MH2*
X125412000Y-128588000D03*
G04 #@! TD*
G04 #@! TO.C,MH3*
X125412000Y-74612500D03*
G04 #@! TD*
G04 #@! TO.C,MH4*
X179388000Y-74612500D03*
G04 #@! TD*
D18*
G04 #@! TO.C,U1*
X123190000Y-96520000D03*
G04 #@! TD*
G04 #@! TO.C,U6*
X123190000Y-106680000D03*
G04 #@! TD*
G04 #@! TO.C,U11*
X123190000Y-116840000D03*
G04 #@! TD*
M02*
