M48
; DRILL file {KiCad 6.0.0-rc1-unknown-4a641ec~66~ubuntu18.04.1} date Tue 05 Feb 2019 04:16:13 PM EST
; FORMAT={-:-/ absolute / metric / decimal}
; #@! TF.CreationDate,2019-02-05T16:16:13-05:00
; #@! TF.GenerationSoftware,Kicad,Pcbnew,6.0.0-rc1-unknown-4a641ec~66~ubuntu18.04.1
FMAT,2
METRIC
T1C0.203
T2C0.254
T3C0.965
T4C1.016
T5C1.200
T6C1.700
T7C3.302
T8C4.200
%
G90
G05
T1
X120.105Y-96.814
X120.105Y-106.989
X120.105Y-117.09
X120.76Y-98.728
X120.76Y-108.893
X120.76Y-119.076
X122.08Y-109.756
X122.08Y-119.913
X122.236Y-99.865
X123.374Y-99.588
X123.374Y-101.6
X125.579Y-90.71
X125.704Y-110.401
X126.101Y-120.954
X126.427Y-107.93
X126.62Y-98.116
X127.165Y-108.143
X127.27Y-95.065
X127.338Y-105.181
X127.847Y-91.224
X128.008Y-107.299
X128.397Y-122.281
X128.703Y-112.473
X129.764Y-103.183
X130.345Y-120.379
X134.147Y-95.041
X134.834Y-111.745
X142.248Y-113.782
X145.964Y-89.686
X148.862Y-90.462
X150.604Y-110.611
X155.267Y-75.89
X160.81Y-97.617
X165.076Y-88.086
X165.086Y-104.66
X165.159Y-71.82
X165.28Y-119.228
X165.392Y-82.123
X166.493Y-96.726
X174.053Y-91.832
X176.059Y-113.067
X177.354Y-91.296
X177.392Y-103.516
X178.015Y-88.171
X178.422Y-108.978
X179.152Y-109.593
X182.532Y-90.341
X187.93Y-88.2
X188.028Y-104.385
T2
X126.297Y-95.512
X126.963Y-90.196
X131.028Y-110.276
X136.156Y-100.57
X158.592Y-103.983
X159.405Y-103.727
X159.711Y-88.15
X159.93Y-108.032
X159.949Y-67.68
X159.949Y-70.102
X159.998Y-71.588
X160.298Y-100.857
X161.932Y-75.16
X162.095Y-86.317
X162.137Y-102.853
X162.284Y-94.615
X162.361Y-91.475
X162.402Y-108.652
X162.966Y-75.403
X163.8Y-86.341
X163.92Y-102.846
X163.921Y-69.825
X163.93Y-85.724
X164.451Y-80.711
X164.465Y-110.157
X165.117Y-71.14
X165.457Y-107.007
X172.679Y-104.856
X173.54Y-103.037
X174.51Y-92.165
X174.54Y-101.176
X175.01Y-86.341
X175.216Y-110.35
X175.493Y-91.929
X175.84Y-109.241
X176.427Y-102.689
X176.483Y-86.041
X176.702Y-113.494
X177.099Y-97.185
X178.164Y-103.711
X179.796Y-103.973
X180.829Y-84.766
X182.858Y-88.15
X183.576Y-85.572
X184.631Y-91.465
X184.883Y-111.752
X185.013Y-102.851
X185.106Y-108.174
X185.521Y-102.451
X185.601Y-86.334
X185.601Y-91.781
X186.32Y-97.512
X186.656Y-102.842
X187.084Y-86.446
X187.201Y-87.168
T3
X151.13Y-131.445
X151.13Y-136.525
X153.67Y-131.445
X153.67Y-136.525
T4
X132.08Y-66.04
X132.08Y-68.58
X132.08Y-71.12
X132.08Y-73.66
X132.08Y-76.2
X132.08Y-78.74
X132.08Y-81.28
X132.08Y-83.82
X132.08Y-86.36
X132.08Y-88.9
X132.08Y-91.44
X132.08Y-93.98
X132.08Y-96.52
X132.08Y-99.06
X132.08Y-101.6
X132.08Y-104.14
X132.08Y-106.68
X132.08Y-109.22
X132.08Y-111.76
X132.08Y-114.3
X132.08Y-116.84
X132.08Y-119.38
X132.08Y-121.92
X132.08Y-124.46
X147.32Y-66.04
X147.32Y-68.58
X147.32Y-71.12
X147.32Y-73.66
X147.32Y-76.2
X147.32Y-78.74
X147.32Y-81.28
X147.32Y-83.82
X147.32Y-86.36
X147.32Y-88.9
X147.32Y-91.44
X147.32Y-93.98
X147.32Y-96.52
X147.32Y-99.06
X147.32Y-101.6
X147.32Y-104.14
X147.32Y-106.68
X147.32Y-109.22
X147.32Y-111.76
X147.32Y-114.3
X147.32Y-116.84
X147.32Y-119.38
X147.32Y-121.92
X147.32Y-124.46
T5
X168.91Y-100.16
X168.91Y-103.66
X168.91Y-107.16
X168.91Y-110.66
X168.91Y-67.14
X168.91Y-70.64
X168.91Y-74.14
X168.91Y-77.64
X156.21Y-100.16
X156.21Y-103.66
X156.21Y-107.16
X156.21Y-110.66
X156.21Y-67.14
X156.21Y-70.64
X156.21Y-74.14
X156.21Y-77.64
X168.91Y-83.65
X168.91Y-87.15
X168.91Y-90.65
X168.91Y-94.15
X156.21Y-116.67
X156.21Y-120.17
X156.21Y-123.67
X156.21Y-127.17
X156.21Y-83.65
X156.21Y-87.15
X156.21Y-90.65
X156.21Y-94.15
T6
X161.0Y-126.27
X169.2Y-126.27
T7
X125.412Y-128.588
X179.388Y-128.588
X179.388Y-74.612
X125.412Y-74.612
T8
X165.1Y-128.27
T0
M30
