G04 #@! TF.GenerationSoftware,KiCad,Pcbnew,6.0.0-rc1-unknown-d4e4359~66~ubuntu18.04.1*
G04 #@! TF.CreationDate,2018-09-19T14:01:08-04:00*
G04 #@! TF.ProjectId,ethoscope_stepper_controller_3x3,6574686F73636F70655F737465707065,1.1*
G04 #@! TF.SameCoordinates,Original*
G04 #@! TF.FileFunction,Copper,L2,Bot,Signal*
G04 #@! TF.FilePolarity,Positive*
%FSLAX46Y46*%
G04 Gerber Fmt 4.6, Leading zero omitted, Abs format (unit mm)*
G04 Created by KiCad (PCBNEW 6.0.0-rc1-unknown-d4e4359~66~ubuntu18.04.1) date Wed Sep 19 14:01:08 2018*
%MOMM*%
%LPD*%
G01*
G04 APERTURE LIST*
G04 #@! TA.AperFunction,NonConductor*
%ADD10C,0.228600*%
G04 #@! TD*
G04 #@! TA.AperFunction,ComponentPad*
%ADD11C,2.340000*%
G04 #@! TD*
G04 #@! TA.AperFunction,ComponentPad*
%ADD12R,2.450000X2.450000*%
G04 #@! TD*
G04 #@! TA.AperFunction,ComponentPad*
%ADD13R,3.400000X3.400000*%
G04 #@! TD*
G04 #@! TA.AperFunction,ComponentPad*
%ADD14C,1.900000*%
G04 #@! TD*
G04 #@! TA.AperFunction,ComponentPad*
%ADD15C,4.500000*%
G04 #@! TD*
G04 #@! TA.AperFunction,ComponentPad*
%ADD16O,2.540000X1.524000*%
G04 #@! TD*
G04 #@! TA.AperFunction,ComponentPad*
%ADD17R,2.540000X1.524000*%
G04 #@! TD*
G04 #@! TA.AperFunction,ComponentPad*
%ADD18C,3.556000*%
G04 #@! TD*
G04 #@! TA.AperFunction,ComponentPad*
%ADD19O,1.524000X2.032000*%
G04 #@! TD*
G04 #@! TA.AperFunction,ViaPad*
%ADD20C,0.508000*%
G04 #@! TD*
G04 #@! TA.AperFunction,Conductor*
%ADD21C,0.254000*%
G04 #@! TD*
G04 #@! TA.AperFunction,Conductor*
%ADD22C,0.508000*%
G04 #@! TD*
G04 #@! TA.AperFunction,Conductor*
%ADD23C,0.203200*%
G04 #@! TD*
G04 APERTURE END LIST*
D10*
X189865000Y-132715000D02*
X189865000Y-70485000D01*
X121285000Y-139065000D02*
X183515000Y-139065000D01*
X114935000Y-70485000D02*
X114935000Y-132715000D01*
X121285000Y-64135000D02*
X183515000Y-64135000D01*
X189865000Y-132715000D02*
G75*
G02X183515000Y-139065000I-6350000J0D01*
G01*
X121285000Y-139065000D02*
G75*
G02X114935000Y-132715000I0J6350000D01*
G01*
X183515000Y-64135000D02*
G75*
G02X189865000Y-70485000I0J-6350000D01*
G01*
X114935000Y-70485000D02*
G75*
G02X121285000Y-64135000I6350000J0D01*
G01*
D11*
G04 #@! TO.P,T1,4*
G04 #@! TO.N,/ethoscope_3x3/tmc429_0/stepper_driver_0/A_+*
X156210000Y-67140000D03*
G04 #@! TO.P,T1,1*
G04 #@! TO.N,/ethoscope_3x3/tmc429_0/stepper_driver_0/B_-*
X156210000Y-77640000D03*
G04 #@! TO.P,T1,2*
G04 #@! TO.N,/ethoscope_3x3/tmc429_0/stepper_driver_0/B_+*
X156210000Y-74140000D03*
G04 #@! TO.P,T1,3*
G04 #@! TO.N,/ethoscope_3x3/tmc429_0/stepper_driver_0/A_-*
X156210000Y-70640000D03*
G04 #@! TD*
G04 #@! TO.P,T2,4*
G04 #@! TO.N,/ethoscope_3x3/tmc429_0/stepper_driver_1/A_+*
X168910000Y-67140000D03*
G04 #@! TO.P,T2,1*
G04 #@! TO.N,/ethoscope_3x3/tmc429_0/stepper_driver_1/B_-*
X168910000Y-77640000D03*
G04 #@! TO.P,T2,2*
G04 #@! TO.N,/ethoscope_3x3/tmc429_0/stepper_driver_1/B_+*
X168910000Y-74140000D03*
G04 #@! TO.P,T2,3*
G04 #@! TO.N,/ethoscope_3x3/tmc429_0/stepper_driver_1/A_-*
X168910000Y-70640000D03*
G04 #@! TD*
G04 #@! TO.P,T3,4*
G04 #@! TO.N,/ethoscope_3x3/tmc429_0/stepper_driver_2/A_+*
X156210000Y-83650000D03*
G04 #@! TO.P,T3,1*
G04 #@! TO.N,/ethoscope_3x3/tmc429_0/stepper_driver_2/B_-*
X156210000Y-94150000D03*
G04 #@! TO.P,T3,2*
G04 #@! TO.N,/ethoscope_3x3/tmc429_0/stepper_driver_2/B_+*
X156210000Y-90650000D03*
G04 #@! TO.P,T3,3*
G04 #@! TO.N,/ethoscope_3x3/tmc429_0/stepper_driver_2/A_-*
X156210000Y-87150000D03*
G04 #@! TD*
G04 #@! TO.P,T4,4*
G04 #@! TO.N,/ethoscope_3x3/tmc429_1/stepper_driver_0/A_+*
X168910000Y-83650000D03*
G04 #@! TO.P,T4,1*
G04 #@! TO.N,/ethoscope_3x3/tmc429_1/stepper_driver_0/B_-*
X168910000Y-94150000D03*
G04 #@! TO.P,T4,2*
G04 #@! TO.N,/ethoscope_3x3/tmc429_1/stepper_driver_0/B_+*
X168910000Y-90650000D03*
G04 #@! TO.P,T4,3*
G04 #@! TO.N,/ethoscope_3x3/tmc429_1/stepper_driver_0/A_-*
X168910000Y-87150000D03*
G04 #@! TD*
G04 #@! TO.P,T5,4*
G04 #@! TO.N,/ethoscope_3x3/tmc429_1/stepper_driver_1/A_+*
X156210000Y-100160000D03*
G04 #@! TO.P,T5,1*
G04 #@! TO.N,/ethoscope_3x3/tmc429_1/stepper_driver_1/B_-*
X156210000Y-110660000D03*
G04 #@! TO.P,T5,2*
G04 #@! TO.N,/ethoscope_3x3/tmc429_1/stepper_driver_1/B_+*
X156210000Y-107160000D03*
G04 #@! TO.P,T5,3*
G04 #@! TO.N,/ethoscope_3x3/tmc429_1/stepper_driver_1/A_-*
X156210000Y-103660000D03*
G04 #@! TD*
G04 #@! TO.P,T6,4*
G04 #@! TO.N,/ethoscope_3x3/tmc429_1/stepper_driver_2/A_+*
X168910000Y-100160000D03*
G04 #@! TO.P,T6,1*
G04 #@! TO.N,/ethoscope_3x3/tmc429_1/stepper_driver_2/B_-*
X168910000Y-110660000D03*
G04 #@! TO.P,T6,2*
G04 #@! TO.N,/ethoscope_3x3/tmc429_1/stepper_driver_2/B_+*
X168910000Y-107160000D03*
G04 #@! TO.P,T6,3*
G04 #@! TO.N,/ethoscope_3x3/tmc429_1/stepper_driver_2/A_-*
X168910000Y-103660000D03*
G04 #@! TD*
G04 #@! TO.P,T7,4*
G04 #@! TO.N,/ethoscope_3x3/tmc_429_2/stepper_driver_0/A_+*
X156210000Y-116670000D03*
G04 #@! TO.P,T7,1*
G04 #@! TO.N,/ethoscope_3x3/tmc_429_2/stepper_driver_0/B_-*
X156210000Y-127170000D03*
G04 #@! TO.P,T7,2*
G04 #@! TO.N,/ethoscope_3x3/tmc_429_2/stepper_driver_0/B_+*
X156210000Y-123670000D03*
G04 #@! TO.P,T7,3*
G04 #@! TO.N,/ethoscope_3x3/tmc_429_2/stepper_driver_0/A_-*
X156210000Y-120170000D03*
G04 #@! TD*
D12*
G04 #@! TO.P,U3,PAD*
G04 #@! TO.N,GND*
X162560000Y-72390000D03*
G04 #@! TD*
G04 #@! TO.P,U4,PAD*
G04 #@! TO.N,GND*
X185420000Y-88900000D03*
G04 #@! TD*
G04 #@! TO.P,U8,PAD*
G04 #@! TO.N,GND*
X175260000Y-88900000D03*
G04 #@! TD*
G04 #@! TO.P,U10,PAD*
G04 #@! TO.N,GND*
X175260000Y-105410000D03*
G04 #@! TD*
G04 #@! TO.P,U5,PAD*
G04 #@! TO.N,GND*
X162560000Y-88900000D03*
G04 #@! TD*
G04 #@! TO.P,U9,PAD*
G04 #@! TO.N,GND*
X162560000Y-105410000D03*
G04 #@! TD*
G04 #@! TO.P,U13,PAD*
G04 #@! TO.N,GND*
X185420000Y-105410000D03*
G04 #@! TD*
D13*
G04 #@! TO.P,U1,PAD*
G04 #@! TO.N,GND*
X123190000Y-96520000D03*
G04 #@! TD*
G04 #@! TO.P,U6,PAD*
G04 #@! TO.N,GND*
X123190000Y-106680000D03*
G04 #@! TD*
G04 #@! TO.P,U11,PAD*
G04 #@! TO.N,GND*
X123190000Y-116840000D03*
G04 #@! TD*
D14*
G04 #@! TO.P,P1,*
G04 #@! TO.N,*
X161000000Y-126270000D03*
X169200000Y-126270000D03*
D15*
X165100000Y-128270000D03*
G04 #@! TD*
D16*
G04 #@! TO.P,TEENSY1,24*
G04 #@! TO.N,N/C*
X147320000Y-86360000D03*
G04 #@! TO.P,TEENSY1,*
G04 #@! TO.N,*
X147320000Y-88900000D03*
D17*
X132080000Y-88900000D03*
D16*
G04 #@! TO.P,TEENSY1,V_IN*
G04 #@! TO.N,N/C*
X132080000Y-124460000D03*
G04 #@! TO.P,TEENSY1,AGND*
X132080000Y-121920000D03*
G04 #@! TO.P,TEENSY1,3V3*
G04 #@! TO.N,+3V3*
X132080000Y-119380000D03*
G04 #@! TO.P,TEENSY1,23*
G04 #@! TO.N,N/C*
X132080000Y-116840000D03*
G04 #@! TO.P,TEENSY1,22*
G04 #@! TO.N,/~SLEEP*
X132080000Y-114300000D03*
G04 #@! TO.P,TEENSY1,21*
G04 #@! TO.N,N/C*
X132080000Y-111760000D03*
G04 #@! TO.P,TEENSY1,20*
X132080000Y-109220000D03*
G04 #@! TO.P,TEENSY1,19*
X132080000Y-106680000D03*
G04 #@! TO.P,TEENSY1,18*
X132080000Y-104140000D03*
G04 #@! TO.P,TEENSY1,17*
X132080000Y-101600000D03*
G04 #@! TO.P,TEENSY1,16*
X132080000Y-99060000D03*
G04 #@! TO.P,TEENSY1,15*
G04 #@! TO.N,/~CS_429_0*
X132080000Y-96520000D03*
G04 #@! TO.P,TEENSY1,14*
G04 #@! TO.N,N/C*
X132080000Y-93980000D03*
G04 #@! TO.P,TEENSY1,13*
G04 #@! TO.N,/SCK*
X132080000Y-91440000D03*
G04 #@! TO.P,TEENSY1,12*
G04 #@! TO.N,/MISO*
X147320000Y-91440000D03*
G04 #@! TO.P,TEENSY1,11*
G04 #@! TO.N,/MOSI*
X147320000Y-93980000D03*
G04 #@! TO.P,TEENSY1,10*
G04 #@! TO.N,N/C*
X147320000Y-96520000D03*
G04 #@! TO.P,TEENSY1,9*
X147320000Y-99060000D03*
G04 #@! TO.P,TEENSY1,8*
X147320000Y-101600000D03*
G04 #@! TO.P,TEENSY1,7*
X147320000Y-104140000D03*
G04 #@! TO.P,TEENSY1,6*
X147320000Y-106680000D03*
G04 #@! TO.P,TEENSY1,5*
X147320000Y-109220000D03*
G04 #@! TO.P,TEENSY1,4*
X147320000Y-111760000D03*
G04 #@! TO.P,TEENSY1,3*
X147320000Y-114300000D03*
G04 #@! TO.P,TEENSY1,2*
X147320000Y-116840000D03*
G04 #@! TO.P,TEENSY1,1*
X147320000Y-119380000D03*
G04 #@! TO.P,TEENSY1,0*
X147320000Y-121920000D03*
D17*
G04 #@! TO.P,TEENSY1,GND*
G04 #@! TO.N,GND*
X147320000Y-124460000D03*
D16*
G04 #@! TO.P,TEENSY1,25*
G04 #@! TO.N,N/C*
X147320000Y-83820000D03*
G04 #@! TO.P,TEENSY1,26*
X147320000Y-81280000D03*
G04 #@! TO.P,TEENSY1,27*
X147320000Y-78740000D03*
G04 #@! TO.P,TEENSY1,28*
X147320000Y-76200000D03*
G04 #@! TO.P,TEENSY1,29*
X147320000Y-73660000D03*
G04 #@! TO.P,TEENSY1,30*
X147320000Y-71120000D03*
G04 #@! TO.P,TEENSY1,31*
X147320000Y-68580000D03*
G04 #@! TO.P,TEENSY1,32*
X147320000Y-66040000D03*
G04 #@! TO.P,TEENSY1,33*
G04 #@! TO.N,/~CS_429_1*
X132080000Y-66040000D03*
G04 #@! TO.P,TEENSY1,34*
G04 #@! TO.N,N/C*
X132080000Y-68580000D03*
G04 #@! TO.P,TEENSY1,35*
X132080000Y-71120000D03*
G04 #@! TO.P,TEENSY1,36*
G04 #@! TO.N,/~CS_429_2*
X132080000Y-73660000D03*
G04 #@! TO.P,TEENSY1,37*
G04 #@! TO.N,N/C*
X132080000Y-76200000D03*
G04 #@! TO.P,TEENSY1,38*
X132080000Y-78740000D03*
G04 #@! TO.P,TEENSY1,39*
X132080000Y-81280000D03*
G04 #@! TO.P,TEENSY1,A21*
X132080000Y-83820000D03*
G04 #@! TO.P,TEENSY1,A22*
X132080000Y-86360000D03*
G04 #@! TD*
D18*
G04 #@! TO.P,MH1,1*
G04 #@! TO.N,N/C*
X179388000Y-128588000D03*
G04 #@! TD*
G04 #@! TO.P,MH2,1*
G04 #@! TO.N,N/C*
X125412000Y-128588000D03*
G04 #@! TD*
G04 #@! TO.P,MH3,1*
G04 #@! TO.N,N/C*
X125412000Y-74612500D03*
G04 #@! TD*
G04 #@! TO.P,MH4,1*
G04 #@! TO.N,N/C*
X179388000Y-74612500D03*
G04 #@! TD*
D19*
G04 #@! TO.P,L1,1*
G04 #@! TO.N,VAA*
X153670000Y-136525000D03*
G04 #@! TO.P,L1,2*
G04 #@! TO.N,GND*
X153670000Y-131445000D03*
G04 #@! TD*
G04 #@! TO.P,L2,1*
G04 #@! TO.N,+3V3*
X151130000Y-136525000D03*
G04 #@! TO.P,L2,2*
G04 #@! TO.N,GND*
X151130000Y-131445000D03*
G04 #@! TD*
D20*
G04 #@! TO.N,+3V3*
X188857000Y-103514000D03*
X128214000Y-105193000D03*
X166766000Y-104069000D03*
X170461000Y-105457000D03*
X165963000Y-70043100D03*
X174193000Y-97542800D03*
X129367000Y-96270000D03*
X158575000Y-105160000D03*
X121145000Y-102331000D03*
X183398000Y-98590500D03*
X173058000Y-84533800D03*
X189438000Y-105035000D03*
X187194000Y-87046400D03*
X158597000Y-72312300D03*
X179645000Y-87376500D03*
G04 #@! TO.N,GND*
X158830000Y-112450000D03*
X172894000Y-109788000D03*
X162923000Y-82685000D03*
X175810000Y-99580000D03*
G04 #@! TO.N,VAA*
X179622000Y-105737000D03*
X162737000Y-93047100D03*
X175476000Y-109379000D03*
X163195000Y-81922400D03*
X161843000Y-93937200D03*
X169152000Y-92622700D03*
X174662000Y-110490000D03*
X183461000Y-97188300D03*
G04 #@! TO.N,/MOSI*
X122197000Y-121230000D03*
X121977000Y-111048000D03*
X121776000Y-100900000D03*
G04 #@! TO.N,/MISO*
X134431000Y-112790000D03*
X133762000Y-121860000D03*
X135059000Y-102804000D03*
G04 #@! TO.N,/SCK*
X120022000Y-108913000D03*
X119696000Y-119084000D03*
X120720000Y-99199700D03*
G04 #@! TO.N,/ethoscope_3x3/tmc429_0/stepper_driver_0/VINT*
X164303000Y-74655000D03*
X161844000Y-76365700D03*
G04 #@! TO.N,/ethoscope_3x3/tmc429_0/stepper_driver_1/VINT*
X185718000Y-92937300D03*
X184725000Y-92874000D03*
G04 #@! TO.N,/ethoscope_3x3/tmc429_1/stepper_driver_0/VINT*
X175592000Y-93803700D03*
X174672000Y-92884400D03*
G04 #@! TO.N,/ethoscope_3x3/tmc429_1/stepper_driver_1/VINT*
X162862000Y-109646000D03*
X161883000Y-109553000D03*
G04 #@! TO.N,/ethoscope_3x3/tmc_429_2/stepper_driver_0/VINT*
X185140000Y-109977000D03*
X183790000Y-109260000D03*
G04 #@! TO.N,/ethoscope_3x3/CLK*
X124478000Y-90628700D03*
X118650000Y-96648500D03*
X118652000Y-106967000D03*
X118584000Y-116573000D03*
G04 #@! TO.N,/~CS_429_0*
X126054000Y-101066610D03*
G04 #@! TO.N,/~CS_429_1*
X119223000Y-108922000D03*
G04 #@! TO.N,/~CS_429_2*
X126053000Y-120970000D03*
X123413000Y-121798000D03*
X134553000Y-119380000D03*
G04 #@! TO.N,/ethoscope_3x3/tmc429_0/stepper_driver_0/A_+*
X163869000Y-68423300D03*
G04 #@! TO.N,/ethoscope_3x3/tmc429_0/stepper_driver_0/B_-*
X162164000Y-68426600D03*
G04 #@! TO.N,/ethoscope_3x3/tmc429_0/stepper_driver_0/A_-*
X162801000Y-68425300D03*
G04 #@! TO.N,/ethoscope_3x3/tmc429_0/stepper_driver_2/A_+*
X164451000Y-81966300D03*
G04 #@! TO.N,/ethoscope_3x3/tmc429_0/stepper_driver_2/B_-*
X162178000Y-84913800D03*
G04 #@! TO.N,/ethoscope_3x3/tmc429_0/stepper_driver_2/A_-*
X161970000Y-84179900D03*
G04 #@! TO.N,/ethoscope_3x3/tmc429_1/stepper_driver_0/B_-*
X174847000Y-84936500D03*
G04 #@! TO.N,/ethoscope_3x3/tmc429_1/stepper_driver_0/B_+*
X172067000Y-86966300D03*
G04 #@! TO.N,/ethoscope_3x3/tmc429_1/stepper_driver_0/A_-*
X175510000Y-84907200D03*
G04 #@! TO.N,/ethoscope_3x3/tmc429_1/stepper_driver_1/A_+*
X163867000Y-101427000D03*
G04 #@! TO.N,/ethoscope_3x3/tmc429_1/stepper_driver_1/B_-*
X162178000Y-101424000D03*
G04 #@! TO.N,/ethoscope_3x3/tmc429_1/stepper_driver_1/A_-*
X162810000Y-101452000D03*
G04 #@! TO.N,/ethoscope_3x3/tmc429_1/stepper_driver_2/B_-*
X174847000Y-101408000D03*
G04 #@! TO.N,/ethoscope_3x3/tmc429_1/stepper_driver_2/A_-*
X175258000Y-100956000D03*
G04 #@! TO.N,/ethoscope_3x3/tmc_429_2/stepper_driver_0/A_+*
X186802000Y-101398000D03*
G04 #@! TO.N,/ethoscope_3x3/tmc_429_2/stepper_driver_0/B_-*
X185170000Y-101452000D03*
G04 #@! TO.N,/ethoscope_3x3/tmc_429_2/stepper_driver_0/B_+*
X183628000Y-103367000D03*
G04 #@! TO.N,/ethoscope_3x3/tmc_429_2/stepper_driver_0/A_-*
X185249000Y-100824610D03*
G04 #@! TO.N,/ethoscope_3x3/tmc429_0/DIR_1*
X153404000Y-93448700D03*
X175776000Y-94649800D03*
G04 #@! TO.N,/ethoscope_3x3/tmc429_0/STEP_0*
X125691000Y-99757000D03*
X128643000Y-90062000D03*
G04 #@! TO.N,/ethoscope_3x3/tmc429_0/DIR_0*
X127554000Y-98270000D03*
X129403000Y-92530900D03*
G04 #@! TO.N,/ethoscope_3x3/tmc429_0/STEP_1*
X177075000Y-97109100D03*
X179658000Y-90150000D03*
G04 #@! TO.N,/ethoscope_3x3/tmc429_0/STEP_2*
X141146000Y-98073700D03*
X157442000Y-92176000D03*
G04 #@! TO.N,/ethoscope_3x3/tmc429_1/DIR_1*
X124172000Y-102309000D03*
X128168000Y-108822000D03*
G04 #@! TO.N,/ethoscope_3x3/tmc429_1/STEP_0*
X148890000Y-110370000D03*
X166521000Y-94890000D03*
G04 #@! TO.N,/ethoscope_3x3/tmc429_1/DIR_0*
X149394000Y-108404000D03*
X172955000Y-93074700D03*
G04 #@! TO.N,/ethoscope_3x3/tmc429_1/DIR_2*
X145828000Y-104938000D03*
X164310000Y-109054000D03*
G04 #@! TO.N,/ethoscope_3x3/tmc_429_2/STEP_0*
X128296000Y-122989000D03*
X181304000Y-107070000D03*
G04 #@! TO.N,/ethoscope_3x3/tmc_429_2/DIR_0*
X170236000Y-118641000D03*
X183016000Y-108010000D03*
G04 #@! TO.N,/~SLEEP*
X166004000Y-70655900D03*
X166680000Y-104712000D03*
X158535000Y-113030000D03*
X179443000Y-88234000D03*
X166644000Y-88145500D03*
X188122000Y-87047800D03*
X179221000Y-104670000D03*
G04 #@! TD*
D21*
G04 #@! TO.N,+3V3*
X184678000Y-98590500D02*
X188642000Y-94627400D01*
X188642000Y-94627400D02*
X188642000Y-86881800D01*
X188642000Y-86881800D02*
X188324000Y-86564800D01*
X188324000Y-86564800D02*
X187676000Y-86564800D01*
X187676000Y-86564800D02*
X187194000Y-87046400D01*
X183398000Y-98590500D02*
X184678000Y-98590500D01*
X125281000Y-101812000D02*
X121664000Y-101812000D01*
X121664000Y-101812000D02*
X121145000Y-102331000D01*
X128214000Y-105193000D02*
X125281000Y-102261000D01*
X125281000Y-102261000D02*
X125281000Y-101812000D01*
X166766000Y-104069000D02*
X168153000Y-105457000D01*
X168153000Y-105457000D02*
X170461000Y-105457000D01*
X132080000Y-119380000D02*
X130556000Y-119380000D01*
X130556000Y-119380000D02*
X130556000Y-107536000D01*
X130556000Y-107536000D02*
X128214000Y-105193000D01*
X166766000Y-104069000D02*
X166766000Y-103954000D01*
X166766000Y-103954000D02*
X166707000Y-103896000D01*
X166707000Y-103896000D02*
X159840000Y-103896000D01*
X159840000Y-103896000D02*
X158575000Y-105160000D01*
X166707000Y-103896000D02*
X166707000Y-103779000D01*
X166707000Y-103779000D02*
X168576000Y-101910000D01*
X168576000Y-101910000D02*
X169826000Y-101910000D01*
X169826000Y-101910000D02*
X174193000Y-97542800D01*
X173058000Y-83752000D02*
X173058000Y-84533800D01*
X188857000Y-103514000D02*
X189438000Y-104095000D01*
X189438000Y-104095000D02*
X189438000Y-105035000D01*
X184678000Y-98590500D02*
X188857000Y-102769000D01*
X188857000Y-102769000D02*
X188857000Y-103514000D01*
X165963000Y-70043100D02*
X165963000Y-70135300D01*
X165963000Y-70135300D02*
X166166000Y-70135300D01*
X166166000Y-70135300D02*
X168421000Y-72390000D01*
X168421000Y-72390000D02*
X169146000Y-72390000D01*
X169146000Y-72390000D02*
X173058000Y-76301100D01*
X173058000Y-76301100D02*
X173058000Y-83752000D01*
X165963000Y-70135300D02*
X160774000Y-70135300D01*
X160774000Y-70135300D02*
X158597000Y-72312300D01*
X173058000Y-83752000D02*
X176351000Y-83752000D01*
X176351000Y-83752000D02*
X179645000Y-87046400D01*
X179645000Y-87046400D02*
X187194000Y-87046400D01*
X179645000Y-87046400D02*
X179645000Y-87376500D01*
X125476000Y-100584000D02*
X125281000Y-100779000D01*
X126425700Y-100584000D02*
X125476000Y-100584000D01*
X129367000Y-97642700D02*
X126425700Y-100584000D01*
X125281000Y-100779000D02*
X125281000Y-101812000D01*
X129367000Y-96270000D02*
X129367000Y-97642700D01*
G04 #@! TO.N,GND*
X175810000Y-99580000D02*
X176410000Y-98980300D01*
X176410000Y-98980300D02*
X176410000Y-88900000D01*
X175260000Y-105410000D02*
X175260000Y-103931000D01*
X175260000Y-103931000D02*
X175810000Y-103381000D01*
X175810000Y-103381000D02*
X175810000Y-99580000D01*
X185420000Y-88900000D02*
X176410000Y-88900000D01*
X147320000Y-124460000D02*
X148844000Y-124460000D01*
X148844000Y-124460000D02*
X148844000Y-122003000D01*
X148844000Y-122003000D02*
X158397000Y-112450000D01*
X158397000Y-112450000D02*
X158830000Y-112450000D01*
X162560000Y-105410000D02*
X162560000Y-106889000D01*
X162560000Y-106889000D02*
X162870000Y-106889000D01*
X162870000Y-106889000D02*
X164799000Y-108818000D01*
X164799000Y-108818000D02*
X164799000Y-109308000D01*
X164799000Y-109308000D02*
X161657000Y-112450000D01*
X161657000Y-112450000D02*
X158830000Y-112450000D01*
X175260000Y-105410000D02*
X175260000Y-106889000D01*
X175260000Y-106889000D02*
X172894000Y-109255000D01*
X172894000Y-109255000D02*
X172894000Y-109788000D01*
X175260000Y-88900000D02*
X176410000Y-88900000D01*
X162560000Y-88900000D02*
X162560000Y-87421000D01*
X162560000Y-87421000D02*
X162923000Y-87058000D01*
X162923000Y-87058000D02*
X162923000Y-82685000D01*
G04 #@! TO.N,VAA*
X162737000Y-93047100D02*
X162733000Y-93047100D01*
X162733000Y-93047100D02*
X161843000Y-93937200D01*
X163195000Y-81922400D02*
X164014000Y-82741400D01*
X164014000Y-82741400D02*
X164014000Y-91770000D01*
X164014000Y-91770000D02*
X162737000Y-93047100D01*
X169152000Y-92622700D02*
X164867000Y-92622700D01*
X164867000Y-92622700D02*
X164014000Y-91770000D01*
D22*
X179622000Y-105737000D02*
X179118000Y-105737000D01*
X179118000Y-105737000D02*
X175476000Y-109379000D01*
X175476000Y-109379000D02*
X175476000Y-109676000D01*
X175476000Y-109676000D02*
X174662000Y-110490000D01*
X179622000Y-105737000D02*
X179959000Y-105399000D01*
X179959000Y-105399000D02*
X179959000Y-100691000D01*
X179959000Y-100691000D02*
X183461000Y-97188300D01*
D23*
G04 #@! TO.N,/MOSI*
X147320000Y-93980000D02*
X145821000Y-93980000D01*
X145821000Y-93980000D02*
X145170000Y-94631900D01*
X145170000Y-94631900D02*
X145170000Y-111099000D01*
X145170000Y-111099000D02*
X133383000Y-122886000D01*
X133383000Y-122886000D02*
X128840000Y-122886000D01*
X128840000Y-122886000D02*
X128486000Y-122531000D01*
X128486000Y-122531000D02*
X123499000Y-122531000D01*
X123499000Y-122531000D02*
X122197000Y-121230000D01*
X121977000Y-111048000D02*
X121286000Y-111739000D01*
X121286000Y-111739000D02*
X121286000Y-120319000D01*
X121286000Y-120319000D02*
X122197000Y-121230000D01*
X121977000Y-111048000D02*
X120666000Y-109738000D01*
X120666000Y-109738000D02*
X120666000Y-102010000D01*
X120666000Y-102010000D02*
X121776000Y-100900000D01*
G04 #@! TO.N,/MISO*
X135059000Y-112790000D02*
X134431000Y-112790000D01*
X133762000Y-121860000D02*
X135059000Y-120563000D01*
X135059000Y-120563000D02*
X135059000Y-112790000D01*
X147320000Y-91440000D02*
X145821000Y-91440000D01*
X145821000Y-91440000D02*
X135059000Y-102202000D01*
X135059000Y-102202000D02*
X135059000Y-102804000D01*
X135059000Y-112790000D02*
X135059000Y-102804000D01*
G04 #@! TO.N,/SCK*
X121735000Y-100226000D02*
X120720000Y-99210600D01*
X120720000Y-99210600D02*
X120720000Y-99199700D01*
X132080000Y-91440000D02*
X130581000Y-91440000D01*
X130581000Y-91440000D02*
X130581000Y-92938600D01*
X130581000Y-92938600D02*
X128632000Y-94888100D01*
X128632000Y-94888100D02*
X128632000Y-97839400D01*
X128632000Y-97839400D02*
X126246000Y-100226000D01*
X126246000Y-100226000D02*
X121735000Y-100226000D01*
X120022000Y-108913000D02*
X120022000Y-118758000D01*
X120022000Y-118758000D02*
X119696000Y-119084000D01*
X121735000Y-100226000D02*
X120022000Y-101939000D01*
X120022000Y-101939000D02*
X120022000Y-108913000D01*
D21*
G04 #@! TO.N,/ethoscope_3x3/tmc429_0/stepper_driver_0/VINT*
X164303000Y-74655000D02*
X164303000Y-71300900D01*
X164303000Y-71300900D02*
X163938000Y-70936000D01*
X163938000Y-70936000D02*
X161176000Y-70936000D01*
X161176000Y-70936000D02*
X161106000Y-71005800D01*
X161106000Y-71005800D02*
X161106000Y-75628100D01*
X161106000Y-75628100D02*
X161844000Y-76365700D01*
G04 #@! TO.N,/ethoscope_3x3/tmc429_0/stepper_driver_1/VINT*
X185718000Y-92937300D02*
X184788000Y-92937300D01*
X184788000Y-92937300D02*
X184725000Y-92874000D01*
G04 #@! TO.N,/ethoscope_3x3/tmc429_1/stepper_driver_0/VINT*
X175592000Y-93803700D02*
X174672000Y-92884400D01*
G04 #@! TO.N,/ethoscope_3x3/tmc429_1/stepper_driver_1/VINT*
X162862000Y-109646000D02*
X161976000Y-109646000D01*
X161976000Y-109646000D02*
X161883000Y-109553000D01*
G04 #@! TO.N,/ethoscope_3x3/tmc_429_2/stepper_driver_0/VINT*
X185140000Y-109977000D02*
X184424000Y-109260000D01*
X184424000Y-109260000D02*
X183790000Y-109260000D01*
D23*
G04 #@! TO.N,/ethoscope_3x3/CLK*
X118650000Y-96648500D02*
X118650000Y-106965000D01*
X118650000Y-106965000D02*
X118652000Y-106967000D01*
X124478000Y-90628700D02*
X118650000Y-96457500D01*
X118650000Y-96457500D02*
X118650000Y-96648500D01*
X118652000Y-106967000D02*
X118652000Y-116505000D01*
X118652000Y-116505000D02*
X118584000Y-116573000D01*
G04 #@! TO.N,/~CS_429_0*
X127025390Y-101066610D02*
X126413210Y-101066610D01*
X131572000Y-96520000D02*
X127025390Y-101066610D01*
X126413210Y-101066610D02*
X126054000Y-101066610D01*
X132080000Y-96520000D02*
X131572000Y-96520000D01*
G04 #@! TO.N,/~CS_429_1*
X132080000Y-66040000D02*
X130581000Y-66040000D01*
X130581000Y-66040000D02*
X130581000Y-85184000D01*
X130581000Y-85184000D02*
X119223000Y-96542200D01*
X119223000Y-96542200D02*
X119223000Y-108922000D01*
G04 #@! TO.N,/~CS_429_2*
X134287000Y-119114000D02*
X134553000Y-119380000D01*
X126053000Y-120970000D02*
X126673000Y-120350000D01*
X126673000Y-120350000D02*
X133050000Y-120350000D01*
X133050000Y-120350000D02*
X134287000Y-119114000D01*
X132080000Y-73660000D02*
X133579000Y-73660000D01*
X133579000Y-73660000D02*
X133579000Y-118406000D01*
X133579000Y-118406000D02*
X134287000Y-119114000D01*
X126053000Y-120970000D02*
X124241000Y-120970000D01*
X124241000Y-120970000D02*
X123413000Y-121798000D01*
D21*
G04 #@! TO.N,/ethoscope_3x3/tmc429_0/stepper_driver_0/A_+*
X156210000Y-67140000D02*
X162586000Y-67140000D01*
X162586000Y-67140000D02*
X163869000Y-68423300D01*
G04 #@! TO.N,/ethoscope_3x3/tmc429_0/stepper_driver_0/B_-*
X162164000Y-68426600D02*
X161800000Y-68426600D01*
X161800000Y-68426600D02*
X157609000Y-72617700D01*
X157609000Y-72617700D02*
X157609000Y-76241000D01*
X157609000Y-76241000D02*
X156210000Y-77640000D01*
G04 #@! TO.N,/ethoscope_3x3/tmc429_0/stepper_driver_0/A_-*
X156210000Y-70640000D02*
X158940000Y-67910400D01*
X158940000Y-67910400D02*
X162332000Y-67910400D01*
X162332000Y-67910400D02*
X162801000Y-68379300D01*
X162801000Y-68379300D02*
X162801000Y-68425300D01*
G04 #@! TO.N,/ethoscope_3x3/tmc429_0/stepper_driver_2/A_+*
X164451000Y-81966300D02*
X163921000Y-81437000D01*
X163921000Y-81437000D02*
X158423000Y-81437000D01*
X158423000Y-81437000D02*
X156210000Y-83650000D01*
G04 #@! TO.N,/ethoscope_3x3/tmc429_0/stepper_driver_2/B_-*
X156210000Y-94150000D02*
X158575000Y-91784800D01*
X158575000Y-91784800D02*
X158575000Y-88516400D01*
X158575000Y-88516400D02*
X162178000Y-84913800D01*
G04 #@! TO.N,/ethoscope_3x3/tmc429_0/stepper_driver_2/A_-*
X161970000Y-84179900D02*
X159180000Y-84179900D01*
X159180000Y-84179900D02*
X156210000Y-87150000D01*
G04 #@! TO.N,/ethoscope_3x3/tmc429_1/stepper_driver_0/B_-*
X168910000Y-94150000D02*
X170588000Y-92472100D01*
X170588000Y-92472100D02*
X170588000Y-90685300D01*
X170588000Y-90685300D02*
X174847000Y-86426200D01*
X174847000Y-86426200D02*
X174847000Y-84936500D01*
G04 #@! TO.N,/ethoscope_3x3/tmc429_1/stepper_driver_0/B_+*
X172067000Y-86966300D02*
X172067000Y-87492700D01*
X172067000Y-87492700D02*
X168910000Y-90650000D01*
G04 #@! TO.N,/ethoscope_3x3/tmc429_1/stepper_driver_0/A_-*
X168910000Y-87150000D02*
X169577000Y-86483400D01*
X169577000Y-86483400D02*
X172305000Y-86483400D01*
X172305000Y-86483400D02*
X174335000Y-84453600D01*
X174335000Y-84453600D02*
X175056000Y-84453600D01*
X175056000Y-84453600D02*
X175510000Y-84907200D01*
G04 #@! TO.N,/ethoscope_3x3/tmc429_1/stepper_driver_1/A_+*
X163867000Y-101427000D02*
X162600000Y-100160000D01*
X162600000Y-100160000D02*
X156210000Y-100160000D01*
G04 #@! TO.N,/ethoscope_3x3/tmc429_1/stepper_driver_1/B_-*
X156210000Y-110660000D02*
X158078000Y-108792000D01*
X158078000Y-108792000D02*
X158078000Y-104921000D01*
X158078000Y-104921000D02*
X161575000Y-101424000D01*
X161575000Y-101424000D02*
X162178000Y-101424000D01*
G04 #@! TO.N,/ethoscope_3x3/tmc429_1/stepper_driver_1/A_-*
X156210000Y-103660000D02*
X158974000Y-100896000D01*
X158974000Y-100896000D02*
X162342000Y-100896000D01*
X162342000Y-100896000D02*
X162810000Y-101364000D01*
X162810000Y-101364000D02*
X162810000Y-101452000D01*
G04 #@! TO.N,/ethoscope_3x3/tmc429_1/stepper_driver_2/B_-*
X168910000Y-110660000D02*
X171011000Y-108559000D01*
X171011000Y-108559000D02*
X171011000Y-105244000D01*
X171011000Y-105244000D02*
X174847000Y-101408000D01*
G04 #@! TO.N,/ethoscope_3x3/tmc429_1/stepper_driver_2/A_-*
X168910000Y-103660000D02*
X171681000Y-100889000D01*
X171681000Y-100889000D02*
X175191000Y-100889000D01*
X175191000Y-100889000D02*
X175258000Y-100956000D01*
G04 #@! TO.N,/ethoscope_3x3/tmc_429_2/stepper_driver_0/A_+*
X185480000Y-100076000D02*
X184785000Y-100076000D01*
X172529000Y-113513000D02*
X159367000Y-113513000D01*
X159367000Y-113513000D02*
X156210000Y-116670000D01*
X184785000Y-100076000D02*
X181170000Y-103691000D01*
X186802000Y-101398000D02*
X185480000Y-100076000D01*
X181170000Y-103691000D02*
X181170000Y-104872000D01*
X181170000Y-104872000D02*
X172529000Y-113513000D01*
G04 #@! TO.N,/ethoscope_3x3/tmc_429_2/stepper_driver_0/B_-*
X156210000Y-127170000D02*
X166146000Y-117234000D01*
X166146000Y-117234000D02*
X170444000Y-117234000D01*
X170444000Y-117234000D02*
X185170000Y-102508000D01*
X185170000Y-102508000D02*
X185170000Y-101452000D01*
G04 #@! TO.N,/ethoscope_3x3/tmc_429_2/stepper_driver_0/B_+*
X156210000Y-123670000D02*
X163032000Y-116848000D01*
X163032000Y-116848000D02*
X170201000Y-116848000D01*
X170201000Y-116848000D02*
X183628000Y-103421000D01*
X183628000Y-103421000D02*
X183628000Y-103367000D01*
G04 #@! TO.N,/ethoscope_3x3/tmc_429_2/stepper_driver_0/A_-*
X172676000Y-113869000D02*
X182251000Y-104294000D01*
X182251000Y-104294000D02*
X182251000Y-103463400D01*
X156210000Y-120170000D02*
X162511000Y-113869000D01*
X184889790Y-100824610D02*
X185249000Y-100824610D01*
X162511000Y-113869000D02*
X172676000Y-113869000D01*
X182251000Y-103463400D02*
X184889790Y-100824610D01*
D23*
G04 #@! TO.N,/ethoscope_3x3/tmc429_0/DIR_1*
X175776000Y-94649800D02*
X173703000Y-92576400D01*
X173703000Y-92576400D02*
X172676000Y-92576400D01*
X172676000Y-92576400D02*
X169718000Y-95534100D01*
X169718000Y-95534100D02*
X167848000Y-95534100D01*
X167848000Y-95534100D02*
X166722000Y-94407900D01*
X166722000Y-94407900D02*
X158761000Y-94407900D01*
X158761000Y-94407900D02*
X157639000Y-95529100D01*
X157639000Y-95529100D02*
X155484000Y-95529100D01*
X155484000Y-95529100D02*
X153404000Y-93448700D01*
G04 #@! TO.N,/ethoscope_3x3/tmc429_0/STEP_0*
X128643000Y-90062000D02*
X125691000Y-93014300D01*
X125691000Y-93014300D02*
X125691000Y-99757000D01*
G04 #@! TO.N,/ethoscope_3x3/tmc429_0/DIR_0*
X129403000Y-92530900D02*
X127554000Y-94379400D01*
X127554000Y-94379400D02*
X127554000Y-98270000D01*
G04 #@! TO.N,/ethoscope_3x3/tmc429_0/STEP_1*
X177075000Y-97109100D02*
X177075000Y-92732800D01*
X177075000Y-92732800D02*
X179658000Y-90150000D01*
G04 #@! TO.N,/ethoscope_3x3/tmc429_0/STEP_2*
X157442000Y-92176000D02*
X156908000Y-92710000D01*
X156908000Y-92710000D02*
X146510000Y-92710000D01*
X146510000Y-92710000D02*
X141146000Y-98073700D01*
G04 #@! TO.N,/ethoscope_3x3/tmc429_1/DIR_1*
X124172000Y-102309000D02*
X128168000Y-106305000D01*
X128168000Y-106305000D02*
X128168000Y-108822000D01*
G04 #@! TO.N,/ethoscope_3x3/tmc429_1/STEP_0*
X166521000Y-94890000D02*
X159079000Y-94890000D01*
X159079000Y-94890000D02*
X148890000Y-105079000D01*
X148890000Y-105079000D02*
X148890000Y-110370000D01*
G04 #@! TO.N,/ethoscope_3x3/tmc429_1/DIR_0*
X149394000Y-108404000D02*
X149394000Y-105033000D01*
X149394000Y-105033000D02*
X157496000Y-96931000D01*
X157496000Y-96931000D02*
X169098000Y-96931000D01*
X169098000Y-96931000D02*
X172955000Y-93074700D01*
G04 #@! TO.N,/ethoscope_3x3/tmc429_1/DIR_2*
X145828000Y-104938000D02*
X145828000Y-109651000D01*
X145828000Y-109651000D02*
X146559000Y-110382000D01*
X146559000Y-110382000D02*
X148238000Y-110382000D01*
X148238000Y-110382000D02*
X149912000Y-112056000D01*
X149912000Y-112056000D02*
X156835000Y-112056000D01*
X156835000Y-112056000D02*
X159837000Y-109054000D01*
X159837000Y-109054000D02*
X164310000Y-109054000D01*
G04 #@! TO.N,/ethoscope_3x3/tmc_429_2/STEP_0*
X128296000Y-122989000D02*
X133878000Y-128570000D01*
X133878000Y-128570000D02*
X156760000Y-128570000D01*
X156760000Y-128570000D02*
X167407000Y-117924000D01*
X167407000Y-117924000D02*
X170451000Y-117924000D01*
X170451000Y-117924000D02*
X181304000Y-107070000D01*
G04 #@! TO.N,/ethoscope_3x3/tmc_429_2/DIR_0*
X170236000Y-118641000D02*
X172386000Y-118641000D01*
X172386000Y-118641000D02*
X183016000Y-108010000D01*
G04 #@! TO.N,/~SLEEP*
X186883000Y-87621900D02*
X187548000Y-87621900D01*
X187548000Y-87621900D02*
X188122000Y-87047800D01*
X179443000Y-88234000D02*
X180216000Y-87460200D01*
X180216000Y-87460200D02*
X186721000Y-87460200D01*
X186721000Y-87460200D02*
X186883000Y-87621900D01*
X166680000Y-112051000D02*
X171840000Y-112051000D01*
X171840000Y-112051000D02*
X179221000Y-104670000D01*
X158535000Y-113030000D02*
X165700000Y-113030000D01*
X165700000Y-113030000D02*
X166680000Y-112051000D01*
X166644000Y-85025500D02*
X173296000Y-85025500D01*
X173296000Y-85025500D02*
X174223000Y-84098600D01*
X174223000Y-84098600D02*
X175352000Y-84098600D01*
X175352000Y-84098600D02*
X179443000Y-88188700D01*
X179443000Y-88188700D02*
X179443000Y-88234000D01*
X166004000Y-70655900D02*
X166644000Y-71295600D01*
X166644000Y-71295600D02*
X166644000Y-85025500D01*
X166644000Y-85025500D02*
X166644000Y-88145500D01*
X166680000Y-112051000D02*
X166680000Y-104712000D01*
X186883000Y-87621900D02*
X186883000Y-92482100D01*
X186883000Y-92482100D02*
X179221000Y-100144000D01*
X179221000Y-100144000D02*
X179221000Y-104670000D01*
G04 #@! TD*
D21*
G04 #@! TO.N,GND*
G36*
X184438614Y-64653565D02*
X185339475Y-64869843D01*
X186195412Y-65224384D01*
X186985358Y-65708463D01*
X187689850Y-66310156D01*
X188291535Y-67014639D01*
X188775615Y-67804583D01*
X189130158Y-68660526D01*
X189346436Y-69561392D01*
X189420501Y-70502480D01*
X189420500Y-103347822D01*
X189352261Y-103183077D01*
X189314200Y-103145016D01*
X189314200Y-102814016D01*
X189323157Y-102768972D01*
X189305769Y-102681583D01*
X189287673Y-102590609D01*
X189287665Y-102590597D01*
X189287662Y-102590583D01*
X189236023Y-102513310D01*
X189186623Y-102439377D01*
X189148435Y-102413861D01*
X185324633Y-98590518D01*
X188933427Y-94982545D01*
X188971623Y-94957023D01*
X189023553Y-94879304D01*
X189072652Y-94805840D01*
X189072657Y-94805815D01*
X189072673Y-94805791D01*
X189090795Y-94714684D01*
X189108157Y-94627454D01*
X189099200Y-94582397D01*
X189099200Y-86926463D01*
X189108156Y-86881065D01*
X189090354Y-86792300D01*
X189072673Y-86703409D01*
X189072464Y-86703097D01*
X189072391Y-86702731D01*
X189022112Y-86627739D01*
X188971623Y-86552177D01*
X188933144Y-86526466D01*
X188678932Y-86273054D01*
X188653623Y-86235177D01*
X188615141Y-86209464D01*
X188614888Y-86209212D01*
X188578359Y-86184887D01*
X188502391Y-86134127D01*
X188502021Y-86134053D01*
X188501711Y-86133847D01*
X188413171Y-86116380D01*
X188369030Y-86107600D01*
X188368664Y-86107600D01*
X188323266Y-86098644D01*
X188278609Y-86107600D01*
X187721125Y-86107600D01*
X187676193Y-86098643D01*
X187631065Y-86107600D01*
X187630970Y-86107600D01*
X187587028Y-86116340D01*
X187497788Y-86134053D01*
X187497706Y-86134108D01*
X187497609Y-86134127D01*
X187421564Y-86184938D01*
X187384699Y-86209549D01*
X187384632Y-86209616D01*
X187346377Y-86235177D01*
X187320922Y-86273273D01*
X187131839Y-86462200D01*
X187077795Y-86462200D01*
X186863077Y-86551139D01*
X186825016Y-86589200D01*
X179834394Y-86589200D01*
X176706142Y-83460568D01*
X176680623Y-83422377D01*
X176591460Y-83362800D01*
X176529416Y-83321338D01*
X176529404Y-83321336D01*
X176529391Y-83321327D01*
X176436921Y-83302934D01*
X176351028Y-83285843D01*
X176305984Y-83294800D01*
X173515200Y-83294800D01*
X173515200Y-76346102D01*
X173524157Y-76301046D01*
X173506795Y-76213816D01*
X173488673Y-76122709D01*
X173488657Y-76122685D01*
X173488652Y-76122660D01*
X173440438Y-76050520D01*
X173387623Y-75971477D01*
X173349426Y-75945955D01*
X171596221Y-74193153D01*
X177279800Y-74193153D01*
X177279800Y-75031847D01*
X177600754Y-75806699D01*
X178193801Y-76399746D01*
X178968653Y-76720700D01*
X179807347Y-76720700D01*
X180582199Y-76399746D01*
X181175246Y-75806699D01*
X181496200Y-75031847D01*
X181496200Y-74193153D01*
X181175246Y-73418301D01*
X180582199Y-72825254D01*
X179807347Y-72504300D01*
X178968653Y-72504300D01*
X178193801Y-72825254D01*
X177600754Y-73418301D01*
X177279800Y-74193153D01*
X171596221Y-74193153D01*
X169501119Y-72098534D01*
X169475623Y-72060377D01*
X169447111Y-72041326D01*
X169759795Y-71911808D01*
X170181808Y-71489795D01*
X170410200Y-70938408D01*
X170410200Y-70341592D01*
X170181808Y-69790205D01*
X169759795Y-69368192D01*
X169208408Y-69139800D01*
X168611592Y-69139800D01*
X168060205Y-69368192D01*
X167638192Y-69790205D01*
X167409800Y-70341592D01*
X167409800Y-70732400D01*
X166521125Y-69843844D01*
X166499219Y-69811059D01*
X166458261Y-69712177D01*
X166293923Y-69547839D01*
X166079205Y-69458900D01*
X165846795Y-69458900D01*
X165632077Y-69547839D01*
X165501816Y-69678100D01*
X161195100Y-69678100D01*
X161916689Y-68956494D01*
X162047795Y-69010800D01*
X162280205Y-69010800D01*
X162484069Y-68926357D01*
X162684795Y-69009500D01*
X162917205Y-69009500D01*
X163131923Y-68920561D01*
X163296261Y-68756223D01*
X163335414Y-68661699D01*
X163373739Y-68754223D01*
X163538077Y-68918561D01*
X163752795Y-69007500D01*
X163985205Y-69007500D01*
X164199923Y-68918561D01*
X164364261Y-68754223D01*
X164453200Y-68539505D01*
X164453200Y-68307095D01*
X164364261Y-68092377D01*
X164199923Y-67928039D01*
X163985205Y-67839100D01*
X163931439Y-67839100D01*
X162941148Y-66848578D01*
X162936481Y-66841592D01*
X167409800Y-66841592D01*
X167409800Y-67438408D01*
X167638192Y-67989795D01*
X168060205Y-68411808D01*
X168611592Y-68640200D01*
X169208408Y-68640200D01*
X169759795Y-68411808D01*
X170181808Y-67989795D01*
X170410200Y-67438408D01*
X170410200Y-66841592D01*
X170181808Y-66290205D01*
X169759795Y-65868192D01*
X169208408Y-65639800D01*
X168611592Y-65639800D01*
X168060205Y-65868192D01*
X167638192Y-66290205D01*
X167409800Y-66841592D01*
X162936481Y-66841592D01*
X162915623Y-66810377D01*
X162834051Y-66755873D01*
X162764440Y-66709348D01*
X162764415Y-66709343D01*
X162764391Y-66709327D01*
X162673284Y-66691205D01*
X162586054Y-66673843D01*
X162540997Y-66682800D01*
X157644426Y-66682800D01*
X157481808Y-66290205D01*
X157059795Y-65868192D01*
X156508408Y-65639800D01*
X155911592Y-65639800D01*
X155360205Y-65868192D01*
X154938192Y-66290205D01*
X154709800Y-66841592D01*
X154709800Y-67438408D01*
X154938192Y-67989795D01*
X155360205Y-68411808D01*
X155911592Y-68640200D01*
X156508408Y-68640200D01*
X157059795Y-68411808D01*
X157481808Y-67989795D01*
X157644426Y-67597200D01*
X158599404Y-67597200D01*
X158584879Y-67618938D01*
X156901109Y-69302462D01*
X156508408Y-69139800D01*
X155911592Y-69139800D01*
X155360205Y-69368192D01*
X154938192Y-69790205D01*
X154709800Y-70341592D01*
X154709800Y-70938408D01*
X154938192Y-71489795D01*
X155360205Y-71911808D01*
X155911592Y-72140200D01*
X156508408Y-72140200D01*
X157059795Y-71911808D01*
X157481808Y-71489795D01*
X157710200Y-70938408D01*
X157710200Y-70341592D01*
X157547625Y-69949101D01*
X159129359Y-68367600D01*
X161212428Y-68367600D01*
X157317556Y-72262567D01*
X157279377Y-72288077D01*
X157178327Y-72439310D01*
X157178326Y-72439313D01*
X157178325Y-72439315D01*
X157158210Y-72540444D01*
X157151801Y-72572670D01*
X157142843Y-72617705D01*
X157151800Y-72662732D01*
X157151800Y-72960197D01*
X157059795Y-72868192D01*
X156508408Y-72639800D01*
X155911592Y-72639800D01*
X155360205Y-72868192D01*
X154938192Y-73290205D01*
X154709800Y-73841592D01*
X154709800Y-74438408D01*
X154938192Y-74989795D01*
X155360205Y-75411808D01*
X155911592Y-75640200D01*
X156508408Y-75640200D01*
X157059795Y-75411808D01*
X157151801Y-75319802D01*
X157151801Y-76051620D01*
X156901003Y-76302418D01*
X156508408Y-76139800D01*
X155911592Y-76139800D01*
X155360205Y-76368192D01*
X154938192Y-76790205D01*
X154709800Y-77341592D01*
X154709800Y-77938408D01*
X154938192Y-78489795D01*
X155360205Y-78911808D01*
X155911592Y-79140200D01*
X156508408Y-79140200D01*
X157059795Y-78911808D01*
X157481808Y-78489795D01*
X157710200Y-77938408D01*
X157710200Y-77341592D01*
X157547582Y-76948997D01*
X157900449Y-76596130D01*
X157938623Y-76570623D01*
X158039673Y-76419391D01*
X158066200Y-76286030D01*
X158075157Y-76241000D01*
X158066200Y-76195970D01*
X158066200Y-72807074D01*
X158165894Y-72707378D01*
X158266077Y-72807561D01*
X158480795Y-72896500D01*
X158713205Y-72896500D01*
X158927923Y-72807561D01*
X159092261Y-72643223D01*
X159181200Y-72428505D01*
X159181200Y-72374678D01*
X160662132Y-70893747D01*
X160657594Y-70916559D01*
X160639844Y-71005134D01*
X160648800Y-71050499D01*
X160648801Y-75583128D01*
X160639843Y-75628226D01*
X160658015Y-75719452D01*
X160675328Y-75806491D01*
X160675363Y-75806544D01*
X160675376Y-75806607D01*
X160725961Y-75882269D01*
X160776378Y-75957723D01*
X160814605Y-75983265D01*
X161259800Y-76428220D01*
X161259800Y-76481905D01*
X161348739Y-76696623D01*
X161513077Y-76860961D01*
X161727795Y-76949900D01*
X161960205Y-76949900D01*
X162174923Y-76860961D01*
X162339261Y-76696623D01*
X162428200Y-76481905D01*
X162428200Y-76249495D01*
X162339261Y-76034777D01*
X162174923Y-75870439D01*
X161960205Y-75781500D01*
X161906237Y-75781500D01*
X161563200Y-75438650D01*
X161563200Y-74250000D01*
X162274250Y-74250000D01*
X162433000Y-74091250D01*
X162433000Y-72517000D01*
X162413000Y-72517000D01*
X162413000Y-72263000D01*
X162433000Y-72263000D01*
X162433000Y-72243000D01*
X162687000Y-72243000D01*
X162687000Y-72263000D01*
X162707000Y-72263000D01*
X162707000Y-72517000D01*
X162687000Y-72517000D01*
X162687000Y-74091250D01*
X162845750Y-74250000D01*
X163845800Y-74250000D01*
X163845800Y-74286016D01*
X163807739Y-74324077D01*
X163718800Y-74538795D01*
X163718800Y-74771205D01*
X163807739Y-74985923D01*
X163972077Y-75150261D01*
X164186795Y-75239200D01*
X164419205Y-75239200D01*
X164633923Y-75150261D01*
X164798261Y-74985923D01*
X164887200Y-74771205D01*
X164887200Y-74538795D01*
X164798261Y-74324077D01*
X164760200Y-74286016D01*
X164760200Y-71345897D01*
X164769157Y-71300835D01*
X164751611Y-71212689D01*
X164733673Y-71122509D01*
X164733654Y-71122481D01*
X164733648Y-71122450D01*
X164683511Y-71047436D01*
X164632623Y-70971277D01*
X164594423Y-70945752D01*
X164293115Y-70644528D01*
X164267623Y-70606377D01*
X164246855Y-70592500D01*
X165419800Y-70592500D01*
X165419800Y-70772105D01*
X165508739Y-70986823D01*
X165673077Y-71151161D01*
X165887795Y-71240100D01*
X165977674Y-71240100D01*
X166212200Y-71474516D01*
X166212201Y-84982969D01*
X166203741Y-85025500D01*
X166212200Y-85068026D01*
X166212201Y-87751115D01*
X166148739Y-87814577D01*
X166059800Y-88029295D01*
X166059800Y-88261705D01*
X166148739Y-88476423D01*
X166313077Y-88640761D01*
X166527795Y-88729700D01*
X166760205Y-88729700D01*
X166974923Y-88640761D01*
X167139261Y-88476423D01*
X167228200Y-88261705D01*
X167228200Y-88029295D01*
X167139261Y-87814577D01*
X167075800Y-87751116D01*
X167075800Y-85457300D01*
X172684592Y-85457300D01*
X172115636Y-86026200D01*
X169907803Y-86026200D01*
X169759795Y-85878192D01*
X169208408Y-85649800D01*
X168611592Y-85649800D01*
X168060205Y-85878192D01*
X167638192Y-86300205D01*
X167409800Y-86851592D01*
X167409800Y-87448408D01*
X167638192Y-87999795D01*
X168060205Y-88421808D01*
X168611592Y-88650200D01*
X169208408Y-88650200D01*
X169759795Y-88421808D01*
X170181808Y-87999795D01*
X170410200Y-87448408D01*
X170410200Y-86940600D01*
X171482800Y-86940600D01*
X171482800Y-87082505D01*
X171571739Y-87297223D01*
X171593826Y-87319310D01*
X169600935Y-89312390D01*
X169208408Y-89149800D01*
X168611592Y-89149800D01*
X168060205Y-89378192D01*
X167638192Y-89800205D01*
X167409800Y-90351592D01*
X167409800Y-90948408D01*
X167638192Y-91499795D01*
X168060205Y-91921808D01*
X168611592Y-92150200D01*
X168798316Y-92150200D01*
X168783016Y-92165500D01*
X165056331Y-92165500D01*
X164471200Y-91580576D01*
X164471200Y-82786430D01*
X164480157Y-82741400D01*
X164444673Y-82563009D01*
X164436315Y-82550500D01*
X164567205Y-82550500D01*
X164781923Y-82461561D01*
X164946261Y-82297223D01*
X165035200Y-82082505D01*
X165035200Y-81850095D01*
X164946261Y-81635377D01*
X164781923Y-81471039D01*
X164567205Y-81382100D01*
X164513033Y-81382100D01*
X164276049Y-81145429D01*
X164250623Y-81107377D01*
X164212317Y-81081782D01*
X164212213Y-81081678D01*
X164176121Y-81057596D01*
X164099391Y-81006327D01*
X164099235Y-81006296D01*
X164099105Y-81006209D01*
X164009990Y-80988544D01*
X163966030Y-80979800D01*
X163965878Y-80979800D01*
X163920692Y-80970843D01*
X163875817Y-80979800D01*
X158468030Y-80979800D01*
X158423000Y-80970843D01*
X158377970Y-80979800D01*
X158244609Y-81006327D01*
X158093377Y-81107377D01*
X158067868Y-81145554D01*
X156901004Y-82312418D01*
X156508408Y-82149800D01*
X155911592Y-82149800D01*
X155360205Y-82378192D01*
X154938192Y-82800205D01*
X154709800Y-83351592D01*
X154709800Y-83948408D01*
X154938192Y-84499795D01*
X155360205Y-84921808D01*
X155911592Y-85150200D01*
X156508408Y-85150200D01*
X157059795Y-84921808D01*
X157481808Y-84499795D01*
X157710200Y-83948408D01*
X157710200Y-83351592D01*
X157547582Y-82958996D01*
X158612378Y-81894200D01*
X162610800Y-81894200D01*
X162610800Y-82038605D01*
X162699739Y-82253323D01*
X162864077Y-82417661D01*
X163078795Y-82506600D01*
X163132622Y-82506600D01*
X163556800Y-82930779D01*
X163556800Y-87040000D01*
X162845750Y-87040000D01*
X162687000Y-87198750D01*
X162687000Y-88773000D01*
X162707000Y-88773000D01*
X162707000Y-89027000D01*
X162687000Y-89027000D01*
X162687000Y-90601250D01*
X162845750Y-90760000D01*
X163556801Y-90760000D01*
X163556801Y-91580631D01*
X162674602Y-92462900D01*
X162620795Y-92462900D01*
X162406077Y-92551839D01*
X162241739Y-92716177D01*
X162152800Y-92930895D01*
X162152800Y-92980751D01*
X161780593Y-93353000D01*
X161726795Y-93353000D01*
X161512077Y-93441939D01*
X161347739Y-93606277D01*
X161258800Y-93820995D01*
X161258800Y-93976100D01*
X158803599Y-93976100D01*
X158761156Y-93967642D01*
X158718555Y-93976100D01*
X158718474Y-93976100D01*
X158675731Y-93984602D01*
X158592665Y-94001094D01*
X158592599Y-94001138D01*
X158592520Y-94001154D01*
X158521277Y-94048757D01*
X158485861Y-94072403D01*
X158485806Y-94072458D01*
X158449690Y-94096590D01*
X158425644Y-94132577D01*
X157460234Y-95097300D01*
X157384303Y-95097300D01*
X157481808Y-94999795D01*
X157710200Y-94448408D01*
X157710200Y-93851592D01*
X157547556Y-93458936D01*
X158866456Y-92139925D01*
X158904623Y-92114423D01*
X158930136Y-92076240D01*
X158930142Y-92076234D01*
X158953394Y-92041432D01*
X159005673Y-91963191D01*
X159005675Y-91963180D01*
X159005680Y-91963173D01*
X159020526Y-91888519D01*
X159032200Y-91829830D01*
X159032200Y-91829816D01*
X159041156Y-91784781D01*
X159032200Y-91739765D01*
X159032200Y-89185750D01*
X160700000Y-89185750D01*
X160700000Y-90251309D01*
X160796673Y-90484698D01*
X160975301Y-90663327D01*
X161208690Y-90760000D01*
X162274250Y-90760000D01*
X162433000Y-90601250D01*
X162433000Y-89027000D01*
X160858750Y-89027000D01*
X160700000Y-89185750D01*
X159032200Y-89185750D01*
X159032200Y-88705792D01*
X160189429Y-87548691D01*
X160700000Y-87548691D01*
X160700000Y-88614250D01*
X160858750Y-88773000D01*
X162433000Y-88773000D01*
X162433000Y-87198750D01*
X162274250Y-87040000D01*
X161208690Y-87040000D01*
X160975301Y-87136673D01*
X160796673Y-87315302D01*
X160700000Y-87548691D01*
X160189429Y-87548691D01*
X162240349Y-85498000D01*
X162294205Y-85498000D01*
X162508923Y-85409061D01*
X162673261Y-85244723D01*
X162762200Y-85030005D01*
X162762200Y-84797595D01*
X162673261Y-84582877D01*
X162508923Y-84418539D01*
X162504282Y-84416617D01*
X162554200Y-84296105D01*
X162554200Y-84063695D01*
X162465261Y-83848977D01*
X162300923Y-83684639D01*
X162086205Y-83595700D01*
X161853795Y-83595700D01*
X161639077Y-83684639D01*
X161601016Y-83722700D01*
X159225026Y-83722700D01*
X159179992Y-83713743D01*
X159090488Y-83731548D01*
X159001609Y-83749227D01*
X159001606Y-83749229D01*
X159001602Y-83749230D01*
X158944618Y-83787307D01*
X158850377Y-83850277D01*
X158824867Y-83888455D01*
X156900979Y-85812408D01*
X156508408Y-85649800D01*
X155911592Y-85649800D01*
X155360205Y-85878192D01*
X154938192Y-86300205D01*
X154709800Y-86851592D01*
X154709800Y-87448408D01*
X154938192Y-87999795D01*
X155360205Y-88421808D01*
X155911592Y-88650200D01*
X156508408Y-88650200D01*
X157059795Y-88421808D01*
X157481808Y-87999795D01*
X157710200Y-87448408D01*
X157710200Y-86851592D01*
X157547572Y-86458973D01*
X159369384Y-84637100D01*
X161601016Y-84637100D01*
X161639077Y-84675161D01*
X161643718Y-84677083D01*
X161593800Y-84797595D01*
X161593800Y-84851393D01*
X158283564Y-88161262D01*
X158245378Y-88186777D01*
X158195549Y-88261351D01*
X158144337Y-88337986D01*
X158144334Y-88338000D01*
X158144328Y-88338009D01*
X158129272Y-88413703D01*
X158108843Y-88516375D01*
X158117801Y-88561423D01*
X158117800Y-91595433D01*
X157902718Y-91810534D01*
X157772923Y-91680739D01*
X157558205Y-91591800D01*
X157389803Y-91591800D01*
X157481808Y-91499795D01*
X157710200Y-90948408D01*
X157710200Y-90351592D01*
X157481808Y-89800205D01*
X157059795Y-89378192D01*
X156508408Y-89149800D01*
X155911592Y-89149800D01*
X155360205Y-89378192D01*
X154938192Y-89800205D01*
X154709800Y-90351592D01*
X154709800Y-90948408D01*
X154938192Y-91499795D01*
X155360205Y-91921808D01*
X155911592Y-92150200D01*
X156508408Y-92150200D01*
X156884959Y-91994227D01*
X156857800Y-92059795D01*
X156857800Y-92149543D01*
X156729143Y-92278200D01*
X148539452Y-92278200D01*
X148615432Y-92227432D01*
X148856829Y-91866155D01*
X148941597Y-91440000D01*
X148856829Y-91013845D01*
X148615432Y-90652568D01*
X148254155Y-90411171D01*
X147935569Y-90347800D01*
X146704431Y-90347800D01*
X146385845Y-90411171D01*
X146024568Y-90652568D01*
X145788240Y-91006258D01*
X145778478Y-91008200D01*
X145778474Y-91008200D01*
X145652520Y-91033254D01*
X145509690Y-91128690D01*
X145485600Y-91164743D01*
X134783743Y-101866600D01*
X134747690Y-101890690D01*
X134652254Y-102033521D01*
X134627200Y-102159475D01*
X134627200Y-102159478D01*
X134618742Y-102202000D01*
X134627200Y-102244523D01*
X134627200Y-102409616D01*
X134563739Y-102473077D01*
X134474800Y-102687795D01*
X134474800Y-102920205D01*
X134563739Y-103134923D01*
X134627201Y-103198385D01*
X134627200Y-112238935D01*
X134547205Y-112205800D01*
X134314795Y-112205800D01*
X134100077Y-112294739D01*
X134010800Y-112384016D01*
X134010800Y-88900000D01*
X145698403Y-88900000D01*
X145783171Y-89326155D01*
X146024568Y-89687432D01*
X146385845Y-89928829D01*
X146704431Y-89992200D01*
X147935569Y-89992200D01*
X148254155Y-89928829D01*
X148615432Y-89687432D01*
X148856829Y-89326155D01*
X148941597Y-88900000D01*
X148856829Y-88473845D01*
X148615432Y-88112568D01*
X148254155Y-87871171D01*
X147935569Y-87807800D01*
X146704431Y-87807800D01*
X146385845Y-87871171D01*
X146024568Y-88112568D01*
X145783171Y-88473845D01*
X145698403Y-88900000D01*
X134010800Y-88900000D01*
X134010800Y-86360000D01*
X145698403Y-86360000D01*
X145783171Y-86786155D01*
X146024568Y-87147432D01*
X146385845Y-87388829D01*
X146704431Y-87452200D01*
X147935569Y-87452200D01*
X148254155Y-87388829D01*
X148615432Y-87147432D01*
X148856829Y-86786155D01*
X148941597Y-86360000D01*
X148856829Y-85933845D01*
X148615432Y-85572568D01*
X148254155Y-85331171D01*
X147935569Y-85267800D01*
X146704431Y-85267800D01*
X146385845Y-85331171D01*
X146024568Y-85572568D01*
X145783171Y-85933845D01*
X145698403Y-86360000D01*
X134010800Y-86360000D01*
X134010800Y-83820000D01*
X145698403Y-83820000D01*
X145783171Y-84246155D01*
X146024568Y-84607432D01*
X146385845Y-84848829D01*
X146704431Y-84912200D01*
X147935569Y-84912200D01*
X148254155Y-84848829D01*
X148615432Y-84607432D01*
X148856829Y-84246155D01*
X148941597Y-83820000D01*
X148856829Y-83393845D01*
X148615432Y-83032568D01*
X148254155Y-82791171D01*
X147935569Y-82727800D01*
X146704431Y-82727800D01*
X146385845Y-82791171D01*
X146024568Y-83032568D01*
X145783171Y-83393845D01*
X145698403Y-83820000D01*
X134010800Y-83820000D01*
X134010800Y-81280000D01*
X145698403Y-81280000D01*
X145783171Y-81706155D01*
X146024568Y-82067432D01*
X146385845Y-82308829D01*
X146704431Y-82372200D01*
X147935569Y-82372200D01*
X148254155Y-82308829D01*
X148615432Y-82067432D01*
X148856829Y-81706155D01*
X148941597Y-81280000D01*
X148856829Y-80853845D01*
X148615432Y-80492568D01*
X148254155Y-80251171D01*
X147935569Y-80187800D01*
X146704431Y-80187800D01*
X146385845Y-80251171D01*
X146024568Y-80492568D01*
X145783171Y-80853845D01*
X145698403Y-81280000D01*
X134010800Y-81280000D01*
X134010800Y-78740000D01*
X145698403Y-78740000D01*
X145783171Y-79166155D01*
X146024568Y-79527432D01*
X146385845Y-79768829D01*
X146704431Y-79832200D01*
X147935569Y-79832200D01*
X148254155Y-79768829D01*
X148615432Y-79527432D01*
X148856829Y-79166155D01*
X148941597Y-78740000D01*
X148856829Y-78313845D01*
X148615432Y-77952568D01*
X148254155Y-77711171D01*
X147935569Y-77647800D01*
X146704431Y-77647800D01*
X146385845Y-77711171D01*
X146024568Y-77952568D01*
X145783171Y-78313845D01*
X145698403Y-78740000D01*
X134010800Y-78740000D01*
X134010800Y-76200000D01*
X145698403Y-76200000D01*
X145783171Y-76626155D01*
X146024568Y-76987432D01*
X146385845Y-77228829D01*
X146704431Y-77292200D01*
X147935569Y-77292200D01*
X148254155Y-77228829D01*
X148615432Y-76987432D01*
X148856829Y-76626155D01*
X148941597Y-76200000D01*
X148856829Y-75773845D01*
X148615432Y-75412568D01*
X148254155Y-75171171D01*
X147935569Y-75107800D01*
X146704431Y-75107800D01*
X146385845Y-75171171D01*
X146024568Y-75412568D01*
X145783171Y-75773845D01*
X145698403Y-76200000D01*
X134010800Y-76200000D01*
X134010800Y-73702526D01*
X134019259Y-73660000D01*
X145698403Y-73660000D01*
X145783171Y-74086155D01*
X146024568Y-74447432D01*
X146385845Y-74688829D01*
X146704431Y-74752200D01*
X147935569Y-74752200D01*
X148254155Y-74688829D01*
X148615432Y-74447432D01*
X148856829Y-74086155D01*
X148941597Y-73660000D01*
X148856829Y-73233845D01*
X148615432Y-72872568D01*
X148254155Y-72631171D01*
X147935569Y-72567800D01*
X146704431Y-72567800D01*
X146385845Y-72631171D01*
X146024568Y-72872568D01*
X145783171Y-73233845D01*
X145698403Y-73660000D01*
X134019259Y-73660000D01*
X133985746Y-73491520D01*
X133890310Y-73348690D01*
X133747480Y-73253254D01*
X133621526Y-73228200D01*
X133611759Y-73226257D01*
X133375432Y-72872568D01*
X133014155Y-72631171D01*
X132695569Y-72567800D01*
X131464431Y-72567800D01*
X131145845Y-72631171D01*
X131012800Y-72720069D01*
X131012800Y-72059931D01*
X131145845Y-72148829D01*
X131464431Y-72212200D01*
X132695569Y-72212200D01*
X133014155Y-72148829D01*
X133375432Y-71907432D01*
X133616829Y-71546155D01*
X133701597Y-71120000D01*
X145698403Y-71120000D01*
X145783171Y-71546155D01*
X146024568Y-71907432D01*
X146385845Y-72148829D01*
X146704431Y-72212200D01*
X147935569Y-72212200D01*
X148254155Y-72148829D01*
X148615432Y-71907432D01*
X148856829Y-71546155D01*
X148941597Y-71120000D01*
X148856829Y-70693845D01*
X148615432Y-70332568D01*
X148254155Y-70091171D01*
X147935569Y-70027800D01*
X146704431Y-70027800D01*
X146385845Y-70091171D01*
X146024568Y-70332568D01*
X145783171Y-70693845D01*
X145698403Y-71120000D01*
X133701597Y-71120000D01*
X133616829Y-70693845D01*
X133375432Y-70332568D01*
X133014155Y-70091171D01*
X132695569Y-70027800D01*
X131464431Y-70027800D01*
X131145845Y-70091171D01*
X131012800Y-70180069D01*
X131012800Y-69519931D01*
X131145845Y-69608829D01*
X131464431Y-69672200D01*
X132695569Y-69672200D01*
X133014155Y-69608829D01*
X133375432Y-69367432D01*
X133616829Y-69006155D01*
X133701597Y-68580000D01*
X145698403Y-68580000D01*
X145783171Y-69006155D01*
X146024568Y-69367432D01*
X146385845Y-69608829D01*
X146704431Y-69672200D01*
X147935569Y-69672200D01*
X148254155Y-69608829D01*
X148615432Y-69367432D01*
X148856829Y-69006155D01*
X148941597Y-68580000D01*
X148856829Y-68153845D01*
X148615432Y-67792568D01*
X148254155Y-67551171D01*
X147935569Y-67487800D01*
X146704431Y-67487800D01*
X146385845Y-67551171D01*
X146024568Y-67792568D01*
X145783171Y-68153845D01*
X145698403Y-68580000D01*
X133701597Y-68580000D01*
X133616829Y-68153845D01*
X133375432Y-67792568D01*
X133014155Y-67551171D01*
X132695569Y-67487800D01*
X131464431Y-67487800D01*
X131145845Y-67551171D01*
X131012800Y-67640069D01*
X131012800Y-66979931D01*
X131145845Y-67068829D01*
X131464431Y-67132200D01*
X132695569Y-67132200D01*
X133014155Y-67068829D01*
X133375432Y-66827432D01*
X133616829Y-66466155D01*
X133701597Y-66040000D01*
X145698403Y-66040000D01*
X145783171Y-66466155D01*
X146024568Y-66827432D01*
X146385845Y-67068829D01*
X146704431Y-67132200D01*
X147935569Y-67132200D01*
X148254155Y-67068829D01*
X148615432Y-66827432D01*
X148856829Y-66466155D01*
X148941597Y-66040000D01*
X148856829Y-65613845D01*
X148615432Y-65252568D01*
X148254155Y-65011171D01*
X147935569Y-64947800D01*
X146704431Y-64947800D01*
X146385845Y-65011171D01*
X146024568Y-65252568D01*
X145783171Y-65613845D01*
X145698403Y-66040000D01*
X133701597Y-66040000D01*
X133616829Y-65613845D01*
X133375432Y-65252568D01*
X133014155Y-65011171D01*
X132695569Y-64947800D01*
X131464431Y-64947800D01*
X131145845Y-65011171D01*
X130784568Y-65252568D01*
X130548241Y-65606257D01*
X130538474Y-65608200D01*
X130412520Y-65633254D01*
X130269690Y-65728690D01*
X130174254Y-65871520D01*
X130140741Y-66040000D01*
X130149200Y-66082526D01*
X130149201Y-85005144D01*
X124914961Y-90239477D01*
X124808923Y-90133439D01*
X124594205Y-90044500D01*
X124361795Y-90044500D01*
X124147077Y-90133439D01*
X123982739Y-90297777D01*
X123893800Y-90512495D01*
X123893800Y-90602281D01*
X118374730Y-96122109D01*
X118342923Y-96143362D01*
X118319077Y-96153239D01*
X118154739Y-96317577D01*
X118065800Y-96532295D01*
X118065800Y-96764705D01*
X118154739Y-96979423D01*
X118218200Y-97042884D01*
X118218201Y-106574615D01*
X118156739Y-106636077D01*
X118067800Y-106850795D01*
X118067800Y-107083205D01*
X118156739Y-107297923D01*
X118220200Y-107361384D01*
X118220201Y-116110615D01*
X118088739Y-116242077D01*
X117999800Y-116456795D01*
X117999800Y-116689205D01*
X118088739Y-116903923D01*
X118253077Y-117068261D01*
X118467795Y-117157200D01*
X118700205Y-117157200D01*
X118914923Y-117068261D01*
X119079261Y-116903923D01*
X119168200Y-116689205D01*
X119168200Y-116456795D01*
X119083800Y-116253035D01*
X119083800Y-109496675D01*
X119106795Y-109506200D01*
X119339205Y-109506200D01*
X119553923Y-109417261D01*
X119590200Y-109380984D01*
X119590201Y-118499800D01*
X119579795Y-118499800D01*
X119365077Y-118588739D01*
X119200739Y-118753077D01*
X119111800Y-118967795D01*
X119111800Y-119200205D01*
X119200739Y-119414923D01*
X119365077Y-119579261D01*
X119579795Y-119668200D01*
X119812205Y-119668200D01*
X120026923Y-119579261D01*
X120191261Y-119414923D01*
X120280200Y-119200205D01*
X120280200Y-119110458D01*
X120297260Y-119093398D01*
X120333310Y-119069310D01*
X120428746Y-118926480D01*
X120453800Y-118800526D01*
X120462259Y-118758000D01*
X120453800Y-118715474D01*
X120453800Y-110136386D01*
X121366226Y-111048117D01*
X121010743Y-111403600D01*
X120974690Y-111427690D01*
X120879254Y-111570521D01*
X120854200Y-111696475D01*
X120854200Y-111696478D01*
X120845742Y-111739000D01*
X120854200Y-111781522D01*
X120854201Y-120276473D01*
X120845742Y-120319000D01*
X120879254Y-120487479D01*
X120950601Y-120594258D01*
X120950603Y-120594260D01*
X120974691Y-120630310D01*
X121010741Y-120654398D01*
X121612800Y-121256457D01*
X121612800Y-121346205D01*
X121701739Y-121560923D01*
X121866077Y-121725261D01*
X122080795Y-121814200D01*
X122170757Y-121814200D01*
X123163647Y-122806327D01*
X123187690Y-122842310D01*
X123223812Y-122866446D01*
X123223870Y-122866504D01*
X123258476Y-122889608D01*
X123330520Y-122937746D01*
X123330606Y-122937763D01*
X123330676Y-122937810D01*
X123412855Y-122954124D01*
X123456474Y-122962800D01*
X123456562Y-122962800D01*
X123499169Y-122971258D01*
X123541605Y-122962800D01*
X127711800Y-122962800D01*
X127711800Y-123105205D01*
X127800739Y-123319923D01*
X127965077Y-123484261D01*
X128179795Y-123573200D01*
X128269593Y-123573200D01*
X133542612Y-128845275D01*
X133566690Y-128881310D01*
X133602758Y-128905410D01*
X133602771Y-128905423D01*
X133637880Y-128928878D01*
X133709520Y-128976746D01*
X133709539Y-128976750D01*
X133709556Y-128976761D01*
X133789077Y-128992571D01*
X133835474Y-129001800D01*
X133835497Y-129001800D01*
X133878039Y-129010258D01*
X133920541Y-129001800D01*
X156717468Y-129001800D01*
X156759980Y-129010258D01*
X156802512Y-129001800D01*
X156802526Y-129001800D01*
X156853274Y-128991706D01*
X156928460Y-128976754D01*
X156928469Y-128976748D01*
X156928480Y-128976746D01*
X157004977Y-128925632D01*
X157035242Y-128905412D01*
X157035248Y-128905406D01*
X157071310Y-128881310D01*
X157095394Y-128845265D01*
X158183995Y-127756766D01*
X162519800Y-127756766D01*
X162519800Y-128783234D01*
X162912612Y-129731566D01*
X163638434Y-130457388D01*
X164586766Y-130850200D01*
X165613234Y-130850200D01*
X166561566Y-130457388D01*
X167287388Y-129731566D01*
X167680200Y-128783234D01*
X167680200Y-128168653D01*
X177279800Y-128168653D01*
X177279800Y-129007347D01*
X177600754Y-129782199D01*
X178193801Y-130375246D01*
X178968653Y-130696200D01*
X179807347Y-130696200D01*
X180582199Y-130375246D01*
X181175246Y-129782199D01*
X181496200Y-129007347D01*
X181496200Y-128168653D01*
X181175246Y-127393801D01*
X180582199Y-126800754D01*
X179807347Y-126479800D01*
X178968653Y-126479800D01*
X178193801Y-126800754D01*
X177600754Y-127393801D01*
X177279800Y-128168653D01*
X167680200Y-128168653D01*
X167680200Y-127756766D01*
X167287388Y-126808434D01*
X166561566Y-126082612D01*
X166399187Y-126015352D01*
X167919800Y-126015352D01*
X167919800Y-126524648D01*
X168114699Y-126995175D01*
X168474825Y-127355301D01*
X168945352Y-127550200D01*
X169454648Y-127550200D01*
X169925175Y-127355301D01*
X170285301Y-126995175D01*
X170480200Y-126524648D01*
X170480200Y-126015352D01*
X170285301Y-125544825D01*
X169925175Y-125184699D01*
X169454648Y-124989800D01*
X168945352Y-124989800D01*
X168474825Y-125184699D01*
X168114699Y-125544825D01*
X167919800Y-126015352D01*
X166399187Y-126015352D01*
X165613234Y-125689800D01*
X164586766Y-125689800D01*
X163638434Y-126082612D01*
X162912612Y-126808434D01*
X162519800Y-127756766D01*
X158183995Y-127756766D01*
X159719800Y-126221106D01*
X159719800Y-126524648D01*
X159914699Y-126995175D01*
X160274825Y-127355301D01*
X160745352Y-127550200D01*
X161254648Y-127550200D01*
X161725175Y-127355301D01*
X162085301Y-126995175D01*
X162280200Y-126524648D01*
X162280200Y-126015352D01*
X162085301Y-125544825D01*
X161725175Y-125184699D01*
X161254648Y-124989800D01*
X160951222Y-124989800D01*
X167585845Y-118355800D01*
X169721800Y-118355800D01*
X169651800Y-118524795D01*
X169651800Y-118757205D01*
X169740739Y-118971923D01*
X169905077Y-119136261D01*
X170119795Y-119225200D01*
X170352205Y-119225200D01*
X170566923Y-119136261D01*
X170630384Y-119072800D01*
X172343488Y-119072800D01*
X172386020Y-119081258D01*
X172453683Y-119067796D01*
X172554480Y-119047746D01*
X172554489Y-119047740D01*
X172554498Y-119047738D01*
X172620410Y-119003693D01*
X172697310Y-118952310D01*
X172721405Y-118916249D01*
X182492939Y-109143795D01*
X183205800Y-109143795D01*
X183205800Y-109376205D01*
X183294739Y-109590923D01*
X183459077Y-109755261D01*
X183673795Y-109844200D01*
X183906205Y-109844200D01*
X184120923Y-109755261D01*
X184158984Y-109717200D01*
X184234435Y-109717200D01*
X184555800Y-110039014D01*
X184555800Y-110093205D01*
X184644739Y-110307923D01*
X184809077Y-110472261D01*
X185023795Y-110561200D01*
X185256205Y-110561200D01*
X185470923Y-110472261D01*
X185635261Y-110307923D01*
X185724200Y-110093205D01*
X185724200Y-109860795D01*
X185635261Y-109646077D01*
X185470923Y-109481739D01*
X185256205Y-109392800D01*
X185202742Y-109392800D01*
X184779224Y-108968692D01*
X184753623Y-108930377D01*
X184676520Y-108878859D01*
X184602690Y-108829452D01*
X184602530Y-108829420D01*
X184602391Y-108829327D01*
X184512924Y-108811531D01*
X184424325Y-108793843D01*
X184379131Y-108802800D01*
X184158984Y-108802800D01*
X184120923Y-108764739D01*
X183906205Y-108675800D01*
X183673795Y-108675800D01*
X183459077Y-108764739D01*
X183294739Y-108929077D01*
X183205800Y-109143795D01*
X182492939Y-109143795D01*
X183042483Y-108594200D01*
X183132205Y-108594200D01*
X183346923Y-108505261D01*
X183511261Y-108340923D01*
X183600200Y-108126205D01*
X183600200Y-107893795D01*
X183511261Y-107679077D01*
X183346923Y-107514739D01*
X183132205Y-107425800D01*
X182899795Y-107425800D01*
X182685077Y-107514739D01*
X182520739Y-107679077D01*
X182431800Y-107893795D01*
X182431800Y-107983569D01*
X172207131Y-118209200D01*
X170779756Y-118209200D01*
X170786407Y-118199247D01*
X181330482Y-107654200D01*
X181420205Y-107654200D01*
X181634923Y-107565261D01*
X181799261Y-107400923D01*
X181888200Y-107186205D01*
X181888200Y-106953795D01*
X181799261Y-106739077D01*
X181692381Y-106632197D01*
X182628828Y-105695750D01*
X183560000Y-105695750D01*
X183560000Y-106761309D01*
X183656673Y-106994698D01*
X183835301Y-107173327D01*
X184068690Y-107270000D01*
X185134250Y-107270000D01*
X185293000Y-107111250D01*
X185293000Y-105537000D01*
X185547000Y-105537000D01*
X185547000Y-107111250D01*
X185705750Y-107270000D01*
X186771310Y-107270000D01*
X187004699Y-107173327D01*
X187183327Y-106994698D01*
X187280000Y-106761309D01*
X187280000Y-105695750D01*
X187121250Y-105537000D01*
X185547000Y-105537000D01*
X185293000Y-105537000D01*
X183718750Y-105537000D01*
X183560000Y-105695750D01*
X182628828Y-105695750D01*
X183560000Y-104764579D01*
X183560000Y-105124250D01*
X183718750Y-105283000D01*
X185293000Y-105283000D01*
X185293000Y-103708750D01*
X185547000Y-103708750D01*
X185547000Y-105283000D01*
X187121250Y-105283000D01*
X187280000Y-105124250D01*
X187280000Y-104058691D01*
X187183327Y-103825302D01*
X187004699Y-103646673D01*
X186771310Y-103550000D01*
X185705750Y-103550000D01*
X185547000Y-103708750D01*
X185293000Y-103708750D01*
X185134250Y-103550000D01*
X184774579Y-103550000D01*
X185461449Y-102863130D01*
X185499623Y-102837623D01*
X185600673Y-102686391D01*
X185627200Y-102553030D01*
X185627200Y-102553029D01*
X185636157Y-102508000D01*
X185627200Y-102462970D01*
X185627200Y-101820984D01*
X185665261Y-101782923D01*
X185754200Y-101568205D01*
X185754200Y-101335795D01*
X185698491Y-101201303D01*
X185744261Y-101155533D01*
X185793670Y-101036249D01*
X186217800Y-101460379D01*
X186217800Y-101514205D01*
X186306739Y-101728923D01*
X186471077Y-101893261D01*
X186685795Y-101982200D01*
X186918205Y-101982200D01*
X187132923Y-101893261D01*
X187233725Y-101792459D01*
X188399800Y-102958394D01*
X188399801Y-103145015D01*
X188361739Y-103183077D01*
X188272800Y-103397795D01*
X188272800Y-103630205D01*
X188361739Y-103844923D01*
X188526077Y-104009261D01*
X188740795Y-104098200D01*
X188794622Y-104098200D01*
X188980800Y-104284379D01*
X188980801Y-104666015D01*
X188942739Y-104704077D01*
X188853800Y-104918795D01*
X188853800Y-105151205D01*
X188942739Y-105365923D01*
X189107077Y-105530261D01*
X189321795Y-105619200D01*
X189420500Y-105619200D01*
X189420500Y-132697532D01*
X189346436Y-133638608D01*
X189130158Y-134539474D01*
X188775615Y-135395417D01*
X188291535Y-136185361D01*
X187689850Y-136889844D01*
X186985358Y-137491537D01*
X186195412Y-137975616D01*
X185339475Y-138330157D01*
X184438614Y-138546435D01*
X183497533Y-138620500D01*
X121302467Y-138620500D01*
X120361392Y-138546436D01*
X119460526Y-138330158D01*
X118604583Y-137975615D01*
X117814639Y-137491535D01*
X117110156Y-136889850D01*
X116508463Y-136185358D01*
X116495027Y-136163431D01*
X150037800Y-136163431D01*
X150037800Y-136886568D01*
X150101171Y-137205154D01*
X150342568Y-137566432D01*
X150703845Y-137807829D01*
X151130000Y-137892597D01*
X151556154Y-137807829D01*
X151917432Y-137566432D01*
X152158829Y-137205155D01*
X152222200Y-136886569D01*
X152222200Y-136163432D01*
X152222200Y-136163431D01*
X152577800Y-136163431D01*
X152577800Y-136886568D01*
X152641171Y-137205154D01*
X152882568Y-137566432D01*
X153243845Y-137807829D01*
X153670000Y-137892597D01*
X154096154Y-137807829D01*
X154457432Y-137566432D01*
X154698829Y-137205155D01*
X154762200Y-136886569D01*
X154762200Y-136163432D01*
X154698829Y-135844846D01*
X154457432Y-135483568D01*
X154096155Y-135242171D01*
X153670000Y-135157403D01*
X153243846Y-135242171D01*
X152882569Y-135483568D01*
X152641171Y-135844845D01*
X152577800Y-136163431D01*
X152222200Y-136163431D01*
X152158829Y-135844846D01*
X151917432Y-135483568D01*
X151556155Y-135242171D01*
X151130000Y-135157403D01*
X150703846Y-135242171D01*
X150342569Y-135483568D01*
X150101171Y-135844845D01*
X150037800Y-136163431D01*
X116495027Y-136163431D01*
X116024384Y-135395412D01*
X115669843Y-134539475D01*
X115453565Y-133638614D01*
X115379500Y-132697533D01*
X115379500Y-131572000D01*
X149733000Y-131572000D01*
X149733000Y-131826000D01*
X149887941Y-132350941D01*
X150231974Y-132776630D01*
X150712723Y-133038260D01*
X150786930Y-133053220D01*
X151003000Y-132930720D01*
X151003000Y-131572000D01*
X151257000Y-131572000D01*
X151257000Y-132930720D01*
X151473070Y-133053220D01*
X151547277Y-133038260D01*
X152028026Y-132776630D01*
X152372059Y-132350941D01*
X152400000Y-132256277D01*
X152427941Y-132350941D01*
X152771974Y-132776630D01*
X153252723Y-133038260D01*
X153326930Y-133053220D01*
X153543000Y-132930720D01*
X153543000Y-131572000D01*
X153797000Y-131572000D01*
X153797000Y-132930720D01*
X154013070Y-133053220D01*
X154087277Y-133038260D01*
X154568026Y-132776630D01*
X154912059Y-132350941D01*
X155067000Y-131826000D01*
X155067000Y-131572000D01*
X153797000Y-131572000D01*
X153543000Y-131572000D01*
X151257000Y-131572000D01*
X151003000Y-131572000D01*
X149733000Y-131572000D01*
X115379500Y-131572000D01*
X115379500Y-131064000D01*
X149733000Y-131064000D01*
X149733000Y-131318000D01*
X151003000Y-131318000D01*
X151003000Y-129959280D01*
X151257000Y-129959280D01*
X151257000Y-131318000D01*
X153543000Y-131318000D01*
X153543000Y-129959280D01*
X153797000Y-129959280D01*
X153797000Y-131318000D01*
X155067000Y-131318000D01*
X155067000Y-131064000D01*
X154912059Y-130539059D01*
X154568026Y-130113370D01*
X154087277Y-129851740D01*
X154013070Y-129836780D01*
X153797000Y-129959280D01*
X153543000Y-129959280D01*
X153326930Y-129836780D01*
X153252723Y-129851740D01*
X152771974Y-130113370D01*
X152427941Y-130539059D01*
X152400000Y-130633723D01*
X152372059Y-130539059D01*
X152028026Y-130113370D01*
X151547277Y-129851740D01*
X151473070Y-129836780D01*
X151257000Y-129959280D01*
X151003000Y-129959280D01*
X150786930Y-129836780D01*
X150712723Y-129851740D01*
X150231974Y-130113370D01*
X149887941Y-130539059D01*
X149733000Y-131064000D01*
X115379500Y-131064000D01*
X115379500Y-128168653D01*
X123303800Y-128168653D01*
X123303800Y-129007347D01*
X123624754Y-129782199D01*
X124217801Y-130375246D01*
X124992653Y-130696200D01*
X125831347Y-130696200D01*
X126606199Y-130375246D01*
X127199246Y-129782199D01*
X127520200Y-129007347D01*
X127520200Y-128168653D01*
X127199246Y-127393801D01*
X126606199Y-126800754D01*
X125831347Y-126479800D01*
X124992653Y-126479800D01*
X124217801Y-126800754D01*
X123624754Y-127393801D01*
X123303800Y-128168653D01*
X115379500Y-128168653D01*
X115379500Y-74193153D01*
X123303800Y-74193153D01*
X123303800Y-75031847D01*
X123624754Y-75806699D01*
X124217801Y-76399746D01*
X124992653Y-76720700D01*
X125831347Y-76720700D01*
X126606199Y-76399746D01*
X127199246Y-75806699D01*
X127520200Y-75031847D01*
X127520200Y-74193153D01*
X127199246Y-73418301D01*
X126606199Y-72825254D01*
X125831347Y-72504300D01*
X124992653Y-72504300D01*
X124217801Y-72825254D01*
X123624754Y-73418301D01*
X123303800Y-74193153D01*
X115379500Y-74193153D01*
X115379500Y-70502467D01*
X115453565Y-69561386D01*
X115669843Y-68660525D01*
X116024384Y-67804588D01*
X116508463Y-67014642D01*
X117110156Y-66310150D01*
X117814639Y-65708465D01*
X118604583Y-65224385D01*
X119460526Y-64869842D01*
X120361392Y-64653564D01*
X121302467Y-64579500D01*
X183497533Y-64579500D01*
X184438614Y-64653565D01*
X184438614Y-64653565D01*
G37*
X184438614Y-64653565D02*
X185339475Y-64869843D01*
X186195412Y-65224384D01*
X186985358Y-65708463D01*
X187689850Y-66310156D01*
X188291535Y-67014639D01*
X188775615Y-67804583D01*
X189130158Y-68660526D01*
X189346436Y-69561392D01*
X189420501Y-70502480D01*
X189420500Y-103347822D01*
X189352261Y-103183077D01*
X189314200Y-103145016D01*
X189314200Y-102814016D01*
X189323157Y-102768972D01*
X189305769Y-102681583D01*
X189287673Y-102590609D01*
X189287665Y-102590597D01*
X189287662Y-102590583D01*
X189236023Y-102513310D01*
X189186623Y-102439377D01*
X189148435Y-102413861D01*
X185324633Y-98590518D01*
X188933427Y-94982545D01*
X188971623Y-94957023D01*
X189023553Y-94879304D01*
X189072652Y-94805840D01*
X189072657Y-94805815D01*
X189072673Y-94805791D01*
X189090795Y-94714684D01*
X189108157Y-94627454D01*
X189099200Y-94582397D01*
X189099200Y-86926463D01*
X189108156Y-86881065D01*
X189090354Y-86792300D01*
X189072673Y-86703409D01*
X189072464Y-86703097D01*
X189072391Y-86702731D01*
X189022112Y-86627739D01*
X188971623Y-86552177D01*
X188933144Y-86526466D01*
X188678932Y-86273054D01*
X188653623Y-86235177D01*
X188615141Y-86209464D01*
X188614888Y-86209212D01*
X188578359Y-86184887D01*
X188502391Y-86134127D01*
X188502021Y-86134053D01*
X188501711Y-86133847D01*
X188413171Y-86116380D01*
X188369030Y-86107600D01*
X188368664Y-86107600D01*
X188323266Y-86098644D01*
X188278609Y-86107600D01*
X187721125Y-86107600D01*
X187676193Y-86098643D01*
X187631065Y-86107600D01*
X187630970Y-86107600D01*
X187587028Y-86116340D01*
X187497788Y-86134053D01*
X187497706Y-86134108D01*
X187497609Y-86134127D01*
X187421564Y-86184938D01*
X187384699Y-86209549D01*
X187384632Y-86209616D01*
X187346377Y-86235177D01*
X187320922Y-86273273D01*
X187131839Y-86462200D01*
X187077795Y-86462200D01*
X186863077Y-86551139D01*
X186825016Y-86589200D01*
X179834394Y-86589200D01*
X176706142Y-83460568D01*
X176680623Y-83422377D01*
X176591460Y-83362800D01*
X176529416Y-83321338D01*
X176529404Y-83321336D01*
X176529391Y-83321327D01*
X176436921Y-83302934D01*
X176351028Y-83285843D01*
X176305984Y-83294800D01*
X173515200Y-83294800D01*
X173515200Y-76346102D01*
X173524157Y-76301046D01*
X173506795Y-76213816D01*
X173488673Y-76122709D01*
X173488657Y-76122685D01*
X173488652Y-76122660D01*
X173440438Y-76050520D01*
X173387623Y-75971477D01*
X173349426Y-75945955D01*
X171596221Y-74193153D01*
X177279800Y-74193153D01*
X177279800Y-75031847D01*
X177600754Y-75806699D01*
X178193801Y-76399746D01*
X178968653Y-76720700D01*
X179807347Y-76720700D01*
X180582199Y-76399746D01*
X181175246Y-75806699D01*
X181496200Y-75031847D01*
X181496200Y-74193153D01*
X181175246Y-73418301D01*
X180582199Y-72825254D01*
X179807347Y-72504300D01*
X178968653Y-72504300D01*
X178193801Y-72825254D01*
X177600754Y-73418301D01*
X177279800Y-74193153D01*
X171596221Y-74193153D01*
X169501119Y-72098534D01*
X169475623Y-72060377D01*
X169447111Y-72041326D01*
X169759795Y-71911808D01*
X170181808Y-71489795D01*
X170410200Y-70938408D01*
X170410200Y-70341592D01*
X170181808Y-69790205D01*
X169759795Y-69368192D01*
X169208408Y-69139800D01*
X168611592Y-69139800D01*
X168060205Y-69368192D01*
X167638192Y-69790205D01*
X167409800Y-70341592D01*
X167409800Y-70732400D01*
X166521125Y-69843844D01*
X166499219Y-69811059D01*
X166458261Y-69712177D01*
X166293923Y-69547839D01*
X166079205Y-69458900D01*
X165846795Y-69458900D01*
X165632077Y-69547839D01*
X165501816Y-69678100D01*
X161195100Y-69678100D01*
X161916689Y-68956494D01*
X162047795Y-69010800D01*
X162280205Y-69010800D01*
X162484069Y-68926357D01*
X162684795Y-69009500D01*
X162917205Y-69009500D01*
X163131923Y-68920561D01*
X163296261Y-68756223D01*
X163335414Y-68661699D01*
X163373739Y-68754223D01*
X163538077Y-68918561D01*
X163752795Y-69007500D01*
X163985205Y-69007500D01*
X164199923Y-68918561D01*
X164364261Y-68754223D01*
X164453200Y-68539505D01*
X164453200Y-68307095D01*
X164364261Y-68092377D01*
X164199923Y-67928039D01*
X163985205Y-67839100D01*
X163931439Y-67839100D01*
X162941148Y-66848578D01*
X162936481Y-66841592D01*
X167409800Y-66841592D01*
X167409800Y-67438408D01*
X167638192Y-67989795D01*
X168060205Y-68411808D01*
X168611592Y-68640200D01*
X169208408Y-68640200D01*
X169759795Y-68411808D01*
X170181808Y-67989795D01*
X170410200Y-67438408D01*
X170410200Y-66841592D01*
X170181808Y-66290205D01*
X169759795Y-65868192D01*
X169208408Y-65639800D01*
X168611592Y-65639800D01*
X168060205Y-65868192D01*
X167638192Y-66290205D01*
X167409800Y-66841592D01*
X162936481Y-66841592D01*
X162915623Y-66810377D01*
X162834051Y-66755873D01*
X162764440Y-66709348D01*
X162764415Y-66709343D01*
X162764391Y-66709327D01*
X162673284Y-66691205D01*
X162586054Y-66673843D01*
X162540997Y-66682800D01*
X157644426Y-66682800D01*
X157481808Y-66290205D01*
X157059795Y-65868192D01*
X156508408Y-65639800D01*
X155911592Y-65639800D01*
X155360205Y-65868192D01*
X154938192Y-66290205D01*
X154709800Y-66841592D01*
X154709800Y-67438408D01*
X154938192Y-67989795D01*
X155360205Y-68411808D01*
X155911592Y-68640200D01*
X156508408Y-68640200D01*
X157059795Y-68411808D01*
X157481808Y-67989795D01*
X157644426Y-67597200D01*
X158599404Y-67597200D01*
X158584879Y-67618938D01*
X156901109Y-69302462D01*
X156508408Y-69139800D01*
X155911592Y-69139800D01*
X155360205Y-69368192D01*
X154938192Y-69790205D01*
X154709800Y-70341592D01*
X154709800Y-70938408D01*
X154938192Y-71489795D01*
X155360205Y-71911808D01*
X155911592Y-72140200D01*
X156508408Y-72140200D01*
X157059795Y-71911808D01*
X157481808Y-71489795D01*
X157710200Y-70938408D01*
X157710200Y-70341592D01*
X157547625Y-69949101D01*
X159129359Y-68367600D01*
X161212428Y-68367600D01*
X157317556Y-72262567D01*
X157279377Y-72288077D01*
X157178327Y-72439310D01*
X157178326Y-72439313D01*
X157178325Y-72439315D01*
X157158210Y-72540444D01*
X157151801Y-72572670D01*
X157142843Y-72617705D01*
X157151800Y-72662732D01*
X157151800Y-72960197D01*
X157059795Y-72868192D01*
X156508408Y-72639800D01*
X155911592Y-72639800D01*
X155360205Y-72868192D01*
X154938192Y-73290205D01*
X154709800Y-73841592D01*
X154709800Y-74438408D01*
X154938192Y-74989795D01*
X155360205Y-75411808D01*
X155911592Y-75640200D01*
X156508408Y-75640200D01*
X157059795Y-75411808D01*
X157151801Y-75319802D01*
X157151801Y-76051620D01*
X156901003Y-76302418D01*
X156508408Y-76139800D01*
X155911592Y-76139800D01*
X155360205Y-76368192D01*
X154938192Y-76790205D01*
X154709800Y-77341592D01*
X154709800Y-77938408D01*
X154938192Y-78489795D01*
X155360205Y-78911808D01*
X155911592Y-79140200D01*
X156508408Y-79140200D01*
X157059795Y-78911808D01*
X157481808Y-78489795D01*
X157710200Y-77938408D01*
X157710200Y-77341592D01*
X157547582Y-76948997D01*
X157900449Y-76596130D01*
X157938623Y-76570623D01*
X158039673Y-76419391D01*
X158066200Y-76286030D01*
X158075157Y-76241000D01*
X158066200Y-76195970D01*
X158066200Y-72807074D01*
X158165894Y-72707378D01*
X158266077Y-72807561D01*
X158480795Y-72896500D01*
X158713205Y-72896500D01*
X158927923Y-72807561D01*
X159092261Y-72643223D01*
X159181200Y-72428505D01*
X159181200Y-72374678D01*
X160662132Y-70893747D01*
X160657594Y-70916559D01*
X160639844Y-71005134D01*
X160648800Y-71050499D01*
X160648801Y-75583128D01*
X160639843Y-75628226D01*
X160658015Y-75719452D01*
X160675328Y-75806491D01*
X160675363Y-75806544D01*
X160675376Y-75806607D01*
X160725961Y-75882269D01*
X160776378Y-75957723D01*
X160814605Y-75983265D01*
X161259800Y-76428220D01*
X161259800Y-76481905D01*
X161348739Y-76696623D01*
X161513077Y-76860961D01*
X161727795Y-76949900D01*
X161960205Y-76949900D01*
X162174923Y-76860961D01*
X162339261Y-76696623D01*
X162428200Y-76481905D01*
X162428200Y-76249495D01*
X162339261Y-76034777D01*
X162174923Y-75870439D01*
X161960205Y-75781500D01*
X161906237Y-75781500D01*
X161563200Y-75438650D01*
X161563200Y-74250000D01*
X162274250Y-74250000D01*
X162433000Y-74091250D01*
X162433000Y-72517000D01*
X162413000Y-72517000D01*
X162413000Y-72263000D01*
X162433000Y-72263000D01*
X162433000Y-72243000D01*
X162687000Y-72243000D01*
X162687000Y-72263000D01*
X162707000Y-72263000D01*
X162707000Y-72517000D01*
X162687000Y-72517000D01*
X162687000Y-74091250D01*
X162845750Y-74250000D01*
X163845800Y-74250000D01*
X163845800Y-74286016D01*
X163807739Y-74324077D01*
X163718800Y-74538795D01*
X163718800Y-74771205D01*
X163807739Y-74985923D01*
X163972077Y-75150261D01*
X164186795Y-75239200D01*
X164419205Y-75239200D01*
X164633923Y-75150261D01*
X164798261Y-74985923D01*
X164887200Y-74771205D01*
X164887200Y-74538795D01*
X164798261Y-74324077D01*
X164760200Y-74286016D01*
X164760200Y-71345897D01*
X164769157Y-71300835D01*
X164751611Y-71212689D01*
X164733673Y-71122509D01*
X164733654Y-71122481D01*
X164733648Y-71122450D01*
X164683511Y-71047436D01*
X164632623Y-70971277D01*
X164594423Y-70945752D01*
X164293115Y-70644528D01*
X164267623Y-70606377D01*
X164246855Y-70592500D01*
X165419800Y-70592500D01*
X165419800Y-70772105D01*
X165508739Y-70986823D01*
X165673077Y-71151161D01*
X165887795Y-71240100D01*
X165977674Y-71240100D01*
X166212200Y-71474516D01*
X166212201Y-84982969D01*
X166203741Y-85025500D01*
X166212200Y-85068026D01*
X166212201Y-87751115D01*
X166148739Y-87814577D01*
X166059800Y-88029295D01*
X166059800Y-88261705D01*
X166148739Y-88476423D01*
X166313077Y-88640761D01*
X166527795Y-88729700D01*
X166760205Y-88729700D01*
X166974923Y-88640761D01*
X167139261Y-88476423D01*
X167228200Y-88261705D01*
X167228200Y-88029295D01*
X167139261Y-87814577D01*
X167075800Y-87751116D01*
X167075800Y-85457300D01*
X172684592Y-85457300D01*
X172115636Y-86026200D01*
X169907803Y-86026200D01*
X169759795Y-85878192D01*
X169208408Y-85649800D01*
X168611592Y-85649800D01*
X168060205Y-85878192D01*
X167638192Y-86300205D01*
X167409800Y-86851592D01*
X167409800Y-87448408D01*
X167638192Y-87999795D01*
X168060205Y-88421808D01*
X168611592Y-88650200D01*
X169208408Y-88650200D01*
X169759795Y-88421808D01*
X170181808Y-87999795D01*
X170410200Y-87448408D01*
X170410200Y-86940600D01*
X171482800Y-86940600D01*
X171482800Y-87082505D01*
X171571739Y-87297223D01*
X171593826Y-87319310D01*
X169600935Y-89312390D01*
X169208408Y-89149800D01*
X168611592Y-89149800D01*
X168060205Y-89378192D01*
X167638192Y-89800205D01*
X167409800Y-90351592D01*
X167409800Y-90948408D01*
X167638192Y-91499795D01*
X168060205Y-91921808D01*
X168611592Y-92150200D01*
X168798316Y-92150200D01*
X168783016Y-92165500D01*
X165056331Y-92165500D01*
X164471200Y-91580576D01*
X164471200Y-82786430D01*
X164480157Y-82741400D01*
X164444673Y-82563009D01*
X164436315Y-82550500D01*
X164567205Y-82550500D01*
X164781923Y-82461561D01*
X164946261Y-82297223D01*
X165035200Y-82082505D01*
X165035200Y-81850095D01*
X164946261Y-81635377D01*
X164781923Y-81471039D01*
X164567205Y-81382100D01*
X164513033Y-81382100D01*
X164276049Y-81145429D01*
X164250623Y-81107377D01*
X164212317Y-81081782D01*
X164212213Y-81081678D01*
X164176121Y-81057596D01*
X164099391Y-81006327D01*
X164099235Y-81006296D01*
X164099105Y-81006209D01*
X164009990Y-80988544D01*
X163966030Y-80979800D01*
X163965878Y-80979800D01*
X163920692Y-80970843D01*
X163875817Y-80979800D01*
X158468030Y-80979800D01*
X158423000Y-80970843D01*
X158377970Y-80979800D01*
X158244609Y-81006327D01*
X158093377Y-81107377D01*
X158067868Y-81145554D01*
X156901004Y-82312418D01*
X156508408Y-82149800D01*
X155911592Y-82149800D01*
X155360205Y-82378192D01*
X154938192Y-82800205D01*
X154709800Y-83351592D01*
X154709800Y-83948408D01*
X154938192Y-84499795D01*
X155360205Y-84921808D01*
X155911592Y-85150200D01*
X156508408Y-85150200D01*
X157059795Y-84921808D01*
X157481808Y-84499795D01*
X157710200Y-83948408D01*
X157710200Y-83351592D01*
X157547582Y-82958996D01*
X158612378Y-81894200D01*
X162610800Y-81894200D01*
X162610800Y-82038605D01*
X162699739Y-82253323D01*
X162864077Y-82417661D01*
X163078795Y-82506600D01*
X163132622Y-82506600D01*
X163556800Y-82930779D01*
X163556800Y-87040000D01*
X162845750Y-87040000D01*
X162687000Y-87198750D01*
X162687000Y-88773000D01*
X162707000Y-88773000D01*
X162707000Y-89027000D01*
X162687000Y-89027000D01*
X162687000Y-90601250D01*
X162845750Y-90760000D01*
X163556801Y-90760000D01*
X163556801Y-91580631D01*
X162674602Y-92462900D01*
X162620795Y-92462900D01*
X162406077Y-92551839D01*
X162241739Y-92716177D01*
X162152800Y-92930895D01*
X162152800Y-92980751D01*
X161780593Y-93353000D01*
X161726795Y-93353000D01*
X161512077Y-93441939D01*
X161347739Y-93606277D01*
X161258800Y-93820995D01*
X161258800Y-93976100D01*
X158803599Y-93976100D01*
X158761156Y-93967642D01*
X158718555Y-93976100D01*
X158718474Y-93976100D01*
X158675731Y-93984602D01*
X158592665Y-94001094D01*
X158592599Y-94001138D01*
X158592520Y-94001154D01*
X158521277Y-94048757D01*
X158485861Y-94072403D01*
X158485806Y-94072458D01*
X158449690Y-94096590D01*
X158425644Y-94132577D01*
X157460234Y-95097300D01*
X157384303Y-95097300D01*
X157481808Y-94999795D01*
X157710200Y-94448408D01*
X157710200Y-93851592D01*
X157547556Y-93458936D01*
X158866456Y-92139925D01*
X158904623Y-92114423D01*
X158930136Y-92076240D01*
X158930142Y-92076234D01*
X158953394Y-92041432D01*
X159005673Y-91963191D01*
X159005675Y-91963180D01*
X159005680Y-91963173D01*
X159020526Y-91888519D01*
X159032200Y-91829830D01*
X159032200Y-91829816D01*
X159041156Y-91784781D01*
X159032200Y-91739765D01*
X159032200Y-89185750D01*
X160700000Y-89185750D01*
X160700000Y-90251309D01*
X160796673Y-90484698D01*
X160975301Y-90663327D01*
X161208690Y-90760000D01*
X162274250Y-90760000D01*
X162433000Y-90601250D01*
X162433000Y-89027000D01*
X160858750Y-89027000D01*
X160700000Y-89185750D01*
X159032200Y-89185750D01*
X159032200Y-88705792D01*
X160189429Y-87548691D01*
X160700000Y-87548691D01*
X160700000Y-88614250D01*
X160858750Y-88773000D01*
X162433000Y-88773000D01*
X162433000Y-87198750D01*
X162274250Y-87040000D01*
X161208690Y-87040000D01*
X160975301Y-87136673D01*
X160796673Y-87315302D01*
X160700000Y-87548691D01*
X160189429Y-87548691D01*
X162240349Y-85498000D01*
X162294205Y-85498000D01*
X162508923Y-85409061D01*
X162673261Y-85244723D01*
X162762200Y-85030005D01*
X162762200Y-84797595D01*
X162673261Y-84582877D01*
X162508923Y-84418539D01*
X162504282Y-84416617D01*
X162554200Y-84296105D01*
X162554200Y-84063695D01*
X162465261Y-83848977D01*
X162300923Y-83684639D01*
X162086205Y-83595700D01*
X161853795Y-83595700D01*
X161639077Y-83684639D01*
X161601016Y-83722700D01*
X159225026Y-83722700D01*
X159179992Y-83713743D01*
X159090488Y-83731548D01*
X159001609Y-83749227D01*
X159001606Y-83749229D01*
X159001602Y-83749230D01*
X158944618Y-83787307D01*
X158850377Y-83850277D01*
X158824867Y-83888455D01*
X156900979Y-85812408D01*
X156508408Y-85649800D01*
X155911592Y-85649800D01*
X155360205Y-85878192D01*
X154938192Y-86300205D01*
X154709800Y-86851592D01*
X154709800Y-87448408D01*
X154938192Y-87999795D01*
X155360205Y-88421808D01*
X155911592Y-88650200D01*
X156508408Y-88650200D01*
X157059795Y-88421808D01*
X157481808Y-87999795D01*
X157710200Y-87448408D01*
X157710200Y-86851592D01*
X157547572Y-86458973D01*
X159369384Y-84637100D01*
X161601016Y-84637100D01*
X161639077Y-84675161D01*
X161643718Y-84677083D01*
X161593800Y-84797595D01*
X161593800Y-84851393D01*
X158283564Y-88161262D01*
X158245378Y-88186777D01*
X158195549Y-88261351D01*
X158144337Y-88337986D01*
X158144334Y-88338000D01*
X158144328Y-88338009D01*
X158129272Y-88413703D01*
X158108843Y-88516375D01*
X158117801Y-88561423D01*
X158117800Y-91595433D01*
X157902718Y-91810534D01*
X157772923Y-91680739D01*
X157558205Y-91591800D01*
X157389803Y-91591800D01*
X157481808Y-91499795D01*
X157710200Y-90948408D01*
X157710200Y-90351592D01*
X157481808Y-89800205D01*
X157059795Y-89378192D01*
X156508408Y-89149800D01*
X155911592Y-89149800D01*
X155360205Y-89378192D01*
X154938192Y-89800205D01*
X154709800Y-90351592D01*
X154709800Y-90948408D01*
X154938192Y-91499795D01*
X155360205Y-91921808D01*
X155911592Y-92150200D01*
X156508408Y-92150200D01*
X156884959Y-91994227D01*
X156857800Y-92059795D01*
X156857800Y-92149543D01*
X156729143Y-92278200D01*
X148539452Y-92278200D01*
X148615432Y-92227432D01*
X148856829Y-91866155D01*
X148941597Y-91440000D01*
X148856829Y-91013845D01*
X148615432Y-90652568D01*
X148254155Y-90411171D01*
X147935569Y-90347800D01*
X146704431Y-90347800D01*
X146385845Y-90411171D01*
X146024568Y-90652568D01*
X145788240Y-91006258D01*
X145778478Y-91008200D01*
X145778474Y-91008200D01*
X145652520Y-91033254D01*
X145509690Y-91128690D01*
X145485600Y-91164743D01*
X134783743Y-101866600D01*
X134747690Y-101890690D01*
X134652254Y-102033521D01*
X134627200Y-102159475D01*
X134627200Y-102159478D01*
X134618742Y-102202000D01*
X134627200Y-102244523D01*
X134627200Y-102409616D01*
X134563739Y-102473077D01*
X134474800Y-102687795D01*
X134474800Y-102920205D01*
X134563739Y-103134923D01*
X134627201Y-103198385D01*
X134627200Y-112238935D01*
X134547205Y-112205800D01*
X134314795Y-112205800D01*
X134100077Y-112294739D01*
X134010800Y-112384016D01*
X134010800Y-88900000D01*
X145698403Y-88900000D01*
X145783171Y-89326155D01*
X146024568Y-89687432D01*
X146385845Y-89928829D01*
X146704431Y-89992200D01*
X147935569Y-89992200D01*
X148254155Y-89928829D01*
X148615432Y-89687432D01*
X148856829Y-89326155D01*
X148941597Y-88900000D01*
X148856829Y-88473845D01*
X148615432Y-88112568D01*
X148254155Y-87871171D01*
X147935569Y-87807800D01*
X146704431Y-87807800D01*
X146385845Y-87871171D01*
X146024568Y-88112568D01*
X145783171Y-88473845D01*
X145698403Y-88900000D01*
X134010800Y-88900000D01*
X134010800Y-86360000D01*
X145698403Y-86360000D01*
X145783171Y-86786155D01*
X146024568Y-87147432D01*
X146385845Y-87388829D01*
X146704431Y-87452200D01*
X147935569Y-87452200D01*
X148254155Y-87388829D01*
X148615432Y-87147432D01*
X148856829Y-86786155D01*
X148941597Y-86360000D01*
X148856829Y-85933845D01*
X148615432Y-85572568D01*
X148254155Y-85331171D01*
X147935569Y-85267800D01*
X146704431Y-85267800D01*
X146385845Y-85331171D01*
X146024568Y-85572568D01*
X145783171Y-85933845D01*
X145698403Y-86360000D01*
X134010800Y-86360000D01*
X134010800Y-83820000D01*
X145698403Y-83820000D01*
X145783171Y-84246155D01*
X146024568Y-84607432D01*
X146385845Y-84848829D01*
X146704431Y-84912200D01*
X147935569Y-84912200D01*
X148254155Y-84848829D01*
X148615432Y-84607432D01*
X148856829Y-84246155D01*
X148941597Y-83820000D01*
X148856829Y-83393845D01*
X148615432Y-83032568D01*
X148254155Y-82791171D01*
X147935569Y-82727800D01*
X146704431Y-82727800D01*
X146385845Y-82791171D01*
X146024568Y-83032568D01*
X145783171Y-83393845D01*
X145698403Y-83820000D01*
X134010800Y-83820000D01*
X134010800Y-81280000D01*
X145698403Y-81280000D01*
X145783171Y-81706155D01*
X146024568Y-82067432D01*
X146385845Y-82308829D01*
X146704431Y-82372200D01*
X147935569Y-82372200D01*
X148254155Y-82308829D01*
X148615432Y-82067432D01*
X148856829Y-81706155D01*
X148941597Y-81280000D01*
X148856829Y-80853845D01*
X148615432Y-80492568D01*
X148254155Y-80251171D01*
X147935569Y-80187800D01*
X146704431Y-80187800D01*
X146385845Y-80251171D01*
X146024568Y-80492568D01*
X145783171Y-80853845D01*
X145698403Y-81280000D01*
X134010800Y-81280000D01*
X134010800Y-78740000D01*
X145698403Y-78740000D01*
X145783171Y-79166155D01*
X146024568Y-79527432D01*
X146385845Y-79768829D01*
X146704431Y-79832200D01*
X147935569Y-79832200D01*
X148254155Y-79768829D01*
X148615432Y-79527432D01*
X148856829Y-79166155D01*
X148941597Y-78740000D01*
X148856829Y-78313845D01*
X148615432Y-77952568D01*
X148254155Y-77711171D01*
X147935569Y-77647800D01*
X146704431Y-77647800D01*
X146385845Y-77711171D01*
X146024568Y-77952568D01*
X145783171Y-78313845D01*
X145698403Y-78740000D01*
X134010800Y-78740000D01*
X134010800Y-76200000D01*
X145698403Y-76200000D01*
X145783171Y-76626155D01*
X146024568Y-76987432D01*
X146385845Y-77228829D01*
X146704431Y-77292200D01*
X147935569Y-77292200D01*
X148254155Y-77228829D01*
X148615432Y-76987432D01*
X148856829Y-76626155D01*
X148941597Y-76200000D01*
X148856829Y-75773845D01*
X148615432Y-75412568D01*
X148254155Y-75171171D01*
X147935569Y-75107800D01*
X146704431Y-75107800D01*
X146385845Y-75171171D01*
X146024568Y-75412568D01*
X145783171Y-75773845D01*
X145698403Y-76200000D01*
X134010800Y-76200000D01*
X134010800Y-73702526D01*
X134019259Y-73660000D01*
X145698403Y-73660000D01*
X145783171Y-74086155D01*
X146024568Y-74447432D01*
X146385845Y-74688829D01*
X146704431Y-74752200D01*
X147935569Y-74752200D01*
X148254155Y-74688829D01*
X148615432Y-74447432D01*
X148856829Y-74086155D01*
X148941597Y-73660000D01*
X148856829Y-73233845D01*
X148615432Y-72872568D01*
X148254155Y-72631171D01*
X147935569Y-72567800D01*
X146704431Y-72567800D01*
X146385845Y-72631171D01*
X146024568Y-72872568D01*
X145783171Y-73233845D01*
X145698403Y-73660000D01*
X134019259Y-73660000D01*
X133985746Y-73491520D01*
X133890310Y-73348690D01*
X133747480Y-73253254D01*
X133621526Y-73228200D01*
X133611759Y-73226257D01*
X133375432Y-72872568D01*
X133014155Y-72631171D01*
X132695569Y-72567800D01*
X131464431Y-72567800D01*
X131145845Y-72631171D01*
X131012800Y-72720069D01*
X131012800Y-72059931D01*
X131145845Y-72148829D01*
X131464431Y-72212200D01*
X132695569Y-72212200D01*
X133014155Y-72148829D01*
X133375432Y-71907432D01*
X133616829Y-71546155D01*
X133701597Y-71120000D01*
X145698403Y-71120000D01*
X145783171Y-71546155D01*
X146024568Y-71907432D01*
X146385845Y-72148829D01*
X146704431Y-72212200D01*
X147935569Y-72212200D01*
X148254155Y-72148829D01*
X148615432Y-71907432D01*
X148856829Y-71546155D01*
X148941597Y-71120000D01*
X148856829Y-70693845D01*
X148615432Y-70332568D01*
X148254155Y-70091171D01*
X147935569Y-70027800D01*
X146704431Y-70027800D01*
X146385845Y-70091171D01*
X146024568Y-70332568D01*
X145783171Y-70693845D01*
X145698403Y-71120000D01*
X133701597Y-71120000D01*
X133616829Y-70693845D01*
X133375432Y-70332568D01*
X133014155Y-70091171D01*
X132695569Y-70027800D01*
X131464431Y-70027800D01*
X131145845Y-70091171D01*
X131012800Y-70180069D01*
X131012800Y-69519931D01*
X131145845Y-69608829D01*
X131464431Y-69672200D01*
X132695569Y-69672200D01*
X133014155Y-69608829D01*
X133375432Y-69367432D01*
X133616829Y-69006155D01*
X133701597Y-68580000D01*
X145698403Y-68580000D01*
X145783171Y-69006155D01*
X146024568Y-69367432D01*
X146385845Y-69608829D01*
X146704431Y-69672200D01*
X147935569Y-69672200D01*
X148254155Y-69608829D01*
X148615432Y-69367432D01*
X148856829Y-69006155D01*
X148941597Y-68580000D01*
X148856829Y-68153845D01*
X148615432Y-67792568D01*
X148254155Y-67551171D01*
X147935569Y-67487800D01*
X146704431Y-67487800D01*
X146385845Y-67551171D01*
X146024568Y-67792568D01*
X145783171Y-68153845D01*
X145698403Y-68580000D01*
X133701597Y-68580000D01*
X133616829Y-68153845D01*
X133375432Y-67792568D01*
X133014155Y-67551171D01*
X132695569Y-67487800D01*
X131464431Y-67487800D01*
X131145845Y-67551171D01*
X131012800Y-67640069D01*
X131012800Y-66979931D01*
X131145845Y-67068829D01*
X131464431Y-67132200D01*
X132695569Y-67132200D01*
X133014155Y-67068829D01*
X133375432Y-66827432D01*
X133616829Y-66466155D01*
X133701597Y-66040000D01*
X145698403Y-66040000D01*
X145783171Y-66466155D01*
X146024568Y-66827432D01*
X146385845Y-67068829D01*
X146704431Y-67132200D01*
X147935569Y-67132200D01*
X148254155Y-67068829D01*
X148615432Y-66827432D01*
X148856829Y-66466155D01*
X148941597Y-66040000D01*
X148856829Y-65613845D01*
X148615432Y-65252568D01*
X148254155Y-65011171D01*
X147935569Y-64947800D01*
X146704431Y-64947800D01*
X146385845Y-65011171D01*
X146024568Y-65252568D01*
X145783171Y-65613845D01*
X145698403Y-66040000D01*
X133701597Y-66040000D01*
X133616829Y-65613845D01*
X133375432Y-65252568D01*
X133014155Y-65011171D01*
X132695569Y-64947800D01*
X131464431Y-64947800D01*
X131145845Y-65011171D01*
X130784568Y-65252568D01*
X130548241Y-65606257D01*
X130538474Y-65608200D01*
X130412520Y-65633254D01*
X130269690Y-65728690D01*
X130174254Y-65871520D01*
X130140741Y-66040000D01*
X130149200Y-66082526D01*
X130149201Y-85005144D01*
X124914961Y-90239477D01*
X124808923Y-90133439D01*
X124594205Y-90044500D01*
X124361795Y-90044500D01*
X124147077Y-90133439D01*
X123982739Y-90297777D01*
X123893800Y-90512495D01*
X123893800Y-90602281D01*
X118374730Y-96122109D01*
X118342923Y-96143362D01*
X118319077Y-96153239D01*
X118154739Y-96317577D01*
X118065800Y-96532295D01*
X118065800Y-96764705D01*
X118154739Y-96979423D01*
X118218200Y-97042884D01*
X118218201Y-106574615D01*
X118156739Y-106636077D01*
X118067800Y-106850795D01*
X118067800Y-107083205D01*
X118156739Y-107297923D01*
X118220200Y-107361384D01*
X118220201Y-116110615D01*
X118088739Y-116242077D01*
X117999800Y-116456795D01*
X117999800Y-116689205D01*
X118088739Y-116903923D01*
X118253077Y-117068261D01*
X118467795Y-117157200D01*
X118700205Y-117157200D01*
X118914923Y-117068261D01*
X119079261Y-116903923D01*
X119168200Y-116689205D01*
X119168200Y-116456795D01*
X119083800Y-116253035D01*
X119083800Y-109496675D01*
X119106795Y-109506200D01*
X119339205Y-109506200D01*
X119553923Y-109417261D01*
X119590200Y-109380984D01*
X119590201Y-118499800D01*
X119579795Y-118499800D01*
X119365077Y-118588739D01*
X119200739Y-118753077D01*
X119111800Y-118967795D01*
X119111800Y-119200205D01*
X119200739Y-119414923D01*
X119365077Y-119579261D01*
X119579795Y-119668200D01*
X119812205Y-119668200D01*
X120026923Y-119579261D01*
X120191261Y-119414923D01*
X120280200Y-119200205D01*
X120280200Y-119110458D01*
X120297260Y-119093398D01*
X120333310Y-119069310D01*
X120428746Y-118926480D01*
X120453800Y-118800526D01*
X120462259Y-118758000D01*
X120453800Y-118715474D01*
X120453800Y-110136386D01*
X121366226Y-111048117D01*
X121010743Y-111403600D01*
X120974690Y-111427690D01*
X120879254Y-111570521D01*
X120854200Y-111696475D01*
X120854200Y-111696478D01*
X120845742Y-111739000D01*
X120854200Y-111781522D01*
X120854201Y-120276473D01*
X120845742Y-120319000D01*
X120879254Y-120487479D01*
X120950601Y-120594258D01*
X120950603Y-120594260D01*
X120974691Y-120630310D01*
X121010741Y-120654398D01*
X121612800Y-121256457D01*
X121612800Y-121346205D01*
X121701739Y-121560923D01*
X121866077Y-121725261D01*
X122080795Y-121814200D01*
X122170757Y-121814200D01*
X123163647Y-122806327D01*
X123187690Y-122842310D01*
X123223812Y-122866446D01*
X123223870Y-122866504D01*
X123258476Y-122889608D01*
X123330520Y-122937746D01*
X123330606Y-122937763D01*
X123330676Y-122937810D01*
X123412855Y-122954124D01*
X123456474Y-122962800D01*
X123456562Y-122962800D01*
X123499169Y-122971258D01*
X123541605Y-122962800D01*
X127711800Y-122962800D01*
X127711800Y-123105205D01*
X127800739Y-123319923D01*
X127965077Y-123484261D01*
X128179795Y-123573200D01*
X128269593Y-123573200D01*
X133542612Y-128845275D01*
X133566690Y-128881310D01*
X133602758Y-128905410D01*
X133602771Y-128905423D01*
X133637880Y-128928878D01*
X133709520Y-128976746D01*
X133709539Y-128976750D01*
X133709556Y-128976761D01*
X133789077Y-128992571D01*
X133835474Y-129001800D01*
X133835497Y-129001800D01*
X133878039Y-129010258D01*
X133920541Y-129001800D01*
X156717468Y-129001800D01*
X156759980Y-129010258D01*
X156802512Y-129001800D01*
X156802526Y-129001800D01*
X156853274Y-128991706D01*
X156928460Y-128976754D01*
X156928469Y-128976748D01*
X156928480Y-128976746D01*
X157004977Y-128925632D01*
X157035242Y-128905412D01*
X157035248Y-128905406D01*
X157071310Y-128881310D01*
X157095394Y-128845265D01*
X158183995Y-127756766D01*
X162519800Y-127756766D01*
X162519800Y-128783234D01*
X162912612Y-129731566D01*
X163638434Y-130457388D01*
X164586766Y-130850200D01*
X165613234Y-130850200D01*
X166561566Y-130457388D01*
X167287388Y-129731566D01*
X167680200Y-128783234D01*
X167680200Y-128168653D01*
X177279800Y-128168653D01*
X177279800Y-129007347D01*
X177600754Y-129782199D01*
X178193801Y-130375246D01*
X178968653Y-130696200D01*
X179807347Y-130696200D01*
X180582199Y-130375246D01*
X181175246Y-129782199D01*
X181496200Y-129007347D01*
X181496200Y-128168653D01*
X181175246Y-127393801D01*
X180582199Y-126800754D01*
X179807347Y-126479800D01*
X178968653Y-126479800D01*
X178193801Y-126800754D01*
X177600754Y-127393801D01*
X177279800Y-128168653D01*
X167680200Y-128168653D01*
X167680200Y-127756766D01*
X167287388Y-126808434D01*
X166561566Y-126082612D01*
X166399187Y-126015352D01*
X167919800Y-126015352D01*
X167919800Y-126524648D01*
X168114699Y-126995175D01*
X168474825Y-127355301D01*
X168945352Y-127550200D01*
X169454648Y-127550200D01*
X169925175Y-127355301D01*
X170285301Y-126995175D01*
X170480200Y-126524648D01*
X170480200Y-126015352D01*
X170285301Y-125544825D01*
X169925175Y-125184699D01*
X169454648Y-124989800D01*
X168945352Y-124989800D01*
X168474825Y-125184699D01*
X168114699Y-125544825D01*
X167919800Y-126015352D01*
X166399187Y-126015352D01*
X165613234Y-125689800D01*
X164586766Y-125689800D01*
X163638434Y-126082612D01*
X162912612Y-126808434D01*
X162519800Y-127756766D01*
X158183995Y-127756766D01*
X159719800Y-126221106D01*
X159719800Y-126524648D01*
X159914699Y-126995175D01*
X160274825Y-127355301D01*
X160745352Y-127550200D01*
X161254648Y-127550200D01*
X161725175Y-127355301D01*
X162085301Y-126995175D01*
X162280200Y-126524648D01*
X162280200Y-126015352D01*
X162085301Y-125544825D01*
X161725175Y-125184699D01*
X161254648Y-124989800D01*
X160951222Y-124989800D01*
X167585845Y-118355800D01*
X169721800Y-118355800D01*
X169651800Y-118524795D01*
X169651800Y-118757205D01*
X169740739Y-118971923D01*
X169905077Y-119136261D01*
X170119795Y-119225200D01*
X170352205Y-119225200D01*
X170566923Y-119136261D01*
X170630384Y-119072800D01*
X172343488Y-119072800D01*
X172386020Y-119081258D01*
X172453683Y-119067796D01*
X172554480Y-119047746D01*
X172554489Y-119047740D01*
X172554498Y-119047738D01*
X172620410Y-119003693D01*
X172697310Y-118952310D01*
X172721405Y-118916249D01*
X182492939Y-109143795D01*
X183205800Y-109143795D01*
X183205800Y-109376205D01*
X183294739Y-109590923D01*
X183459077Y-109755261D01*
X183673795Y-109844200D01*
X183906205Y-109844200D01*
X184120923Y-109755261D01*
X184158984Y-109717200D01*
X184234435Y-109717200D01*
X184555800Y-110039014D01*
X184555800Y-110093205D01*
X184644739Y-110307923D01*
X184809077Y-110472261D01*
X185023795Y-110561200D01*
X185256205Y-110561200D01*
X185470923Y-110472261D01*
X185635261Y-110307923D01*
X185724200Y-110093205D01*
X185724200Y-109860795D01*
X185635261Y-109646077D01*
X185470923Y-109481739D01*
X185256205Y-109392800D01*
X185202742Y-109392800D01*
X184779224Y-108968692D01*
X184753623Y-108930377D01*
X184676520Y-108878859D01*
X184602690Y-108829452D01*
X184602530Y-108829420D01*
X184602391Y-108829327D01*
X184512924Y-108811531D01*
X184424325Y-108793843D01*
X184379131Y-108802800D01*
X184158984Y-108802800D01*
X184120923Y-108764739D01*
X183906205Y-108675800D01*
X183673795Y-108675800D01*
X183459077Y-108764739D01*
X183294739Y-108929077D01*
X183205800Y-109143795D01*
X182492939Y-109143795D01*
X183042483Y-108594200D01*
X183132205Y-108594200D01*
X183346923Y-108505261D01*
X183511261Y-108340923D01*
X183600200Y-108126205D01*
X183600200Y-107893795D01*
X183511261Y-107679077D01*
X183346923Y-107514739D01*
X183132205Y-107425800D01*
X182899795Y-107425800D01*
X182685077Y-107514739D01*
X182520739Y-107679077D01*
X182431800Y-107893795D01*
X182431800Y-107983569D01*
X172207131Y-118209200D01*
X170779756Y-118209200D01*
X170786407Y-118199247D01*
X181330482Y-107654200D01*
X181420205Y-107654200D01*
X181634923Y-107565261D01*
X181799261Y-107400923D01*
X181888200Y-107186205D01*
X181888200Y-106953795D01*
X181799261Y-106739077D01*
X181692381Y-106632197D01*
X182628828Y-105695750D01*
X183560000Y-105695750D01*
X183560000Y-106761309D01*
X183656673Y-106994698D01*
X183835301Y-107173327D01*
X184068690Y-107270000D01*
X185134250Y-107270000D01*
X185293000Y-107111250D01*
X185293000Y-105537000D01*
X185547000Y-105537000D01*
X185547000Y-107111250D01*
X185705750Y-107270000D01*
X186771310Y-107270000D01*
X187004699Y-107173327D01*
X187183327Y-106994698D01*
X187280000Y-106761309D01*
X187280000Y-105695750D01*
X187121250Y-105537000D01*
X185547000Y-105537000D01*
X185293000Y-105537000D01*
X183718750Y-105537000D01*
X183560000Y-105695750D01*
X182628828Y-105695750D01*
X183560000Y-104764579D01*
X183560000Y-105124250D01*
X183718750Y-105283000D01*
X185293000Y-105283000D01*
X185293000Y-103708750D01*
X185547000Y-103708750D01*
X185547000Y-105283000D01*
X187121250Y-105283000D01*
X187280000Y-105124250D01*
X187280000Y-104058691D01*
X187183327Y-103825302D01*
X187004699Y-103646673D01*
X186771310Y-103550000D01*
X185705750Y-103550000D01*
X185547000Y-103708750D01*
X185293000Y-103708750D01*
X185134250Y-103550000D01*
X184774579Y-103550000D01*
X185461449Y-102863130D01*
X185499623Y-102837623D01*
X185600673Y-102686391D01*
X185627200Y-102553030D01*
X185627200Y-102553029D01*
X185636157Y-102508000D01*
X185627200Y-102462970D01*
X185627200Y-101820984D01*
X185665261Y-101782923D01*
X185754200Y-101568205D01*
X185754200Y-101335795D01*
X185698491Y-101201303D01*
X185744261Y-101155533D01*
X185793670Y-101036249D01*
X186217800Y-101460379D01*
X186217800Y-101514205D01*
X186306739Y-101728923D01*
X186471077Y-101893261D01*
X186685795Y-101982200D01*
X186918205Y-101982200D01*
X187132923Y-101893261D01*
X187233725Y-101792459D01*
X188399800Y-102958394D01*
X188399801Y-103145015D01*
X188361739Y-103183077D01*
X188272800Y-103397795D01*
X188272800Y-103630205D01*
X188361739Y-103844923D01*
X188526077Y-104009261D01*
X188740795Y-104098200D01*
X188794622Y-104098200D01*
X188980800Y-104284379D01*
X188980801Y-104666015D01*
X188942739Y-104704077D01*
X188853800Y-104918795D01*
X188853800Y-105151205D01*
X188942739Y-105365923D01*
X189107077Y-105530261D01*
X189321795Y-105619200D01*
X189420500Y-105619200D01*
X189420500Y-132697532D01*
X189346436Y-133638608D01*
X189130158Y-134539474D01*
X188775615Y-135395417D01*
X188291535Y-136185361D01*
X187689850Y-136889844D01*
X186985358Y-137491537D01*
X186195412Y-137975616D01*
X185339475Y-138330157D01*
X184438614Y-138546435D01*
X183497533Y-138620500D01*
X121302467Y-138620500D01*
X120361392Y-138546436D01*
X119460526Y-138330158D01*
X118604583Y-137975615D01*
X117814639Y-137491535D01*
X117110156Y-136889850D01*
X116508463Y-136185358D01*
X116495027Y-136163431D01*
X150037800Y-136163431D01*
X150037800Y-136886568D01*
X150101171Y-137205154D01*
X150342568Y-137566432D01*
X150703845Y-137807829D01*
X151130000Y-137892597D01*
X151556154Y-137807829D01*
X151917432Y-137566432D01*
X152158829Y-137205155D01*
X152222200Y-136886569D01*
X152222200Y-136163432D01*
X152222200Y-136163431D01*
X152577800Y-136163431D01*
X152577800Y-136886568D01*
X152641171Y-137205154D01*
X152882568Y-137566432D01*
X153243845Y-137807829D01*
X153670000Y-137892597D01*
X154096154Y-137807829D01*
X154457432Y-137566432D01*
X154698829Y-137205155D01*
X154762200Y-136886569D01*
X154762200Y-136163432D01*
X154698829Y-135844846D01*
X154457432Y-135483568D01*
X154096155Y-135242171D01*
X153670000Y-135157403D01*
X153243846Y-135242171D01*
X152882569Y-135483568D01*
X152641171Y-135844845D01*
X152577800Y-136163431D01*
X152222200Y-136163431D01*
X152158829Y-135844846D01*
X151917432Y-135483568D01*
X151556155Y-135242171D01*
X151130000Y-135157403D01*
X150703846Y-135242171D01*
X150342569Y-135483568D01*
X150101171Y-135844845D01*
X150037800Y-136163431D01*
X116495027Y-136163431D01*
X116024384Y-135395412D01*
X115669843Y-134539475D01*
X115453565Y-133638614D01*
X115379500Y-132697533D01*
X115379500Y-131572000D01*
X149733000Y-131572000D01*
X149733000Y-131826000D01*
X149887941Y-132350941D01*
X150231974Y-132776630D01*
X150712723Y-133038260D01*
X150786930Y-133053220D01*
X151003000Y-132930720D01*
X151003000Y-131572000D01*
X151257000Y-131572000D01*
X151257000Y-132930720D01*
X151473070Y-133053220D01*
X151547277Y-133038260D01*
X152028026Y-132776630D01*
X152372059Y-132350941D01*
X152400000Y-132256277D01*
X152427941Y-132350941D01*
X152771974Y-132776630D01*
X153252723Y-133038260D01*
X153326930Y-133053220D01*
X153543000Y-132930720D01*
X153543000Y-131572000D01*
X153797000Y-131572000D01*
X153797000Y-132930720D01*
X154013070Y-133053220D01*
X154087277Y-133038260D01*
X154568026Y-132776630D01*
X154912059Y-132350941D01*
X155067000Y-131826000D01*
X155067000Y-131572000D01*
X153797000Y-131572000D01*
X153543000Y-131572000D01*
X151257000Y-131572000D01*
X151003000Y-131572000D01*
X149733000Y-131572000D01*
X115379500Y-131572000D01*
X115379500Y-131064000D01*
X149733000Y-131064000D01*
X149733000Y-131318000D01*
X151003000Y-131318000D01*
X151003000Y-129959280D01*
X151257000Y-129959280D01*
X151257000Y-131318000D01*
X153543000Y-131318000D01*
X153543000Y-129959280D01*
X153797000Y-129959280D01*
X153797000Y-131318000D01*
X155067000Y-131318000D01*
X155067000Y-131064000D01*
X154912059Y-130539059D01*
X154568026Y-130113370D01*
X154087277Y-129851740D01*
X154013070Y-129836780D01*
X153797000Y-129959280D01*
X153543000Y-129959280D01*
X153326930Y-129836780D01*
X153252723Y-129851740D01*
X152771974Y-130113370D01*
X152427941Y-130539059D01*
X152400000Y-130633723D01*
X152372059Y-130539059D01*
X152028026Y-130113370D01*
X151547277Y-129851740D01*
X151473070Y-129836780D01*
X151257000Y-129959280D01*
X151003000Y-129959280D01*
X150786930Y-129836780D01*
X150712723Y-129851740D01*
X150231974Y-130113370D01*
X149887941Y-130539059D01*
X149733000Y-131064000D01*
X115379500Y-131064000D01*
X115379500Y-128168653D01*
X123303800Y-128168653D01*
X123303800Y-129007347D01*
X123624754Y-129782199D01*
X124217801Y-130375246D01*
X124992653Y-130696200D01*
X125831347Y-130696200D01*
X126606199Y-130375246D01*
X127199246Y-129782199D01*
X127520200Y-129007347D01*
X127520200Y-128168653D01*
X127199246Y-127393801D01*
X126606199Y-126800754D01*
X125831347Y-126479800D01*
X124992653Y-126479800D01*
X124217801Y-126800754D01*
X123624754Y-127393801D01*
X123303800Y-128168653D01*
X115379500Y-128168653D01*
X115379500Y-74193153D01*
X123303800Y-74193153D01*
X123303800Y-75031847D01*
X123624754Y-75806699D01*
X124217801Y-76399746D01*
X124992653Y-76720700D01*
X125831347Y-76720700D01*
X126606199Y-76399746D01*
X127199246Y-75806699D01*
X127520200Y-75031847D01*
X127520200Y-74193153D01*
X127199246Y-73418301D01*
X126606199Y-72825254D01*
X125831347Y-72504300D01*
X124992653Y-72504300D01*
X124217801Y-72825254D01*
X123624754Y-73418301D01*
X123303800Y-74193153D01*
X115379500Y-74193153D01*
X115379500Y-70502467D01*
X115453565Y-69561386D01*
X115669843Y-68660525D01*
X116024384Y-67804588D01*
X116508463Y-67014642D01*
X117110156Y-66310150D01*
X117814639Y-65708465D01*
X118604583Y-65224385D01*
X119460526Y-64869842D01*
X120361392Y-64653564D01*
X121302467Y-64579500D01*
X183497533Y-64579500D01*
X184438614Y-64653565D01*
G36*
X160700000Y-105124250D02*
X160858750Y-105283000D01*
X162433000Y-105283000D01*
X162433000Y-105263000D01*
X162687000Y-105263000D01*
X162687000Y-105283000D01*
X164261250Y-105283000D01*
X164420000Y-105124250D01*
X164420000Y-104353200D01*
X166212616Y-104353200D01*
X166184739Y-104381077D01*
X166095800Y-104595795D01*
X166095800Y-104828205D01*
X166184739Y-105042923D01*
X166248201Y-105106385D01*
X166248200Y-111872013D01*
X165521273Y-112598200D01*
X158929384Y-112598200D01*
X158865923Y-112534739D01*
X158651205Y-112445800D01*
X158418795Y-112445800D01*
X158204077Y-112534739D01*
X158039739Y-112699077D01*
X157950800Y-112913795D01*
X157950800Y-113146205D01*
X158039739Y-113360923D01*
X158204077Y-113525261D01*
X158418795Y-113614200D01*
X158619221Y-113614200D01*
X156901003Y-115332418D01*
X156508408Y-115169800D01*
X155911592Y-115169800D01*
X155360205Y-115398192D01*
X154938192Y-115820205D01*
X154709800Y-116371592D01*
X154709800Y-116968408D01*
X154938192Y-117519795D01*
X155360205Y-117941808D01*
X155911592Y-118170200D01*
X156508408Y-118170200D01*
X157059795Y-117941808D01*
X157481808Y-117519795D01*
X157710200Y-116968408D01*
X157710200Y-116371592D01*
X157547582Y-115978997D01*
X159556379Y-113970200D01*
X161763222Y-113970200D01*
X156901004Y-118832418D01*
X156508408Y-118669800D01*
X155911592Y-118669800D01*
X155360205Y-118898192D01*
X154938192Y-119320205D01*
X154709800Y-119871592D01*
X154709800Y-120468408D01*
X154938192Y-121019795D01*
X155360205Y-121441808D01*
X155911592Y-121670200D01*
X156508408Y-121670200D01*
X157059795Y-121441808D01*
X157481808Y-121019795D01*
X157710200Y-120468408D01*
X157710200Y-119871592D01*
X157547582Y-119478996D01*
X162700378Y-114326200D01*
X172076222Y-114326200D01*
X170011622Y-116390800D01*
X163077030Y-116390800D01*
X163032000Y-116381843D01*
X162986970Y-116390800D01*
X162853609Y-116417327D01*
X162702377Y-116518377D01*
X162676870Y-116556551D01*
X156901003Y-122332418D01*
X156508408Y-122169800D01*
X155911592Y-122169800D01*
X155360205Y-122398192D01*
X154938192Y-122820205D01*
X154709800Y-123371592D01*
X154709800Y-123968408D01*
X154938192Y-124519795D01*
X155360205Y-124941808D01*
X155911592Y-125170200D01*
X156508408Y-125170200D01*
X157059795Y-124941808D01*
X157481808Y-124519795D01*
X157710200Y-123968408D01*
X157710200Y-123371592D01*
X157547582Y-122978997D01*
X163221379Y-117305200D01*
X165428221Y-117305200D01*
X156901003Y-125832418D01*
X156508408Y-125669800D01*
X155911592Y-125669800D01*
X155360205Y-125898192D01*
X154938192Y-126320205D01*
X154709800Y-126871592D01*
X154709800Y-127468408D01*
X154938192Y-128019795D01*
X155056597Y-128138200D01*
X134056835Y-128138200D01*
X131470371Y-125552200D01*
X132695569Y-125552200D01*
X133014155Y-125488829D01*
X133375432Y-125247432D01*
X133616829Y-124886155D01*
X133644757Y-124745750D01*
X145415000Y-124745750D01*
X145415000Y-125348310D01*
X145511673Y-125581699D01*
X145690302Y-125760327D01*
X145923691Y-125857000D01*
X147034250Y-125857000D01*
X147193000Y-125698250D01*
X147193000Y-124587000D01*
X147447000Y-124587000D01*
X147447000Y-125698250D01*
X147605750Y-125857000D01*
X148716309Y-125857000D01*
X148949698Y-125760327D01*
X149128327Y-125581699D01*
X149225000Y-125348310D01*
X149225000Y-124745750D01*
X149066250Y-124587000D01*
X147447000Y-124587000D01*
X147193000Y-124587000D01*
X145573750Y-124587000D01*
X145415000Y-124745750D01*
X133644757Y-124745750D01*
X133701597Y-124460000D01*
X133616829Y-124033845D01*
X133375432Y-123672568D01*
X133224458Y-123571690D01*
X145415000Y-123571690D01*
X145415000Y-124174250D01*
X145573750Y-124333000D01*
X147193000Y-124333000D01*
X147193000Y-123221750D01*
X147447000Y-123221750D01*
X147447000Y-124333000D01*
X149066250Y-124333000D01*
X149225000Y-124174250D01*
X149225000Y-123571690D01*
X149128327Y-123338301D01*
X148949698Y-123159673D01*
X148716309Y-123063000D01*
X147605750Y-123063000D01*
X147447000Y-123221750D01*
X147193000Y-123221750D01*
X147034250Y-123063000D01*
X145923691Y-123063000D01*
X145690302Y-123159673D01*
X145511673Y-123338301D01*
X145415000Y-123571690D01*
X133224458Y-123571690D01*
X133014155Y-123431171D01*
X132695569Y-123367800D01*
X131464431Y-123367800D01*
X131145845Y-123431171D01*
X130784568Y-123672568D01*
X130543171Y-124033845D01*
X130458403Y-124460000D01*
X130478369Y-124560376D01*
X129235570Y-123317800D01*
X133340478Y-123317800D01*
X133383000Y-123326258D01*
X133425522Y-123317800D01*
X133425526Y-123317800D01*
X133551480Y-123292746D01*
X133694310Y-123197310D01*
X133718400Y-123161257D01*
X134959657Y-121920000D01*
X145698403Y-121920000D01*
X145783171Y-122346155D01*
X146024568Y-122707432D01*
X146385845Y-122948829D01*
X146704431Y-123012200D01*
X147935569Y-123012200D01*
X148254155Y-122948829D01*
X148615432Y-122707432D01*
X148856829Y-122346155D01*
X148941597Y-121920000D01*
X148856829Y-121493845D01*
X148615432Y-121132568D01*
X148254155Y-120891171D01*
X147935569Y-120827800D01*
X146704431Y-120827800D01*
X146385845Y-120891171D01*
X146024568Y-121132568D01*
X145783171Y-121493845D01*
X145698403Y-121920000D01*
X134959657Y-121920000D01*
X137499657Y-119380000D01*
X145698403Y-119380000D01*
X145783171Y-119806155D01*
X146024568Y-120167432D01*
X146385845Y-120408829D01*
X146704431Y-120472200D01*
X147935569Y-120472200D01*
X148254155Y-120408829D01*
X148615432Y-120167432D01*
X148856829Y-119806155D01*
X148941597Y-119380000D01*
X148856829Y-118953845D01*
X148615432Y-118592568D01*
X148254155Y-118351171D01*
X147935569Y-118287800D01*
X146704431Y-118287800D01*
X146385845Y-118351171D01*
X146024568Y-118592568D01*
X145783171Y-118953845D01*
X145698403Y-119380000D01*
X137499657Y-119380000D01*
X140039657Y-116840000D01*
X145698403Y-116840000D01*
X145783171Y-117266155D01*
X146024568Y-117627432D01*
X146385845Y-117868829D01*
X146704431Y-117932200D01*
X147935569Y-117932200D01*
X148254155Y-117868829D01*
X148615432Y-117627432D01*
X148856829Y-117266155D01*
X148941597Y-116840000D01*
X148856829Y-116413845D01*
X148615432Y-116052568D01*
X148254155Y-115811171D01*
X147935569Y-115747800D01*
X146704431Y-115747800D01*
X146385845Y-115811171D01*
X146024568Y-116052568D01*
X145783171Y-116413845D01*
X145698403Y-116840000D01*
X140039657Y-116840000D01*
X142579657Y-114300000D01*
X145698403Y-114300000D01*
X145783171Y-114726155D01*
X146024568Y-115087432D01*
X146385845Y-115328829D01*
X146704431Y-115392200D01*
X147935569Y-115392200D01*
X148254155Y-115328829D01*
X148615432Y-115087432D01*
X148856829Y-114726155D01*
X148941597Y-114300000D01*
X148856829Y-113873845D01*
X148615432Y-113512568D01*
X148254155Y-113271171D01*
X147935569Y-113207800D01*
X146704431Y-113207800D01*
X146385845Y-113271171D01*
X146024568Y-113512568D01*
X145783171Y-113873845D01*
X145698403Y-114300000D01*
X142579657Y-114300000D01*
X145445257Y-111434400D01*
X145481310Y-111410310D01*
X145576746Y-111267480D01*
X145601800Y-111141526D01*
X145601800Y-111141523D01*
X145610258Y-111099001D01*
X145601800Y-111056479D01*
X145601800Y-110035457D01*
X146223602Y-110657260D01*
X146247690Y-110693310D01*
X146283740Y-110717398D01*
X146283741Y-110717399D01*
X146345099Y-110758397D01*
X146024568Y-110972568D01*
X145783171Y-111333845D01*
X145698403Y-111760000D01*
X145783171Y-112186155D01*
X146024568Y-112547432D01*
X146385845Y-112788829D01*
X146704431Y-112852200D01*
X147935569Y-112852200D01*
X148254155Y-112788829D01*
X148615432Y-112547432D01*
X148856829Y-112186155D01*
X148941597Y-111760000D01*
X148925769Y-111680426D01*
X149576600Y-112331257D01*
X149600690Y-112367310D01*
X149743520Y-112462746D01*
X149844338Y-112482800D01*
X149912000Y-112496259D01*
X149954526Y-112487800D01*
X156792478Y-112487800D01*
X156835000Y-112496258D01*
X156877522Y-112487800D01*
X156877526Y-112487800D01*
X157003480Y-112462746D01*
X157146310Y-112367310D01*
X157170400Y-112331257D01*
X160015858Y-109485800D01*
X161298800Y-109485800D01*
X161298800Y-109669205D01*
X161387739Y-109883923D01*
X161552077Y-110048261D01*
X161766795Y-110137200D01*
X161999205Y-110137200D01*
X162081288Y-110103200D01*
X162493016Y-110103200D01*
X162531077Y-110141261D01*
X162745795Y-110230200D01*
X162978205Y-110230200D01*
X163192923Y-110141261D01*
X163357261Y-109976923D01*
X163446200Y-109762205D01*
X163446200Y-109529795D01*
X163427977Y-109485800D01*
X163915616Y-109485800D01*
X163979077Y-109549261D01*
X164193795Y-109638200D01*
X164426205Y-109638200D01*
X164640923Y-109549261D01*
X164805261Y-109384923D01*
X164894200Y-109170205D01*
X164894200Y-108937795D01*
X164805261Y-108723077D01*
X164640923Y-108558739D01*
X164426205Y-108469800D01*
X164193795Y-108469800D01*
X163979077Y-108558739D01*
X163915616Y-108622200D01*
X159879521Y-108622200D01*
X159836999Y-108613742D01*
X159794477Y-108622200D01*
X159794474Y-108622200D01*
X159668520Y-108647254D01*
X159561741Y-108718601D01*
X159561740Y-108718602D01*
X159525690Y-108742690D01*
X159501602Y-108778740D01*
X157710200Y-110570143D01*
X157710200Y-110361592D01*
X157547582Y-109968997D01*
X158369449Y-109147130D01*
X158407623Y-109121623D01*
X158508673Y-108970391D01*
X158535200Y-108837030D01*
X158535200Y-108837029D01*
X158544157Y-108792000D01*
X158535200Y-108746970D01*
X158535200Y-105744200D01*
X158691205Y-105744200D01*
X158808173Y-105695750D01*
X160700000Y-105695750D01*
X160700000Y-106761309D01*
X160796673Y-106994698D01*
X160975301Y-107173327D01*
X161208690Y-107270000D01*
X162274250Y-107270000D01*
X162433000Y-107111250D01*
X162433000Y-105537000D01*
X162687000Y-105537000D01*
X162687000Y-107111250D01*
X162845750Y-107270000D01*
X163911310Y-107270000D01*
X164144699Y-107173327D01*
X164323327Y-106994698D01*
X164420000Y-106761309D01*
X164420000Y-105695750D01*
X164261250Y-105537000D01*
X162687000Y-105537000D01*
X162433000Y-105537000D01*
X160858750Y-105537000D01*
X160700000Y-105695750D01*
X158808173Y-105695750D01*
X158905923Y-105655261D01*
X159070261Y-105490923D01*
X159159200Y-105276205D01*
X159159200Y-105222584D01*
X160029272Y-104353200D01*
X160700000Y-104353200D01*
X160700000Y-105124250D01*
X160700000Y-105124250D01*
G37*
X160700000Y-105124250D02*
X160858750Y-105283000D01*
X162433000Y-105283000D01*
X162433000Y-105263000D01*
X162687000Y-105263000D01*
X162687000Y-105283000D01*
X164261250Y-105283000D01*
X164420000Y-105124250D01*
X164420000Y-104353200D01*
X166212616Y-104353200D01*
X166184739Y-104381077D01*
X166095800Y-104595795D01*
X166095800Y-104828205D01*
X166184739Y-105042923D01*
X166248201Y-105106385D01*
X166248200Y-111872013D01*
X165521273Y-112598200D01*
X158929384Y-112598200D01*
X158865923Y-112534739D01*
X158651205Y-112445800D01*
X158418795Y-112445800D01*
X158204077Y-112534739D01*
X158039739Y-112699077D01*
X157950800Y-112913795D01*
X157950800Y-113146205D01*
X158039739Y-113360923D01*
X158204077Y-113525261D01*
X158418795Y-113614200D01*
X158619221Y-113614200D01*
X156901003Y-115332418D01*
X156508408Y-115169800D01*
X155911592Y-115169800D01*
X155360205Y-115398192D01*
X154938192Y-115820205D01*
X154709800Y-116371592D01*
X154709800Y-116968408D01*
X154938192Y-117519795D01*
X155360205Y-117941808D01*
X155911592Y-118170200D01*
X156508408Y-118170200D01*
X157059795Y-117941808D01*
X157481808Y-117519795D01*
X157710200Y-116968408D01*
X157710200Y-116371592D01*
X157547582Y-115978997D01*
X159556379Y-113970200D01*
X161763222Y-113970200D01*
X156901004Y-118832418D01*
X156508408Y-118669800D01*
X155911592Y-118669800D01*
X155360205Y-118898192D01*
X154938192Y-119320205D01*
X154709800Y-119871592D01*
X154709800Y-120468408D01*
X154938192Y-121019795D01*
X155360205Y-121441808D01*
X155911592Y-121670200D01*
X156508408Y-121670200D01*
X157059795Y-121441808D01*
X157481808Y-121019795D01*
X157710200Y-120468408D01*
X157710200Y-119871592D01*
X157547582Y-119478996D01*
X162700378Y-114326200D01*
X172076222Y-114326200D01*
X170011622Y-116390800D01*
X163077030Y-116390800D01*
X163032000Y-116381843D01*
X162986970Y-116390800D01*
X162853609Y-116417327D01*
X162702377Y-116518377D01*
X162676870Y-116556551D01*
X156901003Y-122332418D01*
X156508408Y-122169800D01*
X155911592Y-122169800D01*
X155360205Y-122398192D01*
X154938192Y-122820205D01*
X154709800Y-123371592D01*
X154709800Y-123968408D01*
X154938192Y-124519795D01*
X155360205Y-124941808D01*
X155911592Y-125170200D01*
X156508408Y-125170200D01*
X157059795Y-124941808D01*
X157481808Y-124519795D01*
X157710200Y-123968408D01*
X157710200Y-123371592D01*
X157547582Y-122978997D01*
X163221379Y-117305200D01*
X165428221Y-117305200D01*
X156901003Y-125832418D01*
X156508408Y-125669800D01*
X155911592Y-125669800D01*
X155360205Y-125898192D01*
X154938192Y-126320205D01*
X154709800Y-126871592D01*
X154709800Y-127468408D01*
X154938192Y-128019795D01*
X155056597Y-128138200D01*
X134056835Y-128138200D01*
X131470371Y-125552200D01*
X132695569Y-125552200D01*
X133014155Y-125488829D01*
X133375432Y-125247432D01*
X133616829Y-124886155D01*
X133644757Y-124745750D01*
X145415000Y-124745750D01*
X145415000Y-125348310D01*
X145511673Y-125581699D01*
X145690302Y-125760327D01*
X145923691Y-125857000D01*
X147034250Y-125857000D01*
X147193000Y-125698250D01*
X147193000Y-124587000D01*
X147447000Y-124587000D01*
X147447000Y-125698250D01*
X147605750Y-125857000D01*
X148716309Y-125857000D01*
X148949698Y-125760327D01*
X149128327Y-125581699D01*
X149225000Y-125348310D01*
X149225000Y-124745750D01*
X149066250Y-124587000D01*
X147447000Y-124587000D01*
X147193000Y-124587000D01*
X145573750Y-124587000D01*
X145415000Y-124745750D01*
X133644757Y-124745750D01*
X133701597Y-124460000D01*
X133616829Y-124033845D01*
X133375432Y-123672568D01*
X133224458Y-123571690D01*
X145415000Y-123571690D01*
X145415000Y-124174250D01*
X145573750Y-124333000D01*
X147193000Y-124333000D01*
X147193000Y-123221750D01*
X147447000Y-123221750D01*
X147447000Y-124333000D01*
X149066250Y-124333000D01*
X149225000Y-124174250D01*
X149225000Y-123571690D01*
X149128327Y-123338301D01*
X148949698Y-123159673D01*
X148716309Y-123063000D01*
X147605750Y-123063000D01*
X147447000Y-123221750D01*
X147193000Y-123221750D01*
X147034250Y-123063000D01*
X145923691Y-123063000D01*
X145690302Y-123159673D01*
X145511673Y-123338301D01*
X145415000Y-123571690D01*
X133224458Y-123571690D01*
X133014155Y-123431171D01*
X132695569Y-123367800D01*
X131464431Y-123367800D01*
X131145845Y-123431171D01*
X130784568Y-123672568D01*
X130543171Y-124033845D01*
X130458403Y-124460000D01*
X130478369Y-124560376D01*
X129235570Y-123317800D01*
X133340478Y-123317800D01*
X133383000Y-123326258D01*
X133425522Y-123317800D01*
X133425526Y-123317800D01*
X133551480Y-123292746D01*
X133694310Y-123197310D01*
X133718400Y-123161257D01*
X134959657Y-121920000D01*
X145698403Y-121920000D01*
X145783171Y-122346155D01*
X146024568Y-122707432D01*
X146385845Y-122948829D01*
X146704431Y-123012200D01*
X147935569Y-123012200D01*
X148254155Y-122948829D01*
X148615432Y-122707432D01*
X148856829Y-122346155D01*
X148941597Y-121920000D01*
X148856829Y-121493845D01*
X148615432Y-121132568D01*
X148254155Y-120891171D01*
X147935569Y-120827800D01*
X146704431Y-120827800D01*
X146385845Y-120891171D01*
X146024568Y-121132568D01*
X145783171Y-121493845D01*
X145698403Y-121920000D01*
X134959657Y-121920000D01*
X137499657Y-119380000D01*
X145698403Y-119380000D01*
X145783171Y-119806155D01*
X146024568Y-120167432D01*
X146385845Y-120408829D01*
X146704431Y-120472200D01*
X147935569Y-120472200D01*
X148254155Y-120408829D01*
X148615432Y-120167432D01*
X148856829Y-119806155D01*
X148941597Y-119380000D01*
X148856829Y-118953845D01*
X148615432Y-118592568D01*
X148254155Y-118351171D01*
X147935569Y-118287800D01*
X146704431Y-118287800D01*
X146385845Y-118351171D01*
X146024568Y-118592568D01*
X145783171Y-118953845D01*
X145698403Y-119380000D01*
X137499657Y-119380000D01*
X140039657Y-116840000D01*
X145698403Y-116840000D01*
X145783171Y-117266155D01*
X146024568Y-117627432D01*
X146385845Y-117868829D01*
X146704431Y-117932200D01*
X147935569Y-117932200D01*
X148254155Y-117868829D01*
X148615432Y-117627432D01*
X148856829Y-117266155D01*
X148941597Y-116840000D01*
X148856829Y-116413845D01*
X148615432Y-116052568D01*
X148254155Y-115811171D01*
X147935569Y-115747800D01*
X146704431Y-115747800D01*
X146385845Y-115811171D01*
X146024568Y-116052568D01*
X145783171Y-116413845D01*
X145698403Y-116840000D01*
X140039657Y-116840000D01*
X142579657Y-114300000D01*
X145698403Y-114300000D01*
X145783171Y-114726155D01*
X146024568Y-115087432D01*
X146385845Y-115328829D01*
X146704431Y-115392200D01*
X147935569Y-115392200D01*
X148254155Y-115328829D01*
X148615432Y-115087432D01*
X148856829Y-114726155D01*
X148941597Y-114300000D01*
X148856829Y-113873845D01*
X148615432Y-113512568D01*
X148254155Y-113271171D01*
X147935569Y-113207800D01*
X146704431Y-113207800D01*
X146385845Y-113271171D01*
X146024568Y-113512568D01*
X145783171Y-113873845D01*
X145698403Y-114300000D01*
X142579657Y-114300000D01*
X145445257Y-111434400D01*
X145481310Y-111410310D01*
X145576746Y-111267480D01*
X145601800Y-111141526D01*
X145601800Y-111141523D01*
X145610258Y-111099001D01*
X145601800Y-111056479D01*
X145601800Y-110035457D01*
X146223602Y-110657260D01*
X146247690Y-110693310D01*
X146283740Y-110717398D01*
X146283741Y-110717399D01*
X146345099Y-110758397D01*
X146024568Y-110972568D01*
X145783171Y-111333845D01*
X145698403Y-111760000D01*
X145783171Y-112186155D01*
X146024568Y-112547432D01*
X146385845Y-112788829D01*
X146704431Y-112852200D01*
X147935569Y-112852200D01*
X148254155Y-112788829D01*
X148615432Y-112547432D01*
X148856829Y-112186155D01*
X148941597Y-111760000D01*
X148925769Y-111680426D01*
X149576600Y-112331257D01*
X149600690Y-112367310D01*
X149743520Y-112462746D01*
X149844338Y-112482800D01*
X149912000Y-112496259D01*
X149954526Y-112487800D01*
X156792478Y-112487800D01*
X156835000Y-112496258D01*
X156877522Y-112487800D01*
X156877526Y-112487800D01*
X157003480Y-112462746D01*
X157146310Y-112367310D01*
X157170400Y-112331257D01*
X160015858Y-109485800D01*
X161298800Y-109485800D01*
X161298800Y-109669205D01*
X161387739Y-109883923D01*
X161552077Y-110048261D01*
X161766795Y-110137200D01*
X161999205Y-110137200D01*
X162081288Y-110103200D01*
X162493016Y-110103200D01*
X162531077Y-110141261D01*
X162745795Y-110230200D01*
X162978205Y-110230200D01*
X163192923Y-110141261D01*
X163357261Y-109976923D01*
X163446200Y-109762205D01*
X163446200Y-109529795D01*
X163427977Y-109485800D01*
X163915616Y-109485800D01*
X163979077Y-109549261D01*
X164193795Y-109638200D01*
X164426205Y-109638200D01*
X164640923Y-109549261D01*
X164805261Y-109384923D01*
X164894200Y-109170205D01*
X164894200Y-108937795D01*
X164805261Y-108723077D01*
X164640923Y-108558739D01*
X164426205Y-108469800D01*
X164193795Y-108469800D01*
X163979077Y-108558739D01*
X163915616Y-108622200D01*
X159879521Y-108622200D01*
X159836999Y-108613742D01*
X159794477Y-108622200D01*
X159794474Y-108622200D01*
X159668520Y-108647254D01*
X159561741Y-108718601D01*
X159561740Y-108718602D01*
X159525690Y-108742690D01*
X159501602Y-108778740D01*
X157710200Y-110570143D01*
X157710200Y-110361592D01*
X157547582Y-109968997D01*
X158369449Y-109147130D01*
X158407623Y-109121623D01*
X158508673Y-108970391D01*
X158535200Y-108837030D01*
X158535200Y-108837029D01*
X158544157Y-108792000D01*
X158535200Y-108746970D01*
X158535200Y-105744200D01*
X158691205Y-105744200D01*
X158808173Y-105695750D01*
X160700000Y-105695750D01*
X160700000Y-106761309D01*
X160796673Y-106994698D01*
X160975301Y-107173327D01*
X161208690Y-107270000D01*
X162274250Y-107270000D01*
X162433000Y-107111250D01*
X162433000Y-105537000D01*
X162687000Y-105537000D01*
X162687000Y-107111250D01*
X162845750Y-107270000D01*
X163911310Y-107270000D01*
X164144699Y-107173327D01*
X164323327Y-106994698D01*
X164420000Y-106761309D01*
X164420000Y-105695750D01*
X164261250Y-105537000D01*
X162687000Y-105537000D01*
X162433000Y-105537000D01*
X160858750Y-105537000D01*
X160700000Y-105695750D01*
X158808173Y-105695750D01*
X158905923Y-105655261D01*
X159070261Y-105490923D01*
X159159200Y-105276205D01*
X159159200Y-105222584D01*
X160029272Y-104353200D01*
X160700000Y-104353200D01*
X160700000Y-105124250D01*
G36*
X123587800Y-102425205D02*
X123676739Y-102639923D01*
X123841077Y-102804261D01*
X124055795Y-102893200D01*
X124145543Y-102893200D01*
X127736200Y-106483857D01*
X127736201Y-108427615D01*
X127672739Y-108491077D01*
X127583800Y-108705795D01*
X127583800Y-108938205D01*
X127672739Y-109152923D01*
X127837077Y-109317261D01*
X128051795Y-109406200D01*
X128284205Y-109406200D01*
X128498923Y-109317261D01*
X128663261Y-109152923D01*
X128752200Y-108938205D01*
X128752200Y-108705795D01*
X128663261Y-108491077D01*
X128599800Y-108427616D01*
X128599800Y-106347520D01*
X128608258Y-106304999D01*
X128599800Y-106262478D01*
X128599800Y-106262474D01*
X128590663Y-106216540D01*
X130098801Y-107725322D01*
X130098800Y-119334970D01*
X130089843Y-119380000D01*
X130125327Y-119558391D01*
X130139272Y-119579261D01*
X130226377Y-119709623D01*
X130377609Y-119810673D01*
X130556000Y-119846157D01*
X130568269Y-119843717D01*
X130618037Y-119918200D01*
X126715520Y-119918200D01*
X126672999Y-119909742D01*
X126630478Y-119918200D01*
X126630474Y-119918200D01*
X126504520Y-119943254D01*
X126361690Y-120038690D01*
X126337600Y-120074743D01*
X126026543Y-120385800D01*
X125936795Y-120385800D01*
X125722077Y-120474739D01*
X125658616Y-120538200D01*
X124283522Y-120538200D01*
X124241000Y-120529742D01*
X124198478Y-120538200D01*
X124198474Y-120538200D01*
X124073797Y-120563000D01*
X124072520Y-120563254D01*
X123965741Y-120634601D01*
X123965740Y-120634602D01*
X123929690Y-120658690D01*
X123905602Y-120694740D01*
X123386543Y-121213800D01*
X123296795Y-121213800D01*
X123082077Y-121302739D01*
X122981420Y-121403396D01*
X122781200Y-121203329D01*
X122781200Y-121113795D01*
X122692261Y-120899077D01*
X122527923Y-120734739D01*
X122313205Y-120645800D01*
X122223457Y-120645800D01*
X121717800Y-120140143D01*
X121717800Y-119175000D01*
X122904250Y-119175000D01*
X123063000Y-119016250D01*
X123063000Y-116967000D01*
X123317000Y-116967000D01*
X123317000Y-119016250D01*
X123475750Y-119175000D01*
X125016309Y-119175000D01*
X125249698Y-119078327D01*
X125428327Y-118899699D01*
X125525000Y-118666310D01*
X125525000Y-117125750D01*
X125366250Y-116967000D01*
X123317000Y-116967000D01*
X123063000Y-116967000D01*
X123043000Y-116967000D01*
X123043000Y-116713000D01*
X123063000Y-116713000D01*
X123063000Y-114663750D01*
X123317000Y-114663750D01*
X123317000Y-116713000D01*
X125366250Y-116713000D01*
X125525000Y-116554250D01*
X125525000Y-115013690D01*
X125428327Y-114780301D01*
X125249698Y-114601673D01*
X125016309Y-114505000D01*
X123475750Y-114505000D01*
X123317000Y-114663750D01*
X123063000Y-114663750D01*
X122904250Y-114505000D01*
X121717800Y-114505000D01*
X121717800Y-111917857D01*
X122003457Y-111632200D01*
X122093205Y-111632200D01*
X122307923Y-111543261D01*
X122472261Y-111378923D01*
X122561200Y-111164205D01*
X122561200Y-110931795D01*
X122472261Y-110717077D01*
X122307923Y-110552739D01*
X122093205Y-110463800D01*
X122003245Y-110463800D01*
X121097800Y-109559046D01*
X121097800Y-108885825D01*
X121130302Y-108918327D01*
X121363691Y-109015000D01*
X122904250Y-109015000D01*
X123063000Y-108856250D01*
X123063000Y-106807000D01*
X123317000Y-106807000D01*
X123317000Y-108856250D01*
X123475750Y-109015000D01*
X125016309Y-109015000D01*
X125249698Y-108918327D01*
X125428327Y-108739699D01*
X125525000Y-108506310D01*
X125525000Y-106965750D01*
X125366250Y-106807000D01*
X123317000Y-106807000D01*
X123063000Y-106807000D01*
X123043000Y-106807000D01*
X123043000Y-106553000D01*
X123063000Y-106553000D01*
X123063000Y-104503750D01*
X123317000Y-104503750D01*
X123317000Y-106553000D01*
X125366250Y-106553000D01*
X125525000Y-106394250D01*
X125525000Y-104853690D01*
X125428327Y-104620301D01*
X125249698Y-104441673D01*
X125016309Y-104345000D01*
X123475750Y-104345000D01*
X123317000Y-104503750D01*
X123063000Y-104503750D01*
X122904250Y-104345000D01*
X121363691Y-104345000D01*
X121130302Y-104441673D01*
X121097800Y-104474175D01*
X121097800Y-102915200D01*
X121261205Y-102915200D01*
X121475923Y-102826261D01*
X121640261Y-102661923D01*
X121729200Y-102447205D01*
X121729200Y-102393379D01*
X121853379Y-102269200D01*
X123587800Y-102269200D01*
X123587800Y-102425205D01*
X123587800Y-102425205D01*
G37*
X123587800Y-102425205D02*
X123676739Y-102639923D01*
X123841077Y-102804261D01*
X124055795Y-102893200D01*
X124145543Y-102893200D01*
X127736200Y-106483857D01*
X127736201Y-108427615D01*
X127672739Y-108491077D01*
X127583800Y-108705795D01*
X127583800Y-108938205D01*
X127672739Y-109152923D01*
X127837077Y-109317261D01*
X128051795Y-109406200D01*
X128284205Y-109406200D01*
X128498923Y-109317261D01*
X128663261Y-109152923D01*
X128752200Y-108938205D01*
X128752200Y-108705795D01*
X128663261Y-108491077D01*
X128599800Y-108427616D01*
X128599800Y-106347520D01*
X128608258Y-106304999D01*
X128599800Y-106262478D01*
X128599800Y-106262474D01*
X128590663Y-106216540D01*
X130098801Y-107725322D01*
X130098800Y-119334970D01*
X130089843Y-119380000D01*
X130125327Y-119558391D01*
X130139272Y-119579261D01*
X130226377Y-119709623D01*
X130377609Y-119810673D01*
X130556000Y-119846157D01*
X130568269Y-119843717D01*
X130618037Y-119918200D01*
X126715520Y-119918200D01*
X126672999Y-119909742D01*
X126630478Y-119918200D01*
X126630474Y-119918200D01*
X126504520Y-119943254D01*
X126361690Y-120038690D01*
X126337600Y-120074743D01*
X126026543Y-120385800D01*
X125936795Y-120385800D01*
X125722077Y-120474739D01*
X125658616Y-120538200D01*
X124283522Y-120538200D01*
X124241000Y-120529742D01*
X124198478Y-120538200D01*
X124198474Y-120538200D01*
X124073797Y-120563000D01*
X124072520Y-120563254D01*
X123965741Y-120634601D01*
X123965740Y-120634602D01*
X123929690Y-120658690D01*
X123905602Y-120694740D01*
X123386543Y-121213800D01*
X123296795Y-121213800D01*
X123082077Y-121302739D01*
X122981420Y-121403396D01*
X122781200Y-121203329D01*
X122781200Y-121113795D01*
X122692261Y-120899077D01*
X122527923Y-120734739D01*
X122313205Y-120645800D01*
X122223457Y-120645800D01*
X121717800Y-120140143D01*
X121717800Y-119175000D01*
X122904250Y-119175000D01*
X123063000Y-119016250D01*
X123063000Y-116967000D01*
X123317000Y-116967000D01*
X123317000Y-119016250D01*
X123475750Y-119175000D01*
X125016309Y-119175000D01*
X125249698Y-119078327D01*
X125428327Y-118899699D01*
X125525000Y-118666310D01*
X125525000Y-117125750D01*
X125366250Y-116967000D01*
X123317000Y-116967000D01*
X123063000Y-116967000D01*
X123043000Y-116967000D01*
X123043000Y-116713000D01*
X123063000Y-116713000D01*
X123063000Y-114663750D01*
X123317000Y-114663750D01*
X123317000Y-116713000D01*
X125366250Y-116713000D01*
X125525000Y-116554250D01*
X125525000Y-115013690D01*
X125428327Y-114780301D01*
X125249698Y-114601673D01*
X125016309Y-114505000D01*
X123475750Y-114505000D01*
X123317000Y-114663750D01*
X123063000Y-114663750D01*
X122904250Y-114505000D01*
X121717800Y-114505000D01*
X121717800Y-111917857D01*
X122003457Y-111632200D01*
X122093205Y-111632200D01*
X122307923Y-111543261D01*
X122472261Y-111378923D01*
X122561200Y-111164205D01*
X122561200Y-110931795D01*
X122472261Y-110717077D01*
X122307923Y-110552739D01*
X122093205Y-110463800D01*
X122003245Y-110463800D01*
X121097800Y-109559046D01*
X121097800Y-108885825D01*
X121130302Y-108918327D01*
X121363691Y-109015000D01*
X122904250Y-109015000D01*
X123063000Y-108856250D01*
X123063000Y-106807000D01*
X123317000Y-106807000D01*
X123317000Y-108856250D01*
X123475750Y-109015000D01*
X125016309Y-109015000D01*
X125249698Y-108918327D01*
X125428327Y-108739699D01*
X125525000Y-108506310D01*
X125525000Y-106965750D01*
X125366250Y-106807000D01*
X123317000Y-106807000D01*
X123063000Y-106807000D01*
X123043000Y-106807000D01*
X123043000Y-106553000D01*
X123063000Y-106553000D01*
X123063000Y-104503750D01*
X123317000Y-104503750D01*
X123317000Y-106553000D01*
X125366250Y-106553000D01*
X125525000Y-106394250D01*
X125525000Y-104853690D01*
X125428327Y-104620301D01*
X125249698Y-104441673D01*
X125016309Y-104345000D01*
X123475750Y-104345000D01*
X123317000Y-104503750D01*
X123063000Y-104503750D01*
X122904250Y-104345000D01*
X121363691Y-104345000D01*
X121130302Y-104441673D01*
X121097800Y-104474175D01*
X121097800Y-102915200D01*
X121261205Y-102915200D01*
X121475923Y-102826261D01*
X121640261Y-102661923D01*
X121729200Y-102447205D01*
X121729200Y-102393379D01*
X121853379Y-102269200D01*
X123587800Y-102269200D01*
X123587800Y-102425205D01*
G36*
X178858800Y-88215219D02*
X178858800Y-88350205D01*
X178947739Y-88564923D01*
X179112077Y-88729261D01*
X179326795Y-88818200D01*
X179559205Y-88818200D01*
X179773923Y-88729261D01*
X179938261Y-88564923D01*
X180027200Y-88350205D01*
X180027200Y-88260168D01*
X180394988Y-87892000D01*
X183560000Y-87892000D01*
X183560000Y-88614250D01*
X183718750Y-88773000D01*
X185293000Y-88773000D01*
X185293000Y-88753000D01*
X185547000Y-88753000D01*
X185547000Y-88773000D01*
X185567000Y-88773000D01*
X185567000Y-89027000D01*
X185547000Y-89027000D01*
X185547000Y-90601250D01*
X185705750Y-90760000D01*
X186451201Y-90760000D01*
X186451201Y-92303240D01*
X186180661Y-92573777D01*
X186048923Y-92442039D01*
X185834205Y-92353100D01*
X185601795Y-92353100D01*
X185387077Y-92442039D01*
X185349016Y-92480100D01*
X185157284Y-92480100D01*
X185055923Y-92378739D01*
X184841205Y-92289800D01*
X184608795Y-92289800D01*
X184394077Y-92378739D01*
X184229739Y-92543077D01*
X184140800Y-92757795D01*
X184140800Y-92990205D01*
X184229739Y-93204923D01*
X184394077Y-93369261D01*
X184608795Y-93458200D01*
X184841205Y-93458200D01*
X184994991Y-93394500D01*
X185349016Y-93394500D01*
X185354471Y-93399955D01*
X178945745Y-99808599D01*
X178909690Y-99832690D01*
X178866313Y-99897609D01*
X178814255Y-99975518D01*
X178814255Y-99975520D01*
X178814254Y-99975521D01*
X178789201Y-100101474D01*
X178780742Y-100143998D01*
X178789200Y-100186521D01*
X178789201Y-104275615D01*
X178725739Y-104339077D01*
X178636800Y-104553795D01*
X178636800Y-104643543D01*
X177120000Y-106160343D01*
X177120000Y-105695750D01*
X176961250Y-105537000D01*
X175387000Y-105537000D01*
X175387000Y-107111250D01*
X175545750Y-107270000D01*
X176010343Y-107270000D01*
X171661143Y-111619200D01*
X170072403Y-111619200D01*
X170181808Y-111509795D01*
X170410200Y-110958408D01*
X170410200Y-110361592D01*
X170247582Y-109968996D01*
X171302446Y-108914132D01*
X171340623Y-108888623D01*
X171441673Y-108737391D01*
X171468200Y-108604030D01*
X171468200Y-108604029D01*
X171477157Y-108559000D01*
X171468200Y-108513970D01*
X171468200Y-105695750D01*
X173400000Y-105695750D01*
X173400000Y-106761309D01*
X173496673Y-106994698D01*
X173675301Y-107173327D01*
X173908690Y-107270000D01*
X174974250Y-107270000D01*
X175133000Y-107111250D01*
X175133000Y-105537000D01*
X173558750Y-105537000D01*
X173400000Y-105695750D01*
X171468200Y-105695750D01*
X171468200Y-105433378D01*
X172842887Y-104058691D01*
X173400000Y-104058691D01*
X173400000Y-105124250D01*
X173558750Y-105283000D01*
X175133000Y-105283000D01*
X175133000Y-103708750D01*
X175387000Y-103708750D01*
X175387000Y-105283000D01*
X176961250Y-105283000D01*
X177120000Y-105124250D01*
X177120000Y-104058691D01*
X177023327Y-103825302D01*
X176844699Y-103646673D01*
X176611310Y-103550000D01*
X175545750Y-103550000D01*
X175387000Y-103708750D01*
X175133000Y-103708750D01*
X174974250Y-103550000D01*
X173908690Y-103550000D01*
X173675301Y-103646673D01*
X173496673Y-103825302D01*
X173400000Y-104058691D01*
X172842887Y-104058691D01*
X174909379Y-101992200D01*
X174963205Y-101992200D01*
X175177923Y-101903261D01*
X175342261Y-101738923D01*
X175431200Y-101524205D01*
X175431200Y-101516592D01*
X175588923Y-101451261D01*
X175753261Y-101286923D01*
X175842200Y-101072205D01*
X175842200Y-100839795D01*
X175753261Y-100625077D01*
X175588923Y-100460739D01*
X175374205Y-100371800D01*
X175141795Y-100371800D01*
X174996942Y-100431800D01*
X171950695Y-100431800D01*
X174255390Y-98127000D01*
X174309205Y-98127000D01*
X174523923Y-98038061D01*
X174688261Y-97873723D01*
X174777200Y-97659005D01*
X174777200Y-97426595D01*
X174688261Y-97211877D01*
X174523923Y-97047539D01*
X174392001Y-96992895D01*
X176490800Y-96992895D01*
X176490800Y-97225305D01*
X176579739Y-97440023D01*
X176744077Y-97604361D01*
X176958795Y-97693300D01*
X177191205Y-97693300D01*
X177405923Y-97604361D01*
X177570261Y-97440023D01*
X177659200Y-97225305D01*
X177659200Y-96992895D01*
X177570261Y-96778177D01*
X177506800Y-96714716D01*
X177506800Y-92911666D01*
X179684436Y-90734200D01*
X179774205Y-90734200D01*
X179988923Y-90645261D01*
X180153261Y-90480923D01*
X180242200Y-90266205D01*
X180242200Y-90033795D01*
X180153261Y-89819077D01*
X179988923Y-89654739D01*
X179774205Y-89565800D01*
X179541795Y-89565800D01*
X179327077Y-89654739D01*
X179162739Y-89819077D01*
X179073800Y-90033795D01*
X179073800Y-90123521D01*
X176799749Y-92397397D01*
X176763691Y-92421490D01*
X176724529Y-92480100D01*
X176668261Y-92564305D01*
X176668259Y-92564314D01*
X176668255Y-92564320D01*
X176654307Y-92634442D01*
X176634742Y-92732783D01*
X176643201Y-92775318D01*
X176643200Y-96714716D01*
X176579739Y-96778177D01*
X176490800Y-96992895D01*
X174392001Y-96992895D01*
X174309205Y-96958600D01*
X174076795Y-96958600D01*
X173862077Y-97047539D01*
X173697739Y-97211877D01*
X173608800Y-97426595D01*
X173608800Y-97480433D01*
X170254085Y-100835303D01*
X170410200Y-100458408D01*
X170410200Y-99861592D01*
X170181808Y-99310205D01*
X169759795Y-98888192D01*
X169208408Y-98659800D01*
X168611592Y-98659800D01*
X168060205Y-98888192D01*
X167638192Y-99310205D01*
X167409800Y-99861592D01*
X167409800Y-100458408D01*
X167638192Y-101009795D01*
X168060205Y-101431808D01*
X168312392Y-101536267D01*
X168246377Y-101580377D01*
X168220870Y-101618551D01*
X166415554Y-103423868D01*
X166393207Y-103438800D01*
X160206779Y-103438800D01*
X161764379Y-101881200D01*
X161809016Y-101881200D01*
X161847077Y-101919261D01*
X162061795Y-102008200D01*
X162294205Y-102008200D01*
X162468020Y-101936204D01*
X162479077Y-101947261D01*
X162693795Y-102036200D01*
X162926205Y-102036200D01*
X163140923Y-101947261D01*
X163305261Y-101782923D01*
X163343678Y-101690177D01*
X163371739Y-101757923D01*
X163536077Y-101922261D01*
X163750795Y-102011200D01*
X163983205Y-102011200D01*
X164197923Y-101922261D01*
X164362261Y-101757923D01*
X164451200Y-101543205D01*
X164451200Y-101310795D01*
X164362261Y-101096077D01*
X164197923Y-100931739D01*
X163983205Y-100842800D01*
X163929378Y-100842800D01*
X162955132Y-99868554D01*
X162929623Y-99830377D01*
X162778391Y-99729327D01*
X162645030Y-99702800D01*
X162600000Y-99693843D01*
X162554970Y-99702800D01*
X157644426Y-99702800D01*
X157481808Y-99310205D01*
X157059795Y-98888192D01*
X156508408Y-98659800D01*
X156377857Y-98659800D01*
X157674857Y-97362800D01*
X169055460Y-97362800D01*
X169097961Y-97371258D01*
X169140502Y-97362800D01*
X169140526Y-97362800D01*
X169189105Y-97353137D01*
X169266442Y-97337761D01*
X169266458Y-97337750D01*
X169266480Y-97337746D01*
X169343020Y-97286604D01*
X169373227Y-97266424D01*
X169373239Y-97266412D01*
X169409310Y-97242310D01*
X169433390Y-97206272D01*
X172981407Y-93658900D01*
X173071205Y-93658900D01*
X173285923Y-93569961D01*
X173450261Y-93405623D01*
X173539200Y-93190905D01*
X173539200Y-93023283D01*
X175191800Y-94676203D01*
X175191800Y-94766005D01*
X175280739Y-94980723D01*
X175445077Y-95145061D01*
X175659795Y-95234000D01*
X175892205Y-95234000D01*
X176106923Y-95145061D01*
X176271261Y-94980723D01*
X176360200Y-94766005D01*
X176360200Y-94533595D01*
X176271261Y-94318877D01*
X176106923Y-94154539D01*
X176078937Y-94142947D01*
X176087261Y-94134623D01*
X176176200Y-93919905D01*
X176176200Y-93687495D01*
X176087261Y-93472777D01*
X175922923Y-93308439D01*
X175708205Y-93219500D01*
X175654180Y-93219500D01*
X175256200Y-92821823D01*
X175256200Y-92768195D01*
X175167261Y-92553477D01*
X175002923Y-92389139D01*
X174788205Y-92300200D01*
X174555795Y-92300200D01*
X174341077Y-92389139D01*
X174233714Y-92496502D01*
X174038413Y-92301162D01*
X174014310Y-92265090D01*
X173934624Y-92211846D01*
X173871518Y-92169671D01*
X173871500Y-92169667D01*
X173871480Y-92169654D01*
X173776745Y-92150810D01*
X173703042Y-92136142D01*
X173660499Y-92144600D01*
X172718536Y-92144600D01*
X172676022Y-92136141D01*
X172633484Y-92144600D01*
X172633474Y-92144600D01*
X172595757Y-92152102D01*
X172507541Y-92169645D01*
X172507531Y-92169652D01*
X172507520Y-92169654D01*
X172438947Y-92215473D01*
X172400759Y-92240987D01*
X172400752Y-92240994D01*
X172364690Y-92265090D01*
X172340607Y-92301133D01*
X170410200Y-94231344D01*
X170410200Y-93851592D01*
X170247599Y-93459039D01*
X170879441Y-92827235D01*
X170917623Y-92801723D01*
X170978902Y-92710013D01*
X171018668Y-92650503D01*
X171018669Y-92650497D01*
X171018673Y-92650491D01*
X171037687Y-92554903D01*
X171054157Y-92472114D01*
X171045200Y-92427078D01*
X171045200Y-90874674D01*
X172734085Y-89185750D01*
X173400000Y-89185750D01*
X173400000Y-90251309D01*
X173496673Y-90484698D01*
X173675301Y-90663327D01*
X173908690Y-90760000D01*
X174974250Y-90760000D01*
X175133000Y-90601250D01*
X175133000Y-89027000D01*
X175387000Y-89027000D01*
X175387000Y-90601250D01*
X175545750Y-90760000D01*
X176611310Y-90760000D01*
X176844699Y-90663327D01*
X177023327Y-90484698D01*
X177120000Y-90251309D01*
X177120000Y-89185750D01*
X183560000Y-89185750D01*
X183560000Y-90251309D01*
X183656673Y-90484698D01*
X183835301Y-90663327D01*
X184068690Y-90760000D01*
X185134250Y-90760000D01*
X185293000Y-90601250D01*
X185293000Y-89027000D01*
X183718750Y-89027000D01*
X183560000Y-89185750D01*
X177120000Y-89185750D01*
X176961250Y-89027000D01*
X175387000Y-89027000D01*
X175133000Y-89027000D01*
X173558750Y-89027000D01*
X173400000Y-89185750D01*
X172734085Y-89185750D01*
X173400000Y-88519820D01*
X173400000Y-88614250D01*
X173558750Y-88773000D01*
X175133000Y-88773000D01*
X175133000Y-87198750D01*
X175387000Y-87198750D01*
X175387000Y-88773000D01*
X176961250Y-88773000D01*
X177120000Y-88614250D01*
X177120000Y-87548691D01*
X177023327Y-87315302D01*
X176844699Y-87136673D01*
X176611310Y-87040000D01*
X175545750Y-87040000D01*
X175387000Y-87198750D01*
X175133000Y-87198750D01*
X174974250Y-87040000D01*
X174879785Y-87040000D01*
X175138451Y-86781329D01*
X175176623Y-86755823D01*
X175203582Y-86715477D01*
X175214946Y-86698469D01*
X175277673Y-86604591D01*
X175277674Y-86604588D01*
X175277675Y-86604586D01*
X175301779Y-86483400D01*
X175304200Y-86471230D01*
X175304200Y-86471228D01*
X175313157Y-86426195D01*
X175304200Y-86381169D01*
X175304200Y-85454289D01*
X175393795Y-85491400D01*
X175626205Y-85491400D01*
X175840923Y-85402461D01*
X175943162Y-85300222D01*
X178858800Y-88215219D01*
X178858800Y-88215219D01*
G37*
X178858800Y-88215219D02*
X178858800Y-88350205D01*
X178947739Y-88564923D01*
X179112077Y-88729261D01*
X179326795Y-88818200D01*
X179559205Y-88818200D01*
X179773923Y-88729261D01*
X179938261Y-88564923D01*
X180027200Y-88350205D01*
X180027200Y-88260168D01*
X180394988Y-87892000D01*
X183560000Y-87892000D01*
X183560000Y-88614250D01*
X183718750Y-88773000D01*
X185293000Y-88773000D01*
X185293000Y-88753000D01*
X185547000Y-88753000D01*
X185547000Y-88773000D01*
X185567000Y-88773000D01*
X185567000Y-89027000D01*
X185547000Y-89027000D01*
X185547000Y-90601250D01*
X185705750Y-90760000D01*
X186451201Y-90760000D01*
X186451201Y-92303240D01*
X186180661Y-92573777D01*
X186048923Y-92442039D01*
X185834205Y-92353100D01*
X185601795Y-92353100D01*
X185387077Y-92442039D01*
X185349016Y-92480100D01*
X185157284Y-92480100D01*
X185055923Y-92378739D01*
X184841205Y-92289800D01*
X184608795Y-92289800D01*
X184394077Y-92378739D01*
X184229739Y-92543077D01*
X184140800Y-92757795D01*
X184140800Y-92990205D01*
X184229739Y-93204923D01*
X184394077Y-93369261D01*
X184608795Y-93458200D01*
X184841205Y-93458200D01*
X184994991Y-93394500D01*
X185349016Y-93394500D01*
X185354471Y-93399955D01*
X178945745Y-99808599D01*
X178909690Y-99832690D01*
X178866313Y-99897609D01*
X178814255Y-99975518D01*
X178814255Y-99975520D01*
X178814254Y-99975521D01*
X178789201Y-100101474D01*
X178780742Y-100143998D01*
X178789200Y-100186521D01*
X178789201Y-104275615D01*
X178725739Y-104339077D01*
X178636800Y-104553795D01*
X178636800Y-104643543D01*
X177120000Y-106160343D01*
X177120000Y-105695750D01*
X176961250Y-105537000D01*
X175387000Y-105537000D01*
X175387000Y-107111250D01*
X175545750Y-107270000D01*
X176010343Y-107270000D01*
X171661143Y-111619200D01*
X170072403Y-111619200D01*
X170181808Y-111509795D01*
X170410200Y-110958408D01*
X170410200Y-110361592D01*
X170247582Y-109968996D01*
X171302446Y-108914132D01*
X171340623Y-108888623D01*
X171441673Y-108737391D01*
X171468200Y-108604030D01*
X171468200Y-108604029D01*
X171477157Y-108559000D01*
X171468200Y-108513970D01*
X171468200Y-105695750D01*
X173400000Y-105695750D01*
X173400000Y-106761309D01*
X173496673Y-106994698D01*
X173675301Y-107173327D01*
X173908690Y-107270000D01*
X174974250Y-107270000D01*
X175133000Y-107111250D01*
X175133000Y-105537000D01*
X173558750Y-105537000D01*
X173400000Y-105695750D01*
X171468200Y-105695750D01*
X171468200Y-105433378D01*
X172842887Y-104058691D01*
X173400000Y-104058691D01*
X173400000Y-105124250D01*
X173558750Y-105283000D01*
X175133000Y-105283000D01*
X175133000Y-103708750D01*
X175387000Y-103708750D01*
X175387000Y-105283000D01*
X176961250Y-105283000D01*
X177120000Y-105124250D01*
X177120000Y-104058691D01*
X177023327Y-103825302D01*
X176844699Y-103646673D01*
X176611310Y-103550000D01*
X175545750Y-103550000D01*
X175387000Y-103708750D01*
X175133000Y-103708750D01*
X174974250Y-103550000D01*
X173908690Y-103550000D01*
X173675301Y-103646673D01*
X173496673Y-103825302D01*
X173400000Y-104058691D01*
X172842887Y-104058691D01*
X174909379Y-101992200D01*
X174963205Y-101992200D01*
X175177923Y-101903261D01*
X175342261Y-101738923D01*
X175431200Y-101524205D01*
X175431200Y-101516592D01*
X175588923Y-101451261D01*
X175753261Y-101286923D01*
X175842200Y-101072205D01*
X175842200Y-100839795D01*
X175753261Y-100625077D01*
X175588923Y-100460739D01*
X175374205Y-100371800D01*
X175141795Y-100371800D01*
X174996942Y-100431800D01*
X171950695Y-100431800D01*
X174255390Y-98127000D01*
X174309205Y-98127000D01*
X174523923Y-98038061D01*
X174688261Y-97873723D01*
X174777200Y-97659005D01*
X174777200Y-97426595D01*
X174688261Y-97211877D01*
X174523923Y-97047539D01*
X174392001Y-96992895D01*
X176490800Y-96992895D01*
X176490800Y-97225305D01*
X176579739Y-97440023D01*
X176744077Y-97604361D01*
X176958795Y-97693300D01*
X177191205Y-97693300D01*
X177405923Y-97604361D01*
X177570261Y-97440023D01*
X177659200Y-97225305D01*
X177659200Y-96992895D01*
X177570261Y-96778177D01*
X177506800Y-96714716D01*
X177506800Y-92911666D01*
X179684436Y-90734200D01*
X179774205Y-90734200D01*
X179988923Y-90645261D01*
X180153261Y-90480923D01*
X180242200Y-90266205D01*
X180242200Y-90033795D01*
X180153261Y-89819077D01*
X179988923Y-89654739D01*
X179774205Y-89565800D01*
X179541795Y-89565800D01*
X179327077Y-89654739D01*
X179162739Y-89819077D01*
X179073800Y-90033795D01*
X179073800Y-90123521D01*
X176799749Y-92397397D01*
X176763691Y-92421490D01*
X176724529Y-92480100D01*
X176668261Y-92564305D01*
X176668259Y-92564314D01*
X176668255Y-92564320D01*
X176654307Y-92634442D01*
X176634742Y-92732783D01*
X176643201Y-92775318D01*
X176643200Y-96714716D01*
X176579739Y-96778177D01*
X176490800Y-96992895D01*
X174392001Y-96992895D01*
X174309205Y-96958600D01*
X174076795Y-96958600D01*
X173862077Y-97047539D01*
X173697739Y-97211877D01*
X173608800Y-97426595D01*
X173608800Y-97480433D01*
X170254085Y-100835303D01*
X170410200Y-100458408D01*
X170410200Y-99861592D01*
X170181808Y-99310205D01*
X169759795Y-98888192D01*
X169208408Y-98659800D01*
X168611592Y-98659800D01*
X168060205Y-98888192D01*
X167638192Y-99310205D01*
X167409800Y-99861592D01*
X167409800Y-100458408D01*
X167638192Y-101009795D01*
X168060205Y-101431808D01*
X168312392Y-101536267D01*
X168246377Y-101580377D01*
X168220870Y-101618551D01*
X166415554Y-103423868D01*
X166393207Y-103438800D01*
X160206779Y-103438800D01*
X161764379Y-101881200D01*
X161809016Y-101881200D01*
X161847077Y-101919261D01*
X162061795Y-102008200D01*
X162294205Y-102008200D01*
X162468020Y-101936204D01*
X162479077Y-101947261D01*
X162693795Y-102036200D01*
X162926205Y-102036200D01*
X163140923Y-101947261D01*
X163305261Y-101782923D01*
X163343678Y-101690177D01*
X163371739Y-101757923D01*
X163536077Y-101922261D01*
X163750795Y-102011200D01*
X163983205Y-102011200D01*
X164197923Y-101922261D01*
X164362261Y-101757923D01*
X164451200Y-101543205D01*
X164451200Y-101310795D01*
X164362261Y-101096077D01*
X164197923Y-100931739D01*
X163983205Y-100842800D01*
X163929378Y-100842800D01*
X162955132Y-99868554D01*
X162929623Y-99830377D01*
X162778391Y-99729327D01*
X162645030Y-99702800D01*
X162600000Y-99693843D01*
X162554970Y-99702800D01*
X157644426Y-99702800D01*
X157481808Y-99310205D01*
X157059795Y-98888192D01*
X156508408Y-98659800D01*
X156377857Y-98659800D01*
X157674857Y-97362800D01*
X169055460Y-97362800D01*
X169097961Y-97371258D01*
X169140502Y-97362800D01*
X169140526Y-97362800D01*
X169189105Y-97353137D01*
X169266442Y-97337761D01*
X169266458Y-97337750D01*
X169266480Y-97337746D01*
X169343020Y-97286604D01*
X169373227Y-97266424D01*
X169373239Y-97266412D01*
X169409310Y-97242310D01*
X169433390Y-97206272D01*
X172981407Y-93658900D01*
X173071205Y-93658900D01*
X173285923Y-93569961D01*
X173450261Y-93405623D01*
X173539200Y-93190905D01*
X173539200Y-93023283D01*
X175191800Y-94676203D01*
X175191800Y-94766005D01*
X175280739Y-94980723D01*
X175445077Y-95145061D01*
X175659795Y-95234000D01*
X175892205Y-95234000D01*
X176106923Y-95145061D01*
X176271261Y-94980723D01*
X176360200Y-94766005D01*
X176360200Y-94533595D01*
X176271261Y-94318877D01*
X176106923Y-94154539D01*
X176078937Y-94142947D01*
X176087261Y-94134623D01*
X176176200Y-93919905D01*
X176176200Y-93687495D01*
X176087261Y-93472777D01*
X175922923Y-93308439D01*
X175708205Y-93219500D01*
X175654180Y-93219500D01*
X175256200Y-92821823D01*
X175256200Y-92768195D01*
X175167261Y-92553477D01*
X175002923Y-92389139D01*
X174788205Y-92300200D01*
X174555795Y-92300200D01*
X174341077Y-92389139D01*
X174233714Y-92496502D01*
X174038413Y-92301162D01*
X174014310Y-92265090D01*
X173934624Y-92211846D01*
X173871518Y-92169671D01*
X173871500Y-92169667D01*
X173871480Y-92169654D01*
X173776745Y-92150810D01*
X173703042Y-92136142D01*
X173660499Y-92144600D01*
X172718536Y-92144600D01*
X172676022Y-92136141D01*
X172633484Y-92144600D01*
X172633474Y-92144600D01*
X172595757Y-92152102D01*
X172507541Y-92169645D01*
X172507531Y-92169652D01*
X172507520Y-92169654D01*
X172438947Y-92215473D01*
X172400759Y-92240987D01*
X172400752Y-92240994D01*
X172364690Y-92265090D01*
X172340607Y-92301133D01*
X170410200Y-94231344D01*
X170410200Y-93851592D01*
X170247599Y-93459039D01*
X170879441Y-92827235D01*
X170917623Y-92801723D01*
X170978902Y-92710013D01*
X171018668Y-92650503D01*
X171018669Y-92650497D01*
X171018673Y-92650491D01*
X171037687Y-92554903D01*
X171054157Y-92472114D01*
X171045200Y-92427078D01*
X171045200Y-90874674D01*
X172734085Y-89185750D01*
X173400000Y-89185750D01*
X173400000Y-90251309D01*
X173496673Y-90484698D01*
X173675301Y-90663327D01*
X173908690Y-90760000D01*
X174974250Y-90760000D01*
X175133000Y-90601250D01*
X175133000Y-89027000D01*
X175387000Y-89027000D01*
X175387000Y-90601250D01*
X175545750Y-90760000D01*
X176611310Y-90760000D01*
X176844699Y-90663327D01*
X177023327Y-90484698D01*
X177120000Y-90251309D01*
X177120000Y-89185750D01*
X183560000Y-89185750D01*
X183560000Y-90251309D01*
X183656673Y-90484698D01*
X183835301Y-90663327D01*
X184068690Y-90760000D01*
X185134250Y-90760000D01*
X185293000Y-90601250D01*
X185293000Y-89027000D01*
X183718750Y-89027000D01*
X183560000Y-89185750D01*
X177120000Y-89185750D01*
X176961250Y-89027000D01*
X175387000Y-89027000D01*
X175133000Y-89027000D01*
X173558750Y-89027000D01*
X173400000Y-89185750D01*
X172734085Y-89185750D01*
X173400000Y-88519820D01*
X173400000Y-88614250D01*
X173558750Y-88773000D01*
X175133000Y-88773000D01*
X175133000Y-87198750D01*
X175387000Y-87198750D01*
X175387000Y-88773000D01*
X176961250Y-88773000D01*
X177120000Y-88614250D01*
X177120000Y-87548691D01*
X177023327Y-87315302D01*
X176844699Y-87136673D01*
X176611310Y-87040000D01*
X175545750Y-87040000D01*
X175387000Y-87198750D01*
X175133000Y-87198750D01*
X174974250Y-87040000D01*
X174879785Y-87040000D01*
X175138451Y-86781329D01*
X175176623Y-86755823D01*
X175203582Y-86715477D01*
X175214946Y-86698469D01*
X175277673Y-86604591D01*
X175277674Y-86604588D01*
X175277675Y-86604586D01*
X175301779Y-86483400D01*
X175304200Y-86471230D01*
X175304200Y-86471228D01*
X175313157Y-86426195D01*
X175304200Y-86381169D01*
X175304200Y-85454289D01*
X175393795Y-85491400D01*
X175626205Y-85491400D01*
X175840923Y-85402461D01*
X175943162Y-85300222D01*
X178858800Y-88215219D01*
G36*
X130543171Y-85933845D02*
X130458403Y-86360000D01*
X130543171Y-86786155D01*
X130784568Y-87147432D01*
X131145845Y-87388829D01*
X131464431Y-87452200D01*
X132695569Y-87452200D01*
X133014155Y-87388829D01*
X133147200Y-87299931D01*
X133147200Y-87801331D01*
X130810000Y-87801331D01*
X130681162Y-87826958D01*
X130571939Y-87899939D01*
X130498958Y-88009162D01*
X130473331Y-88138000D01*
X130473331Y-89662000D01*
X130498958Y-89790838D01*
X130571939Y-89900061D01*
X130681162Y-89973042D01*
X130810000Y-89998669D01*
X133147200Y-89998669D01*
X133147200Y-90500069D01*
X133014155Y-90411171D01*
X132695569Y-90347800D01*
X131464431Y-90347800D01*
X131145845Y-90411171D01*
X130784568Y-90652568D01*
X130548241Y-91006257D01*
X130538474Y-91008200D01*
X130412520Y-91033254D01*
X130269690Y-91128690D01*
X130174254Y-91271520D01*
X130140741Y-91440000D01*
X130149200Y-91482526D01*
X130149201Y-92759774D01*
X128356720Y-94552715D01*
X128320690Y-94576790D01*
X128296585Y-94612866D01*
X128296566Y-94612885D01*
X128274270Y-94646263D01*
X128225254Y-94719621D01*
X128225248Y-94719650D01*
X128225233Y-94719673D01*
X128209447Y-94799086D01*
X128200200Y-94845575D01*
X128200200Y-94845606D01*
X128191742Y-94888156D01*
X128200200Y-94930649D01*
X128200201Y-97660573D01*
X127985800Y-97875028D01*
X127985800Y-94558290D01*
X129429381Y-93115100D01*
X129519205Y-93115100D01*
X129733923Y-93026161D01*
X129898261Y-92861823D01*
X129987200Y-92647105D01*
X129987200Y-92414695D01*
X129898261Y-92199977D01*
X129733923Y-92035639D01*
X129519205Y-91946700D01*
X129286795Y-91946700D01*
X129072077Y-92035639D01*
X128907739Y-92199977D01*
X128818800Y-92414695D01*
X128818800Y-92504367D01*
X127278770Y-94043982D01*
X127242690Y-94068090D01*
X127192492Y-94143217D01*
X127147277Y-94210866D01*
X127147271Y-94210895D01*
X127147254Y-94210921D01*
X127129970Y-94297815D01*
X127113742Y-94379341D01*
X127122200Y-94421892D01*
X127122201Y-97875615D01*
X127058739Y-97939077D01*
X126969800Y-98153795D01*
X126969800Y-98386205D01*
X127058739Y-98600923D01*
X127159426Y-98701610D01*
X126259169Y-99602094D01*
X126186261Y-99426077D01*
X126122800Y-99362616D01*
X126122800Y-93193144D01*
X128669485Y-90646200D01*
X128759205Y-90646200D01*
X128973923Y-90557261D01*
X129138261Y-90392923D01*
X129227200Y-90178205D01*
X129227200Y-89945795D01*
X129138261Y-89731077D01*
X128973923Y-89566739D01*
X128759205Y-89477800D01*
X128526795Y-89477800D01*
X128312077Y-89566739D01*
X128147739Y-89731077D01*
X128058800Y-89945795D01*
X128058800Y-90035570D01*
X125415733Y-92678907D01*
X125379690Y-92702990D01*
X125355595Y-92739051D01*
X125355587Y-92739059D01*
X125333971Y-92771414D01*
X125284254Y-92845821D01*
X125284251Y-92845834D01*
X125284246Y-92845842D01*
X125272925Y-92902773D01*
X125259200Y-92971775D01*
X125259200Y-92971790D01*
X125250742Y-93014322D01*
X125259200Y-93056832D01*
X125259200Y-94291175D01*
X125249698Y-94281673D01*
X125016309Y-94185000D01*
X123475750Y-94185000D01*
X123317000Y-94343750D01*
X123317000Y-96393000D01*
X123337000Y-96393000D01*
X123337000Y-96647000D01*
X123317000Y-96647000D01*
X123317000Y-98696250D01*
X123475750Y-98855000D01*
X125016309Y-98855000D01*
X125249698Y-98758327D01*
X125259201Y-98748824D01*
X125259201Y-99362615D01*
X125195739Y-99426077D01*
X125106800Y-99640795D01*
X125106800Y-99794200D01*
X121913907Y-99794200D01*
X121304200Y-99184254D01*
X121304200Y-99083495D01*
X121215261Y-98868777D01*
X121050923Y-98704439D01*
X120836205Y-98615500D01*
X120603795Y-98615500D01*
X120389077Y-98704439D01*
X120224739Y-98868777D01*
X120135800Y-99083495D01*
X120135800Y-99315905D01*
X120224739Y-99530623D01*
X120389077Y-99694961D01*
X120603795Y-99783900D01*
X120682537Y-99783900D01*
X121124402Y-100225940D01*
X119746742Y-101603601D01*
X119710690Y-101627690D01*
X119654800Y-101711336D01*
X119654800Y-96805750D01*
X120855000Y-96805750D01*
X120855000Y-98346310D01*
X120951673Y-98579699D01*
X121130302Y-98758327D01*
X121363691Y-98855000D01*
X122904250Y-98855000D01*
X123063000Y-98696250D01*
X123063000Y-96647000D01*
X121013750Y-96647000D01*
X120855000Y-96805750D01*
X119654800Y-96805750D01*
X119654800Y-96721054D01*
X120855000Y-95520833D01*
X120855000Y-96234250D01*
X121013750Y-96393000D01*
X123063000Y-96393000D01*
X123063000Y-94343750D01*
X122904250Y-94185000D01*
X122190810Y-94185000D01*
X130747267Y-85628393D01*
X130543171Y-85933845D01*
X130543171Y-85933845D01*
G37*
X130543171Y-85933845D02*
X130458403Y-86360000D01*
X130543171Y-86786155D01*
X130784568Y-87147432D01*
X131145845Y-87388829D01*
X131464431Y-87452200D01*
X132695569Y-87452200D01*
X133014155Y-87388829D01*
X133147200Y-87299931D01*
X133147200Y-87801331D01*
X130810000Y-87801331D01*
X130681162Y-87826958D01*
X130571939Y-87899939D01*
X130498958Y-88009162D01*
X130473331Y-88138000D01*
X130473331Y-89662000D01*
X130498958Y-89790838D01*
X130571939Y-89900061D01*
X130681162Y-89973042D01*
X130810000Y-89998669D01*
X133147200Y-89998669D01*
X133147200Y-90500069D01*
X133014155Y-90411171D01*
X132695569Y-90347800D01*
X131464431Y-90347800D01*
X131145845Y-90411171D01*
X130784568Y-90652568D01*
X130548241Y-91006257D01*
X130538474Y-91008200D01*
X130412520Y-91033254D01*
X130269690Y-91128690D01*
X130174254Y-91271520D01*
X130140741Y-91440000D01*
X130149200Y-91482526D01*
X130149201Y-92759774D01*
X128356720Y-94552715D01*
X128320690Y-94576790D01*
X128296585Y-94612866D01*
X128296566Y-94612885D01*
X128274270Y-94646263D01*
X128225254Y-94719621D01*
X128225248Y-94719650D01*
X128225233Y-94719673D01*
X128209447Y-94799086D01*
X128200200Y-94845575D01*
X128200200Y-94845606D01*
X128191742Y-94888156D01*
X128200200Y-94930649D01*
X128200201Y-97660573D01*
X127985800Y-97875028D01*
X127985800Y-94558290D01*
X129429381Y-93115100D01*
X129519205Y-93115100D01*
X129733923Y-93026161D01*
X129898261Y-92861823D01*
X129987200Y-92647105D01*
X129987200Y-92414695D01*
X129898261Y-92199977D01*
X129733923Y-92035639D01*
X129519205Y-91946700D01*
X129286795Y-91946700D01*
X129072077Y-92035639D01*
X128907739Y-92199977D01*
X128818800Y-92414695D01*
X128818800Y-92504367D01*
X127278770Y-94043982D01*
X127242690Y-94068090D01*
X127192492Y-94143217D01*
X127147277Y-94210866D01*
X127147271Y-94210895D01*
X127147254Y-94210921D01*
X127129970Y-94297815D01*
X127113742Y-94379341D01*
X127122200Y-94421892D01*
X127122201Y-97875615D01*
X127058739Y-97939077D01*
X126969800Y-98153795D01*
X126969800Y-98386205D01*
X127058739Y-98600923D01*
X127159426Y-98701610D01*
X126259169Y-99602094D01*
X126186261Y-99426077D01*
X126122800Y-99362616D01*
X126122800Y-93193144D01*
X128669485Y-90646200D01*
X128759205Y-90646200D01*
X128973923Y-90557261D01*
X129138261Y-90392923D01*
X129227200Y-90178205D01*
X129227200Y-89945795D01*
X129138261Y-89731077D01*
X128973923Y-89566739D01*
X128759205Y-89477800D01*
X128526795Y-89477800D01*
X128312077Y-89566739D01*
X128147739Y-89731077D01*
X128058800Y-89945795D01*
X128058800Y-90035570D01*
X125415733Y-92678907D01*
X125379690Y-92702990D01*
X125355595Y-92739051D01*
X125355587Y-92739059D01*
X125333971Y-92771414D01*
X125284254Y-92845821D01*
X125284251Y-92845834D01*
X125284246Y-92845842D01*
X125272925Y-92902773D01*
X125259200Y-92971775D01*
X125259200Y-92971790D01*
X125250742Y-93014322D01*
X125259200Y-93056832D01*
X125259200Y-94291175D01*
X125249698Y-94281673D01*
X125016309Y-94185000D01*
X123475750Y-94185000D01*
X123317000Y-94343750D01*
X123317000Y-96393000D01*
X123337000Y-96393000D01*
X123337000Y-96647000D01*
X123317000Y-96647000D01*
X123317000Y-98696250D01*
X123475750Y-98855000D01*
X125016309Y-98855000D01*
X125249698Y-98758327D01*
X125259201Y-98748824D01*
X125259201Y-99362615D01*
X125195739Y-99426077D01*
X125106800Y-99640795D01*
X125106800Y-99794200D01*
X121913907Y-99794200D01*
X121304200Y-99184254D01*
X121304200Y-99083495D01*
X121215261Y-98868777D01*
X121050923Y-98704439D01*
X120836205Y-98615500D01*
X120603795Y-98615500D01*
X120389077Y-98704439D01*
X120224739Y-98868777D01*
X120135800Y-99083495D01*
X120135800Y-99315905D01*
X120224739Y-99530623D01*
X120389077Y-99694961D01*
X120603795Y-99783900D01*
X120682537Y-99783900D01*
X121124402Y-100225940D01*
X119746742Y-101603601D01*
X119710690Y-101627690D01*
X119654800Y-101711336D01*
X119654800Y-96805750D01*
X120855000Y-96805750D01*
X120855000Y-98346310D01*
X120951673Y-98579699D01*
X121130302Y-98758327D01*
X121363691Y-98855000D01*
X122904250Y-98855000D01*
X123063000Y-98696250D01*
X123063000Y-96647000D01*
X121013750Y-96647000D01*
X120855000Y-96805750D01*
X119654800Y-96805750D01*
X119654800Y-96721054D01*
X120855000Y-95520833D01*
X120855000Y-96234250D01*
X121013750Y-96393000D01*
X123063000Y-96393000D01*
X123063000Y-94343750D01*
X122904250Y-94185000D01*
X122190810Y-94185000D01*
X130747267Y-85628393D01*
X130543171Y-85933845D01*
G04 #@! TD*
M02*
