M48
;DRILL file {KiCad 6.0.0-rc1-unknown-60a55d7~66~ubuntu18.04.1} date Wed Aug 22 13:38:10 2018
;FORMAT={-:-/ absolute / metric / decimal}
FMAT,2
METRIC,TZ
T1C0.254
T2C1.016
T3C1.200
T4C1.450
T5C1.700
T6C2.000
T7C3.302
T8C4.200
%
G90
G05
M71
T1
X118.711Y-96.867
X118.711Y-106.93
X118.711Y-117.073
X119.206Y-108.913
X120.19Y-98.763
X120.19Y-108.913
X120.19Y-119.075
X120.879Y-119.155
X120.931Y-100.411
X122.451Y-111.114
X122.605Y-91.79
X123.796Y-101.351
X125.609Y-102.863
X125.636Y-122.679
X125.843Y-101.984
X127.562Y-96.388
X127.722Y-118.938
X128.187Y-108.411
X128.235Y-96.213
X128.235Y-97.27
X128.27Y-102.772
X128.616Y-110.666
X128.954Y-98.27
X129.181Y-119.714
X129.991Y-112.013
X130.077Y-98.09
X130.481Y-102.55
X143.51Y-113.03
X144.113Y-105.184
X157.079Y-112.021
X157.298Y-106.085
X158.253Y-74.99
X158.341Y-89.622
X158.47Y-111.667
X158.56Y-105.308
X158.6Y-73.065
X158.763Y-74.441
X160.281Y-78.665
X161.217Y-79.435
X161.807Y-109.371
X161.851Y-67.783
X162.029Y-100.612
X162.095Y-68.414
X162.178Y-84.914
X162.3Y-101.446
X162.481Y-82.758
X162.802Y-99.195
X162.855Y-66.49
X162.93Y-110.383
X163.09Y-83.542
X163.397Y-109.371
X163.408Y-93.568
X163.534Y-95.194
X164.307Y-107.334
X164.593Y-108.218
X167.998Y-92.089
X169.545Y-122.555
X171.041Y-105.408
X171.041Y-107.811
X171.291Y-89.535
X171.299Y-106.053
X171.304Y-90.19
X173.057Y-91.857
X173.498Y-108.01
X173.524Y-92.488
X174.545Y-101.178
X174.723Y-100.365
X174.847Y-84.883
X175.458Y-93.106
X175.47Y-84.82
X175.895Y-122.555
X177.04Y-103.486
X179.386Y-104.486
X180.347Y-105.378
X180.784Y-104.937
X180.959Y-96.95
X181.326Y-89.73
X181.454Y-88.719
X182.083Y-90.737
X182.663Y-107.826
X183.649Y-103.639
X183.681Y-108.992
X183.839Y-92.805
X184.722Y-100.891
X185.251Y-84.923
X185.282Y-83.85
X185.314Y-101.426
X185.422Y-99.009
X185.538Y-93.293
X185.609Y-82.685
X185.68Y-109.383
X185.964Y-99.332
T2
X132.08Y-66.04
X132.08Y-68.58
X132.08Y-71.12
X132.08Y-73.66
X132.08Y-76.2
X132.08Y-78.74
X132.08Y-81.28
X132.08Y-83.82
X132.08Y-86.36
X132.08Y-88.9
X132.08Y-91.44
X132.08Y-93.98
X132.08Y-96.52
X132.08Y-99.06
X132.08Y-101.6
X132.08Y-104.14
X132.08Y-106.68
X132.08Y-109.22
X132.08Y-111.76
X132.08Y-114.3
X132.08Y-116.84
X132.08Y-119.38
X132.08Y-121.92
X132.08Y-124.46
X147.32Y-66.04
X147.32Y-68.58
X147.32Y-71.12
X147.32Y-73.66
X147.32Y-76.2
X147.32Y-78.74
X147.32Y-81.28
X147.32Y-83.82
X147.32Y-86.36
X147.32Y-88.9
X147.32Y-91.44
X147.32Y-93.98
X147.32Y-96.52
X147.32Y-99.06
X147.32Y-101.6
X147.32Y-104.14
X147.32Y-106.68
X147.32Y-109.22
X147.32Y-111.76
X147.32Y-114.3
X147.32Y-116.84
X147.32Y-119.38
X147.32Y-121.92
X147.32Y-124.46
T3
X156.21Y-67.14
X156.21Y-70.64
X156.21Y-74.14
X156.21Y-77.64
X168.91Y-83.65
X168.91Y-87.15
X168.91Y-90.65
X168.91Y-94.15
X156.21Y-116.67
X156.21Y-120.17
X156.21Y-123.67
X156.21Y-127.17
X168.91Y-67.14
X168.91Y-70.64
X168.91Y-74.14
X168.91Y-77.64
X168.91Y-100.16
X168.91Y-103.66
X168.91Y-107.16
X168.91Y-110.66
X156.21Y-100.16
X156.21Y-103.66
X156.21Y-107.16
X156.21Y-110.66
X156.21Y-83.65
X156.21Y-87.15
X156.21Y-90.65
X156.21Y-94.15
T4
X162.56Y-105.41
X185.42Y-105.41
X185.42Y-88.9
X162.56Y-72.39
X162.56Y-88.9
X175.26Y-88.9
X175.26Y-105.41
T5
X161.Y-126.27
X169.2Y-126.27
T6
X123.19Y-96.52
X123.19Y-106.68
X123.19Y-116.84
T7
X179.388Y-128.588
X125.412Y-128.588
X125.412Y-74.612
X179.388Y-74.612
T8
X165.1Y-128.27
T0
M30
