G04 #@! TF.GenerationSoftware,KiCad,Pcbnew,6.0.0-rc1-unknown-d4e4359~66~ubuntu18.04.1*
G04 #@! TF.CreationDate,2018-09-19T14:01:08-04:00*
G04 #@! TF.ProjectId,ethoscope_stepper_controller_3x3,6574686F73636F70655F737465707065,1.1*
G04 #@! TF.SameCoordinates,Original*
G04 #@! TF.FileFunction,Soldermask,Bot*
G04 #@! TF.FilePolarity,Negative*
%FSLAX46Y46*%
G04 Gerber Fmt 4.6, Leading zero omitted, Abs format (unit mm)*
G04 Created by KiCad (PCBNEW 6.0.0-rc1-unknown-d4e4359~66~ubuntu18.04.1) date Wed Sep 19 14:01:08 2018*
%MOMM*%
%LPD*%
G01*
G04 APERTURE LIST*
%ADD10C,0.228600*%
%ADD11C,0.100000*%
G04 APERTURE END LIST*
D10*
X189865000Y-132715000D02*
X189865000Y-70485000D01*
X121285000Y-139065000D02*
X183515000Y-139065000D01*
X114935000Y-70485000D02*
X114935000Y-132715000D01*
X121285000Y-64135000D02*
X183515000Y-64135000D01*
X189865000Y-132715000D02*
G75*
G02X183515000Y-139065000I-6350000J0D01*
G01*
X121285000Y-139065000D02*
G75*
G02X114935000Y-132715000I0J6350000D01*
G01*
X183515000Y-64135000D02*
G75*
G02X189865000Y-70485000I0J-6350000D01*
G01*
X114935000Y-70485000D02*
G75*
G02X121285000Y-64135000I6350000J0D01*
G01*
D11*
G36*
X151279374Y-135520025D02*
X151279377Y-135520026D01*
X151279378Y-135520026D01*
X151423015Y-135563598D01*
X151538300Y-135625219D01*
X151555394Y-135634356D01*
X151671422Y-135729578D01*
X151766644Y-135845606D01*
X151766645Y-135845608D01*
X151837402Y-135977985D01*
X151880974Y-136121622D01*
X151880975Y-136121626D01*
X151892000Y-136233568D01*
X151892000Y-136816432D01*
X151880975Y-136928374D01*
X151880974Y-136928377D01*
X151880974Y-136928378D01*
X151837402Y-137072015D01*
X151837401Y-137072016D01*
X151766644Y-137204394D01*
X151671422Y-137320422D01*
X151555393Y-137415644D01*
X151555391Y-137415645D01*
X151423014Y-137486402D01*
X151279377Y-137529974D01*
X151279376Y-137529974D01*
X151279373Y-137529975D01*
X151130000Y-137544687D01*
X150980626Y-137529975D01*
X150980623Y-137529974D01*
X150980622Y-137529974D01*
X150836985Y-137486402D01*
X150704608Y-137415645D01*
X150704606Y-137415644D01*
X150588578Y-137320422D01*
X150493356Y-137204393D01*
X150484219Y-137187299D01*
X150422598Y-137072014D01*
X150379026Y-136928377D01*
X150379026Y-136928376D01*
X150379025Y-136928373D01*
X150368000Y-136816431D01*
X150368000Y-136233568D01*
X150379025Y-136121626D01*
X150422600Y-135977979D01*
X150493354Y-135845609D01*
X150588579Y-135729578D01*
X150704607Y-135634356D01*
X150721701Y-135625219D01*
X150836986Y-135563598D01*
X150980623Y-135520026D01*
X150980624Y-135520026D01*
X150980627Y-135520025D01*
X151130000Y-135505313D01*
X151279374Y-135520025D01*
X151279374Y-135520025D01*
G37*
G36*
X153819374Y-135520025D02*
X153819377Y-135520026D01*
X153819378Y-135520026D01*
X153963015Y-135563598D01*
X154078300Y-135625219D01*
X154095394Y-135634356D01*
X154211422Y-135729578D01*
X154306644Y-135845606D01*
X154306645Y-135845608D01*
X154377402Y-135977985D01*
X154420974Y-136121622D01*
X154420975Y-136121626D01*
X154432000Y-136233568D01*
X154432000Y-136816432D01*
X154420975Y-136928374D01*
X154420974Y-136928377D01*
X154420974Y-136928378D01*
X154377402Y-137072015D01*
X154377401Y-137072016D01*
X154306644Y-137204394D01*
X154211422Y-137320422D01*
X154095393Y-137415644D01*
X154095391Y-137415645D01*
X153963014Y-137486402D01*
X153819377Y-137529974D01*
X153819376Y-137529974D01*
X153819373Y-137529975D01*
X153670000Y-137544687D01*
X153520626Y-137529975D01*
X153520623Y-137529974D01*
X153520622Y-137529974D01*
X153376985Y-137486402D01*
X153244608Y-137415645D01*
X153244606Y-137415644D01*
X153128578Y-137320422D01*
X153033356Y-137204393D01*
X153024219Y-137187299D01*
X152962598Y-137072014D01*
X152919026Y-136928377D01*
X152919026Y-136928376D01*
X152919025Y-136928373D01*
X152908000Y-136816431D01*
X152908000Y-136233568D01*
X152919025Y-136121626D01*
X152962600Y-135977979D01*
X153033354Y-135845609D01*
X153128579Y-135729578D01*
X153244607Y-135634356D01*
X153261701Y-135625219D01*
X153376986Y-135563598D01*
X153520623Y-135520026D01*
X153520624Y-135520026D01*
X153520627Y-135520025D01*
X153670000Y-135505313D01*
X153819374Y-135520025D01*
X153819374Y-135520025D01*
G37*
G36*
X153819374Y-130440025D02*
X153819377Y-130440026D01*
X153819378Y-130440026D01*
X153963015Y-130483598D01*
X154031118Y-130520000D01*
X154095394Y-130554356D01*
X154211422Y-130649578D01*
X154306644Y-130765606D01*
X154306645Y-130765608D01*
X154377402Y-130897985D01*
X154420974Y-131041622D01*
X154420975Y-131041626D01*
X154432000Y-131153568D01*
X154432000Y-131736432D01*
X154420975Y-131848374D01*
X154420974Y-131848377D01*
X154420974Y-131848378D01*
X154377402Y-131992015D01*
X154377401Y-131992016D01*
X154306644Y-132124394D01*
X154211422Y-132240422D01*
X154095393Y-132335644D01*
X154095391Y-132335645D01*
X153963014Y-132406402D01*
X153819377Y-132449974D01*
X153819376Y-132449974D01*
X153819373Y-132449975D01*
X153670000Y-132464687D01*
X153520626Y-132449975D01*
X153520623Y-132449974D01*
X153520622Y-132449974D01*
X153376985Y-132406402D01*
X153244608Y-132335645D01*
X153244606Y-132335644D01*
X153128578Y-132240422D01*
X153033356Y-132124393D01*
X153024219Y-132107299D01*
X152962598Y-131992014D01*
X152919026Y-131848377D01*
X152919026Y-131848376D01*
X152919025Y-131848373D01*
X152908000Y-131736431D01*
X152908000Y-131153568D01*
X152919025Y-131041626D01*
X152962600Y-130897979D01*
X153033354Y-130765609D01*
X153128579Y-130649578D01*
X153244607Y-130554356D01*
X153308883Y-130520000D01*
X153376986Y-130483598D01*
X153520623Y-130440026D01*
X153520624Y-130440026D01*
X153520627Y-130440025D01*
X153670000Y-130425313D01*
X153819374Y-130440025D01*
X153819374Y-130440025D01*
G37*
G36*
X151279374Y-130440025D02*
X151279377Y-130440026D01*
X151279378Y-130440026D01*
X151423015Y-130483598D01*
X151491118Y-130520000D01*
X151555394Y-130554356D01*
X151671422Y-130649578D01*
X151766644Y-130765606D01*
X151766645Y-130765608D01*
X151837402Y-130897985D01*
X151880974Y-131041622D01*
X151880975Y-131041626D01*
X151892000Y-131153568D01*
X151892000Y-131736432D01*
X151880975Y-131848374D01*
X151880974Y-131848377D01*
X151880974Y-131848378D01*
X151837402Y-131992015D01*
X151837401Y-131992016D01*
X151766644Y-132124394D01*
X151671422Y-132240422D01*
X151555393Y-132335644D01*
X151555391Y-132335645D01*
X151423014Y-132406402D01*
X151279377Y-132449974D01*
X151279376Y-132449974D01*
X151279373Y-132449975D01*
X151130000Y-132464687D01*
X150980626Y-132449975D01*
X150980623Y-132449974D01*
X150980622Y-132449974D01*
X150836985Y-132406402D01*
X150704608Y-132335645D01*
X150704606Y-132335644D01*
X150588578Y-132240422D01*
X150493356Y-132124393D01*
X150484219Y-132107299D01*
X150422598Y-131992014D01*
X150379026Y-131848377D01*
X150379026Y-131848376D01*
X150379025Y-131848373D01*
X150368000Y-131736431D01*
X150368000Y-131153568D01*
X150379025Y-131041626D01*
X150422600Y-130897979D01*
X150493354Y-130765609D01*
X150588579Y-130649578D01*
X150704607Y-130554356D01*
X150768883Y-130520000D01*
X150836986Y-130483598D01*
X150980623Y-130440026D01*
X150980624Y-130440026D01*
X150980627Y-130440025D01*
X151130000Y-130425313D01*
X151279374Y-130440025D01*
X151279374Y-130440025D01*
G37*
G36*
X165447104Y-126044963D02*
X165756303Y-126106466D01*
X166165773Y-126276074D01*
X166534293Y-126522312D01*
X166847688Y-126835707D01*
X167093926Y-127204227D01*
X167263534Y-127613697D01*
X167350000Y-128048395D01*
X167350000Y-128491605D01*
X167263534Y-128926303D01*
X167093926Y-129335773D01*
X166847688Y-129704293D01*
X166534293Y-130017688D01*
X166165773Y-130263926D01*
X165756303Y-130433534D01*
X165504612Y-130483598D01*
X165321606Y-130520000D01*
X164878394Y-130520000D01*
X164695388Y-130483598D01*
X164443697Y-130433534D01*
X164034227Y-130263926D01*
X163665707Y-130017688D01*
X163352312Y-129704293D01*
X163106074Y-129335773D01*
X162936466Y-128926303D01*
X162850000Y-128491605D01*
X162850000Y-128048395D01*
X162936466Y-127613697D01*
X163106074Y-127204227D01*
X163352312Y-126835707D01*
X163665707Y-126522312D01*
X164034227Y-126276074D01*
X164443697Y-126106466D01*
X164752896Y-126044963D01*
X164878394Y-126020000D01*
X165321606Y-126020000D01*
X165447104Y-126044963D01*
X165447104Y-126044963D01*
G37*
G36*
X179657239Y-126828722D02*
X179906625Y-126878328D01*
X180230197Y-127012355D01*
X180379146Y-127111880D01*
X180486320Y-127183491D01*
X180521410Y-127206938D01*
X180769062Y-127454590D01*
X180963645Y-127745803D01*
X181097672Y-128069375D01*
X181166000Y-128412883D01*
X181166000Y-128763117D01*
X181097672Y-129106625D01*
X180963645Y-129430197D01*
X180833923Y-129624339D01*
X180780500Y-129704293D01*
X180769062Y-129721410D01*
X180521410Y-129969062D01*
X180230197Y-130163645D01*
X179906625Y-130297672D01*
X179677620Y-130343224D01*
X179563118Y-130366000D01*
X179212882Y-130366000D01*
X179098380Y-130343224D01*
X178869375Y-130297672D01*
X178545803Y-130163645D01*
X178254590Y-129969062D01*
X178006938Y-129721410D01*
X177995501Y-129704293D01*
X177942077Y-129624339D01*
X177812355Y-129430197D01*
X177678328Y-129106625D01*
X177610000Y-128763117D01*
X177610000Y-128412883D01*
X177678328Y-128069375D01*
X177812355Y-127745803D01*
X178006938Y-127454590D01*
X178254590Y-127206938D01*
X178289681Y-127183491D01*
X178396854Y-127111880D01*
X178545803Y-127012355D01*
X178869375Y-126878328D01*
X179118761Y-126828722D01*
X179212882Y-126810000D01*
X179563118Y-126810000D01*
X179657239Y-126828722D01*
X179657239Y-126828722D01*
G37*
G36*
X125681239Y-126828722D02*
X125930625Y-126878328D01*
X126254197Y-127012355D01*
X126403146Y-127111880D01*
X126510320Y-127183491D01*
X126545410Y-127206938D01*
X126793062Y-127454590D01*
X126987645Y-127745803D01*
X127121672Y-128069375D01*
X127190000Y-128412883D01*
X127190000Y-128763117D01*
X127121672Y-129106625D01*
X126987645Y-129430197D01*
X126857923Y-129624339D01*
X126804500Y-129704293D01*
X126793062Y-129721410D01*
X126545410Y-129969062D01*
X126254197Y-130163645D01*
X125930625Y-130297672D01*
X125701620Y-130343224D01*
X125587118Y-130366000D01*
X125236882Y-130366000D01*
X125122380Y-130343224D01*
X124893375Y-130297672D01*
X124569803Y-130163645D01*
X124278590Y-129969062D01*
X124030938Y-129721410D01*
X124019501Y-129704293D01*
X123966077Y-129624339D01*
X123836355Y-129430197D01*
X123702328Y-129106625D01*
X123634000Y-128763117D01*
X123634000Y-128412883D01*
X123702328Y-128069375D01*
X123836355Y-127745803D01*
X124030938Y-127454590D01*
X124278590Y-127206938D01*
X124313681Y-127183491D01*
X124420854Y-127111880D01*
X124569803Y-127012355D01*
X124893375Y-126878328D01*
X125142761Y-126828722D01*
X125236882Y-126810000D01*
X125587118Y-126810000D01*
X125681239Y-126828722D01*
X125681239Y-126828722D01*
G37*
G36*
X156400582Y-126014988D02*
X156551278Y-126044963D01*
X156764201Y-126133158D01*
X156955833Y-126261203D01*
X157118797Y-126424167D01*
X157246842Y-126615799D01*
X157335037Y-126828722D01*
X157380000Y-127054766D01*
X157380000Y-127285234D01*
X157335037Y-127511278D01*
X157246842Y-127724201D01*
X157118797Y-127915833D01*
X156955833Y-128078797D01*
X156764201Y-128206842D01*
X156551278Y-128295037D01*
X156400582Y-128325012D01*
X156325235Y-128340000D01*
X156094765Y-128340000D01*
X156019418Y-128325012D01*
X155868722Y-128295037D01*
X155655799Y-128206842D01*
X155464167Y-128078797D01*
X155301203Y-127915833D01*
X155173158Y-127724201D01*
X155084963Y-127511278D01*
X155040000Y-127285234D01*
X155040000Y-127054766D01*
X155084963Y-126828722D01*
X155173158Y-126615799D01*
X155301203Y-126424167D01*
X155464167Y-126261203D01*
X155655799Y-126133158D01*
X155868722Y-126044963D01*
X156019418Y-126014988D01*
X156094765Y-126000000D01*
X156325235Y-126000000D01*
X156400582Y-126014988D01*
X156400582Y-126014988D01*
G37*
G36*
X161277105Y-125356508D02*
X161449994Y-125428121D01*
X161605590Y-125532087D01*
X161737913Y-125664410D01*
X161841879Y-125820006D01*
X161913492Y-125992895D01*
X161950000Y-126176433D01*
X161950000Y-126363567D01*
X161913492Y-126547105D01*
X161841879Y-126719994D01*
X161737913Y-126875590D01*
X161605590Y-127007913D01*
X161449994Y-127111879D01*
X161277105Y-127183492D01*
X161093567Y-127220000D01*
X160906433Y-127220000D01*
X160722895Y-127183492D01*
X160550006Y-127111879D01*
X160394410Y-127007913D01*
X160262087Y-126875590D01*
X160158121Y-126719994D01*
X160086508Y-126547105D01*
X160050000Y-126363567D01*
X160050000Y-126176433D01*
X160086508Y-125992895D01*
X160158121Y-125820006D01*
X160262087Y-125664410D01*
X160394410Y-125532087D01*
X160550006Y-125428121D01*
X160722895Y-125356508D01*
X160906433Y-125320000D01*
X161093567Y-125320000D01*
X161277105Y-125356508D01*
X161277105Y-125356508D01*
G37*
G36*
X169477105Y-125356508D02*
X169649994Y-125428121D01*
X169805590Y-125532087D01*
X169937913Y-125664410D01*
X170041879Y-125820006D01*
X170113492Y-125992895D01*
X170150000Y-126176433D01*
X170150000Y-126363567D01*
X170113492Y-126547105D01*
X170041879Y-126719994D01*
X169937913Y-126875590D01*
X169805590Y-127007913D01*
X169649994Y-127111879D01*
X169477105Y-127183492D01*
X169293567Y-127220000D01*
X169106433Y-127220000D01*
X168922895Y-127183492D01*
X168750006Y-127111879D01*
X168594410Y-127007913D01*
X168462087Y-126875590D01*
X168358121Y-126719994D01*
X168286508Y-126547105D01*
X168250000Y-126363567D01*
X168250000Y-126176433D01*
X168286508Y-125992895D01*
X168358121Y-125820006D01*
X168462087Y-125664410D01*
X168594410Y-125532087D01*
X168750006Y-125428121D01*
X168922895Y-125356508D01*
X169106433Y-125320000D01*
X169293567Y-125320000D01*
X169477105Y-125356508D01*
X169477105Y-125356508D01*
G37*
G36*
X148590000Y-125222000D02*
X146050000Y-125222000D01*
X146050000Y-123698000D01*
X148590000Y-123698000D01*
X148590000Y-125222000D01*
X148590000Y-125222000D01*
G37*
G36*
X132737374Y-123709025D02*
X132737377Y-123709026D01*
X132737378Y-123709026D01*
X132881015Y-123752598D01*
X132996300Y-123814219D01*
X133013394Y-123823356D01*
X133129422Y-123918578D01*
X133224644Y-124034606D01*
X133224645Y-124034608D01*
X133295402Y-124166985D01*
X133338974Y-124310622D01*
X133338975Y-124310626D01*
X133353687Y-124460000D01*
X133338975Y-124609374D01*
X133338974Y-124609377D01*
X133338974Y-124609378D01*
X133295402Y-124753015D01*
X133233781Y-124868300D01*
X133224644Y-124885394D01*
X133129422Y-125001422D01*
X133013394Y-125096644D01*
X133013392Y-125096645D01*
X132881015Y-125167402D01*
X132737378Y-125210974D01*
X132737377Y-125210974D01*
X132737374Y-125210975D01*
X132625432Y-125222000D01*
X131534568Y-125222000D01*
X131422626Y-125210975D01*
X131422623Y-125210974D01*
X131422622Y-125210974D01*
X131278985Y-125167402D01*
X131146608Y-125096645D01*
X131146606Y-125096644D01*
X131030578Y-125001422D01*
X130935356Y-124885394D01*
X130926219Y-124868300D01*
X130864598Y-124753015D01*
X130821026Y-124609378D01*
X130821026Y-124609377D01*
X130821025Y-124609374D01*
X130806313Y-124460000D01*
X130821025Y-124310626D01*
X130821026Y-124310622D01*
X130864598Y-124166985D01*
X130935355Y-124034608D01*
X130935356Y-124034606D01*
X131030578Y-123918578D01*
X131146606Y-123823356D01*
X131163700Y-123814219D01*
X131278985Y-123752598D01*
X131422622Y-123709026D01*
X131422623Y-123709026D01*
X131422626Y-123709025D01*
X131534568Y-123698000D01*
X132625432Y-123698000D01*
X132737374Y-123709025D01*
X132737374Y-123709025D01*
G37*
G36*
X156400582Y-122514988D02*
X156551278Y-122544963D01*
X156764201Y-122633158D01*
X156955833Y-122761203D01*
X157118797Y-122924167D01*
X157246842Y-123115799D01*
X157335037Y-123328722D01*
X157380000Y-123554766D01*
X157380000Y-123785234D01*
X157335037Y-124011278D01*
X157246842Y-124224201D01*
X157118797Y-124415833D01*
X156955833Y-124578797D01*
X156764201Y-124706842D01*
X156551278Y-124795037D01*
X156400582Y-124825012D01*
X156325235Y-124840000D01*
X156094765Y-124840000D01*
X156019418Y-124825012D01*
X155868722Y-124795037D01*
X155655799Y-124706842D01*
X155464167Y-124578797D01*
X155301203Y-124415833D01*
X155173158Y-124224201D01*
X155084963Y-124011278D01*
X155040000Y-123785234D01*
X155040000Y-123554766D01*
X155084963Y-123328722D01*
X155173158Y-123115799D01*
X155301203Y-122924167D01*
X155464167Y-122761203D01*
X155655799Y-122633158D01*
X155868722Y-122544963D01*
X156019418Y-122514988D01*
X156094765Y-122500000D01*
X156325235Y-122500000D01*
X156400582Y-122514988D01*
X156400582Y-122514988D01*
G37*
G36*
X132737374Y-121169025D02*
X132737377Y-121169026D01*
X132737378Y-121169026D01*
X132881015Y-121212598D01*
X132996300Y-121274219D01*
X133013394Y-121283356D01*
X133129422Y-121378578D01*
X133224644Y-121494606D01*
X133224645Y-121494608D01*
X133295402Y-121626985D01*
X133338974Y-121770622D01*
X133338975Y-121770626D01*
X133353687Y-121920000D01*
X133338975Y-122069374D01*
X133338974Y-122069377D01*
X133338974Y-122069378D01*
X133295402Y-122213015D01*
X133295401Y-122213016D01*
X133224644Y-122345394D01*
X133129422Y-122461422D01*
X133013394Y-122556644D01*
X133013392Y-122556645D01*
X132881015Y-122627402D01*
X132737378Y-122670974D01*
X132737377Y-122670974D01*
X132737374Y-122670975D01*
X132625432Y-122682000D01*
X131534568Y-122682000D01*
X131422626Y-122670975D01*
X131422623Y-122670974D01*
X131422622Y-122670974D01*
X131278985Y-122627402D01*
X131146608Y-122556645D01*
X131146606Y-122556644D01*
X131030578Y-122461422D01*
X130935356Y-122345394D01*
X130864599Y-122213016D01*
X130864598Y-122213015D01*
X130821026Y-122069378D01*
X130821026Y-122069377D01*
X130821025Y-122069374D01*
X130806313Y-121920000D01*
X130821025Y-121770626D01*
X130821026Y-121770622D01*
X130864598Y-121626985D01*
X130935355Y-121494608D01*
X130935356Y-121494606D01*
X131030578Y-121378578D01*
X131146606Y-121283356D01*
X131163700Y-121274219D01*
X131278985Y-121212598D01*
X131422622Y-121169026D01*
X131422623Y-121169026D01*
X131422626Y-121169025D01*
X131534568Y-121158000D01*
X132625432Y-121158000D01*
X132737374Y-121169025D01*
X132737374Y-121169025D01*
G37*
G36*
X147977374Y-121169025D02*
X147977377Y-121169026D01*
X147977378Y-121169026D01*
X148121015Y-121212598D01*
X148236300Y-121274219D01*
X148253394Y-121283356D01*
X148369422Y-121378578D01*
X148464644Y-121494606D01*
X148464645Y-121494608D01*
X148535402Y-121626985D01*
X148578974Y-121770622D01*
X148578975Y-121770626D01*
X148593687Y-121920000D01*
X148578975Y-122069374D01*
X148578974Y-122069377D01*
X148578974Y-122069378D01*
X148535402Y-122213015D01*
X148535401Y-122213016D01*
X148464644Y-122345394D01*
X148369422Y-122461422D01*
X148253394Y-122556644D01*
X148253392Y-122556645D01*
X148121015Y-122627402D01*
X147977378Y-122670974D01*
X147977377Y-122670974D01*
X147977374Y-122670975D01*
X147865432Y-122682000D01*
X146774568Y-122682000D01*
X146662626Y-122670975D01*
X146662623Y-122670974D01*
X146662622Y-122670974D01*
X146518985Y-122627402D01*
X146386608Y-122556645D01*
X146386606Y-122556644D01*
X146270578Y-122461422D01*
X146175356Y-122345394D01*
X146104599Y-122213016D01*
X146104598Y-122213015D01*
X146061026Y-122069378D01*
X146061026Y-122069377D01*
X146061025Y-122069374D01*
X146046313Y-121920000D01*
X146061025Y-121770626D01*
X146061026Y-121770622D01*
X146104598Y-121626985D01*
X146175355Y-121494608D01*
X146175356Y-121494606D01*
X146270578Y-121378578D01*
X146386606Y-121283356D01*
X146403700Y-121274219D01*
X146518985Y-121212598D01*
X146662622Y-121169026D01*
X146662623Y-121169026D01*
X146662626Y-121169025D01*
X146774568Y-121158000D01*
X147865432Y-121158000D01*
X147977374Y-121169025D01*
X147977374Y-121169025D01*
G37*
G36*
X156400582Y-119014988D02*
X156551278Y-119044963D01*
X156764201Y-119133158D01*
X156955833Y-119261203D01*
X157118797Y-119424167D01*
X157246842Y-119615799D01*
X157335037Y-119828722D01*
X157380000Y-120054766D01*
X157380000Y-120285234D01*
X157335037Y-120511278D01*
X157246842Y-120724201D01*
X157118797Y-120915833D01*
X156955833Y-121078797D01*
X156764201Y-121206842D01*
X156551278Y-121295037D01*
X156400582Y-121325012D01*
X156325235Y-121340000D01*
X156094765Y-121340000D01*
X156019418Y-121325012D01*
X155868722Y-121295037D01*
X155655799Y-121206842D01*
X155464167Y-121078797D01*
X155301203Y-120915833D01*
X155173158Y-120724201D01*
X155084963Y-120511278D01*
X155040000Y-120285234D01*
X155040000Y-120054766D01*
X155084963Y-119828722D01*
X155173158Y-119615799D01*
X155301203Y-119424167D01*
X155464167Y-119261203D01*
X155655799Y-119133158D01*
X155868722Y-119044963D01*
X156019418Y-119014988D01*
X156094765Y-119000000D01*
X156325235Y-119000000D01*
X156400582Y-119014988D01*
X156400582Y-119014988D01*
G37*
G36*
X147977374Y-118629025D02*
X147977377Y-118629026D01*
X147977378Y-118629026D01*
X148121015Y-118672598D01*
X148236300Y-118734219D01*
X148253394Y-118743356D01*
X148369422Y-118838578D01*
X148464644Y-118954606D01*
X148464645Y-118954608D01*
X148535402Y-119086985D01*
X148549408Y-119133158D01*
X148578975Y-119230626D01*
X148593687Y-119380000D01*
X148578975Y-119529374D01*
X148578974Y-119529377D01*
X148578974Y-119529378D01*
X148535402Y-119673015D01*
X148535401Y-119673016D01*
X148464644Y-119805394D01*
X148369422Y-119921422D01*
X148253394Y-120016644D01*
X148253392Y-120016645D01*
X148121015Y-120087402D01*
X147977378Y-120130974D01*
X147977377Y-120130974D01*
X147977374Y-120130975D01*
X147865432Y-120142000D01*
X146774568Y-120142000D01*
X146662626Y-120130975D01*
X146662623Y-120130974D01*
X146662622Y-120130974D01*
X146518985Y-120087402D01*
X146386608Y-120016645D01*
X146386606Y-120016644D01*
X146270578Y-119921422D01*
X146175356Y-119805394D01*
X146104599Y-119673016D01*
X146104598Y-119673015D01*
X146061026Y-119529378D01*
X146061026Y-119529377D01*
X146061025Y-119529374D01*
X146046313Y-119380000D01*
X146061025Y-119230626D01*
X146090592Y-119133158D01*
X146104598Y-119086985D01*
X146175355Y-118954608D01*
X146175356Y-118954606D01*
X146270578Y-118838578D01*
X146386606Y-118743356D01*
X146403700Y-118734219D01*
X146518985Y-118672598D01*
X146662622Y-118629026D01*
X146662623Y-118629026D01*
X146662626Y-118629025D01*
X146774568Y-118618000D01*
X147865432Y-118618000D01*
X147977374Y-118629025D01*
X147977374Y-118629025D01*
G37*
G36*
X132737374Y-118629025D02*
X132737377Y-118629026D01*
X132737378Y-118629026D01*
X132881015Y-118672598D01*
X132996300Y-118734219D01*
X133013394Y-118743356D01*
X133129422Y-118838578D01*
X133224644Y-118954606D01*
X133224645Y-118954608D01*
X133295402Y-119086985D01*
X133309408Y-119133158D01*
X133338975Y-119230626D01*
X133353687Y-119380000D01*
X133338975Y-119529374D01*
X133338974Y-119529377D01*
X133338974Y-119529378D01*
X133295402Y-119673015D01*
X133295401Y-119673016D01*
X133224644Y-119805394D01*
X133129422Y-119921422D01*
X133013394Y-120016644D01*
X133013392Y-120016645D01*
X132881015Y-120087402D01*
X132737378Y-120130974D01*
X132737377Y-120130974D01*
X132737374Y-120130975D01*
X132625432Y-120142000D01*
X131534568Y-120142000D01*
X131422626Y-120130975D01*
X131422623Y-120130974D01*
X131422622Y-120130974D01*
X131278985Y-120087402D01*
X131146608Y-120016645D01*
X131146606Y-120016644D01*
X131030578Y-119921422D01*
X130935356Y-119805394D01*
X130864599Y-119673016D01*
X130864598Y-119673015D01*
X130821026Y-119529378D01*
X130821026Y-119529377D01*
X130821025Y-119529374D01*
X130806313Y-119380000D01*
X130821025Y-119230626D01*
X130850592Y-119133158D01*
X130864598Y-119086985D01*
X130935355Y-118954608D01*
X130935356Y-118954606D01*
X131030578Y-118838578D01*
X131146606Y-118743356D01*
X131163700Y-118734219D01*
X131278985Y-118672598D01*
X131422622Y-118629026D01*
X131422623Y-118629026D01*
X131422626Y-118629025D01*
X131534568Y-118618000D01*
X132625432Y-118618000D01*
X132737374Y-118629025D01*
X132737374Y-118629025D01*
G37*
G36*
X124927500Y-118577500D02*
X121452500Y-118577500D01*
X121452500Y-115102500D01*
X124927500Y-115102500D01*
X124927500Y-118577500D01*
X124927500Y-118577500D01*
G37*
G36*
X156400582Y-115514988D02*
X156551278Y-115544963D01*
X156764201Y-115633158D01*
X156955833Y-115761203D01*
X157118797Y-115924167D01*
X157246842Y-116115799D01*
X157335037Y-116328722D01*
X157380000Y-116554766D01*
X157380000Y-116785234D01*
X157335037Y-117011278D01*
X157246842Y-117224201D01*
X157118797Y-117415833D01*
X156955833Y-117578797D01*
X156764201Y-117706842D01*
X156551278Y-117795037D01*
X156400582Y-117825012D01*
X156325235Y-117840000D01*
X156094765Y-117840000D01*
X156019418Y-117825012D01*
X155868722Y-117795037D01*
X155655799Y-117706842D01*
X155464167Y-117578797D01*
X155301203Y-117415833D01*
X155173158Y-117224201D01*
X155084963Y-117011278D01*
X155040000Y-116785234D01*
X155040000Y-116554766D01*
X155084963Y-116328722D01*
X155173158Y-116115799D01*
X155301203Y-115924167D01*
X155464167Y-115761203D01*
X155655799Y-115633158D01*
X155868722Y-115544963D01*
X156019418Y-115514988D01*
X156094765Y-115500000D01*
X156325235Y-115500000D01*
X156400582Y-115514988D01*
X156400582Y-115514988D01*
G37*
G36*
X132737374Y-116089025D02*
X132737377Y-116089026D01*
X132737378Y-116089026D01*
X132881015Y-116132598D01*
X132996300Y-116194219D01*
X133013394Y-116203356D01*
X133129422Y-116298578D01*
X133224644Y-116414606D01*
X133224645Y-116414608D01*
X133295402Y-116546985D01*
X133297762Y-116554766D01*
X133338975Y-116690626D01*
X133353687Y-116840000D01*
X133338975Y-116989374D01*
X133338974Y-116989377D01*
X133338974Y-116989378D01*
X133295402Y-117133015D01*
X133295401Y-117133016D01*
X133224644Y-117265394D01*
X133129422Y-117381422D01*
X133013394Y-117476644D01*
X133013392Y-117476645D01*
X132881015Y-117547402D01*
X132737378Y-117590974D01*
X132737377Y-117590974D01*
X132737374Y-117590975D01*
X132625432Y-117602000D01*
X131534568Y-117602000D01*
X131422626Y-117590975D01*
X131422623Y-117590974D01*
X131422622Y-117590974D01*
X131278985Y-117547402D01*
X131146608Y-117476645D01*
X131146606Y-117476644D01*
X131030578Y-117381422D01*
X130935356Y-117265394D01*
X130864599Y-117133016D01*
X130864598Y-117133015D01*
X130821026Y-116989378D01*
X130821026Y-116989377D01*
X130821025Y-116989374D01*
X130806313Y-116840000D01*
X130821025Y-116690626D01*
X130862238Y-116554766D01*
X130864598Y-116546985D01*
X130935355Y-116414608D01*
X130935356Y-116414606D01*
X131030578Y-116298578D01*
X131146606Y-116203356D01*
X131163700Y-116194219D01*
X131278985Y-116132598D01*
X131422622Y-116089026D01*
X131422623Y-116089026D01*
X131422626Y-116089025D01*
X131534568Y-116078000D01*
X132625432Y-116078000D01*
X132737374Y-116089025D01*
X132737374Y-116089025D01*
G37*
G36*
X147977374Y-116089025D02*
X147977377Y-116089026D01*
X147977378Y-116089026D01*
X148121015Y-116132598D01*
X148236300Y-116194219D01*
X148253394Y-116203356D01*
X148369422Y-116298578D01*
X148464644Y-116414606D01*
X148464645Y-116414608D01*
X148535402Y-116546985D01*
X148537762Y-116554766D01*
X148578975Y-116690626D01*
X148593687Y-116840000D01*
X148578975Y-116989374D01*
X148578974Y-116989377D01*
X148578974Y-116989378D01*
X148535402Y-117133015D01*
X148535401Y-117133016D01*
X148464644Y-117265394D01*
X148369422Y-117381422D01*
X148253394Y-117476644D01*
X148253392Y-117476645D01*
X148121015Y-117547402D01*
X147977378Y-117590974D01*
X147977377Y-117590974D01*
X147977374Y-117590975D01*
X147865432Y-117602000D01*
X146774568Y-117602000D01*
X146662626Y-117590975D01*
X146662623Y-117590974D01*
X146662622Y-117590974D01*
X146518985Y-117547402D01*
X146386608Y-117476645D01*
X146386606Y-117476644D01*
X146270578Y-117381422D01*
X146175356Y-117265394D01*
X146104599Y-117133016D01*
X146104598Y-117133015D01*
X146061026Y-116989378D01*
X146061026Y-116989377D01*
X146061025Y-116989374D01*
X146046313Y-116840000D01*
X146061025Y-116690626D01*
X146102238Y-116554766D01*
X146104598Y-116546985D01*
X146175355Y-116414608D01*
X146175356Y-116414606D01*
X146270578Y-116298578D01*
X146386606Y-116203356D01*
X146403700Y-116194219D01*
X146518985Y-116132598D01*
X146662622Y-116089026D01*
X146662623Y-116089026D01*
X146662626Y-116089025D01*
X146774568Y-116078000D01*
X147865432Y-116078000D01*
X147977374Y-116089025D01*
X147977374Y-116089025D01*
G37*
G36*
X147977374Y-113549025D02*
X147977377Y-113549026D01*
X147977378Y-113549026D01*
X148121015Y-113592598D01*
X148236300Y-113654219D01*
X148253394Y-113663356D01*
X148369422Y-113758578D01*
X148464644Y-113874606D01*
X148464645Y-113874608D01*
X148535402Y-114006985D01*
X148578974Y-114150622D01*
X148578975Y-114150626D01*
X148593687Y-114300000D01*
X148578975Y-114449374D01*
X148578974Y-114449377D01*
X148578974Y-114449378D01*
X148535402Y-114593015D01*
X148535401Y-114593016D01*
X148464644Y-114725394D01*
X148369422Y-114841422D01*
X148253394Y-114936644D01*
X148253392Y-114936645D01*
X148121015Y-115007402D01*
X147977378Y-115050974D01*
X147977377Y-115050974D01*
X147977374Y-115050975D01*
X147865432Y-115062000D01*
X146774568Y-115062000D01*
X146662626Y-115050975D01*
X146662623Y-115050974D01*
X146662622Y-115050974D01*
X146518985Y-115007402D01*
X146386608Y-114936645D01*
X146386606Y-114936644D01*
X146270578Y-114841422D01*
X146175356Y-114725394D01*
X146104599Y-114593016D01*
X146104598Y-114593015D01*
X146061026Y-114449378D01*
X146061026Y-114449377D01*
X146061025Y-114449374D01*
X146046313Y-114300000D01*
X146061025Y-114150626D01*
X146061026Y-114150622D01*
X146104598Y-114006985D01*
X146175355Y-113874608D01*
X146175356Y-113874606D01*
X146270578Y-113758578D01*
X146386606Y-113663356D01*
X146403700Y-113654219D01*
X146518985Y-113592598D01*
X146662622Y-113549026D01*
X146662623Y-113549026D01*
X146662626Y-113549025D01*
X146774568Y-113538000D01*
X147865432Y-113538000D01*
X147977374Y-113549025D01*
X147977374Y-113549025D01*
G37*
G36*
X132737374Y-113549025D02*
X132737377Y-113549026D01*
X132737378Y-113549026D01*
X132881015Y-113592598D01*
X132996300Y-113654219D01*
X133013394Y-113663356D01*
X133129422Y-113758578D01*
X133224644Y-113874606D01*
X133224645Y-113874608D01*
X133295402Y-114006985D01*
X133338974Y-114150622D01*
X133338975Y-114150626D01*
X133353687Y-114300000D01*
X133338975Y-114449374D01*
X133338974Y-114449377D01*
X133338974Y-114449378D01*
X133295402Y-114593015D01*
X133295401Y-114593016D01*
X133224644Y-114725394D01*
X133129422Y-114841422D01*
X133013394Y-114936644D01*
X133013392Y-114936645D01*
X132881015Y-115007402D01*
X132737378Y-115050974D01*
X132737377Y-115050974D01*
X132737374Y-115050975D01*
X132625432Y-115062000D01*
X131534568Y-115062000D01*
X131422626Y-115050975D01*
X131422623Y-115050974D01*
X131422622Y-115050974D01*
X131278985Y-115007402D01*
X131146608Y-114936645D01*
X131146606Y-114936644D01*
X131030578Y-114841422D01*
X130935356Y-114725394D01*
X130864599Y-114593016D01*
X130864598Y-114593015D01*
X130821026Y-114449378D01*
X130821026Y-114449377D01*
X130821025Y-114449374D01*
X130806313Y-114300000D01*
X130821025Y-114150626D01*
X130821026Y-114150622D01*
X130864598Y-114006985D01*
X130935355Y-113874608D01*
X130935356Y-113874606D01*
X131030578Y-113758578D01*
X131146606Y-113663356D01*
X131163700Y-113654219D01*
X131278985Y-113592598D01*
X131422622Y-113549026D01*
X131422623Y-113549026D01*
X131422626Y-113549025D01*
X131534568Y-113538000D01*
X132625432Y-113538000D01*
X132737374Y-113549025D01*
X132737374Y-113549025D01*
G37*
G36*
X132737374Y-111009025D02*
X132737377Y-111009026D01*
X132737378Y-111009026D01*
X132881015Y-111052598D01*
X132996300Y-111114219D01*
X133013394Y-111123356D01*
X133129422Y-111218578D01*
X133224644Y-111334606D01*
X133224645Y-111334608D01*
X133295402Y-111466985D01*
X133338974Y-111610622D01*
X133338975Y-111610626D01*
X133353687Y-111760000D01*
X133338975Y-111909374D01*
X133338974Y-111909377D01*
X133338974Y-111909378D01*
X133295402Y-112053015D01*
X133295401Y-112053016D01*
X133224644Y-112185394D01*
X133129422Y-112301422D01*
X133013394Y-112396644D01*
X133013392Y-112396645D01*
X132881015Y-112467402D01*
X132737378Y-112510974D01*
X132737377Y-112510974D01*
X132737374Y-112510975D01*
X132625432Y-112522000D01*
X131534568Y-112522000D01*
X131422626Y-112510975D01*
X131422623Y-112510974D01*
X131422622Y-112510974D01*
X131278985Y-112467402D01*
X131146608Y-112396645D01*
X131146606Y-112396644D01*
X131030578Y-112301422D01*
X130935356Y-112185394D01*
X130864599Y-112053016D01*
X130864598Y-112053015D01*
X130821026Y-111909378D01*
X130821026Y-111909377D01*
X130821025Y-111909374D01*
X130806313Y-111760000D01*
X130821025Y-111610626D01*
X130821026Y-111610622D01*
X130864598Y-111466985D01*
X130935355Y-111334608D01*
X130935356Y-111334606D01*
X131030578Y-111218578D01*
X131146606Y-111123356D01*
X131163700Y-111114219D01*
X131278985Y-111052598D01*
X131422622Y-111009026D01*
X131422623Y-111009026D01*
X131422626Y-111009025D01*
X131534568Y-110998000D01*
X132625432Y-110998000D01*
X132737374Y-111009025D01*
X132737374Y-111009025D01*
G37*
G36*
X147977374Y-111009025D02*
X147977377Y-111009026D01*
X147977378Y-111009026D01*
X148121015Y-111052598D01*
X148236300Y-111114219D01*
X148253394Y-111123356D01*
X148369422Y-111218578D01*
X148464644Y-111334606D01*
X148464645Y-111334608D01*
X148535402Y-111466985D01*
X148578974Y-111610622D01*
X148578975Y-111610626D01*
X148593687Y-111760000D01*
X148578975Y-111909374D01*
X148578974Y-111909377D01*
X148578974Y-111909378D01*
X148535402Y-112053015D01*
X148535401Y-112053016D01*
X148464644Y-112185394D01*
X148369422Y-112301422D01*
X148253394Y-112396644D01*
X148253392Y-112396645D01*
X148121015Y-112467402D01*
X147977378Y-112510974D01*
X147977377Y-112510974D01*
X147977374Y-112510975D01*
X147865432Y-112522000D01*
X146774568Y-112522000D01*
X146662626Y-112510975D01*
X146662623Y-112510974D01*
X146662622Y-112510974D01*
X146518985Y-112467402D01*
X146386608Y-112396645D01*
X146386606Y-112396644D01*
X146270578Y-112301422D01*
X146175356Y-112185394D01*
X146104599Y-112053016D01*
X146104598Y-112053015D01*
X146061026Y-111909378D01*
X146061026Y-111909377D01*
X146061025Y-111909374D01*
X146046313Y-111760000D01*
X146061025Y-111610626D01*
X146061026Y-111610622D01*
X146104598Y-111466985D01*
X146175355Y-111334608D01*
X146175356Y-111334606D01*
X146270578Y-111218578D01*
X146386606Y-111123356D01*
X146403700Y-111114219D01*
X146518985Y-111052598D01*
X146662622Y-111009026D01*
X146662623Y-111009026D01*
X146662626Y-111009025D01*
X146774568Y-110998000D01*
X147865432Y-110998000D01*
X147977374Y-111009025D01*
X147977374Y-111009025D01*
G37*
G36*
X169100582Y-109504988D02*
X169251278Y-109534963D01*
X169464201Y-109623158D01*
X169655833Y-109751203D01*
X169818797Y-109914167D01*
X169946842Y-110105799D01*
X170035037Y-110318722D01*
X170080000Y-110544766D01*
X170080000Y-110775234D01*
X170035037Y-111001278D01*
X169946842Y-111214201D01*
X169818797Y-111405833D01*
X169655833Y-111568797D01*
X169464201Y-111696842D01*
X169251278Y-111785037D01*
X169100582Y-111815012D01*
X169025235Y-111830000D01*
X168794765Y-111830000D01*
X168719418Y-111815012D01*
X168568722Y-111785037D01*
X168355799Y-111696842D01*
X168164167Y-111568797D01*
X168001203Y-111405833D01*
X167873158Y-111214201D01*
X167784963Y-111001278D01*
X167740000Y-110775234D01*
X167740000Y-110544766D01*
X167784963Y-110318722D01*
X167873158Y-110105799D01*
X168001203Y-109914167D01*
X168164167Y-109751203D01*
X168355799Y-109623158D01*
X168568722Y-109534963D01*
X168719418Y-109504988D01*
X168794765Y-109490000D01*
X169025235Y-109490000D01*
X169100582Y-109504988D01*
X169100582Y-109504988D01*
G37*
G36*
X156400582Y-109504988D02*
X156551278Y-109534963D01*
X156764201Y-109623158D01*
X156955833Y-109751203D01*
X157118797Y-109914167D01*
X157246842Y-110105799D01*
X157335037Y-110318722D01*
X157380000Y-110544766D01*
X157380000Y-110775234D01*
X157335037Y-111001278D01*
X157246842Y-111214201D01*
X157118797Y-111405833D01*
X156955833Y-111568797D01*
X156764201Y-111696842D01*
X156551278Y-111785037D01*
X156400582Y-111815012D01*
X156325235Y-111830000D01*
X156094765Y-111830000D01*
X156019418Y-111815012D01*
X155868722Y-111785037D01*
X155655799Y-111696842D01*
X155464167Y-111568797D01*
X155301203Y-111405833D01*
X155173158Y-111214201D01*
X155084963Y-111001278D01*
X155040000Y-110775234D01*
X155040000Y-110544766D01*
X155084963Y-110318722D01*
X155173158Y-110105799D01*
X155301203Y-109914167D01*
X155464167Y-109751203D01*
X155655799Y-109623158D01*
X155868722Y-109534963D01*
X156019418Y-109504988D01*
X156094765Y-109490000D01*
X156325235Y-109490000D01*
X156400582Y-109504988D01*
X156400582Y-109504988D01*
G37*
G36*
X132737374Y-108469025D02*
X132737377Y-108469026D01*
X132737378Y-108469026D01*
X132881015Y-108512598D01*
X132996300Y-108574219D01*
X133013394Y-108583356D01*
X133129422Y-108678578D01*
X133224644Y-108794606D01*
X133224645Y-108794608D01*
X133295402Y-108926985D01*
X133338974Y-109070622D01*
X133338975Y-109070626D01*
X133353687Y-109220000D01*
X133338975Y-109369374D01*
X133338974Y-109369377D01*
X133338974Y-109369378D01*
X133295402Y-109513015D01*
X133236529Y-109623158D01*
X133224644Y-109645394D01*
X133129422Y-109761422D01*
X133013394Y-109856644D01*
X133013392Y-109856645D01*
X132881015Y-109927402D01*
X132737378Y-109970974D01*
X132737377Y-109970974D01*
X132737374Y-109970975D01*
X132625432Y-109982000D01*
X131534568Y-109982000D01*
X131422626Y-109970975D01*
X131422623Y-109970974D01*
X131422622Y-109970974D01*
X131278985Y-109927402D01*
X131146608Y-109856645D01*
X131146606Y-109856644D01*
X131030578Y-109761422D01*
X130935356Y-109645394D01*
X130923471Y-109623158D01*
X130864598Y-109513015D01*
X130821026Y-109369378D01*
X130821026Y-109369377D01*
X130821025Y-109369374D01*
X130806313Y-109220000D01*
X130821025Y-109070626D01*
X130821026Y-109070622D01*
X130864598Y-108926985D01*
X130935355Y-108794608D01*
X130935356Y-108794606D01*
X131030578Y-108678578D01*
X131146606Y-108583356D01*
X131163700Y-108574219D01*
X131278985Y-108512598D01*
X131422622Y-108469026D01*
X131422623Y-108469026D01*
X131422626Y-108469025D01*
X131534568Y-108458000D01*
X132625432Y-108458000D01*
X132737374Y-108469025D01*
X132737374Y-108469025D01*
G37*
G36*
X147977374Y-108469025D02*
X147977377Y-108469026D01*
X147977378Y-108469026D01*
X148121015Y-108512598D01*
X148236300Y-108574219D01*
X148253394Y-108583356D01*
X148369422Y-108678578D01*
X148464644Y-108794606D01*
X148464645Y-108794608D01*
X148535402Y-108926985D01*
X148578974Y-109070622D01*
X148578975Y-109070626D01*
X148593687Y-109220000D01*
X148578975Y-109369374D01*
X148578974Y-109369377D01*
X148578974Y-109369378D01*
X148535402Y-109513015D01*
X148476529Y-109623158D01*
X148464644Y-109645394D01*
X148369422Y-109761422D01*
X148253394Y-109856644D01*
X148253392Y-109856645D01*
X148121015Y-109927402D01*
X147977378Y-109970974D01*
X147977377Y-109970974D01*
X147977374Y-109970975D01*
X147865432Y-109982000D01*
X146774568Y-109982000D01*
X146662626Y-109970975D01*
X146662623Y-109970974D01*
X146662622Y-109970974D01*
X146518985Y-109927402D01*
X146386608Y-109856645D01*
X146386606Y-109856644D01*
X146270578Y-109761422D01*
X146175356Y-109645394D01*
X146163471Y-109623158D01*
X146104598Y-109513015D01*
X146061026Y-109369378D01*
X146061026Y-109369377D01*
X146061025Y-109369374D01*
X146046313Y-109220000D01*
X146061025Y-109070626D01*
X146061026Y-109070622D01*
X146104598Y-108926985D01*
X146175355Y-108794608D01*
X146175356Y-108794606D01*
X146270578Y-108678578D01*
X146386606Y-108583356D01*
X146403700Y-108574219D01*
X146518985Y-108512598D01*
X146662622Y-108469026D01*
X146662623Y-108469026D01*
X146662626Y-108469025D01*
X146774568Y-108458000D01*
X147865432Y-108458000D01*
X147977374Y-108469025D01*
X147977374Y-108469025D01*
G37*
G36*
X124927500Y-108417500D02*
X121452500Y-108417500D01*
X121452500Y-104942500D01*
X124927500Y-104942500D01*
X124927500Y-108417500D01*
X124927500Y-108417500D01*
G37*
G36*
X156400582Y-106004988D02*
X156551278Y-106034963D01*
X156764201Y-106123158D01*
X156955833Y-106251203D01*
X157118797Y-106414167D01*
X157246842Y-106605799D01*
X157335037Y-106818722D01*
X157380000Y-107044766D01*
X157380000Y-107275234D01*
X157335037Y-107501278D01*
X157246842Y-107714201D01*
X157118797Y-107905833D01*
X156955833Y-108068797D01*
X156764201Y-108196842D01*
X156551278Y-108285037D01*
X156400582Y-108315012D01*
X156325235Y-108330000D01*
X156094765Y-108330000D01*
X156019418Y-108315012D01*
X155868722Y-108285037D01*
X155655799Y-108196842D01*
X155464167Y-108068797D01*
X155301203Y-107905833D01*
X155173158Y-107714201D01*
X155084963Y-107501278D01*
X155040000Y-107275234D01*
X155040000Y-107044766D01*
X155084963Y-106818722D01*
X155173158Y-106605799D01*
X155301203Y-106414167D01*
X155464167Y-106251203D01*
X155655799Y-106123158D01*
X155868722Y-106034963D01*
X156019418Y-106004988D01*
X156094765Y-105990000D01*
X156325235Y-105990000D01*
X156400582Y-106004988D01*
X156400582Y-106004988D01*
G37*
G36*
X169100582Y-106004988D02*
X169251278Y-106034963D01*
X169464201Y-106123158D01*
X169655833Y-106251203D01*
X169818797Y-106414167D01*
X169946842Y-106605799D01*
X170035037Y-106818722D01*
X170080000Y-107044766D01*
X170080000Y-107275234D01*
X170035037Y-107501278D01*
X169946842Y-107714201D01*
X169818797Y-107905833D01*
X169655833Y-108068797D01*
X169464201Y-108196842D01*
X169251278Y-108285037D01*
X169100582Y-108315012D01*
X169025235Y-108330000D01*
X168794765Y-108330000D01*
X168719418Y-108315012D01*
X168568722Y-108285037D01*
X168355799Y-108196842D01*
X168164167Y-108068797D01*
X168001203Y-107905833D01*
X167873158Y-107714201D01*
X167784963Y-107501278D01*
X167740000Y-107275234D01*
X167740000Y-107044766D01*
X167784963Y-106818722D01*
X167873158Y-106605799D01*
X168001203Y-106414167D01*
X168164167Y-106251203D01*
X168355799Y-106123158D01*
X168568722Y-106034963D01*
X168719418Y-106004988D01*
X168794765Y-105990000D01*
X169025235Y-105990000D01*
X169100582Y-106004988D01*
X169100582Y-106004988D01*
G37*
G36*
X132737374Y-105929025D02*
X132737377Y-105929026D01*
X132737378Y-105929026D01*
X132881015Y-105972598D01*
X132996300Y-106034219D01*
X133013394Y-106043356D01*
X133129422Y-106138578D01*
X133224644Y-106254606D01*
X133224645Y-106254608D01*
X133295402Y-106386985D01*
X133303648Y-106414169D01*
X133338975Y-106530626D01*
X133353687Y-106680000D01*
X133338975Y-106829374D01*
X133338974Y-106829377D01*
X133338974Y-106829378D01*
X133295402Y-106973015D01*
X133295401Y-106973016D01*
X133224644Y-107105394D01*
X133129422Y-107221422D01*
X133013394Y-107316644D01*
X133013392Y-107316645D01*
X132881015Y-107387402D01*
X132737378Y-107430974D01*
X132737377Y-107430974D01*
X132737374Y-107430975D01*
X132625432Y-107442000D01*
X131534568Y-107442000D01*
X131422626Y-107430975D01*
X131422623Y-107430974D01*
X131422622Y-107430974D01*
X131278985Y-107387402D01*
X131146608Y-107316645D01*
X131146606Y-107316644D01*
X131030578Y-107221422D01*
X130935356Y-107105394D01*
X130864599Y-106973016D01*
X130864598Y-106973015D01*
X130821026Y-106829378D01*
X130821026Y-106829377D01*
X130821025Y-106829374D01*
X130806313Y-106680000D01*
X130821025Y-106530626D01*
X130856352Y-106414169D01*
X130864598Y-106386985D01*
X130935355Y-106254608D01*
X130935356Y-106254606D01*
X131030578Y-106138578D01*
X131146606Y-106043356D01*
X131163700Y-106034219D01*
X131278985Y-105972598D01*
X131422622Y-105929026D01*
X131422623Y-105929026D01*
X131422626Y-105929025D01*
X131534568Y-105918000D01*
X132625432Y-105918000D01*
X132737374Y-105929025D01*
X132737374Y-105929025D01*
G37*
G36*
X147977374Y-105929025D02*
X147977377Y-105929026D01*
X147977378Y-105929026D01*
X148121015Y-105972598D01*
X148236300Y-106034219D01*
X148253394Y-106043356D01*
X148369422Y-106138578D01*
X148464644Y-106254606D01*
X148464645Y-106254608D01*
X148535402Y-106386985D01*
X148543648Y-106414169D01*
X148578975Y-106530626D01*
X148593687Y-106680000D01*
X148578975Y-106829374D01*
X148578974Y-106829377D01*
X148578974Y-106829378D01*
X148535402Y-106973015D01*
X148535401Y-106973016D01*
X148464644Y-107105394D01*
X148369422Y-107221422D01*
X148253394Y-107316644D01*
X148253392Y-107316645D01*
X148121015Y-107387402D01*
X147977378Y-107430974D01*
X147977377Y-107430974D01*
X147977374Y-107430975D01*
X147865432Y-107442000D01*
X146774568Y-107442000D01*
X146662626Y-107430975D01*
X146662623Y-107430974D01*
X146662622Y-107430974D01*
X146518985Y-107387402D01*
X146386608Y-107316645D01*
X146386606Y-107316644D01*
X146270578Y-107221422D01*
X146175356Y-107105394D01*
X146104599Y-106973016D01*
X146104598Y-106973015D01*
X146061026Y-106829378D01*
X146061026Y-106829377D01*
X146061025Y-106829374D01*
X146046313Y-106680000D01*
X146061025Y-106530626D01*
X146096352Y-106414169D01*
X146104598Y-106386985D01*
X146175355Y-106254608D01*
X146175356Y-106254606D01*
X146270578Y-106138578D01*
X146386606Y-106043356D01*
X146403700Y-106034219D01*
X146518985Y-105972598D01*
X146662622Y-105929026D01*
X146662623Y-105929026D01*
X146662626Y-105929025D01*
X146774568Y-105918000D01*
X147865432Y-105918000D01*
X147977374Y-105929025D01*
X147977374Y-105929025D01*
G37*
G36*
X163822500Y-106672500D02*
X161297500Y-106672500D01*
X161297500Y-104147500D01*
X163822500Y-104147500D01*
X163822500Y-106672500D01*
X163822500Y-106672500D01*
G37*
G36*
X176522500Y-106672500D02*
X173997500Y-106672500D01*
X173997500Y-104147500D01*
X176522500Y-104147500D01*
X176522500Y-106672500D01*
X176522500Y-106672500D01*
G37*
G36*
X186682500Y-106672500D02*
X184157500Y-106672500D01*
X184157500Y-104147500D01*
X186682500Y-104147500D01*
X186682500Y-106672500D01*
X186682500Y-106672500D01*
G37*
G36*
X132737374Y-103389025D02*
X132737377Y-103389026D01*
X132737378Y-103389026D01*
X132881015Y-103432598D01*
X132996300Y-103494219D01*
X133013394Y-103503356D01*
X133129422Y-103598578D01*
X133224644Y-103714606D01*
X133224645Y-103714608D01*
X133295402Y-103846985D01*
X133338974Y-103990622D01*
X133338975Y-103990626D01*
X133353687Y-104140000D01*
X133338975Y-104289374D01*
X133338974Y-104289377D01*
X133338974Y-104289378D01*
X133295402Y-104433015D01*
X133295401Y-104433016D01*
X133224644Y-104565394D01*
X133129422Y-104681422D01*
X133013394Y-104776644D01*
X133013392Y-104776645D01*
X132881015Y-104847402D01*
X132737378Y-104890974D01*
X132737377Y-104890974D01*
X132737374Y-104890975D01*
X132625432Y-104902000D01*
X131534568Y-104902000D01*
X131422626Y-104890975D01*
X131422623Y-104890974D01*
X131422622Y-104890974D01*
X131278985Y-104847402D01*
X131146608Y-104776645D01*
X131146606Y-104776644D01*
X131030578Y-104681422D01*
X130935356Y-104565394D01*
X130864599Y-104433016D01*
X130864598Y-104433015D01*
X130821026Y-104289378D01*
X130821026Y-104289377D01*
X130821025Y-104289374D01*
X130806313Y-104140000D01*
X130821025Y-103990626D01*
X130821026Y-103990622D01*
X130864598Y-103846985D01*
X130935355Y-103714608D01*
X130935356Y-103714606D01*
X131030578Y-103598578D01*
X131146606Y-103503356D01*
X131163700Y-103494219D01*
X131278985Y-103432598D01*
X131422622Y-103389026D01*
X131422623Y-103389026D01*
X131422626Y-103389025D01*
X131534568Y-103378000D01*
X132625432Y-103378000D01*
X132737374Y-103389025D01*
X132737374Y-103389025D01*
G37*
G36*
X147977374Y-103389025D02*
X147977377Y-103389026D01*
X147977378Y-103389026D01*
X148121015Y-103432598D01*
X148236300Y-103494219D01*
X148253394Y-103503356D01*
X148369422Y-103598578D01*
X148464644Y-103714606D01*
X148464645Y-103714608D01*
X148535402Y-103846985D01*
X148578974Y-103990622D01*
X148578975Y-103990626D01*
X148593687Y-104140000D01*
X148578975Y-104289374D01*
X148578974Y-104289377D01*
X148578974Y-104289378D01*
X148535402Y-104433015D01*
X148535401Y-104433016D01*
X148464644Y-104565394D01*
X148369422Y-104681422D01*
X148253394Y-104776644D01*
X148253392Y-104776645D01*
X148121015Y-104847402D01*
X147977378Y-104890974D01*
X147977377Y-104890974D01*
X147977374Y-104890975D01*
X147865432Y-104902000D01*
X146774568Y-104902000D01*
X146662626Y-104890975D01*
X146662623Y-104890974D01*
X146662622Y-104890974D01*
X146518985Y-104847402D01*
X146386608Y-104776645D01*
X146386606Y-104776644D01*
X146270578Y-104681422D01*
X146175356Y-104565394D01*
X146104599Y-104433016D01*
X146104598Y-104433015D01*
X146061026Y-104289378D01*
X146061026Y-104289377D01*
X146061025Y-104289374D01*
X146046313Y-104140000D01*
X146061025Y-103990626D01*
X146061026Y-103990622D01*
X146104598Y-103846985D01*
X146175355Y-103714608D01*
X146175356Y-103714606D01*
X146270578Y-103598578D01*
X146386606Y-103503356D01*
X146403700Y-103494219D01*
X146518985Y-103432598D01*
X146662622Y-103389026D01*
X146662623Y-103389026D01*
X146662626Y-103389025D01*
X146774568Y-103378000D01*
X147865432Y-103378000D01*
X147977374Y-103389025D01*
X147977374Y-103389025D01*
G37*
G36*
X169100582Y-102504988D02*
X169251278Y-102534963D01*
X169464201Y-102623158D01*
X169655833Y-102751203D01*
X169818797Y-102914167D01*
X169946842Y-103105799D01*
X170035037Y-103318722D01*
X170080000Y-103544766D01*
X170080000Y-103775234D01*
X170035037Y-104001278D01*
X169946842Y-104214201D01*
X169818797Y-104405833D01*
X169655833Y-104568797D01*
X169464201Y-104696842D01*
X169251278Y-104785037D01*
X169100582Y-104815012D01*
X169025235Y-104830000D01*
X168794765Y-104830000D01*
X168719418Y-104815012D01*
X168568722Y-104785037D01*
X168355799Y-104696842D01*
X168164167Y-104568797D01*
X168001203Y-104405833D01*
X167873158Y-104214201D01*
X167784963Y-104001278D01*
X167740000Y-103775234D01*
X167740000Y-103544766D01*
X167784963Y-103318722D01*
X167873158Y-103105799D01*
X168001203Y-102914167D01*
X168164167Y-102751203D01*
X168355799Y-102623158D01*
X168568722Y-102534963D01*
X168719418Y-102504988D01*
X168794765Y-102490000D01*
X169025235Y-102490000D01*
X169100582Y-102504988D01*
X169100582Y-102504988D01*
G37*
G36*
X156400582Y-102504988D02*
X156551278Y-102534963D01*
X156764201Y-102623158D01*
X156955833Y-102751203D01*
X157118797Y-102914167D01*
X157246842Y-103105799D01*
X157335037Y-103318722D01*
X157380000Y-103544766D01*
X157380000Y-103775234D01*
X157335037Y-104001278D01*
X157246842Y-104214201D01*
X157118797Y-104405833D01*
X156955833Y-104568797D01*
X156764201Y-104696842D01*
X156551278Y-104785037D01*
X156400582Y-104815012D01*
X156325235Y-104830000D01*
X156094765Y-104830000D01*
X156019418Y-104815012D01*
X155868722Y-104785037D01*
X155655799Y-104696842D01*
X155464167Y-104568797D01*
X155301203Y-104405833D01*
X155173158Y-104214201D01*
X155084963Y-104001278D01*
X155040000Y-103775234D01*
X155040000Y-103544766D01*
X155084963Y-103318722D01*
X155173158Y-103105799D01*
X155301203Y-102914167D01*
X155464167Y-102751203D01*
X155655799Y-102623158D01*
X155868722Y-102534963D01*
X156019418Y-102504988D01*
X156094765Y-102490000D01*
X156325235Y-102490000D01*
X156400582Y-102504988D01*
X156400582Y-102504988D01*
G37*
G36*
X147977374Y-100849025D02*
X147977377Y-100849026D01*
X147977378Y-100849026D01*
X148121015Y-100892598D01*
X148236300Y-100954219D01*
X148253394Y-100963356D01*
X148369422Y-101058578D01*
X148464644Y-101174606D01*
X148464645Y-101174608D01*
X148535402Y-101306985D01*
X148578974Y-101450622D01*
X148578975Y-101450626D01*
X148593687Y-101600000D01*
X148578975Y-101749374D01*
X148578974Y-101749377D01*
X148578974Y-101749378D01*
X148535402Y-101893015D01*
X148535401Y-101893016D01*
X148464644Y-102025394D01*
X148369422Y-102141422D01*
X148253394Y-102236644D01*
X148253392Y-102236645D01*
X148121015Y-102307402D01*
X147977378Y-102350974D01*
X147977377Y-102350974D01*
X147977374Y-102350975D01*
X147865432Y-102362000D01*
X146774568Y-102362000D01*
X146662626Y-102350975D01*
X146662623Y-102350974D01*
X146662622Y-102350974D01*
X146518985Y-102307402D01*
X146386608Y-102236645D01*
X146386606Y-102236644D01*
X146270578Y-102141422D01*
X146175356Y-102025394D01*
X146104599Y-101893016D01*
X146104598Y-101893015D01*
X146061026Y-101749378D01*
X146061026Y-101749377D01*
X146061025Y-101749374D01*
X146046313Y-101600000D01*
X146061025Y-101450626D01*
X146061026Y-101450622D01*
X146104598Y-101306985D01*
X146175355Y-101174608D01*
X146175356Y-101174606D01*
X146270578Y-101058578D01*
X146386606Y-100963356D01*
X146403700Y-100954219D01*
X146518985Y-100892598D01*
X146662622Y-100849026D01*
X146662623Y-100849026D01*
X146662626Y-100849025D01*
X146774568Y-100838000D01*
X147865432Y-100838000D01*
X147977374Y-100849025D01*
X147977374Y-100849025D01*
G37*
G36*
X132737374Y-100849025D02*
X132737377Y-100849026D01*
X132737378Y-100849026D01*
X132881015Y-100892598D01*
X132996300Y-100954219D01*
X133013394Y-100963356D01*
X133129422Y-101058578D01*
X133224644Y-101174606D01*
X133224645Y-101174608D01*
X133295402Y-101306985D01*
X133338974Y-101450622D01*
X133338975Y-101450626D01*
X133353687Y-101600000D01*
X133338975Y-101749374D01*
X133338974Y-101749377D01*
X133338974Y-101749378D01*
X133295402Y-101893015D01*
X133295401Y-101893016D01*
X133224644Y-102025394D01*
X133129422Y-102141422D01*
X133013394Y-102236644D01*
X133013392Y-102236645D01*
X132881015Y-102307402D01*
X132737378Y-102350974D01*
X132737377Y-102350974D01*
X132737374Y-102350975D01*
X132625432Y-102362000D01*
X131534568Y-102362000D01*
X131422626Y-102350975D01*
X131422623Y-102350974D01*
X131422622Y-102350974D01*
X131278985Y-102307402D01*
X131146608Y-102236645D01*
X131146606Y-102236644D01*
X131030578Y-102141422D01*
X130935356Y-102025394D01*
X130864599Y-101893016D01*
X130864598Y-101893015D01*
X130821026Y-101749378D01*
X130821026Y-101749377D01*
X130821025Y-101749374D01*
X130806313Y-101600000D01*
X130821025Y-101450626D01*
X130821026Y-101450622D01*
X130864598Y-101306985D01*
X130935355Y-101174608D01*
X130935356Y-101174606D01*
X131030578Y-101058578D01*
X131146606Y-100963356D01*
X131163700Y-100954219D01*
X131278985Y-100892598D01*
X131422622Y-100849026D01*
X131422623Y-100849026D01*
X131422626Y-100849025D01*
X131534568Y-100838000D01*
X132625432Y-100838000D01*
X132737374Y-100849025D01*
X132737374Y-100849025D01*
G37*
G36*
X156400582Y-99004988D02*
X156551278Y-99034963D01*
X156764201Y-99123158D01*
X156955833Y-99251203D01*
X157118797Y-99414167D01*
X157246842Y-99605799D01*
X157335037Y-99818722D01*
X157380000Y-100044766D01*
X157380000Y-100275234D01*
X157335037Y-100501278D01*
X157246842Y-100714201D01*
X157118797Y-100905833D01*
X156955833Y-101068797D01*
X156764201Y-101196842D01*
X156551278Y-101285037D01*
X156440943Y-101306984D01*
X156325235Y-101330000D01*
X156094765Y-101330000D01*
X155979057Y-101306984D01*
X155868722Y-101285037D01*
X155655799Y-101196842D01*
X155464167Y-101068797D01*
X155301203Y-100905833D01*
X155173158Y-100714201D01*
X155084963Y-100501278D01*
X155040000Y-100275234D01*
X155040000Y-100044766D01*
X155084963Y-99818722D01*
X155173158Y-99605799D01*
X155301203Y-99414167D01*
X155464167Y-99251203D01*
X155655799Y-99123158D01*
X155868722Y-99034963D01*
X156019418Y-99004988D01*
X156094765Y-98990000D01*
X156325235Y-98990000D01*
X156400582Y-99004988D01*
X156400582Y-99004988D01*
G37*
G36*
X169100582Y-99004988D02*
X169251278Y-99034963D01*
X169464201Y-99123158D01*
X169655833Y-99251203D01*
X169818797Y-99414167D01*
X169946842Y-99605799D01*
X170035037Y-99818722D01*
X170080000Y-100044766D01*
X170080000Y-100275234D01*
X170035037Y-100501278D01*
X169946842Y-100714201D01*
X169818797Y-100905833D01*
X169655833Y-101068797D01*
X169464201Y-101196842D01*
X169251278Y-101285037D01*
X169140943Y-101306984D01*
X169025235Y-101330000D01*
X168794765Y-101330000D01*
X168679057Y-101306984D01*
X168568722Y-101285037D01*
X168355799Y-101196842D01*
X168164167Y-101068797D01*
X168001203Y-100905833D01*
X167873158Y-100714201D01*
X167784963Y-100501278D01*
X167740000Y-100275234D01*
X167740000Y-100044766D01*
X167784963Y-99818722D01*
X167873158Y-99605799D01*
X168001203Y-99414167D01*
X168164167Y-99251203D01*
X168355799Y-99123158D01*
X168568722Y-99034963D01*
X168719418Y-99004988D01*
X168794765Y-98990000D01*
X169025235Y-98990000D01*
X169100582Y-99004988D01*
X169100582Y-99004988D01*
G37*
G36*
X132737374Y-98309025D02*
X132737377Y-98309026D01*
X132737378Y-98309026D01*
X132881015Y-98352598D01*
X132996300Y-98414219D01*
X133013394Y-98423356D01*
X133129422Y-98518578D01*
X133224644Y-98634606D01*
X133224645Y-98634608D01*
X133295402Y-98766985D01*
X133338974Y-98910622D01*
X133338975Y-98910626D01*
X133353687Y-99060000D01*
X133338975Y-99209374D01*
X133338974Y-99209377D01*
X133338974Y-99209378D01*
X133295402Y-99353015D01*
X133262714Y-99414169D01*
X133224644Y-99485394D01*
X133129422Y-99601422D01*
X133013394Y-99696644D01*
X133013392Y-99696645D01*
X132881015Y-99767402D01*
X132737378Y-99810974D01*
X132737377Y-99810974D01*
X132737374Y-99810975D01*
X132625432Y-99822000D01*
X131534568Y-99822000D01*
X131422626Y-99810975D01*
X131422623Y-99810974D01*
X131422622Y-99810974D01*
X131278985Y-99767402D01*
X131146608Y-99696645D01*
X131146606Y-99696644D01*
X131030578Y-99601422D01*
X130935356Y-99485394D01*
X130897286Y-99414169D01*
X130864598Y-99353015D01*
X130821026Y-99209378D01*
X130821026Y-99209377D01*
X130821025Y-99209374D01*
X130806313Y-99060000D01*
X130821025Y-98910626D01*
X130821026Y-98910622D01*
X130864598Y-98766985D01*
X130935355Y-98634608D01*
X130935356Y-98634606D01*
X131030578Y-98518578D01*
X131146606Y-98423356D01*
X131163700Y-98414219D01*
X131278985Y-98352598D01*
X131422622Y-98309026D01*
X131422623Y-98309026D01*
X131422626Y-98309025D01*
X131534568Y-98298000D01*
X132625432Y-98298000D01*
X132737374Y-98309025D01*
X132737374Y-98309025D01*
G37*
G36*
X147977374Y-98309025D02*
X147977377Y-98309026D01*
X147977378Y-98309026D01*
X148121015Y-98352598D01*
X148236300Y-98414219D01*
X148253394Y-98423356D01*
X148369422Y-98518578D01*
X148464644Y-98634606D01*
X148464645Y-98634608D01*
X148535402Y-98766985D01*
X148578974Y-98910622D01*
X148578975Y-98910626D01*
X148593687Y-99060000D01*
X148578975Y-99209374D01*
X148578974Y-99209377D01*
X148578974Y-99209378D01*
X148535402Y-99353015D01*
X148502714Y-99414169D01*
X148464644Y-99485394D01*
X148369422Y-99601422D01*
X148253394Y-99696644D01*
X148253392Y-99696645D01*
X148121015Y-99767402D01*
X147977378Y-99810974D01*
X147977377Y-99810974D01*
X147977374Y-99810975D01*
X147865432Y-99822000D01*
X146774568Y-99822000D01*
X146662626Y-99810975D01*
X146662623Y-99810974D01*
X146662622Y-99810974D01*
X146518985Y-99767402D01*
X146386608Y-99696645D01*
X146386606Y-99696644D01*
X146270578Y-99601422D01*
X146175356Y-99485394D01*
X146137286Y-99414169D01*
X146104598Y-99353015D01*
X146061026Y-99209378D01*
X146061026Y-99209377D01*
X146061025Y-99209374D01*
X146046313Y-99060000D01*
X146061025Y-98910626D01*
X146061026Y-98910622D01*
X146104598Y-98766985D01*
X146175355Y-98634608D01*
X146175356Y-98634606D01*
X146270578Y-98518578D01*
X146386606Y-98423356D01*
X146403700Y-98414219D01*
X146518985Y-98352598D01*
X146662622Y-98309026D01*
X146662623Y-98309026D01*
X146662626Y-98309025D01*
X146774568Y-98298000D01*
X147865432Y-98298000D01*
X147977374Y-98309025D01*
X147977374Y-98309025D01*
G37*
G36*
X124927500Y-98257500D02*
X121452500Y-98257500D01*
X121452500Y-94782500D01*
X124927500Y-94782500D01*
X124927500Y-98257500D01*
X124927500Y-98257500D01*
G37*
G36*
X147977374Y-95769025D02*
X147977377Y-95769026D01*
X147977378Y-95769026D01*
X148121015Y-95812598D01*
X148236300Y-95874219D01*
X148253394Y-95883356D01*
X148369422Y-95978578D01*
X148464644Y-96094606D01*
X148464645Y-96094608D01*
X148535402Y-96226985D01*
X148578974Y-96370622D01*
X148578975Y-96370626D01*
X148593687Y-96520000D01*
X148578975Y-96669374D01*
X148578974Y-96669377D01*
X148578974Y-96669378D01*
X148535402Y-96813015D01*
X148535401Y-96813016D01*
X148464644Y-96945394D01*
X148369422Y-97061422D01*
X148253394Y-97156644D01*
X148253392Y-97156645D01*
X148121015Y-97227402D01*
X147977378Y-97270974D01*
X147977377Y-97270974D01*
X147977374Y-97270975D01*
X147865432Y-97282000D01*
X146774568Y-97282000D01*
X146662626Y-97270975D01*
X146662623Y-97270974D01*
X146662622Y-97270974D01*
X146518985Y-97227402D01*
X146386608Y-97156645D01*
X146386606Y-97156644D01*
X146270578Y-97061422D01*
X146175356Y-96945394D01*
X146104599Y-96813016D01*
X146104598Y-96813015D01*
X146061026Y-96669378D01*
X146061026Y-96669377D01*
X146061025Y-96669374D01*
X146046313Y-96520000D01*
X146061025Y-96370626D01*
X146061026Y-96370622D01*
X146104598Y-96226985D01*
X146175355Y-96094608D01*
X146175356Y-96094606D01*
X146270578Y-95978578D01*
X146386606Y-95883356D01*
X146403700Y-95874219D01*
X146518985Y-95812598D01*
X146662622Y-95769026D01*
X146662623Y-95769026D01*
X146662626Y-95769025D01*
X146774568Y-95758000D01*
X147865432Y-95758000D01*
X147977374Y-95769025D01*
X147977374Y-95769025D01*
G37*
G36*
X132737374Y-95769025D02*
X132737377Y-95769026D01*
X132737378Y-95769026D01*
X132881015Y-95812598D01*
X132996300Y-95874219D01*
X133013394Y-95883356D01*
X133129422Y-95978578D01*
X133224644Y-96094606D01*
X133224645Y-96094608D01*
X133295402Y-96226985D01*
X133338974Y-96370622D01*
X133338975Y-96370626D01*
X133353687Y-96520000D01*
X133338975Y-96669374D01*
X133338974Y-96669377D01*
X133338974Y-96669378D01*
X133295402Y-96813015D01*
X133295401Y-96813016D01*
X133224644Y-96945394D01*
X133129422Y-97061422D01*
X133013394Y-97156644D01*
X133013392Y-97156645D01*
X132881015Y-97227402D01*
X132737378Y-97270974D01*
X132737377Y-97270974D01*
X132737374Y-97270975D01*
X132625432Y-97282000D01*
X131534568Y-97282000D01*
X131422626Y-97270975D01*
X131422623Y-97270974D01*
X131422622Y-97270974D01*
X131278985Y-97227402D01*
X131146608Y-97156645D01*
X131146606Y-97156644D01*
X131030578Y-97061422D01*
X130935356Y-96945394D01*
X130864599Y-96813016D01*
X130864598Y-96813015D01*
X130821026Y-96669378D01*
X130821026Y-96669377D01*
X130821025Y-96669374D01*
X130806313Y-96520000D01*
X130821025Y-96370626D01*
X130821026Y-96370622D01*
X130864598Y-96226985D01*
X130935355Y-96094608D01*
X130935356Y-96094606D01*
X131030578Y-95978578D01*
X131146606Y-95883356D01*
X131163700Y-95874219D01*
X131278985Y-95812598D01*
X131422622Y-95769026D01*
X131422623Y-95769026D01*
X131422626Y-95769025D01*
X131534568Y-95758000D01*
X132625432Y-95758000D01*
X132737374Y-95769025D01*
X132737374Y-95769025D01*
G37*
G36*
X156400582Y-92994988D02*
X156551278Y-93024963D01*
X156764201Y-93113158D01*
X156955833Y-93241203D01*
X157118797Y-93404167D01*
X157246842Y-93595799D01*
X157335037Y-93808722D01*
X157380000Y-94034766D01*
X157380000Y-94265234D01*
X157335037Y-94491278D01*
X157246842Y-94704201D01*
X157118797Y-94895833D01*
X156955833Y-95058797D01*
X156764201Y-95186842D01*
X156551278Y-95275037D01*
X156400582Y-95305012D01*
X156325235Y-95320000D01*
X156094765Y-95320000D01*
X156019418Y-95305012D01*
X155868722Y-95275037D01*
X155655799Y-95186842D01*
X155464167Y-95058797D01*
X155301203Y-94895833D01*
X155173158Y-94704201D01*
X155084963Y-94491278D01*
X155040000Y-94265234D01*
X155040000Y-94034766D01*
X155084963Y-93808722D01*
X155173158Y-93595799D01*
X155301203Y-93404167D01*
X155464167Y-93241203D01*
X155655799Y-93113158D01*
X155868722Y-93024963D01*
X156019418Y-92994988D01*
X156094765Y-92980000D01*
X156325235Y-92980000D01*
X156400582Y-92994988D01*
X156400582Y-92994988D01*
G37*
G36*
X169100582Y-92994988D02*
X169251278Y-93024963D01*
X169464201Y-93113158D01*
X169655833Y-93241203D01*
X169818797Y-93404167D01*
X169946842Y-93595799D01*
X170035037Y-93808722D01*
X170080000Y-94034766D01*
X170080000Y-94265234D01*
X170035037Y-94491278D01*
X169946842Y-94704201D01*
X169818797Y-94895833D01*
X169655833Y-95058797D01*
X169464201Y-95186842D01*
X169251278Y-95275037D01*
X169100582Y-95305012D01*
X169025235Y-95320000D01*
X168794765Y-95320000D01*
X168719418Y-95305012D01*
X168568722Y-95275037D01*
X168355799Y-95186842D01*
X168164167Y-95058797D01*
X168001203Y-94895833D01*
X167873158Y-94704201D01*
X167784963Y-94491278D01*
X167740000Y-94265234D01*
X167740000Y-94034766D01*
X167784963Y-93808722D01*
X167873158Y-93595799D01*
X168001203Y-93404167D01*
X168164167Y-93241203D01*
X168355799Y-93113158D01*
X168568722Y-93024963D01*
X168719418Y-92994988D01*
X168794765Y-92980000D01*
X169025235Y-92980000D01*
X169100582Y-92994988D01*
X169100582Y-92994988D01*
G37*
G36*
X132737374Y-93229025D02*
X132737377Y-93229026D01*
X132737378Y-93229026D01*
X132881015Y-93272598D01*
X132996300Y-93334219D01*
X133013394Y-93343356D01*
X133129422Y-93438578D01*
X133224644Y-93554606D01*
X133224645Y-93554608D01*
X133295402Y-93686985D01*
X133332331Y-93808724D01*
X133338975Y-93830626D01*
X133353687Y-93980000D01*
X133338975Y-94129374D01*
X133338974Y-94129377D01*
X133338974Y-94129378D01*
X133295402Y-94273015D01*
X133295401Y-94273016D01*
X133224644Y-94405394D01*
X133129422Y-94521422D01*
X133013394Y-94616644D01*
X133013392Y-94616645D01*
X132881015Y-94687402D01*
X132737378Y-94730974D01*
X132737377Y-94730974D01*
X132737374Y-94730975D01*
X132625432Y-94742000D01*
X131534568Y-94742000D01*
X131422626Y-94730975D01*
X131422623Y-94730974D01*
X131422622Y-94730974D01*
X131278985Y-94687402D01*
X131146608Y-94616645D01*
X131146606Y-94616644D01*
X131030578Y-94521422D01*
X130935356Y-94405394D01*
X130864599Y-94273016D01*
X130864598Y-94273015D01*
X130821026Y-94129378D01*
X130821026Y-94129377D01*
X130821025Y-94129374D01*
X130806313Y-93980000D01*
X130821025Y-93830626D01*
X130827669Y-93808724D01*
X130864598Y-93686985D01*
X130935355Y-93554608D01*
X130935356Y-93554606D01*
X131030578Y-93438578D01*
X131146606Y-93343356D01*
X131163700Y-93334219D01*
X131278985Y-93272598D01*
X131422622Y-93229026D01*
X131422623Y-93229026D01*
X131422626Y-93229025D01*
X131534568Y-93218000D01*
X132625432Y-93218000D01*
X132737374Y-93229025D01*
X132737374Y-93229025D01*
G37*
G36*
X147977374Y-93229025D02*
X147977377Y-93229026D01*
X147977378Y-93229026D01*
X148121015Y-93272598D01*
X148236300Y-93334219D01*
X148253394Y-93343356D01*
X148369422Y-93438578D01*
X148464644Y-93554606D01*
X148464645Y-93554608D01*
X148535402Y-93686985D01*
X148572331Y-93808724D01*
X148578975Y-93830626D01*
X148593687Y-93980000D01*
X148578975Y-94129374D01*
X148578974Y-94129377D01*
X148578974Y-94129378D01*
X148535402Y-94273015D01*
X148535401Y-94273016D01*
X148464644Y-94405394D01*
X148369422Y-94521422D01*
X148253394Y-94616644D01*
X148253392Y-94616645D01*
X148121015Y-94687402D01*
X147977378Y-94730974D01*
X147977377Y-94730974D01*
X147977374Y-94730975D01*
X147865432Y-94742000D01*
X146774568Y-94742000D01*
X146662626Y-94730975D01*
X146662623Y-94730974D01*
X146662622Y-94730974D01*
X146518985Y-94687402D01*
X146386608Y-94616645D01*
X146386606Y-94616644D01*
X146270578Y-94521422D01*
X146175356Y-94405394D01*
X146104599Y-94273016D01*
X146104598Y-94273015D01*
X146061026Y-94129378D01*
X146061026Y-94129377D01*
X146061025Y-94129374D01*
X146046313Y-93980000D01*
X146061025Y-93830626D01*
X146067669Y-93808724D01*
X146104598Y-93686985D01*
X146175355Y-93554608D01*
X146175356Y-93554606D01*
X146270578Y-93438578D01*
X146386606Y-93343356D01*
X146403700Y-93334219D01*
X146518985Y-93272598D01*
X146662622Y-93229026D01*
X146662623Y-93229026D01*
X146662626Y-93229025D01*
X146774568Y-93218000D01*
X147865432Y-93218000D01*
X147977374Y-93229025D01*
X147977374Y-93229025D01*
G37*
G36*
X147977374Y-90689025D02*
X147977377Y-90689026D01*
X147977378Y-90689026D01*
X148121015Y-90732598D01*
X148236300Y-90794219D01*
X148253394Y-90803356D01*
X148369422Y-90898578D01*
X148464644Y-91014606D01*
X148464645Y-91014608D01*
X148535402Y-91146985D01*
X148578974Y-91290622D01*
X148578975Y-91290626D01*
X148593687Y-91440000D01*
X148578975Y-91589374D01*
X148578974Y-91589377D01*
X148578974Y-91589378D01*
X148535402Y-91733015D01*
X148473781Y-91848300D01*
X148464644Y-91865394D01*
X148369422Y-91981422D01*
X148253394Y-92076644D01*
X148253392Y-92076645D01*
X148121015Y-92147402D01*
X147977378Y-92190974D01*
X147977377Y-92190974D01*
X147977374Y-92190975D01*
X147865432Y-92202000D01*
X146774568Y-92202000D01*
X146662626Y-92190975D01*
X146662623Y-92190974D01*
X146662622Y-92190974D01*
X146518985Y-92147402D01*
X146386608Y-92076645D01*
X146386606Y-92076644D01*
X146270578Y-91981422D01*
X146175356Y-91865394D01*
X146166219Y-91848300D01*
X146104598Y-91733015D01*
X146061026Y-91589378D01*
X146061026Y-91589377D01*
X146061025Y-91589374D01*
X146046313Y-91440000D01*
X146061025Y-91290626D01*
X146061026Y-91290622D01*
X146104598Y-91146985D01*
X146175355Y-91014608D01*
X146175356Y-91014606D01*
X146270578Y-90898578D01*
X146386606Y-90803356D01*
X146403700Y-90794219D01*
X146518985Y-90732598D01*
X146662622Y-90689026D01*
X146662623Y-90689026D01*
X146662626Y-90689025D01*
X146774568Y-90678000D01*
X147865432Y-90678000D01*
X147977374Y-90689025D01*
X147977374Y-90689025D01*
G37*
G36*
X132737374Y-90689025D02*
X132737377Y-90689026D01*
X132737378Y-90689026D01*
X132881015Y-90732598D01*
X132996300Y-90794219D01*
X133013394Y-90803356D01*
X133129422Y-90898578D01*
X133224644Y-91014606D01*
X133224645Y-91014608D01*
X133295402Y-91146985D01*
X133338974Y-91290622D01*
X133338975Y-91290626D01*
X133353687Y-91440000D01*
X133338975Y-91589374D01*
X133338974Y-91589377D01*
X133338974Y-91589378D01*
X133295402Y-91733015D01*
X133233781Y-91848300D01*
X133224644Y-91865394D01*
X133129422Y-91981422D01*
X133013394Y-92076644D01*
X133013392Y-92076645D01*
X132881015Y-92147402D01*
X132737378Y-92190974D01*
X132737377Y-92190974D01*
X132737374Y-92190975D01*
X132625432Y-92202000D01*
X131534568Y-92202000D01*
X131422626Y-92190975D01*
X131422623Y-92190974D01*
X131422622Y-92190974D01*
X131278985Y-92147402D01*
X131146608Y-92076645D01*
X131146606Y-92076644D01*
X131030578Y-91981422D01*
X130935356Y-91865394D01*
X130926219Y-91848300D01*
X130864598Y-91733015D01*
X130821026Y-91589378D01*
X130821026Y-91589377D01*
X130821025Y-91589374D01*
X130806313Y-91440000D01*
X130821025Y-91290626D01*
X130821026Y-91290622D01*
X130864598Y-91146985D01*
X130935355Y-91014608D01*
X130935356Y-91014606D01*
X131030578Y-90898578D01*
X131146606Y-90803356D01*
X131163700Y-90794219D01*
X131278985Y-90732598D01*
X131422622Y-90689026D01*
X131422623Y-90689026D01*
X131422626Y-90689025D01*
X131534568Y-90678000D01*
X132625432Y-90678000D01*
X132737374Y-90689025D01*
X132737374Y-90689025D01*
G37*
G36*
X169100582Y-89494988D02*
X169251278Y-89524963D01*
X169464201Y-89613158D01*
X169655833Y-89741203D01*
X169818797Y-89904167D01*
X169946842Y-90095799D01*
X170035037Y-90308722D01*
X170080000Y-90534766D01*
X170080000Y-90765234D01*
X170035037Y-90991278D01*
X169946842Y-91204201D01*
X169818797Y-91395833D01*
X169655833Y-91558797D01*
X169464201Y-91686842D01*
X169251278Y-91775037D01*
X169100582Y-91805012D01*
X169025235Y-91820000D01*
X168794765Y-91820000D01*
X168719418Y-91805012D01*
X168568722Y-91775037D01*
X168355799Y-91686842D01*
X168164167Y-91558797D01*
X168001203Y-91395833D01*
X167873158Y-91204201D01*
X167784963Y-90991278D01*
X167740000Y-90765234D01*
X167740000Y-90534766D01*
X167784963Y-90308722D01*
X167873158Y-90095799D01*
X168001203Y-89904167D01*
X168164167Y-89741203D01*
X168355799Y-89613158D01*
X168568722Y-89524963D01*
X168719418Y-89494988D01*
X168794765Y-89480000D01*
X169025235Y-89480000D01*
X169100582Y-89494988D01*
X169100582Y-89494988D01*
G37*
G36*
X156400582Y-89494988D02*
X156551278Y-89524963D01*
X156764201Y-89613158D01*
X156955833Y-89741203D01*
X157118797Y-89904167D01*
X157246842Y-90095799D01*
X157335037Y-90308722D01*
X157380000Y-90534766D01*
X157380000Y-90765234D01*
X157335037Y-90991278D01*
X157246842Y-91204201D01*
X157118797Y-91395833D01*
X156955833Y-91558797D01*
X156764201Y-91686842D01*
X156551278Y-91775037D01*
X156400582Y-91805012D01*
X156325235Y-91820000D01*
X156094765Y-91820000D01*
X156019418Y-91805012D01*
X155868722Y-91775037D01*
X155655799Y-91686842D01*
X155464167Y-91558797D01*
X155301203Y-91395833D01*
X155173158Y-91204201D01*
X155084963Y-90991278D01*
X155040000Y-90765234D01*
X155040000Y-90534766D01*
X155084963Y-90308722D01*
X155173158Y-90095799D01*
X155301203Y-89904167D01*
X155464167Y-89741203D01*
X155655799Y-89613158D01*
X155868722Y-89524963D01*
X156019418Y-89494988D01*
X156094765Y-89480000D01*
X156325235Y-89480000D01*
X156400582Y-89494988D01*
X156400582Y-89494988D01*
G37*
G36*
X186682500Y-90162500D02*
X184157500Y-90162500D01*
X184157500Y-87637500D01*
X186682500Y-87637500D01*
X186682500Y-90162500D01*
X186682500Y-90162500D01*
G37*
G36*
X176522500Y-90162500D02*
X173997500Y-90162500D01*
X173997500Y-87637500D01*
X176522500Y-87637500D01*
X176522500Y-90162500D01*
X176522500Y-90162500D01*
G37*
G36*
X163822500Y-90162500D02*
X161297500Y-90162500D01*
X161297500Y-87637500D01*
X163822500Y-87637500D01*
X163822500Y-90162500D01*
X163822500Y-90162500D01*
G37*
G36*
X147977374Y-88149025D02*
X147977377Y-88149026D01*
X147977378Y-88149026D01*
X148121015Y-88192598D01*
X148236300Y-88254219D01*
X148253394Y-88263356D01*
X148369422Y-88358578D01*
X148464644Y-88474606D01*
X148464645Y-88474608D01*
X148535402Y-88606985D01*
X148578974Y-88750622D01*
X148578975Y-88750626D01*
X148593687Y-88900000D01*
X148578975Y-89049374D01*
X148578974Y-89049377D01*
X148578974Y-89049378D01*
X148535402Y-89193015D01*
X148535401Y-89193016D01*
X148464644Y-89325394D01*
X148369422Y-89441422D01*
X148253394Y-89536644D01*
X148253392Y-89536645D01*
X148121015Y-89607402D01*
X147977378Y-89650974D01*
X147977377Y-89650974D01*
X147977374Y-89650975D01*
X147865432Y-89662000D01*
X146774568Y-89662000D01*
X146662626Y-89650975D01*
X146662623Y-89650974D01*
X146662622Y-89650974D01*
X146518985Y-89607402D01*
X146386608Y-89536645D01*
X146386606Y-89536644D01*
X146270578Y-89441422D01*
X146175356Y-89325394D01*
X146104599Y-89193016D01*
X146104598Y-89193015D01*
X146061026Y-89049378D01*
X146061026Y-89049377D01*
X146061025Y-89049374D01*
X146046313Y-88900000D01*
X146061025Y-88750626D01*
X146061026Y-88750622D01*
X146104598Y-88606985D01*
X146175355Y-88474608D01*
X146175356Y-88474606D01*
X146270578Y-88358578D01*
X146386606Y-88263356D01*
X146403700Y-88254219D01*
X146518985Y-88192598D01*
X146662622Y-88149026D01*
X146662623Y-88149026D01*
X146662626Y-88149025D01*
X146774568Y-88138000D01*
X147865432Y-88138000D01*
X147977374Y-88149025D01*
X147977374Y-88149025D01*
G37*
G36*
X133350000Y-89662000D02*
X130810000Y-89662000D01*
X130810000Y-88138000D01*
X133350000Y-88138000D01*
X133350000Y-89662000D01*
X133350000Y-89662000D01*
G37*
G36*
X156400582Y-85994988D02*
X156551278Y-86024963D01*
X156764201Y-86113158D01*
X156955833Y-86241203D01*
X157118797Y-86404167D01*
X157246842Y-86595799D01*
X157335037Y-86808722D01*
X157380000Y-87034766D01*
X157380000Y-87265234D01*
X157335037Y-87491278D01*
X157246842Y-87704201D01*
X157118797Y-87895833D01*
X156955833Y-88058797D01*
X156764201Y-88186842D01*
X156551278Y-88275037D01*
X156400582Y-88305012D01*
X156325235Y-88320000D01*
X156094765Y-88320000D01*
X156019418Y-88305012D01*
X155868722Y-88275037D01*
X155655799Y-88186842D01*
X155464167Y-88058797D01*
X155301203Y-87895833D01*
X155173158Y-87704201D01*
X155084963Y-87491278D01*
X155040000Y-87265234D01*
X155040000Y-87034766D01*
X155084963Y-86808722D01*
X155173158Y-86595799D01*
X155301203Y-86404167D01*
X155464167Y-86241203D01*
X155655799Y-86113158D01*
X155868722Y-86024963D01*
X156019418Y-85994988D01*
X156094765Y-85980000D01*
X156325235Y-85980000D01*
X156400582Y-85994988D01*
X156400582Y-85994988D01*
G37*
G36*
X169100582Y-85994988D02*
X169251278Y-86024963D01*
X169464201Y-86113158D01*
X169655833Y-86241203D01*
X169818797Y-86404167D01*
X169946842Y-86595799D01*
X170035037Y-86808722D01*
X170080000Y-87034766D01*
X170080000Y-87265234D01*
X170035037Y-87491278D01*
X169946842Y-87704201D01*
X169818797Y-87895833D01*
X169655833Y-88058797D01*
X169464201Y-88186842D01*
X169251278Y-88275037D01*
X169100582Y-88305012D01*
X169025235Y-88320000D01*
X168794765Y-88320000D01*
X168719418Y-88305012D01*
X168568722Y-88275037D01*
X168355799Y-88186842D01*
X168164167Y-88058797D01*
X168001203Y-87895833D01*
X167873158Y-87704201D01*
X167784963Y-87491278D01*
X167740000Y-87265234D01*
X167740000Y-87034766D01*
X167784963Y-86808722D01*
X167873158Y-86595799D01*
X168001203Y-86404167D01*
X168164167Y-86241203D01*
X168355799Y-86113158D01*
X168568722Y-86024963D01*
X168719418Y-85994988D01*
X168794765Y-85980000D01*
X169025235Y-85980000D01*
X169100582Y-85994988D01*
X169100582Y-85994988D01*
G37*
G36*
X147977374Y-85609025D02*
X147977377Y-85609026D01*
X147977378Y-85609026D01*
X148121015Y-85652598D01*
X148236300Y-85714219D01*
X148253394Y-85723356D01*
X148369422Y-85818578D01*
X148464644Y-85934606D01*
X148464645Y-85934608D01*
X148535402Y-86066985D01*
X148549408Y-86113158D01*
X148578975Y-86210626D01*
X148593687Y-86360000D01*
X148578975Y-86509374D01*
X148578974Y-86509377D01*
X148578974Y-86509378D01*
X148535402Y-86653015D01*
X148535401Y-86653016D01*
X148464644Y-86785394D01*
X148369422Y-86901422D01*
X148253394Y-86996644D01*
X148253392Y-86996645D01*
X148121015Y-87067402D01*
X147977378Y-87110974D01*
X147977377Y-87110974D01*
X147977374Y-87110975D01*
X147865432Y-87122000D01*
X146774568Y-87122000D01*
X146662626Y-87110975D01*
X146662623Y-87110974D01*
X146662622Y-87110974D01*
X146518985Y-87067402D01*
X146386608Y-86996645D01*
X146386606Y-86996644D01*
X146270578Y-86901422D01*
X146175356Y-86785394D01*
X146104599Y-86653016D01*
X146104598Y-86653015D01*
X146061026Y-86509378D01*
X146061026Y-86509377D01*
X146061025Y-86509374D01*
X146046313Y-86360000D01*
X146061025Y-86210626D01*
X146090592Y-86113158D01*
X146104598Y-86066985D01*
X146175355Y-85934608D01*
X146175356Y-85934606D01*
X146270578Y-85818578D01*
X146386606Y-85723356D01*
X146403700Y-85714219D01*
X146518985Y-85652598D01*
X146662622Y-85609026D01*
X146662623Y-85609026D01*
X146662626Y-85609025D01*
X146774568Y-85598000D01*
X147865432Y-85598000D01*
X147977374Y-85609025D01*
X147977374Y-85609025D01*
G37*
G36*
X132737374Y-85609025D02*
X132737377Y-85609026D01*
X132737378Y-85609026D01*
X132881015Y-85652598D01*
X132996300Y-85714219D01*
X133013394Y-85723356D01*
X133129422Y-85818578D01*
X133224644Y-85934606D01*
X133224645Y-85934608D01*
X133295402Y-86066985D01*
X133309408Y-86113158D01*
X133338975Y-86210626D01*
X133353687Y-86360000D01*
X133338975Y-86509374D01*
X133338974Y-86509377D01*
X133338974Y-86509378D01*
X133295402Y-86653015D01*
X133295401Y-86653016D01*
X133224644Y-86785394D01*
X133129422Y-86901422D01*
X133013394Y-86996644D01*
X133013392Y-86996645D01*
X132881015Y-87067402D01*
X132737378Y-87110974D01*
X132737377Y-87110974D01*
X132737374Y-87110975D01*
X132625432Y-87122000D01*
X131534568Y-87122000D01*
X131422626Y-87110975D01*
X131422623Y-87110974D01*
X131422622Y-87110974D01*
X131278985Y-87067402D01*
X131146608Y-86996645D01*
X131146606Y-86996644D01*
X131030578Y-86901422D01*
X130935356Y-86785394D01*
X130864599Y-86653016D01*
X130864598Y-86653015D01*
X130821026Y-86509378D01*
X130821026Y-86509377D01*
X130821025Y-86509374D01*
X130806313Y-86360000D01*
X130821025Y-86210626D01*
X130850592Y-86113158D01*
X130864598Y-86066985D01*
X130935355Y-85934608D01*
X130935356Y-85934606D01*
X131030578Y-85818578D01*
X131146606Y-85723356D01*
X131163700Y-85714219D01*
X131278985Y-85652598D01*
X131422622Y-85609026D01*
X131422623Y-85609026D01*
X131422626Y-85609025D01*
X131534568Y-85598000D01*
X132625432Y-85598000D01*
X132737374Y-85609025D01*
X132737374Y-85609025D01*
G37*
G36*
X169100582Y-82494988D02*
X169251278Y-82524963D01*
X169464201Y-82613158D01*
X169655833Y-82741203D01*
X169818797Y-82904167D01*
X169946842Y-83095799D01*
X170035037Y-83308722D01*
X170080000Y-83534766D01*
X170080000Y-83765234D01*
X170035037Y-83991278D01*
X169946842Y-84204201D01*
X169818797Y-84395833D01*
X169655833Y-84558797D01*
X169464201Y-84686842D01*
X169251278Y-84775037D01*
X169100582Y-84805012D01*
X169025235Y-84820000D01*
X168794765Y-84820000D01*
X168719418Y-84805012D01*
X168568722Y-84775037D01*
X168355799Y-84686842D01*
X168164167Y-84558797D01*
X168001203Y-84395833D01*
X167873158Y-84204201D01*
X167784963Y-83991278D01*
X167740000Y-83765234D01*
X167740000Y-83534766D01*
X167784963Y-83308722D01*
X167873158Y-83095799D01*
X168001203Y-82904167D01*
X168164167Y-82741203D01*
X168355799Y-82613158D01*
X168568722Y-82524963D01*
X168719418Y-82494988D01*
X168794765Y-82480000D01*
X169025235Y-82480000D01*
X169100582Y-82494988D01*
X169100582Y-82494988D01*
G37*
G36*
X156400582Y-82494988D02*
X156551278Y-82524963D01*
X156764201Y-82613158D01*
X156955833Y-82741203D01*
X157118797Y-82904167D01*
X157246842Y-83095799D01*
X157335037Y-83308722D01*
X157380000Y-83534766D01*
X157380000Y-83765234D01*
X157335037Y-83991278D01*
X157246842Y-84204201D01*
X157118797Y-84395833D01*
X156955833Y-84558797D01*
X156764201Y-84686842D01*
X156551278Y-84775037D01*
X156400582Y-84805012D01*
X156325235Y-84820000D01*
X156094765Y-84820000D01*
X156019418Y-84805012D01*
X155868722Y-84775037D01*
X155655799Y-84686842D01*
X155464167Y-84558797D01*
X155301203Y-84395833D01*
X155173158Y-84204201D01*
X155084963Y-83991278D01*
X155040000Y-83765234D01*
X155040000Y-83534766D01*
X155084963Y-83308722D01*
X155173158Y-83095799D01*
X155301203Y-82904167D01*
X155464167Y-82741203D01*
X155655799Y-82613158D01*
X155868722Y-82524963D01*
X156019418Y-82494988D01*
X156094765Y-82480000D01*
X156325235Y-82480000D01*
X156400582Y-82494988D01*
X156400582Y-82494988D01*
G37*
G36*
X132737374Y-83069025D02*
X132737377Y-83069026D01*
X132737378Y-83069026D01*
X132881015Y-83112598D01*
X132996300Y-83174219D01*
X133013394Y-83183356D01*
X133129422Y-83278578D01*
X133224644Y-83394606D01*
X133224645Y-83394608D01*
X133295402Y-83526985D01*
X133297762Y-83534766D01*
X133338975Y-83670626D01*
X133353687Y-83820000D01*
X133338975Y-83969374D01*
X133338974Y-83969377D01*
X133338974Y-83969378D01*
X133295402Y-84113015D01*
X133295401Y-84113016D01*
X133224644Y-84245394D01*
X133129422Y-84361422D01*
X133013394Y-84456644D01*
X133013392Y-84456645D01*
X132881015Y-84527402D01*
X132737378Y-84570974D01*
X132737377Y-84570974D01*
X132737374Y-84570975D01*
X132625432Y-84582000D01*
X131534568Y-84582000D01*
X131422626Y-84570975D01*
X131422623Y-84570974D01*
X131422622Y-84570974D01*
X131278985Y-84527402D01*
X131146608Y-84456645D01*
X131146606Y-84456644D01*
X131030578Y-84361422D01*
X130935356Y-84245394D01*
X130864599Y-84113016D01*
X130864598Y-84113015D01*
X130821026Y-83969378D01*
X130821026Y-83969377D01*
X130821025Y-83969374D01*
X130806313Y-83820000D01*
X130821025Y-83670626D01*
X130862238Y-83534766D01*
X130864598Y-83526985D01*
X130935355Y-83394608D01*
X130935356Y-83394606D01*
X131030578Y-83278578D01*
X131146606Y-83183356D01*
X131163700Y-83174219D01*
X131278985Y-83112598D01*
X131422622Y-83069026D01*
X131422623Y-83069026D01*
X131422626Y-83069025D01*
X131534568Y-83058000D01*
X132625432Y-83058000D01*
X132737374Y-83069025D01*
X132737374Y-83069025D01*
G37*
G36*
X147977374Y-83069025D02*
X147977377Y-83069026D01*
X147977378Y-83069026D01*
X148121015Y-83112598D01*
X148236300Y-83174219D01*
X148253394Y-83183356D01*
X148369422Y-83278578D01*
X148464644Y-83394606D01*
X148464645Y-83394608D01*
X148535402Y-83526985D01*
X148537762Y-83534766D01*
X148578975Y-83670626D01*
X148593687Y-83820000D01*
X148578975Y-83969374D01*
X148578974Y-83969377D01*
X148578974Y-83969378D01*
X148535402Y-84113015D01*
X148535401Y-84113016D01*
X148464644Y-84245394D01*
X148369422Y-84361422D01*
X148253394Y-84456644D01*
X148253392Y-84456645D01*
X148121015Y-84527402D01*
X147977378Y-84570974D01*
X147977377Y-84570974D01*
X147977374Y-84570975D01*
X147865432Y-84582000D01*
X146774568Y-84582000D01*
X146662626Y-84570975D01*
X146662623Y-84570974D01*
X146662622Y-84570974D01*
X146518985Y-84527402D01*
X146386608Y-84456645D01*
X146386606Y-84456644D01*
X146270578Y-84361422D01*
X146175356Y-84245394D01*
X146104599Y-84113016D01*
X146104598Y-84113015D01*
X146061026Y-83969378D01*
X146061026Y-83969377D01*
X146061025Y-83969374D01*
X146046313Y-83820000D01*
X146061025Y-83670626D01*
X146102238Y-83534766D01*
X146104598Y-83526985D01*
X146175355Y-83394608D01*
X146175356Y-83394606D01*
X146270578Y-83278578D01*
X146386606Y-83183356D01*
X146403700Y-83174219D01*
X146518985Y-83112598D01*
X146662622Y-83069026D01*
X146662623Y-83069026D01*
X146662626Y-83069025D01*
X146774568Y-83058000D01*
X147865432Y-83058000D01*
X147977374Y-83069025D01*
X147977374Y-83069025D01*
G37*
G36*
X147977374Y-80529025D02*
X147977377Y-80529026D01*
X147977378Y-80529026D01*
X148121015Y-80572598D01*
X148236300Y-80634219D01*
X148253394Y-80643356D01*
X148369422Y-80738578D01*
X148464644Y-80854606D01*
X148464645Y-80854608D01*
X148535402Y-80986985D01*
X148578974Y-81130622D01*
X148578975Y-81130626D01*
X148593687Y-81280000D01*
X148578975Y-81429374D01*
X148578974Y-81429377D01*
X148578974Y-81429378D01*
X148535402Y-81573015D01*
X148535401Y-81573016D01*
X148464644Y-81705394D01*
X148369422Y-81821422D01*
X148253394Y-81916644D01*
X148253392Y-81916645D01*
X148121015Y-81987402D01*
X147977378Y-82030974D01*
X147977377Y-82030974D01*
X147977374Y-82030975D01*
X147865432Y-82042000D01*
X146774568Y-82042000D01*
X146662626Y-82030975D01*
X146662623Y-82030974D01*
X146662622Y-82030974D01*
X146518985Y-81987402D01*
X146386608Y-81916645D01*
X146386606Y-81916644D01*
X146270578Y-81821422D01*
X146175356Y-81705394D01*
X146104599Y-81573016D01*
X146104598Y-81573015D01*
X146061026Y-81429378D01*
X146061026Y-81429377D01*
X146061025Y-81429374D01*
X146046313Y-81280000D01*
X146061025Y-81130626D01*
X146061026Y-81130622D01*
X146104598Y-80986985D01*
X146175355Y-80854608D01*
X146175356Y-80854606D01*
X146270578Y-80738578D01*
X146386606Y-80643356D01*
X146403700Y-80634219D01*
X146518985Y-80572598D01*
X146662622Y-80529026D01*
X146662623Y-80529026D01*
X146662626Y-80529025D01*
X146774568Y-80518000D01*
X147865432Y-80518000D01*
X147977374Y-80529025D01*
X147977374Y-80529025D01*
G37*
G36*
X132737374Y-80529025D02*
X132737377Y-80529026D01*
X132737378Y-80529026D01*
X132881015Y-80572598D01*
X132996300Y-80634219D01*
X133013394Y-80643356D01*
X133129422Y-80738578D01*
X133224644Y-80854606D01*
X133224645Y-80854608D01*
X133295402Y-80986985D01*
X133338974Y-81130622D01*
X133338975Y-81130626D01*
X133353687Y-81280000D01*
X133338975Y-81429374D01*
X133338974Y-81429377D01*
X133338974Y-81429378D01*
X133295402Y-81573015D01*
X133295401Y-81573016D01*
X133224644Y-81705394D01*
X133129422Y-81821422D01*
X133013394Y-81916644D01*
X133013392Y-81916645D01*
X132881015Y-81987402D01*
X132737378Y-82030974D01*
X132737377Y-82030974D01*
X132737374Y-82030975D01*
X132625432Y-82042000D01*
X131534568Y-82042000D01*
X131422626Y-82030975D01*
X131422623Y-82030974D01*
X131422622Y-82030974D01*
X131278985Y-81987402D01*
X131146608Y-81916645D01*
X131146606Y-81916644D01*
X131030578Y-81821422D01*
X130935356Y-81705394D01*
X130864599Y-81573016D01*
X130864598Y-81573015D01*
X130821026Y-81429378D01*
X130821026Y-81429377D01*
X130821025Y-81429374D01*
X130806313Y-81280000D01*
X130821025Y-81130626D01*
X130821026Y-81130622D01*
X130864598Y-80986985D01*
X130935355Y-80854608D01*
X130935356Y-80854606D01*
X131030578Y-80738578D01*
X131146606Y-80643356D01*
X131163700Y-80634219D01*
X131278985Y-80572598D01*
X131422622Y-80529026D01*
X131422623Y-80529026D01*
X131422626Y-80529025D01*
X131534568Y-80518000D01*
X132625432Y-80518000D01*
X132737374Y-80529025D01*
X132737374Y-80529025D01*
G37*
G36*
X132737374Y-77989025D02*
X132737377Y-77989026D01*
X132737378Y-77989026D01*
X132881015Y-78032598D01*
X132996300Y-78094219D01*
X133013394Y-78103356D01*
X133129422Y-78198578D01*
X133224644Y-78314606D01*
X133224645Y-78314608D01*
X133295402Y-78446985D01*
X133338974Y-78590622D01*
X133338975Y-78590626D01*
X133353687Y-78740000D01*
X133338975Y-78889374D01*
X133338974Y-78889377D01*
X133338974Y-78889378D01*
X133295402Y-79033015D01*
X133295401Y-79033016D01*
X133224644Y-79165394D01*
X133129422Y-79281422D01*
X133013394Y-79376644D01*
X133013392Y-79376645D01*
X132881015Y-79447402D01*
X132737378Y-79490974D01*
X132737377Y-79490974D01*
X132737374Y-79490975D01*
X132625432Y-79502000D01*
X131534568Y-79502000D01*
X131422626Y-79490975D01*
X131422623Y-79490974D01*
X131422622Y-79490974D01*
X131278985Y-79447402D01*
X131146608Y-79376645D01*
X131146606Y-79376644D01*
X131030578Y-79281422D01*
X130935356Y-79165394D01*
X130864599Y-79033016D01*
X130864598Y-79033015D01*
X130821026Y-78889378D01*
X130821026Y-78889377D01*
X130821025Y-78889374D01*
X130806313Y-78740000D01*
X130821025Y-78590626D01*
X130821026Y-78590622D01*
X130864598Y-78446985D01*
X130935355Y-78314608D01*
X130935356Y-78314606D01*
X131030578Y-78198578D01*
X131146606Y-78103356D01*
X131163700Y-78094219D01*
X131278985Y-78032598D01*
X131422622Y-77989026D01*
X131422623Y-77989026D01*
X131422626Y-77989025D01*
X131534568Y-77978000D01*
X132625432Y-77978000D01*
X132737374Y-77989025D01*
X132737374Y-77989025D01*
G37*
G36*
X147977374Y-77989025D02*
X147977377Y-77989026D01*
X147977378Y-77989026D01*
X148121015Y-78032598D01*
X148236300Y-78094219D01*
X148253394Y-78103356D01*
X148369422Y-78198578D01*
X148464644Y-78314606D01*
X148464645Y-78314608D01*
X148535402Y-78446985D01*
X148578974Y-78590622D01*
X148578975Y-78590626D01*
X148593687Y-78740000D01*
X148578975Y-78889374D01*
X148578974Y-78889377D01*
X148578974Y-78889378D01*
X148535402Y-79033015D01*
X148535401Y-79033016D01*
X148464644Y-79165394D01*
X148369422Y-79281422D01*
X148253394Y-79376644D01*
X148253392Y-79376645D01*
X148121015Y-79447402D01*
X147977378Y-79490974D01*
X147977377Y-79490974D01*
X147977374Y-79490975D01*
X147865432Y-79502000D01*
X146774568Y-79502000D01*
X146662626Y-79490975D01*
X146662623Y-79490974D01*
X146662622Y-79490974D01*
X146518985Y-79447402D01*
X146386608Y-79376645D01*
X146386606Y-79376644D01*
X146270578Y-79281422D01*
X146175356Y-79165394D01*
X146104599Y-79033016D01*
X146104598Y-79033015D01*
X146061026Y-78889378D01*
X146061026Y-78889377D01*
X146061025Y-78889374D01*
X146046313Y-78740000D01*
X146061025Y-78590626D01*
X146061026Y-78590622D01*
X146104598Y-78446985D01*
X146175355Y-78314608D01*
X146175356Y-78314606D01*
X146270578Y-78198578D01*
X146386606Y-78103356D01*
X146403700Y-78094219D01*
X146518985Y-78032598D01*
X146662622Y-77989026D01*
X146662623Y-77989026D01*
X146662626Y-77989025D01*
X146774568Y-77978000D01*
X147865432Y-77978000D01*
X147977374Y-77989025D01*
X147977374Y-77989025D01*
G37*
G36*
X169100582Y-76484988D02*
X169251278Y-76514963D01*
X169464201Y-76603158D01*
X169655833Y-76731203D01*
X169818797Y-76894167D01*
X169946842Y-77085799D01*
X170035037Y-77298722D01*
X170080000Y-77524766D01*
X170080000Y-77755234D01*
X170035037Y-77981278D01*
X169946842Y-78194201D01*
X169818797Y-78385833D01*
X169655833Y-78548797D01*
X169464201Y-78676842D01*
X169251278Y-78765037D01*
X169100582Y-78795012D01*
X169025235Y-78810000D01*
X168794765Y-78810000D01*
X168719418Y-78795012D01*
X168568722Y-78765037D01*
X168355799Y-78676842D01*
X168164167Y-78548797D01*
X168001203Y-78385833D01*
X167873158Y-78194201D01*
X167784963Y-77981278D01*
X167740000Y-77755234D01*
X167740000Y-77524766D01*
X167784963Y-77298722D01*
X167873158Y-77085799D01*
X168001203Y-76894167D01*
X168164167Y-76731203D01*
X168355799Y-76603158D01*
X168568722Y-76514963D01*
X168719418Y-76484988D01*
X168794765Y-76470000D01*
X169025235Y-76470000D01*
X169100582Y-76484988D01*
X169100582Y-76484988D01*
G37*
G36*
X156400582Y-76484988D02*
X156551278Y-76514963D01*
X156764201Y-76603158D01*
X156955833Y-76731203D01*
X157118797Y-76894167D01*
X157246842Y-77085799D01*
X157335037Y-77298722D01*
X157380000Y-77524766D01*
X157380000Y-77755234D01*
X157335037Y-77981278D01*
X157246842Y-78194201D01*
X157118797Y-78385833D01*
X156955833Y-78548797D01*
X156764201Y-78676842D01*
X156551278Y-78765037D01*
X156400582Y-78795012D01*
X156325235Y-78810000D01*
X156094765Y-78810000D01*
X156019418Y-78795012D01*
X155868722Y-78765037D01*
X155655799Y-78676842D01*
X155464167Y-78548797D01*
X155301203Y-78385833D01*
X155173158Y-78194201D01*
X155084963Y-77981278D01*
X155040000Y-77755234D01*
X155040000Y-77524766D01*
X155084963Y-77298722D01*
X155173158Y-77085799D01*
X155301203Y-76894167D01*
X155464167Y-76731203D01*
X155655799Y-76603158D01*
X155868722Y-76514963D01*
X156019418Y-76484988D01*
X156094765Y-76470000D01*
X156325235Y-76470000D01*
X156400582Y-76484988D01*
X156400582Y-76484988D01*
G37*
G36*
X147977374Y-75449025D02*
X147977377Y-75449026D01*
X147977378Y-75449026D01*
X148121015Y-75492598D01*
X148236300Y-75554219D01*
X148253394Y-75563356D01*
X148369422Y-75658578D01*
X148464644Y-75774606D01*
X148464645Y-75774608D01*
X148535402Y-75906985D01*
X148561665Y-75993562D01*
X148578975Y-76050626D01*
X148593687Y-76200000D01*
X148578975Y-76349374D01*
X148578974Y-76349377D01*
X148578974Y-76349378D01*
X148535402Y-76493015D01*
X148476529Y-76603158D01*
X148464644Y-76625394D01*
X148369422Y-76741422D01*
X148253394Y-76836644D01*
X148253392Y-76836645D01*
X148121015Y-76907402D01*
X147977378Y-76950974D01*
X147977377Y-76950974D01*
X147977374Y-76950975D01*
X147865432Y-76962000D01*
X146774568Y-76962000D01*
X146662626Y-76950975D01*
X146662623Y-76950974D01*
X146662622Y-76950974D01*
X146518985Y-76907402D01*
X146386608Y-76836645D01*
X146386606Y-76836644D01*
X146270578Y-76741422D01*
X146175356Y-76625394D01*
X146163471Y-76603158D01*
X146104598Y-76493015D01*
X146061026Y-76349378D01*
X146061026Y-76349377D01*
X146061025Y-76349374D01*
X146046313Y-76200000D01*
X146061025Y-76050626D01*
X146078335Y-75993562D01*
X146104598Y-75906985D01*
X146175355Y-75774608D01*
X146175356Y-75774606D01*
X146270578Y-75658578D01*
X146386606Y-75563356D01*
X146403700Y-75554219D01*
X146518985Y-75492598D01*
X146662622Y-75449026D01*
X146662623Y-75449026D01*
X146662626Y-75449025D01*
X146774568Y-75438000D01*
X147865432Y-75438000D01*
X147977374Y-75449025D01*
X147977374Y-75449025D01*
G37*
G36*
X132737374Y-75449025D02*
X132737377Y-75449026D01*
X132737378Y-75449026D01*
X132881015Y-75492598D01*
X132996300Y-75554219D01*
X133013394Y-75563356D01*
X133129422Y-75658578D01*
X133224644Y-75774606D01*
X133224645Y-75774608D01*
X133295402Y-75906985D01*
X133321665Y-75993562D01*
X133338975Y-76050626D01*
X133353687Y-76200000D01*
X133338975Y-76349374D01*
X133338974Y-76349377D01*
X133338974Y-76349378D01*
X133295402Y-76493015D01*
X133236529Y-76603158D01*
X133224644Y-76625394D01*
X133129422Y-76741422D01*
X133013394Y-76836644D01*
X133013392Y-76836645D01*
X132881015Y-76907402D01*
X132737378Y-76950974D01*
X132737377Y-76950974D01*
X132737374Y-76950975D01*
X132625432Y-76962000D01*
X131534568Y-76962000D01*
X131422626Y-76950975D01*
X131422623Y-76950974D01*
X131422622Y-76950974D01*
X131278985Y-76907402D01*
X131146608Y-76836645D01*
X131146606Y-76836644D01*
X131030578Y-76741422D01*
X130935356Y-76625394D01*
X130923471Y-76603158D01*
X130864598Y-76493015D01*
X130821026Y-76349378D01*
X130821026Y-76349377D01*
X130821025Y-76349374D01*
X130806313Y-76200000D01*
X130821025Y-76050626D01*
X130838335Y-75993562D01*
X130864598Y-75906985D01*
X130935355Y-75774608D01*
X130935356Y-75774606D01*
X131030578Y-75658578D01*
X131146606Y-75563356D01*
X131163700Y-75554219D01*
X131278985Y-75492598D01*
X131422622Y-75449026D01*
X131422623Y-75449026D01*
X131422626Y-75449025D01*
X131534568Y-75438000D01*
X132625432Y-75438000D01*
X132737374Y-75449025D01*
X132737374Y-75449025D01*
G37*
G36*
X179677620Y-72857276D02*
X179906625Y-72902828D01*
X180230197Y-73036855D01*
X180424339Y-73166577D01*
X180521059Y-73231203D01*
X180521410Y-73231438D01*
X180769062Y-73479090D01*
X180963645Y-73770303D01*
X181097672Y-74093875D01*
X181166000Y-74437383D01*
X181166000Y-74787617D01*
X181097672Y-75131125D01*
X180963645Y-75454697D01*
X180769062Y-75745910D01*
X180521410Y-75993562D01*
X180230197Y-76188145D01*
X179906625Y-76322172D01*
X179677620Y-76367724D01*
X179563118Y-76390500D01*
X179212882Y-76390500D01*
X179098380Y-76367724D01*
X178869375Y-76322172D01*
X178545803Y-76188145D01*
X178254590Y-75993562D01*
X178006938Y-75745910D01*
X177812355Y-75454697D01*
X177678328Y-75131125D01*
X177610000Y-74787617D01*
X177610000Y-74437383D01*
X177678328Y-74093875D01*
X177812355Y-73770303D01*
X178006938Y-73479090D01*
X178254590Y-73231438D01*
X178254942Y-73231203D01*
X178351661Y-73166577D01*
X178545803Y-73036855D01*
X178869375Y-72902828D01*
X179098380Y-72857276D01*
X179212882Y-72834500D01*
X179563118Y-72834500D01*
X179677620Y-72857276D01*
X179677620Y-72857276D01*
G37*
G36*
X125701620Y-72857276D02*
X125930625Y-72902828D01*
X126254197Y-73036855D01*
X126448339Y-73166577D01*
X126545059Y-73231203D01*
X126545410Y-73231438D01*
X126793062Y-73479090D01*
X126987645Y-73770303D01*
X127121672Y-74093875D01*
X127190000Y-74437383D01*
X127190000Y-74787617D01*
X127121672Y-75131125D01*
X126987645Y-75454697D01*
X126793062Y-75745910D01*
X126545410Y-75993562D01*
X126254197Y-76188145D01*
X125930625Y-76322172D01*
X125701620Y-76367724D01*
X125587118Y-76390500D01*
X125236882Y-76390500D01*
X125122380Y-76367724D01*
X124893375Y-76322172D01*
X124569803Y-76188145D01*
X124278590Y-75993562D01*
X124030938Y-75745910D01*
X123836355Y-75454697D01*
X123702328Y-75131125D01*
X123634000Y-74787617D01*
X123634000Y-74437383D01*
X123702328Y-74093875D01*
X123836355Y-73770303D01*
X124030938Y-73479090D01*
X124278590Y-73231438D01*
X124278942Y-73231203D01*
X124375661Y-73166577D01*
X124569803Y-73036855D01*
X124893375Y-72902828D01*
X125122380Y-72857276D01*
X125236882Y-72834500D01*
X125587118Y-72834500D01*
X125701620Y-72857276D01*
X125701620Y-72857276D01*
G37*
G36*
X169100582Y-72984988D02*
X169251278Y-73014963D01*
X169464201Y-73103158D01*
X169655833Y-73231203D01*
X169818797Y-73394167D01*
X169946842Y-73585799D01*
X170035037Y-73798722D01*
X170080000Y-74024766D01*
X170080000Y-74255234D01*
X170035037Y-74481278D01*
X169946842Y-74694201D01*
X169818797Y-74885833D01*
X169655833Y-75048797D01*
X169464201Y-75176842D01*
X169251278Y-75265037D01*
X169100582Y-75295012D01*
X169025235Y-75310000D01*
X168794765Y-75310000D01*
X168719418Y-75295012D01*
X168568722Y-75265037D01*
X168355799Y-75176842D01*
X168164167Y-75048797D01*
X168001203Y-74885833D01*
X167873158Y-74694201D01*
X167784963Y-74481278D01*
X167740000Y-74255234D01*
X167740000Y-74024766D01*
X167784963Y-73798722D01*
X167873158Y-73585799D01*
X168001203Y-73394167D01*
X168164167Y-73231203D01*
X168355799Y-73103158D01*
X168568722Y-73014963D01*
X168719418Y-72984988D01*
X168794765Y-72970000D01*
X169025235Y-72970000D01*
X169100582Y-72984988D01*
X169100582Y-72984988D01*
G37*
G36*
X156400582Y-72984988D02*
X156551278Y-73014963D01*
X156764201Y-73103158D01*
X156955833Y-73231203D01*
X157118797Y-73394167D01*
X157246842Y-73585799D01*
X157335037Y-73798722D01*
X157380000Y-74024766D01*
X157380000Y-74255234D01*
X157335037Y-74481278D01*
X157246842Y-74694201D01*
X157118797Y-74885833D01*
X156955833Y-75048797D01*
X156764201Y-75176842D01*
X156551278Y-75265037D01*
X156400582Y-75295012D01*
X156325235Y-75310000D01*
X156094765Y-75310000D01*
X156019418Y-75295012D01*
X155868722Y-75265037D01*
X155655799Y-75176842D01*
X155464167Y-75048797D01*
X155301203Y-74885833D01*
X155173158Y-74694201D01*
X155084963Y-74481278D01*
X155040000Y-74255234D01*
X155040000Y-74024766D01*
X155084963Y-73798722D01*
X155173158Y-73585799D01*
X155301203Y-73394167D01*
X155464167Y-73231203D01*
X155655799Y-73103158D01*
X155868722Y-73014963D01*
X156019418Y-72984988D01*
X156094765Y-72970000D01*
X156325235Y-72970000D01*
X156400582Y-72984988D01*
X156400582Y-72984988D01*
G37*
G36*
X132737374Y-72909025D02*
X132737377Y-72909026D01*
X132737378Y-72909026D01*
X132881015Y-72952598D01*
X132996300Y-73014219D01*
X133013394Y-73023356D01*
X133129422Y-73118578D01*
X133224644Y-73234606D01*
X133224645Y-73234608D01*
X133295402Y-73366985D01*
X133303648Y-73394169D01*
X133338975Y-73510626D01*
X133353687Y-73660000D01*
X133338975Y-73809374D01*
X133338974Y-73809377D01*
X133338974Y-73809378D01*
X133295402Y-73953015D01*
X133295401Y-73953016D01*
X133224644Y-74085394D01*
X133129422Y-74201422D01*
X133013394Y-74296644D01*
X133013392Y-74296645D01*
X132881015Y-74367402D01*
X132737378Y-74410974D01*
X132737377Y-74410974D01*
X132737374Y-74410975D01*
X132625432Y-74422000D01*
X131534568Y-74422000D01*
X131422626Y-74410975D01*
X131422623Y-74410974D01*
X131422622Y-74410974D01*
X131278985Y-74367402D01*
X131146608Y-74296645D01*
X131146606Y-74296644D01*
X131030578Y-74201422D01*
X130935356Y-74085394D01*
X130864599Y-73953016D01*
X130864598Y-73953015D01*
X130821026Y-73809378D01*
X130821026Y-73809377D01*
X130821025Y-73809374D01*
X130806313Y-73660000D01*
X130821025Y-73510626D01*
X130856352Y-73394169D01*
X130864598Y-73366985D01*
X130935355Y-73234608D01*
X130935356Y-73234606D01*
X131030578Y-73118578D01*
X131146606Y-73023356D01*
X131163700Y-73014219D01*
X131278985Y-72952598D01*
X131422622Y-72909026D01*
X131422623Y-72909026D01*
X131422626Y-72909025D01*
X131534568Y-72898000D01*
X132625432Y-72898000D01*
X132737374Y-72909025D01*
X132737374Y-72909025D01*
G37*
G36*
X147977374Y-72909025D02*
X147977377Y-72909026D01*
X147977378Y-72909026D01*
X148121015Y-72952598D01*
X148236300Y-73014219D01*
X148253394Y-73023356D01*
X148369422Y-73118578D01*
X148464644Y-73234606D01*
X148464645Y-73234608D01*
X148535402Y-73366985D01*
X148543648Y-73394169D01*
X148578975Y-73510626D01*
X148593687Y-73660000D01*
X148578975Y-73809374D01*
X148578974Y-73809377D01*
X148578974Y-73809378D01*
X148535402Y-73953015D01*
X148535401Y-73953016D01*
X148464644Y-74085394D01*
X148369422Y-74201422D01*
X148253394Y-74296644D01*
X148253392Y-74296645D01*
X148121015Y-74367402D01*
X147977378Y-74410974D01*
X147977377Y-74410974D01*
X147977374Y-74410975D01*
X147865432Y-74422000D01*
X146774568Y-74422000D01*
X146662626Y-74410975D01*
X146662623Y-74410974D01*
X146662622Y-74410974D01*
X146518985Y-74367402D01*
X146386608Y-74296645D01*
X146386606Y-74296644D01*
X146270578Y-74201422D01*
X146175356Y-74085394D01*
X146104599Y-73953016D01*
X146104598Y-73953015D01*
X146061026Y-73809378D01*
X146061026Y-73809377D01*
X146061025Y-73809374D01*
X146046313Y-73660000D01*
X146061025Y-73510626D01*
X146096352Y-73394169D01*
X146104598Y-73366985D01*
X146175355Y-73234608D01*
X146175356Y-73234606D01*
X146270578Y-73118578D01*
X146386606Y-73023356D01*
X146403700Y-73014219D01*
X146518985Y-72952598D01*
X146662622Y-72909026D01*
X146662623Y-72909026D01*
X146662626Y-72909025D01*
X146774568Y-72898000D01*
X147865432Y-72898000D01*
X147977374Y-72909025D01*
X147977374Y-72909025D01*
G37*
G36*
X163822500Y-73652500D02*
X161297500Y-73652500D01*
X161297500Y-71127500D01*
X163822500Y-71127500D01*
X163822500Y-73652500D01*
X163822500Y-73652500D01*
G37*
G36*
X147977374Y-70369025D02*
X147977377Y-70369026D01*
X147977378Y-70369026D01*
X148121015Y-70412598D01*
X148236300Y-70474219D01*
X148253394Y-70483356D01*
X148369422Y-70578578D01*
X148464644Y-70694606D01*
X148464645Y-70694608D01*
X148535402Y-70826985D01*
X148578974Y-70970622D01*
X148578975Y-70970626D01*
X148593687Y-71120000D01*
X148578975Y-71269374D01*
X148578974Y-71269377D01*
X148578974Y-71269378D01*
X148535402Y-71413015D01*
X148535401Y-71413016D01*
X148464644Y-71545394D01*
X148369422Y-71661422D01*
X148253394Y-71756644D01*
X148253392Y-71756645D01*
X148121015Y-71827402D01*
X147977378Y-71870974D01*
X147977377Y-71870974D01*
X147977374Y-71870975D01*
X147865432Y-71882000D01*
X146774568Y-71882000D01*
X146662626Y-71870975D01*
X146662623Y-71870974D01*
X146662622Y-71870974D01*
X146518985Y-71827402D01*
X146386608Y-71756645D01*
X146386606Y-71756644D01*
X146270578Y-71661422D01*
X146175356Y-71545394D01*
X146104599Y-71413016D01*
X146104598Y-71413015D01*
X146061026Y-71269378D01*
X146061026Y-71269377D01*
X146061025Y-71269374D01*
X146046313Y-71120000D01*
X146061025Y-70970626D01*
X146061026Y-70970622D01*
X146104598Y-70826985D01*
X146175355Y-70694608D01*
X146175356Y-70694606D01*
X146270578Y-70578578D01*
X146386606Y-70483356D01*
X146403700Y-70474219D01*
X146518985Y-70412598D01*
X146662622Y-70369026D01*
X146662623Y-70369026D01*
X146662626Y-70369025D01*
X146774568Y-70358000D01*
X147865432Y-70358000D01*
X147977374Y-70369025D01*
X147977374Y-70369025D01*
G37*
G36*
X132737374Y-70369025D02*
X132737377Y-70369026D01*
X132737378Y-70369026D01*
X132881015Y-70412598D01*
X132996300Y-70474219D01*
X133013394Y-70483356D01*
X133129422Y-70578578D01*
X133224644Y-70694606D01*
X133224645Y-70694608D01*
X133295402Y-70826985D01*
X133338974Y-70970622D01*
X133338975Y-70970626D01*
X133353687Y-71120000D01*
X133338975Y-71269374D01*
X133338974Y-71269377D01*
X133338974Y-71269378D01*
X133295402Y-71413015D01*
X133295401Y-71413016D01*
X133224644Y-71545394D01*
X133129422Y-71661422D01*
X133013394Y-71756644D01*
X133013392Y-71756645D01*
X132881015Y-71827402D01*
X132737378Y-71870974D01*
X132737377Y-71870974D01*
X132737374Y-71870975D01*
X132625432Y-71882000D01*
X131534568Y-71882000D01*
X131422626Y-71870975D01*
X131422623Y-71870974D01*
X131422622Y-71870974D01*
X131278985Y-71827402D01*
X131146608Y-71756645D01*
X131146606Y-71756644D01*
X131030578Y-71661422D01*
X130935356Y-71545394D01*
X130864599Y-71413016D01*
X130864598Y-71413015D01*
X130821026Y-71269378D01*
X130821026Y-71269377D01*
X130821025Y-71269374D01*
X130806313Y-71120000D01*
X130821025Y-70970626D01*
X130821026Y-70970622D01*
X130864598Y-70826985D01*
X130935355Y-70694608D01*
X130935356Y-70694606D01*
X131030578Y-70578578D01*
X131146606Y-70483356D01*
X131163700Y-70474219D01*
X131278985Y-70412598D01*
X131422622Y-70369026D01*
X131422623Y-70369026D01*
X131422626Y-70369025D01*
X131534568Y-70358000D01*
X132625432Y-70358000D01*
X132737374Y-70369025D01*
X132737374Y-70369025D01*
G37*
G36*
X169100582Y-69484988D02*
X169251278Y-69514963D01*
X169464201Y-69603158D01*
X169655833Y-69731203D01*
X169818797Y-69894167D01*
X169946842Y-70085799D01*
X170035037Y-70298722D01*
X170080000Y-70524766D01*
X170080000Y-70755234D01*
X170035037Y-70981278D01*
X169946842Y-71194201D01*
X169818797Y-71385833D01*
X169655833Y-71548797D01*
X169464201Y-71676842D01*
X169251278Y-71765037D01*
X169100582Y-71795012D01*
X169025235Y-71810000D01*
X168794765Y-71810000D01*
X168719418Y-71795012D01*
X168568722Y-71765037D01*
X168355799Y-71676842D01*
X168164167Y-71548797D01*
X168001203Y-71385833D01*
X167873158Y-71194201D01*
X167784963Y-70981278D01*
X167740000Y-70755234D01*
X167740000Y-70524766D01*
X167784963Y-70298722D01*
X167873158Y-70085799D01*
X168001203Y-69894167D01*
X168164167Y-69731203D01*
X168355799Y-69603158D01*
X168568722Y-69514963D01*
X168719418Y-69484988D01*
X168794765Y-69470000D01*
X169025235Y-69470000D01*
X169100582Y-69484988D01*
X169100582Y-69484988D01*
G37*
G36*
X156400582Y-69484988D02*
X156551278Y-69514963D01*
X156764201Y-69603158D01*
X156955833Y-69731203D01*
X157118797Y-69894167D01*
X157246842Y-70085799D01*
X157335037Y-70298722D01*
X157380000Y-70524766D01*
X157380000Y-70755234D01*
X157335037Y-70981278D01*
X157246842Y-71194201D01*
X157118797Y-71385833D01*
X156955833Y-71548797D01*
X156764201Y-71676842D01*
X156551278Y-71765037D01*
X156400582Y-71795012D01*
X156325235Y-71810000D01*
X156094765Y-71810000D01*
X156019418Y-71795012D01*
X155868722Y-71765037D01*
X155655799Y-71676842D01*
X155464167Y-71548797D01*
X155301203Y-71385833D01*
X155173158Y-71194201D01*
X155084963Y-70981278D01*
X155040000Y-70755234D01*
X155040000Y-70524766D01*
X155084963Y-70298722D01*
X155173158Y-70085799D01*
X155301203Y-69894167D01*
X155464167Y-69731203D01*
X155655799Y-69603158D01*
X155868722Y-69514963D01*
X156019418Y-69484988D01*
X156094765Y-69470000D01*
X156325235Y-69470000D01*
X156400582Y-69484988D01*
X156400582Y-69484988D01*
G37*
G36*
X132737374Y-67829025D02*
X132737377Y-67829026D01*
X132737378Y-67829026D01*
X132881015Y-67872598D01*
X132996300Y-67934219D01*
X133013394Y-67943356D01*
X133129422Y-68038578D01*
X133224644Y-68154606D01*
X133224645Y-68154608D01*
X133295402Y-68286985D01*
X133338974Y-68430622D01*
X133338975Y-68430626D01*
X133353687Y-68580000D01*
X133338975Y-68729374D01*
X133338974Y-68729377D01*
X133338974Y-68729378D01*
X133295402Y-68873015D01*
X133295401Y-68873016D01*
X133224644Y-69005394D01*
X133129422Y-69121422D01*
X133013394Y-69216644D01*
X133013392Y-69216645D01*
X132881015Y-69287402D01*
X132737378Y-69330974D01*
X132737377Y-69330974D01*
X132737374Y-69330975D01*
X132625432Y-69342000D01*
X131534568Y-69342000D01*
X131422626Y-69330975D01*
X131422623Y-69330974D01*
X131422622Y-69330974D01*
X131278985Y-69287402D01*
X131146608Y-69216645D01*
X131146606Y-69216644D01*
X131030578Y-69121422D01*
X130935356Y-69005394D01*
X130864599Y-68873016D01*
X130864598Y-68873015D01*
X130821026Y-68729378D01*
X130821026Y-68729377D01*
X130821025Y-68729374D01*
X130806313Y-68580000D01*
X130821025Y-68430626D01*
X130821026Y-68430622D01*
X130864598Y-68286985D01*
X130935355Y-68154608D01*
X130935356Y-68154606D01*
X131030578Y-68038578D01*
X131146606Y-67943356D01*
X131163700Y-67934219D01*
X131278985Y-67872598D01*
X131422622Y-67829026D01*
X131422623Y-67829026D01*
X131422626Y-67829025D01*
X131534568Y-67818000D01*
X132625432Y-67818000D01*
X132737374Y-67829025D01*
X132737374Y-67829025D01*
G37*
G36*
X147977374Y-67829025D02*
X147977377Y-67829026D01*
X147977378Y-67829026D01*
X148121015Y-67872598D01*
X148236300Y-67934219D01*
X148253394Y-67943356D01*
X148369422Y-68038578D01*
X148464644Y-68154606D01*
X148464645Y-68154608D01*
X148535402Y-68286985D01*
X148578974Y-68430622D01*
X148578975Y-68430626D01*
X148593687Y-68580000D01*
X148578975Y-68729374D01*
X148578974Y-68729377D01*
X148578974Y-68729378D01*
X148535402Y-68873015D01*
X148535401Y-68873016D01*
X148464644Y-69005394D01*
X148369422Y-69121422D01*
X148253394Y-69216644D01*
X148253392Y-69216645D01*
X148121015Y-69287402D01*
X147977378Y-69330974D01*
X147977377Y-69330974D01*
X147977374Y-69330975D01*
X147865432Y-69342000D01*
X146774568Y-69342000D01*
X146662626Y-69330975D01*
X146662623Y-69330974D01*
X146662622Y-69330974D01*
X146518985Y-69287402D01*
X146386608Y-69216645D01*
X146386606Y-69216644D01*
X146270578Y-69121422D01*
X146175356Y-69005394D01*
X146104599Y-68873016D01*
X146104598Y-68873015D01*
X146061026Y-68729378D01*
X146061026Y-68729377D01*
X146061025Y-68729374D01*
X146046313Y-68580000D01*
X146061025Y-68430626D01*
X146061026Y-68430622D01*
X146104598Y-68286985D01*
X146175355Y-68154608D01*
X146175356Y-68154606D01*
X146270578Y-68038578D01*
X146386606Y-67943356D01*
X146403700Y-67934219D01*
X146518985Y-67872598D01*
X146662622Y-67829026D01*
X146662623Y-67829026D01*
X146662626Y-67829025D01*
X146774568Y-67818000D01*
X147865432Y-67818000D01*
X147977374Y-67829025D01*
X147977374Y-67829025D01*
G37*
G36*
X156400582Y-65984988D02*
X156551278Y-66014963D01*
X156764201Y-66103158D01*
X156955833Y-66231203D01*
X157118797Y-66394167D01*
X157246842Y-66585799D01*
X157335037Y-66798722D01*
X157380000Y-67024766D01*
X157380000Y-67255234D01*
X157335037Y-67481278D01*
X157246842Y-67694201D01*
X157118797Y-67885833D01*
X156955833Y-68048797D01*
X156764201Y-68176842D01*
X156551278Y-68265037D01*
X156440943Y-68286984D01*
X156325235Y-68310000D01*
X156094765Y-68310000D01*
X155979057Y-68286984D01*
X155868722Y-68265037D01*
X155655799Y-68176842D01*
X155464167Y-68048797D01*
X155301203Y-67885833D01*
X155173158Y-67694201D01*
X155084963Y-67481278D01*
X155040000Y-67255234D01*
X155040000Y-67024766D01*
X155084963Y-66798722D01*
X155173158Y-66585799D01*
X155301203Y-66394167D01*
X155464167Y-66231203D01*
X155655799Y-66103158D01*
X155868722Y-66014963D01*
X156019418Y-65984988D01*
X156094765Y-65970000D01*
X156325235Y-65970000D01*
X156400582Y-65984988D01*
X156400582Y-65984988D01*
G37*
G36*
X169100582Y-65984988D02*
X169251278Y-66014963D01*
X169464201Y-66103158D01*
X169655833Y-66231203D01*
X169818797Y-66394167D01*
X169946842Y-66585799D01*
X170035037Y-66798722D01*
X170080000Y-67024766D01*
X170080000Y-67255234D01*
X170035037Y-67481278D01*
X169946842Y-67694201D01*
X169818797Y-67885833D01*
X169655833Y-68048797D01*
X169464201Y-68176842D01*
X169251278Y-68265037D01*
X169140943Y-68286984D01*
X169025235Y-68310000D01*
X168794765Y-68310000D01*
X168679057Y-68286984D01*
X168568722Y-68265037D01*
X168355799Y-68176842D01*
X168164167Y-68048797D01*
X168001203Y-67885833D01*
X167873158Y-67694201D01*
X167784963Y-67481278D01*
X167740000Y-67255234D01*
X167740000Y-67024766D01*
X167784963Y-66798722D01*
X167873158Y-66585799D01*
X168001203Y-66394167D01*
X168164167Y-66231203D01*
X168355799Y-66103158D01*
X168568722Y-66014963D01*
X168719418Y-65984988D01*
X168794765Y-65970000D01*
X169025235Y-65970000D01*
X169100582Y-65984988D01*
X169100582Y-65984988D01*
G37*
G36*
X132737374Y-65289025D02*
X132737377Y-65289026D01*
X132737378Y-65289026D01*
X132881015Y-65332598D01*
X132996300Y-65394219D01*
X133013394Y-65403356D01*
X133129422Y-65498578D01*
X133224644Y-65614606D01*
X133224645Y-65614608D01*
X133295402Y-65746985D01*
X133338974Y-65890622D01*
X133338975Y-65890626D01*
X133353687Y-66040000D01*
X133338975Y-66189374D01*
X133338974Y-66189377D01*
X133338974Y-66189378D01*
X133295402Y-66333015D01*
X133262714Y-66394169D01*
X133224644Y-66465394D01*
X133129422Y-66581422D01*
X133013394Y-66676644D01*
X133013392Y-66676645D01*
X132881015Y-66747402D01*
X132737378Y-66790974D01*
X132737377Y-66790974D01*
X132737374Y-66790975D01*
X132625432Y-66802000D01*
X131534568Y-66802000D01*
X131422626Y-66790975D01*
X131422623Y-66790974D01*
X131422622Y-66790974D01*
X131278985Y-66747402D01*
X131146608Y-66676645D01*
X131146606Y-66676644D01*
X131030578Y-66581422D01*
X130935356Y-66465394D01*
X130897286Y-66394169D01*
X130864598Y-66333015D01*
X130821026Y-66189378D01*
X130821026Y-66189377D01*
X130821025Y-66189374D01*
X130806313Y-66040000D01*
X130821025Y-65890626D01*
X130821026Y-65890622D01*
X130864598Y-65746985D01*
X130935355Y-65614608D01*
X130935356Y-65614606D01*
X131030578Y-65498578D01*
X131146606Y-65403356D01*
X131163700Y-65394219D01*
X131278985Y-65332598D01*
X131422622Y-65289026D01*
X131422623Y-65289026D01*
X131422626Y-65289025D01*
X131534568Y-65278000D01*
X132625432Y-65278000D01*
X132737374Y-65289025D01*
X132737374Y-65289025D01*
G37*
G36*
X147977374Y-65289025D02*
X147977377Y-65289026D01*
X147977378Y-65289026D01*
X148121015Y-65332598D01*
X148236300Y-65394219D01*
X148253394Y-65403356D01*
X148369422Y-65498578D01*
X148464644Y-65614606D01*
X148464645Y-65614608D01*
X148535402Y-65746985D01*
X148578974Y-65890622D01*
X148578975Y-65890626D01*
X148593687Y-66040000D01*
X148578975Y-66189374D01*
X148578974Y-66189377D01*
X148578974Y-66189378D01*
X148535402Y-66333015D01*
X148502714Y-66394169D01*
X148464644Y-66465394D01*
X148369422Y-66581422D01*
X148253394Y-66676644D01*
X148253392Y-66676645D01*
X148121015Y-66747402D01*
X147977378Y-66790974D01*
X147977377Y-66790974D01*
X147977374Y-66790975D01*
X147865432Y-66802000D01*
X146774568Y-66802000D01*
X146662626Y-66790975D01*
X146662623Y-66790974D01*
X146662622Y-66790974D01*
X146518985Y-66747402D01*
X146386608Y-66676645D01*
X146386606Y-66676644D01*
X146270578Y-66581422D01*
X146175356Y-66465394D01*
X146137286Y-66394169D01*
X146104598Y-66333015D01*
X146061026Y-66189378D01*
X146061026Y-66189377D01*
X146061025Y-66189374D01*
X146046313Y-66040000D01*
X146061025Y-65890626D01*
X146061026Y-65890622D01*
X146104598Y-65746985D01*
X146175355Y-65614608D01*
X146175356Y-65614606D01*
X146270578Y-65498578D01*
X146386606Y-65403356D01*
X146403700Y-65394219D01*
X146518985Y-65332598D01*
X146662622Y-65289026D01*
X146662623Y-65289026D01*
X146662626Y-65289025D01*
X146774568Y-65278000D01*
X147865432Y-65278000D01*
X147977374Y-65289025D01*
X147977374Y-65289025D01*
G37*
M02*
