G04 #@! TF.GenerationSoftware,KiCad,Pcbnew,6.0.0-rc1-unknown-d4e4359~66~ubuntu18.04.1*
G04 #@! TF.CreationDate,2018-09-19T14:01:08-04:00*
G04 #@! TF.ProjectId,ethoscope_stepper_controller_3x3,6574686F73636F70655F737465707065,1.1*
G04 #@! TF.SameCoordinates,Original*
G04 #@! TF.FileFunction,Legend,Bot*
G04 #@! TF.FilePolarity,Positive*
%FSLAX46Y46*%
G04 Gerber Fmt 4.6, Leading zero omitted, Abs format (unit mm)*
G04 Created by KiCad (PCBNEW 6.0.0-rc1-unknown-d4e4359~66~ubuntu18.04.1) date Wed Sep 19 14:01:08 2018*
%MOMM*%
%LPD*%
G01*
G04 APERTURE LIST*
%ADD10C,0.228600*%
%ADD11C,0.381000*%
%ADD12C,0.250000*%
%ADD13C,0.254000*%
%ADD14C,0.508000*%
%ADD15C,2.340000*%
%ADD16R,2.525000X2.525000*%
%ADD17R,3.475000X3.475000*%
%ADD18C,1.900000*%
%ADD19C,4.500000*%
%ADD20O,2.540000X1.524000*%
%ADD21R,2.540000X1.524000*%
%ADD22C,3.556000*%
%ADD23O,1.524000X2.032000*%
G04 APERTURE END LIST*
D10*
X189865000Y-132715000D02*
X189865000Y-70485000D01*
X121285000Y-139065000D02*
X183515000Y-139065000D01*
X114935000Y-70485000D02*
X114935000Y-132715000D01*
X121285000Y-64135000D02*
X183515000Y-64135000D01*
X189865000Y-132715000D02*
G75*
G02X183515000Y-139065000I-6350000J0D01*
G01*
X121285000Y-139065000D02*
G75*
G02X114935000Y-132715000I0J6350000D01*
G01*
X183515000Y-64135000D02*
G75*
G02X189865000Y-70485000I0J-6350000D01*
G01*
X114935000Y-70485000D02*
G75*
G02X121285000Y-64135000I6350000J0D01*
G01*
D11*
G04 #@! TO.C,T1*
X158710000Y-79140000D02*
X158710000Y-78390000D01*
X158710000Y-78390000D02*
X159210000Y-78390000D01*
X159210000Y-78390000D02*
X159210000Y-79140000D01*
X159210000Y-79140000D02*
X159960000Y-79140000D01*
X158710000Y-76140000D02*
X158710000Y-76890000D01*
X158710000Y-76890000D02*
X159210000Y-76890000D01*
X159210000Y-76890000D02*
X159210000Y-76140000D01*
X159210000Y-76140000D02*
X159960000Y-76140000D01*
X158710000Y-75640000D02*
X158710000Y-74890000D01*
X158710000Y-74890000D02*
X159210000Y-74890000D01*
X159210000Y-74890000D02*
X159210000Y-75640000D01*
X159210000Y-75640000D02*
X159960000Y-75640000D01*
X158710000Y-72640000D02*
X158710000Y-73390000D01*
X158710000Y-73390000D02*
X159210000Y-73390000D01*
X159210000Y-73390000D02*
X159210000Y-72640000D01*
X159210000Y-72640000D02*
X159960000Y-72640000D01*
X158710000Y-72140000D02*
X158710000Y-71390000D01*
X158710000Y-71390000D02*
X159210000Y-71390000D01*
X159210000Y-71390000D02*
X159210000Y-72140000D01*
X159210000Y-72140000D02*
X159960000Y-72140000D01*
X158710000Y-69140000D02*
X158710000Y-69890000D01*
X158710000Y-69890000D02*
X159210000Y-69890000D01*
X159210000Y-69890000D02*
X159210000Y-69140000D01*
X159210000Y-69140000D02*
X159960000Y-69140000D01*
X158710000Y-67890000D02*
X159210000Y-67890000D01*
X159210000Y-67890000D02*
X159210000Y-68640000D01*
X159210000Y-68640000D02*
X159960000Y-68640000D01*
X158710000Y-66390000D02*
X159210000Y-66390000D01*
X159210000Y-66390000D02*
X159210000Y-65640000D01*
X159210000Y-65640000D02*
X159960000Y-65640000D01*
X158710000Y-68640000D02*
X158710000Y-67890000D01*
X158710000Y-65640000D02*
X158710000Y-66390000D01*
X159960000Y-76140000D02*
X159960000Y-79140000D01*
X159960000Y-72640000D02*
X159960000Y-75640000D01*
X159960000Y-69140000D02*
X159960000Y-72140000D01*
X159960000Y-65640000D02*
X159960000Y-68640000D01*
X153710000Y-65640000D02*
G75*
G02X153710000Y-68640000I-1500000J-1500000D01*
G01*
X153710000Y-69140000D02*
G75*
G02X153710000Y-72140000I-1500000J-1500000D01*
G01*
X153710000Y-72640000D02*
G75*
G02X153710000Y-75640000I-1500000J-1500000D01*
G01*
X153710000Y-76140000D02*
G75*
G02X153710000Y-79140000I-1500000J-1500000D01*
G01*
X153710000Y-65640000D02*
X158710000Y-65640000D01*
X153710000Y-79140000D02*
X158710000Y-79140000D01*
X153710000Y-68640000D02*
X158710000Y-68640000D01*
X153710000Y-69140000D02*
X158710000Y-69140000D01*
X153710000Y-75640000D02*
X158710000Y-75640000D01*
X153710000Y-76140000D02*
X158710000Y-76140000D01*
X153710000Y-72140000D02*
X158710000Y-72140000D01*
X153710000Y-72640000D02*
X158710000Y-72640000D01*
X153210000Y-64690000D02*
X160460000Y-64690000D01*
X160460000Y-80090000D02*
X160460000Y-64690000D01*
X153210000Y-80090000D02*
X160460000Y-80090000D01*
X153210000Y-80090000D02*
X153210000Y-64690000D01*
G04 #@! TO.C,T2*
X171410000Y-79140000D02*
X171410000Y-78390000D01*
X171410000Y-78390000D02*
X171910000Y-78390000D01*
X171910000Y-78390000D02*
X171910000Y-79140000D01*
X171910000Y-79140000D02*
X172660000Y-79140000D01*
X171410000Y-76140000D02*
X171410000Y-76890000D01*
X171410000Y-76890000D02*
X171910000Y-76890000D01*
X171910000Y-76890000D02*
X171910000Y-76140000D01*
X171910000Y-76140000D02*
X172660000Y-76140000D01*
X171410000Y-75640000D02*
X171410000Y-74890000D01*
X171410000Y-74890000D02*
X171910000Y-74890000D01*
X171910000Y-74890000D02*
X171910000Y-75640000D01*
X171910000Y-75640000D02*
X172660000Y-75640000D01*
X171410000Y-72640000D02*
X171410000Y-73390000D01*
X171410000Y-73390000D02*
X171910000Y-73390000D01*
X171910000Y-73390000D02*
X171910000Y-72640000D01*
X171910000Y-72640000D02*
X172660000Y-72640000D01*
X171410000Y-72140000D02*
X171410000Y-71390000D01*
X171410000Y-71390000D02*
X171910000Y-71390000D01*
X171910000Y-71390000D02*
X171910000Y-72140000D01*
X171910000Y-72140000D02*
X172660000Y-72140000D01*
X171410000Y-69140000D02*
X171410000Y-69890000D01*
X171410000Y-69890000D02*
X171910000Y-69890000D01*
X171910000Y-69890000D02*
X171910000Y-69140000D01*
X171910000Y-69140000D02*
X172660000Y-69140000D01*
X171410000Y-67890000D02*
X171910000Y-67890000D01*
X171910000Y-67890000D02*
X171910000Y-68640000D01*
X171910000Y-68640000D02*
X172660000Y-68640000D01*
X171410000Y-66390000D02*
X171910000Y-66390000D01*
X171910000Y-66390000D02*
X171910000Y-65640000D01*
X171910000Y-65640000D02*
X172660000Y-65640000D01*
X171410000Y-68640000D02*
X171410000Y-67890000D01*
X171410000Y-65640000D02*
X171410000Y-66390000D01*
X172660000Y-76140000D02*
X172660000Y-79140000D01*
X172660000Y-72640000D02*
X172660000Y-75640000D01*
X172660000Y-69140000D02*
X172660000Y-72140000D01*
X172660000Y-65640000D02*
X172660000Y-68640000D01*
X166410000Y-65640000D02*
G75*
G02X166410000Y-68640000I-1500000J-1500000D01*
G01*
X166410000Y-69140000D02*
G75*
G02X166410000Y-72140000I-1500000J-1500000D01*
G01*
X166410000Y-72640000D02*
G75*
G02X166410000Y-75640000I-1500000J-1500000D01*
G01*
X166410000Y-76140000D02*
G75*
G02X166410000Y-79140000I-1500000J-1500000D01*
G01*
X166410000Y-65640000D02*
X171410000Y-65640000D01*
X166410000Y-79140000D02*
X171410000Y-79140000D01*
X166410000Y-68640000D02*
X171410000Y-68640000D01*
X166410000Y-69140000D02*
X171410000Y-69140000D01*
X166410000Y-75640000D02*
X171410000Y-75640000D01*
X166410000Y-76140000D02*
X171410000Y-76140000D01*
X166410000Y-72140000D02*
X171410000Y-72140000D01*
X166410000Y-72640000D02*
X171410000Y-72640000D01*
X165910000Y-64690000D02*
X173160000Y-64690000D01*
X173160000Y-80090000D02*
X173160000Y-64690000D01*
X165910000Y-80090000D02*
X173160000Y-80090000D01*
X165910000Y-80090000D02*
X165910000Y-64690000D01*
G04 #@! TO.C,T3*
X158710000Y-95650000D02*
X158710000Y-94900000D01*
X158710000Y-94900000D02*
X159210000Y-94900000D01*
X159210000Y-94900000D02*
X159210000Y-95650000D01*
X159210000Y-95650000D02*
X159960000Y-95650000D01*
X158710000Y-92650000D02*
X158710000Y-93400000D01*
X158710000Y-93400000D02*
X159210000Y-93400000D01*
X159210000Y-93400000D02*
X159210000Y-92650000D01*
X159210000Y-92650000D02*
X159960000Y-92650000D01*
X158710000Y-92150000D02*
X158710000Y-91400000D01*
X158710000Y-91400000D02*
X159210000Y-91400000D01*
X159210000Y-91400000D02*
X159210000Y-92150000D01*
X159210000Y-92150000D02*
X159960000Y-92150000D01*
X158710000Y-89150000D02*
X158710000Y-89900000D01*
X158710000Y-89900000D02*
X159210000Y-89900000D01*
X159210000Y-89900000D02*
X159210000Y-89150000D01*
X159210000Y-89150000D02*
X159960000Y-89150000D01*
X158710000Y-88650000D02*
X158710000Y-87900000D01*
X158710000Y-87900000D02*
X159210000Y-87900000D01*
X159210000Y-87900000D02*
X159210000Y-88650000D01*
X159210000Y-88650000D02*
X159960000Y-88650000D01*
X158710000Y-85650000D02*
X158710000Y-86400000D01*
X158710000Y-86400000D02*
X159210000Y-86400000D01*
X159210000Y-86400000D02*
X159210000Y-85650000D01*
X159210000Y-85650000D02*
X159960000Y-85650000D01*
X158710000Y-84400000D02*
X159210000Y-84400000D01*
X159210000Y-84400000D02*
X159210000Y-85150000D01*
X159210000Y-85150000D02*
X159960000Y-85150000D01*
X158710000Y-82900000D02*
X159210000Y-82900000D01*
X159210000Y-82900000D02*
X159210000Y-82150000D01*
X159210000Y-82150000D02*
X159960000Y-82150000D01*
X158710000Y-85150000D02*
X158710000Y-84400000D01*
X158710000Y-82150000D02*
X158710000Y-82900000D01*
X159960000Y-92650000D02*
X159960000Y-95650000D01*
X159960000Y-89150000D02*
X159960000Y-92150000D01*
X159960000Y-85650000D02*
X159960000Y-88650000D01*
X159960000Y-82150000D02*
X159960000Y-85150000D01*
X153710000Y-82150000D02*
G75*
G02X153710000Y-85150000I-1500000J-1500000D01*
G01*
X153710000Y-85650000D02*
G75*
G02X153710000Y-88650000I-1500000J-1500000D01*
G01*
X153710000Y-89150000D02*
G75*
G02X153710000Y-92150000I-1500000J-1500000D01*
G01*
X153710000Y-92650000D02*
G75*
G02X153710000Y-95650000I-1500000J-1500000D01*
G01*
X153710000Y-82150000D02*
X158710000Y-82150000D01*
X153710000Y-95650000D02*
X158710000Y-95650000D01*
X153710000Y-85150000D02*
X158710000Y-85150000D01*
X153710000Y-85650000D02*
X158710000Y-85650000D01*
X153710000Y-92150000D02*
X158710000Y-92150000D01*
X153710000Y-92650000D02*
X158710000Y-92650000D01*
X153710000Y-88650000D02*
X158710000Y-88650000D01*
X153710000Y-89150000D02*
X158710000Y-89150000D01*
X153210000Y-81200000D02*
X160460000Y-81200000D01*
X160460000Y-96600000D02*
X160460000Y-81200000D01*
X153210000Y-96600000D02*
X160460000Y-96600000D01*
X153210000Y-96600000D02*
X153210000Y-81200000D01*
G04 #@! TO.C,T4*
X171410000Y-95650000D02*
X171410000Y-94900000D01*
X171410000Y-94900000D02*
X171910000Y-94900000D01*
X171910000Y-94900000D02*
X171910000Y-95650000D01*
X171910000Y-95650000D02*
X172660000Y-95650000D01*
X171410000Y-92650000D02*
X171410000Y-93400000D01*
X171410000Y-93400000D02*
X171910000Y-93400000D01*
X171910000Y-93400000D02*
X171910000Y-92650000D01*
X171910000Y-92650000D02*
X172660000Y-92650000D01*
X171410000Y-92150000D02*
X171410000Y-91400000D01*
X171410000Y-91400000D02*
X171910000Y-91400000D01*
X171910000Y-91400000D02*
X171910000Y-92150000D01*
X171910000Y-92150000D02*
X172660000Y-92150000D01*
X171410000Y-89150000D02*
X171410000Y-89900000D01*
X171410000Y-89900000D02*
X171910000Y-89900000D01*
X171910000Y-89900000D02*
X171910000Y-89150000D01*
X171910000Y-89150000D02*
X172660000Y-89150000D01*
X171410000Y-88650000D02*
X171410000Y-87900000D01*
X171410000Y-87900000D02*
X171910000Y-87900000D01*
X171910000Y-87900000D02*
X171910000Y-88650000D01*
X171910000Y-88650000D02*
X172660000Y-88650000D01*
X171410000Y-85650000D02*
X171410000Y-86400000D01*
X171410000Y-86400000D02*
X171910000Y-86400000D01*
X171910000Y-86400000D02*
X171910000Y-85650000D01*
X171910000Y-85650000D02*
X172660000Y-85650000D01*
X171410000Y-84400000D02*
X171910000Y-84400000D01*
X171910000Y-84400000D02*
X171910000Y-85150000D01*
X171910000Y-85150000D02*
X172660000Y-85150000D01*
X171410000Y-82900000D02*
X171910000Y-82900000D01*
X171910000Y-82900000D02*
X171910000Y-82150000D01*
X171910000Y-82150000D02*
X172660000Y-82150000D01*
X171410000Y-85150000D02*
X171410000Y-84400000D01*
X171410000Y-82150000D02*
X171410000Y-82900000D01*
X172660000Y-92650000D02*
X172660000Y-95650000D01*
X172660000Y-89150000D02*
X172660000Y-92150000D01*
X172660000Y-85650000D02*
X172660000Y-88650000D01*
X172660000Y-82150000D02*
X172660000Y-85150000D01*
X166410000Y-82150000D02*
G75*
G02X166410000Y-85150000I-1500000J-1500000D01*
G01*
X166410000Y-85650000D02*
G75*
G02X166410000Y-88650000I-1500000J-1500000D01*
G01*
X166410000Y-89150000D02*
G75*
G02X166410000Y-92150000I-1500000J-1500000D01*
G01*
X166410000Y-92650000D02*
G75*
G02X166410000Y-95650000I-1500000J-1500000D01*
G01*
X166410000Y-82150000D02*
X171410000Y-82150000D01*
X166410000Y-95650000D02*
X171410000Y-95650000D01*
X166410000Y-85150000D02*
X171410000Y-85150000D01*
X166410000Y-85650000D02*
X171410000Y-85650000D01*
X166410000Y-92150000D02*
X171410000Y-92150000D01*
X166410000Y-92650000D02*
X171410000Y-92650000D01*
X166410000Y-88650000D02*
X171410000Y-88650000D01*
X166410000Y-89150000D02*
X171410000Y-89150000D01*
X165910000Y-81200000D02*
X173160000Y-81200000D01*
X173160000Y-96600000D02*
X173160000Y-81200000D01*
X165910000Y-96600000D02*
X173160000Y-96600000D01*
X165910000Y-96600000D02*
X165910000Y-81200000D01*
G04 #@! TO.C,T5*
X158710000Y-112160000D02*
X158710000Y-111410000D01*
X158710000Y-111410000D02*
X159210000Y-111410000D01*
X159210000Y-111410000D02*
X159210000Y-112160000D01*
X159210000Y-112160000D02*
X159960000Y-112160000D01*
X158710000Y-109160000D02*
X158710000Y-109910000D01*
X158710000Y-109910000D02*
X159210000Y-109910000D01*
X159210000Y-109910000D02*
X159210000Y-109160000D01*
X159210000Y-109160000D02*
X159960000Y-109160000D01*
X158710000Y-108660000D02*
X158710000Y-107910000D01*
X158710000Y-107910000D02*
X159210000Y-107910000D01*
X159210000Y-107910000D02*
X159210000Y-108660000D01*
X159210000Y-108660000D02*
X159960000Y-108660000D01*
X158710000Y-105660000D02*
X158710000Y-106410000D01*
X158710000Y-106410000D02*
X159210000Y-106410000D01*
X159210000Y-106410000D02*
X159210000Y-105660000D01*
X159210000Y-105660000D02*
X159960000Y-105660000D01*
X158710000Y-105160000D02*
X158710000Y-104410000D01*
X158710000Y-104410000D02*
X159210000Y-104410000D01*
X159210000Y-104410000D02*
X159210000Y-105160000D01*
X159210000Y-105160000D02*
X159960000Y-105160000D01*
X158710000Y-102160000D02*
X158710000Y-102910000D01*
X158710000Y-102910000D02*
X159210000Y-102910000D01*
X159210000Y-102910000D02*
X159210000Y-102160000D01*
X159210000Y-102160000D02*
X159960000Y-102160000D01*
X158710000Y-100910000D02*
X159210000Y-100910000D01*
X159210000Y-100910000D02*
X159210000Y-101660000D01*
X159210000Y-101660000D02*
X159960000Y-101660000D01*
X158710000Y-99410000D02*
X159210000Y-99410000D01*
X159210000Y-99410000D02*
X159210000Y-98660000D01*
X159210000Y-98660000D02*
X159960000Y-98660000D01*
X158710000Y-101660000D02*
X158710000Y-100910000D01*
X158710000Y-98660000D02*
X158710000Y-99410000D01*
X159960000Y-109160000D02*
X159960000Y-112160000D01*
X159960000Y-105660000D02*
X159960000Y-108660000D01*
X159960000Y-102160000D02*
X159960000Y-105160000D01*
X159960000Y-98660000D02*
X159960000Y-101660000D01*
X153710000Y-98660000D02*
G75*
G02X153710000Y-101660000I-1500000J-1500000D01*
G01*
X153710000Y-102160000D02*
G75*
G02X153710000Y-105160000I-1500000J-1500000D01*
G01*
X153710000Y-105660000D02*
G75*
G02X153710000Y-108660000I-1500000J-1500000D01*
G01*
X153710000Y-109160000D02*
G75*
G02X153710000Y-112160000I-1500000J-1500000D01*
G01*
X153710000Y-98660000D02*
X158710000Y-98660000D01*
X153710000Y-112160000D02*
X158710000Y-112160000D01*
X153710000Y-101660000D02*
X158710000Y-101660000D01*
X153710000Y-102160000D02*
X158710000Y-102160000D01*
X153710000Y-108660000D02*
X158710000Y-108660000D01*
X153710000Y-109160000D02*
X158710000Y-109160000D01*
X153710000Y-105160000D02*
X158710000Y-105160000D01*
X153710000Y-105660000D02*
X158710000Y-105660000D01*
X153210000Y-97710000D02*
X160460000Y-97710000D01*
X160460000Y-113110000D02*
X160460000Y-97710000D01*
X153210000Y-113110000D02*
X160460000Y-113110000D01*
X153210000Y-113110000D02*
X153210000Y-97710000D01*
G04 #@! TO.C,T6*
X171410000Y-112160000D02*
X171410000Y-111410000D01*
X171410000Y-111410000D02*
X171910000Y-111410000D01*
X171910000Y-111410000D02*
X171910000Y-112160000D01*
X171910000Y-112160000D02*
X172660000Y-112160000D01*
X171410000Y-109160000D02*
X171410000Y-109910000D01*
X171410000Y-109910000D02*
X171910000Y-109910000D01*
X171910000Y-109910000D02*
X171910000Y-109160000D01*
X171910000Y-109160000D02*
X172660000Y-109160000D01*
X171410000Y-108660000D02*
X171410000Y-107910000D01*
X171410000Y-107910000D02*
X171910000Y-107910000D01*
X171910000Y-107910000D02*
X171910000Y-108660000D01*
X171910000Y-108660000D02*
X172660000Y-108660000D01*
X171410000Y-105660000D02*
X171410000Y-106410000D01*
X171410000Y-106410000D02*
X171910000Y-106410000D01*
X171910000Y-106410000D02*
X171910000Y-105660000D01*
X171910000Y-105660000D02*
X172660000Y-105660000D01*
X171410000Y-105160000D02*
X171410000Y-104410000D01*
X171410000Y-104410000D02*
X171910000Y-104410000D01*
X171910000Y-104410000D02*
X171910000Y-105160000D01*
X171910000Y-105160000D02*
X172660000Y-105160000D01*
X171410000Y-102160000D02*
X171410000Y-102910000D01*
X171410000Y-102910000D02*
X171910000Y-102910000D01*
X171910000Y-102910000D02*
X171910000Y-102160000D01*
X171910000Y-102160000D02*
X172660000Y-102160000D01*
X171410000Y-100910000D02*
X171910000Y-100910000D01*
X171910000Y-100910000D02*
X171910000Y-101660000D01*
X171910000Y-101660000D02*
X172660000Y-101660000D01*
X171410000Y-99410000D02*
X171910000Y-99410000D01*
X171910000Y-99410000D02*
X171910000Y-98660000D01*
X171910000Y-98660000D02*
X172660000Y-98660000D01*
X171410000Y-101660000D02*
X171410000Y-100910000D01*
X171410000Y-98660000D02*
X171410000Y-99410000D01*
X172660000Y-109160000D02*
X172660000Y-112160000D01*
X172660000Y-105660000D02*
X172660000Y-108660000D01*
X172660000Y-102160000D02*
X172660000Y-105160000D01*
X172660000Y-98660000D02*
X172660000Y-101660000D01*
X166410000Y-98660000D02*
G75*
G02X166410000Y-101660000I-1500000J-1500000D01*
G01*
X166410000Y-102160000D02*
G75*
G02X166410000Y-105160000I-1500000J-1500000D01*
G01*
X166410000Y-105660000D02*
G75*
G02X166410000Y-108660000I-1500000J-1500000D01*
G01*
X166410000Y-109160000D02*
G75*
G02X166410000Y-112160000I-1500000J-1500000D01*
G01*
X166410000Y-98660000D02*
X171410000Y-98660000D01*
X166410000Y-112160000D02*
X171410000Y-112160000D01*
X166410000Y-101660000D02*
X171410000Y-101660000D01*
X166410000Y-102160000D02*
X171410000Y-102160000D01*
X166410000Y-108660000D02*
X171410000Y-108660000D01*
X166410000Y-109160000D02*
X171410000Y-109160000D01*
X166410000Y-105160000D02*
X171410000Y-105160000D01*
X166410000Y-105660000D02*
X171410000Y-105660000D01*
X165910000Y-97710000D02*
X173160000Y-97710000D01*
X173160000Y-113110000D02*
X173160000Y-97710000D01*
X165910000Y-113110000D02*
X173160000Y-113110000D01*
X165910000Y-113110000D02*
X165910000Y-97710000D01*
G04 #@! TO.C,T7*
X158710000Y-128670000D02*
X158710000Y-127920000D01*
X158710000Y-127920000D02*
X159210000Y-127920000D01*
X159210000Y-127920000D02*
X159210000Y-128670000D01*
X159210000Y-128670000D02*
X159960000Y-128670000D01*
X158710000Y-125670000D02*
X158710000Y-126420000D01*
X158710000Y-126420000D02*
X159210000Y-126420000D01*
X159210000Y-126420000D02*
X159210000Y-125670000D01*
X159210000Y-125670000D02*
X159960000Y-125670000D01*
X158710000Y-125170000D02*
X158710000Y-124420000D01*
X158710000Y-124420000D02*
X159210000Y-124420000D01*
X159210000Y-124420000D02*
X159210000Y-125170000D01*
X159210000Y-125170000D02*
X159960000Y-125170000D01*
X158710000Y-122170000D02*
X158710000Y-122920000D01*
X158710000Y-122920000D02*
X159210000Y-122920000D01*
X159210000Y-122920000D02*
X159210000Y-122170000D01*
X159210000Y-122170000D02*
X159960000Y-122170000D01*
X158710000Y-121670000D02*
X158710000Y-120920000D01*
X158710000Y-120920000D02*
X159210000Y-120920000D01*
X159210000Y-120920000D02*
X159210000Y-121670000D01*
X159210000Y-121670000D02*
X159960000Y-121670000D01*
X158710000Y-118670000D02*
X158710000Y-119420000D01*
X158710000Y-119420000D02*
X159210000Y-119420000D01*
X159210000Y-119420000D02*
X159210000Y-118670000D01*
X159210000Y-118670000D02*
X159960000Y-118670000D01*
X158710000Y-117420000D02*
X159210000Y-117420000D01*
X159210000Y-117420000D02*
X159210000Y-118170000D01*
X159210000Y-118170000D02*
X159960000Y-118170000D01*
X158710000Y-115920000D02*
X159210000Y-115920000D01*
X159210000Y-115920000D02*
X159210000Y-115170000D01*
X159210000Y-115170000D02*
X159960000Y-115170000D01*
X158710000Y-118170000D02*
X158710000Y-117420000D01*
X158710000Y-115170000D02*
X158710000Y-115920000D01*
X159960000Y-125670000D02*
X159960000Y-128670000D01*
X159960000Y-122170000D02*
X159960000Y-125170000D01*
X159960000Y-118670000D02*
X159960000Y-121670000D01*
X159960000Y-115170000D02*
X159960000Y-118170000D01*
X153710000Y-115170000D02*
G75*
G02X153710000Y-118170000I-1500000J-1500000D01*
G01*
X153710000Y-118670000D02*
G75*
G02X153710000Y-121670000I-1500000J-1500000D01*
G01*
X153710000Y-122170000D02*
G75*
G02X153710000Y-125170000I-1500000J-1500000D01*
G01*
X153710000Y-125670000D02*
G75*
G02X153710000Y-128670000I-1500000J-1500000D01*
G01*
X153710000Y-115170000D02*
X158710000Y-115170000D01*
X153710000Y-128670000D02*
X158710000Y-128670000D01*
X153710000Y-118170000D02*
X158710000Y-118170000D01*
X153710000Y-118670000D02*
X158710000Y-118670000D01*
X153710000Y-125170000D02*
X158710000Y-125170000D01*
X153710000Y-125670000D02*
X158710000Y-125670000D01*
X153710000Y-121670000D02*
X158710000Y-121670000D01*
X153710000Y-122170000D02*
X158710000Y-122170000D01*
X153210000Y-114220000D02*
X160460000Y-114220000D01*
X160460000Y-129620000D02*
X160460000Y-114220000D01*
X153210000Y-129620000D02*
X160460000Y-129620000D01*
X153210000Y-129620000D02*
X153210000Y-114220000D01*
D12*
G04 #@! TO.C,U1*
X125190000Y-94520000D02*
X121190000Y-94520000D01*
X125190000Y-98520000D02*
X125190000Y-94520000D01*
X121190000Y-98520000D02*
X125190000Y-98520000D01*
X121190000Y-94520000D02*
X121190000Y-98520000D01*
G04 #@! TO.C,U6*
X125190000Y-104680000D02*
X121190000Y-104680000D01*
X125190000Y-108680000D02*
X125190000Y-104680000D01*
X121190000Y-108680000D02*
X125190000Y-108680000D01*
X121190000Y-104680000D02*
X121190000Y-108680000D01*
G04 #@! TO.C,U11*
X125190000Y-114840000D02*
X121190000Y-114840000D01*
X125190000Y-118840000D02*
X125190000Y-114840000D01*
X121190000Y-118840000D02*
X125190000Y-118840000D01*
X121190000Y-114840000D02*
X121190000Y-118840000D01*
D10*
G04 #@! TO.C,MH1*
X183515500Y-128588000D02*
G75*
G03X183515500Y-128588000I-4127500J0D01*
G01*
G04 #@! TO.C,MH2*
X129539500Y-128588000D02*
G75*
G03X129539500Y-128588000I-4127500J0D01*
G01*
G04 #@! TO.C,MH3*
X129539500Y-74612500D02*
G75*
G03X129539500Y-74612500I-4127500J0D01*
G01*
G04 #@! TO.C,MH4*
X183515500Y-74612500D02*
G75*
G03X183515500Y-74612500I-4127500J0D01*
G01*
G04 #@! TD*
G04 #@! TO.C,T1*
D13*
X160903619Y-78115904D02*
X160903619Y-78696476D01*
X161919619Y-78406190D02*
X160903619Y-78406190D01*
X161919619Y-79567333D02*
X161919619Y-78986761D01*
X161919619Y-79277047D02*
X160903619Y-79277047D01*
X161048761Y-79180285D01*
X161145523Y-79083523D01*
X161193904Y-78986761D01*
D14*
X150306761Y-66027238D02*
X150113238Y-66027238D01*
X149919714Y-66124000D01*
X149822952Y-66220761D01*
X149726190Y-66414285D01*
X149629428Y-66801333D01*
X149629428Y-67285142D01*
X149726190Y-67672190D01*
X149822952Y-67865714D01*
X149919714Y-67962476D01*
X150113238Y-68059238D01*
X150306761Y-68059238D01*
X150500285Y-67962476D01*
X150597047Y-67865714D01*
X150693809Y-67672190D01*
X150790571Y-67285142D01*
X150790571Y-66801333D01*
X150693809Y-66414285D01*
X150597047Y-66220761D01*
X150500285Y-66124000D01*
X150306761Y-66027238D01*
D13*
X152379333Y-66269142D02*
X152379333Y-66752952D01*
X152669619Y-66172380D02*
X151653619Y-66511047D01*
X152669619Y-66849714D01*
X152282571Y-67188380D02*
X152282571Y-67962476D01*
X152669619Y-67575428D02*
X151895523Y-67575428D01*
X152379333Y-69769142D02*
X152379333Y-70252952D01*
X152669619Y-69672380D02*
X151653619Y-70011047D01*
X152669619Y-70349714D01*
X152282571Y-70688380D02*
X152282571Y-71462476D01*
X152137428Y-73583619D02*
X152185809Y-73728761D01*
X152234190Y-73777142D01*
X152330952Y-73825523D01*
X152476095Y-73825523D01*
X152572857Y-73777142D01*
X152621238Y-73728761D01*
X152669619Y-73632000D01*
X152669619Y-73244952D01*
X151653619Y-73244952D01*
X151653619Y-73583619D01*
X151702000Y-73680380D01*
X151750380Y-73728761D01*
X151847142Y-73777142D01*
X151943904Y-73777142D01*
X152040666Y-73728761D01*
X152089047Y-73680380D01*
X152137428Y-73583619D01*
X152137428Y-73244952D01*
X152282571Y-74260952D02*
X152282571Y-75035047D01*
X152669619Y-74648000D02*
X151895523Y-74648000D01*
X152137428Y-77083619D02*
X152185809Y-77228761D01*
X152234190Y-77277142D01*
X152330952Y-77325523D01*
X152476095Y-77325523D01*
X152572857Y-77277142D01*
X152621238Y-77228761D01*
X152669619Y-77132000D01*
X152669619Y-76744952D01*
X151653619Y-76744952D01*
X151653619Y-77083619D01*
X151702000Y-77180380D01*
X151750380Y-77228761D01*
X151847142Y-77277142D01*
X151943904Y-77277142D01*
X152040666Y-77228761D01*
X152089047Y-77180380D01*
X152137428Y-77083619D01*
X152137428Y-76744952D01*
X152282571Y-77760952D02*
X152282571Y-78535047D01*
G04 #@! TO.C,T2*
X173603619Y-78115904D02*
X173603619Y-78696476D01*
X174619619Y-78406190D02*
X173603619Y-78406190D01*
X173700380Y-78986761D02*
X173652000Y-79035142D01*
X173603619Y-79131904D01*
X173603619Y-79373809D01*
X173652000Y-79470571D01*
X173700380Y-79518952D01*
X173797142Y-79567333D01*
X173893904Y-79567333D01*
X174039047Y-79518952D01*
X174619619Y-78938380D01*
X174619619Y-79567333D01*
D14*
X174329428Y-68059238D02*
X175490571Y-68059238D01*
X174910000Y-68059238D02*
X174910000Y-66027238D01*
X175103523Y-66317523D01*
X175297047Y-66511047D01*
X175490571Y-66607809D01*
D13*
X165079333Y-66269142D02*
X165079333Y-66752952D01*
X165369619Y-66172380D02*
X164353619Y-66511047D01*
X165369619Y-66849714D01*
X164982571Y-67188380D02*
X164982571Y-67962476D01*
X165369619Y-67575428D02*
X164595523Y-67575428D01*
X165079333Y-69769142D02*
X165079333Y-70252952D01*
X165369619Y-69672380D02*
X164353619Y-70011047D01*
X165369619Y-70349714D01*
X164982571Y-70688380D02*
X164982571Y-71462476D01*
X164837428Y-73583619D02*
X164885809Y-73728761D01*
X164934190Y-73777142D01*
X165030952Y-73825523D01*
X165176095Y-73825523D01*
X165272857Y-73777142D01*
X165321238Y-73728761D01*
X165369619Y-73632000D01*
X165369619Y-73244952D01*
X164353619Y-73244952D01*
X164353619Y-73583619D01*
X164402000Y-73680380D01*
X164450380Y-73728761D01*
X164547142Y-73777142D01*
X164643904Y-73777142D01*
X164740666Y-73728761D01*
X164789047Y-73680380D01*
X164837428Y-73583619D01*
X164837428Y-73244952D01*
X164982571Y-74260952D02*
X164982571Y-75035047D01*
X165369619Y-74648000D02*
X164595523Y-74648000D01*
X164837428Y-77083619D02*
X164885809Y-77228761D01*
X164934190Y-77277142D01*
X165030952Y-77325523D01*
X165176095Y-77325523D01*
X165272857Y-77277142D01*
X165321238Y-77228761D01*
X165369619Y-77132000D01*
X165369619Y-76744952D01*
X164353619Y-76744952D01*
X164353619Y-77083619D01*
X164402000Y-77180380D01*
X164450380Y-77228761D01*
X164547142Y-77277142D01*
X164643904Y-77277142D01*
X164740666Y-77228761D01*
X164789047Y-77180380D01*
X164837428Y-77083619D01*
X164837428Y-76744952D01*
X164982571Y-77760952D02*
X164982571Y-78535047D01*
G04 #@! TO.C,T3*
X160903619Y-94625904D02*
X160903619Y-95206476D01*
X161919619Y-94916190D02*
X160903619Y-94916190D01*
X160903619Y-95448380D02*
X160903619Y-96077333D01*
X161290666Y-95738666D01*
X161290666Y-95883809D01*
X161339047Y-95980571D01*
X161387428Y-96028952D01*
X161484190Y-96077333D01*
X161726095Y-96077333D01*
X161822857Y-96028952D01*
X161871238Y-95980571D01*
X161919619Y-95883809D01*
X161919619Y-95593523D01*
X161871238Y-95496761D01*
X161822857Y-95448380D01*
D14*
X150790571Y-82730761D02*
X150693809Y-82634000D01*
X150500285Y-82537238D01*
X150016476Y-82537238D01*
X149822952Y-82634000D01*
X149726190Y-82730761D01*
X149629428Y-82924285D01*
X149629428Y-83117809D01*
X149726190Y-83408095D01*
X150887333Y-84569238D01*
X149629428Y-84569238D01*
D13*
X152379333Y-82779142D02*
X152379333Y-83262952D01*
X152669619Y-82682380D02*
X151653619Y-83021047D01*
X152669619Y-83359714D01*
X152282571Y-83698380D02*
X152282571Y-84472476D01*
X152669619Y-84085428D02*
X151895523Y-84085428D01*
X152379333Y-86279142D02*
X152379333Y-86762952D01*
X152669619Y-86182380D02*
X151653619Y-86521047D01*
X152669619Y-86859714D01*
X152282571Y-87198380D02*
X152282571Y-87972476D01*
X152137428Y-90093619D02*
X152185809Y-90238761D01*
X152234190Y-90287142D01*
X152330952Y-90335523D01*
X152476095Y-90335523D01*
X152572857Y-90287142D01*
X152621238Y-90238761D01*
X152669619Y-90142000D01*
X152669619Y-89754952D01*
X151653619Y-89754952D01*
X151653619Y-90093619D01*
X151702000Y-90190380D01*
X151750380Y-90238761D01*
X151847142Y-90287142D01*
X151943904Y-90287142D01*
X152040666Y-90238761D01*
X152089047Y-90190380D01*
X152137428Y-90093619D01*
X152137428Y-89754952D01*
X152282571Y-90770952D02*
X152282571Y-91545047D01*
X152669619Y-91158000D02*
X151895523Y-91158000D01*
X152137428Y-93593619D02*
X152185809Y-93738761D01*
X152234190Y-93787142D01*
X152330952Y-93835523D01*
X152476095Y-93835523D01*
X152572857Y-93787142D01*
X152621238Y-93738761D01*
X152669619Y-93642000D01*
X152669619Y-93254952D01*
X151653619Y-93254952D01*
X151653619Y-93593619D01*
X151702000Y-93690380D01*
X151750380Y-93738761D01*
X151847142Y-93787142D01*
X151943904Y-93787142D01*
X152040666Y-93738761D01*
X152089047Y-93690380D01*
X152137428Y-93593619D01*
X152137428Y-93254952D01*
X152282571Y-94270952D02*
X152282571Y-95045047D01*
G04 #@! TO.C,T4*
X173603619Y-94625904D02*
X173603619Y-95206476D01*
X174619619Y-94916190D02*
X173603619Y-94916190D01*
X173942285Y-95980571D02*
X174619619Y-95980571D01*
X173555238Y-95738666D02*
X174280952Y-95496761D01*
X174280952Y-96125714D01*
D14*
X175587333Y-82537238D02*
X174329428Y-82537238D01*
X175006761Y-83311333D01*
X174716476Y-83311333D01*
X174522952Y-83408095D01*
X174426190Y-83504857D01*
X174329428Y-83698380D01*
X174329428Y-84182190D01*
X174426190Y-84375714D01*
X174522952Y-84472476D01*
X174716476Y-84569238D01*
X175297047Y-84569238D01*
X175490571Y-84472476D01*
X175587333Y-84375714D01*
D13*
X165079333Y-82779142D02*
X165079333Y-83262952D01*
X165369619Y-82682380D02*
X164353619Y-83021047D01*
X165369619Y-83359714D01*
X164982571Y-83698380D02*
X164982571Y-84472476D01*
X165369619Y-84085428D02*
X164595523Y-84085428D01*
X165079333Y-86279142D02*
X165079333Y-86762952D01*
X165369619Y-86182380D02*
X164353619Y-86521047D01*
X165369619Y-86859714D01*
X164982571Y-87198380D02*
X164982571Y-87972476D01*
X164837428Y-90093619D02*
X164885809Y-90238761D01*
X164934190Y-90287142D01*
X165030952Y-90335523D01*
X165176095Y-90335523D01*
X165272857Y-90287142D01*
X165321238Y-90238761D01*
X165369619Y-90142000D01*
X165369619Y-89754952D01*
X164353619Y-89754952D01*
X164353619Y-90093619D01*
X164402000Y-90190380D01*
X164450380Y-90238761D01*
X164547142Y-90287142D01*
X164643904Y-90287142D01*
X164740666Y-90238761D01*
X164789047Y-90190380D01*
X164837428Y-90093619D01*
X164837428Y-89754952D01*
X164982571Y-90770952D02*
X164982571Y-91545047D01*
X165369619Y-91158000D02*
X164595523Y-91158000D01*
X164837428Y-93593619D02*
X164885809Y-93738761D01*
X164934190Y-93787142D01*
X165030952Y-93835523D01*
X165176095Y-93835523D01*
X165272857Y-93787142D01*
X165321238Y-93738761D01*
X165369619Y-93642000D01*
X165369619Y-93254952D01*
X164353619Y-93254952D01*
X164353619Y-93593619D01*
X164402000Y-93690380D01*
X164450380Y-93738761D01*
X164547142Y-93787142D01*
X164643904Y-93787142D01*
X164740666Y-93738761D01*
X164789047Y-93690380D01*
X164837428Y-93593619D01*
X164837428Y-93254952D01*
X164982571Y-94270952D02*
X164982571Y-95045047D01*
G04 #@! TO.C,T5*
X160903619Y-111135904D02*
X160903619Y-111716476D01*
X161919619Y-111426190D02*
X160903619Y-111426190D01*
X160903619Y-112538952D02*
X160903619Y-112055142D01*
X161387428Y-112006761D01*
X161339047Y-112055142D01*
X161290666Y-112151904D01*
X161290666Y-112393809D01*
X161339047Y-112490571D01*
X161387428Y-112538952D01*
X161484190Y-112587333D01*
X161726095Y-112587333D01*
X161822857Y-112538952D01*
X161871238Y-112490571D01*
X161919619Y-112393809D01*
X161919619Y-112151904D01*
X161871238Y-112055142D01*
X161822857Y-112006761D01*
D14*
X149822952Y-99724571D02*
X149822952Y-101079238D01*
X150306761Y-98950476D02*
X150790571Y-100401904D01*
X149532666Y-100401904D01*
D13*
X152379333Y-99289142D02*
X152379333Y-99772952D01*
X152669619Y-99192380D02*
X151653619Y-99531047D01*
X152669619Y-99869714D01*
X152282571Y-100208380D02*
X152282571Y-100982476D01*
X152669619Y-100595428D02*
X151895523Y-100595428D01*
X152379333Y-102789142D02*
X152379333Y-103272952D01*
X152669619Y-102692380D02*
X151653619Y-103031047D01*
X152669619Y-103369714D01*
X152282571Y-103708380D02*
X152282571Y-104482476D01*
X152137428Y-106603619D02*
X152185809Y-106748761D01*
X152234190Y-106797142D01*
X152330952Y-106845523D01*
X152476095Y-106845523D01*
X152572857Y-106797142D01*
X152621238Y-106748761D01*
X152669619Y-106652000D01*
X152669619Y-106264952D01*
X151653619Y-106264952D01*
X151653619Y-106603619D01*
X151702000Y-106700380D01*
X151750380Y-106748761D01*
X151847142Y-106797142D01*
X151943904Y-106797142D01*
X152040666Y-106748761D01*
X152089047Y-106700380D01*
X152137428Y-106603619D01*
X152137428Y-106264952D01*
X152282571Y-107280952D02*
X152282571Y-108055047D01*
X152669619Y-107668000D02*
X151895523Y-107668000D01*
X152137428Y-110103619D02*
X152185809Y-110248761D01*
X152234190Y-110297142D01*
X152330952Y-110345523D01*
X152476095Y-110345523D01*
X152572857Y-110297142D01*
X152621238Y-110248761D01*
X152669619Y-110152000D01*
X152669619Y-109764952D01*
X151653619Y-109764952D01*
X151653619Y-110103619D01*
X151702000Y-110200380D01*
X151750380Y-110248761D01*
X151847142Y-110297142D01*
X151943904Y-110297142D01*
X152040666Y-110248761D01*
X152089047Y-110200380D01*
X152137428Y-110103619D01*
X152137428Y-109764952D01*
X152282571Y-110780952D02*
X152282571Y-111555047D01*
G04 #@! TO.C,T6*
X173603619Y-111135904D02*
X173603619Y-111716476D01*
X174619619Y-111426190D02*
X173603619Y-111426190D01*
X173603619Y-112490571D02*
X173603619Y-112297047D01*
X173652000Y-112200285D01*
X173700380Y-112151904D01*
X173845523Y-112055142D01*
X174039047Y-112006761D01*
X174426095Y-112006761D01*
X174522857Y-112055142D01*
X174571238Y-112103523D01*
X174619619Y-112200285D01*
X174619619Y-112393809D01*
X174571238Y-112490571D01*
X174522857Y-112538952D01*
X174426095Y-112587333D01*
X174184190Y-112587333D01*
X174087428Y-112538952D01*
X174039047Y-112490571D01*
X173990666Y-112393809D01*
X173990666Y-112200285D01*
X174039047Y-112103523D01*
X174087428Y-112055142D01*
X174184190Y-112006761D01*
D14*
X174426190Y-99047238D02*
X175393809Y-99047238D01*
X175490571Y-100014857D01*
X175393809Y-99918095D01*
X175200285Y-99821333D01*
X174716476Y-99821333D01*
X174522952Y-99918095D01*
X174426190Y-100014857D01*
X174329428Y-100208380D01*
X174329428Y-100692190D01*
X174426190Y-100885714D01*
X174522952Y-100982476D01*
X174716476Y-101079238D01*
X175200285Y-101079238D01*
X175393809Y-100982476D01*
X175490571Y-100885714D01*
D13*
X165079333Y-99289142D02*
X165079333Y-99772952D01*
X165369619Y-99192380D02*
X164353619Y-99531047D01*
X165369619Y-99869714D01*
X164982571Y-100208380D02*
X164982571Y-100982476D01*
X165369619Y-100595428D02*
X164595523Y-100595428D01*
X165079333Y-102789142D02*
X165079333Y-103272952D01*
X165369619Y-102692380D02*
X164353619Y-103031047D01*
X165369619Y-103369714D01*
X164982571Y-103708380D02*
X164982571Y-104482476D01*
X164837428Y-106603619D02*
X164885809Y-106748761D01*
X164934190Y-106797142D01*
X165030952Y-106845523D01*
X165176095Y-106845523D01*
X165272857Y-106797142D01*
X165321238Y-106748761D01*
X165369619Y-106652000D01*
X165369619Y-106264952D01*
X164353619Y-106264952D01*
X164353619Y-106603619D01*
X164402000Y-106700380D01*
X164450380Y-106748761D01*
X164547142Y-106797142D01*
X164643904Y-106797142D01*
X164740666Y-106748761D01*
X164789047Y-106700380D01*
X164837428Y-106603619D01*
X164837428Y-106264952D01*
X164982571Y-107280952D02*
X164982571Y-108055047D01*
X165369619Y-107668000D02*
X164595523Y-107668000D01*
X164837428Y-110103619D02*
X164885809Y-110248761D01*
X164934190Y-110297142D01*
X165030952Y-110345523D01*
X165176095Y-110345523D01*
X165272857Y-110297142D01*
X165321238Y-110248761D01*
X165369619Y-110152000D01*
X165369619Y-109764952D01*
X164353619Y-109764952D01*
X164353619Y-110103619D01*
X164402000Y-110200380D01*
X164450380Y-110248761D01*
X164547142Y-110297142D01*
X164643904Y-110297142D01*
X164740666Y-110248761D01*
X164789047Y-110200380D01*
X164837428Y-110103619D01*
X164837428Y-109764952D01*
X164982571Y-110780952D02*
X164982571Y-111555047D01*
G04 #@! TO.C,T7*
X160903619Y-127645904D02*
X160903619Y-128226476D01*
X161919619Y-127936190D02*
X160903619Y-127936190D01*
X160903619Y-128468380D02*
X160903619Y-129145714D01*
X161919619Y-128710285D01*
D14*
X149822952Y-115557238D02*
X150210000Y-115557238D01*
X150403523Y-115654000D01*
X150500285Y-115750761D01*
X150693809Y-116041047D01*
X150790571Y-116428095D01*
X150790571Y-117202190D01*
X150693809Y-117395714D01*
X150597047Y-117492476D01*
X150403523Y-117589238D01*
X150016476Y-117589238D01*
X149822952Y-117492476D01*
X149726190Y-117395714D01*
X149629428Y-117202190D01*
X149629428Y-116718380D01*
X149726190Y-116524857D01*
X149822952Y-116428095D01*
X150016476Y-116331333D01*
X150403523Y-116331333D01*
X150597047Y-116428095D01*
X150693809Y-116524857D01*
X150790571Y-116718380D01*
D13*
X152379333Y-115799142D02*
X152379333Y-116282952D01*
X152669619Y-115702380D02*
X151653619Y-116041047D01*
X152669619Y-116379714D01*
X152282571Y-116718380D02*
X152282571Y-117492476D01*
X152669619Y-117105428D02*
X151895523Y-117105428D01*
X152379333Y-119299142D02*
X152379333Y-119782952D01*
X152669619Y-119202380D02*
X151653619Y-119541047D01*
X152669619Y-119879714D01*
X152282571Y-120218380D02*
X152282571Y-120992476D01*
X152137428Y-123113619D02*
X152185809Y-123258761D01*
X152234190Y-123307142D01*
X152330952Y-123355523D01*
X152476095Y-123355523D01*
X152572857Y-123307142D01*
X152621238Y-123258761D01*
X152669619Y-123162000D01*
X152669619Y-122774952D01*
X151653619Y-122774952D01*
X151653619Y-123113619D01*
X151702000Y-123210380D01*
X151750380Y-123258761D01*
X151847142Y-123307142D01*
X151943904Y-123307142D01*
X152040666Y-123258761D01*
X152089047Y-123210380D01*
X152137428Y-123113619D01*
X152137428Y-122774952D01*
X152282571Y-123790952D02*
X152282571Y-124565047D01*
X152669619Y-124178000D02*
X151895523Y-124178000D01*
X152137428Y-126613619D02*
X152185809Y-126758761D01*
X152234190Y-126807142D01*
X152330952Y-126855523D01*
X152476095Y-126855523D01*
X152572857Y-126807142D01*
X152621238Y-126758761D01*
X152669619Y-126662000D01*
X152669619Y-126274952D01*
X151653619Y-126274952D01*
X151653619Y-126613619D01*
X151702000Y-126710380D01*
X151750380Y-126758761D01*
X151847142Y-126807142D01*
X151943904Y-126807142D01*
X152040666Y-126758761D01*
X152089047Y-126710380D01*
X152137428Y-126613619D01*
X152137428Y-126274952D01*
X152282571Y-127290952D02*
X152282571Y-128065047D01*
G04 #@! TD*
%LPC*%
D15*
G04 #@! TO.C,T1*
X156210000Y-67140000D03*
X156210000Y-77640000D03*
X156210000Y-74140000D03*
X156210000Y-70640000D03*
G04 #@! TD*
G04 #@! TO.C,T2*
X168910000Y-67140000D03*
X168910000Y-77640000D03*
X168910000Y-74140000D03*
X168910000Y-70640000D03*
G04 #@! TD*
G04 #@! TO.C,T3*
X156210000Y-83650000D03*
X156210000Y-94150000D03*
X156210000Y-90650000D03*
X156210000Y-87150000D03*
G04 #@! TD*
G04 #@! TO.C,T4*
X168910000Y-83650000D03*
X168910000Y-94150000D03*
X168910000Y-90650000D03*
X168910000Y-87150000D03*
G04 #@! TD*
G04 #@! TO.C,T5*
X156210000Y-100160000D03*
X156210000Y-110660000D03*
X156210000Y-107160000D03*
X156210000Y-103660000D03*
G04 #@! TD*
G04 #@! TO.C,T6*
X168910000Y-100160000D03*
X168910000Y-110660000D03*
X168910000Y-107160000D03*
X168910000Y-103660000D03*
G04 #@! TD*
G04 #@! TO.C,T7*
X156210000Y-116670000D03*
X156210000Y-127170000D03*
X156210000Y-123670000D03*
X156210000Y-120170000D03*
G04 #@! TD*
D16*
G04 #@! TO.C,U3*
X162560000Y-72390000D03*
G04 #@! TD*
G04 #@! TO.C,U4*
X185420000Y-88900000D03*
G04 #@! TD*
G04 #@! TO.C,U8*
X175260000Y-88900000D03*
G04 #@! TD*
G04 #@! TO.C,U10*
X175260000Y-105410000D03*
G04 #@! TD*
G04 #@! TO.C,U5*
X162560000Y-88900000D03*
G04 #@! TD*
G04 #@! TO.C,U9*
X162560000Y-105410000D03*
G04 #@! TD*
G04 #@! TO.C,U13*
X185420000Y-105410000D03*
G04 #@! TD*
D17*
G04 #@! TO.C,U1*
X123190000Y-96520000D03*
G04 #@! TD*
G04 #@! TO.C,U6*
X123190000Y-106680000D03*
G04 #@! TD*
G04 #@! TO.C,U11*
X123190000Y-116840000D03*
G04 #@! TD*
D18*
G04 #@! TO.C,P1*
X161000000Y-126270000D03*
X169200000Y-126270000D03*
D19*
X165100000Y-128270000D03*
G04 #@! TD*
D20*
G04 #@! TO.C,TEENSY1*
X147320000Y-86360000D03*
X147320000Y-88900000D03*
D21*
X132080000Y-88900000D03*
D20*
X132080000Y-124460000D03*
X132080000Y-121920000D03*
X132080000Y-119380000D03*
X132080000Y-116840000D03*
X132080000Y-114300000D03*
X132080000Y-111760000D03*
X132080000Y-109220000D03*
X132080000Y-106680000D03*
X132080000Y-104140000D03*
X132080000Y-101600000D03*
X132080000Y-99060000D03*
X132080000Y-96520000D03*
X132080000Y-93980000D03*
X132080000Y-91440000D03*
X147320000Y-91440000D03*
X147320000Y-93980000D03*
X147320000Y-96520000D03*
X147320000Y-99060000D03*
X147320000Y-101600000D03*
X147320000Y-104140000D03*
X147320000Y-106680000D03*
X147320000Y-109220000D03*
X147320000Y-111760000D03*
X147320000Y-114300000D03*
X147320000Y-116840000D03*
X147320000Y-119380000D03*
X147320000Y-121920000D03*
D21*
X147320000Y-124460000D03*
D20*
X147320000Y-83820000D03*
X147320000Y-81280000D03*
X147320000Y-78740000D03*
X147320000Y-76200000D03*
X147320000Y-73660000D03*
X147320000Y-71120000D03*
X147320000Y-68580000D03*
X147320000Y-66040000D03*
X132080000Y-66040000D03*
X132080000Y-68580000D03*
X132080000Y-71120000D03*
X132080000Y-73660000D03*
X132080000Y-76200000D03*
X132080000Y-78740000D03*
X132080000Y-81280000D03*
X132080000Y-83820000D03*
X132080000Y-86360000D03*
G04 #@! TD*
D22*
G04 #@! TO.C,MH1*
X179388000Y-128588000D03*
G04 #@! TD*
G04 #@! TO.C,MH2*
X125412000Y-128588000D03*
G04 #@! TD*
G04 #@! TO.C,MH3*
X125412000Y-74612500D03*
G04 #@! TD*
G04 #@! TO.C,MH4*
X179388000Y-74612500D03*
G04 #@! TD*
D23*
G04 #@! TO.C,L1*
X153670000Y-136525000D03*
X153670000Y-131445000D03*
G04 #@! TD*
G04 #@! TO.C,L2*
X151130000Y-136525000D03*
X151130000Y-131445000D03*
G04 #@! TD*
M02*
